<?xml version="1.0" encoding="UTF-8"?>
<svg width="24px" height="24px" viewBox="0 0 24 24" version="1.1" xmlns="http://www.w3.org/2000/svg" xmlns:xlink="http://www.w3.org/1999/xlink">
    <!-- Generator: Sketch 42 (36781) - http://www.bohemiancoding.com/sketch -->
    <title>calendar</title>
    <desc>Created with Sketch.</desc>
    <defs></defs>
    <g id="Customer-New" stroke="none" stroke-width="1" fill="none" fill-rule="evenodd">
        <g id="calendar">
            <g id="Group-11-Copy">
                <rect id="Rectangle-6" x="0" y="0" width="24" height="24"></rect>
                <path d="M21.8389155,4.37469327 C21.7347257,4.26941756 21.5968205,4.21031961 21.4495499,4.21031961 L20.0939113,4.21031961 C19.7900048,4.21031961 19.5436953,4.46202425 19.5436953,4.77234833 C19.5436953,5.08243314 19.7902389,5.33389852 20.0939113,5.33389852 L20.8993339,5.33389852 L20.8993339,9.0338611 L3.09949544,9.0338611 L3.09949544,5.33413778 L4.1685534,5.33413778 C4.47245993,5.33413778 4.71876939,5.0826724 4.71876939,4.77258759 C4.71876939,4.46202425 4.4722258,4.21055887 4.1685534,4.21055887 L2.54974772,4.21055887 C2.40481849,4.21055887 2.26363541,4.27085314 2.16038211,4.37493253 C2.05900188,4.47972971 2,4.62448381 2,4.77258759 L2,20.4384498 C2,20.5860751 2.05900188,20.7305899 2.16061624,20.8353871 C2.26363541,20.9404235 2.40481849,21 2.54974772,21 L21.4495499,21 C21.5965863,21 21.7347257,20.9418591 21.8389155,20.8353871 C21.9431053,20.7291543 22,20.5879892 22,20.4384498 L22,4.77258759 C22,4.62256971 21.9431053,4.48092603 21.8389155,4.37469327 Z M3.09949544,10.15744 L20.8993339,10.15744 L20.8993339,19.8761818 L3.09949544,19.8761818 L3.09949544,10.15744 Z M8.75594994,5.33413778 C8.45204341,5.33413778 8.20620222,5.08315093 8.20620222,4.77258759 C8.20620222,4.46226352 8.45204341,4.21031961 8.75594994,4.21031961 L15.6933541,4.21031961 C15.9972606,4.21031961 16.2438042,4.46202425 16.2438042,4.77258759 C16.2438042,5.08315093 15.9972606,5.33413778 15.6933541,5.33413778 L8.75594994,5.33413778 Z M6.3371068,6.45692177 C6.03390267,6.45692177 5.78735908,6.20545639 5.78735908,5.89465379 L5.78735908,3.56155019 C5.78735908,3.25170465 6.03366854,3 6.3371068,3 C6.6407792,3 6.88732279,3.25146538 6.88732279,3.56155019 L6.88732279,5.89489305 C6.88732279,6.20545639 6.64101333,6.45692177 6.3371068,6.45692177 Z M17.7937744,6.45716103 C17.4898678,6.45716103 17.2440266,6.20593491 17.2440266,5.89489305 L17.2440266,3.56202872 C17.2440266,3.25122612 17.4898678,3 17.7937744,3 C18.0969785,3 18.3435221,3.25122612 18.3435221,3.56202872 L18.3435221,5.89513232 C18.3435221,6.20593491 18.0972126,6.45716103 17.7937744,6.45716103 Z" id="Combined-Shape" fill="#505050" fill-rule="nonzero"></path>
            </g>
        </g>
    </g>
</svg>