<?xml version="1.0" encoding="UTF-8"?>
<svg width="54px" height="64px" viewBox="0 0 54 64" version="1.1" xmlns="http://www.w3.org/2000/svg" xmlns:xlink="http://www.w3.org/1999/xlink">
    <!-- Generator: Sketch 42 (36781) - http://www.bohemiancoding.com/sketch -->
    <title>call_graphic</title>
    <desc>Created with Sketch.</desc>
    <defs></defs>
    <g id="Customer-New" stroke="none" stroke-width="1" fill="none" fill-rule="evenodd">
        <g id="call_graphic">
            <g id="Group-29">
                <path d="M36.5762202,3.28766766 C39.3799103,3.75274589 40.9310956,5.74924993 41.5948077,8.45961905 C43.3233282,15.5140299 39.7054899,30.8140066 27.1812378,30.9963537 C20.7234453,31.0903215 16.0712842,29.3846207 14.3766367,23.9545685 C12.68179,18.5247232 11.9861974,9.7745465 15.6697892,4.8702169 C20.3044161,-1.29957255 30.0323503,-1.35731925 36.5762202,3.28766766" id="Fill-30" fill="#9B9B9B"></path>
                <path d="M21.6021911,39 C9.66803545,44.3380113 6.08849883,47.1836811 4.67303596,48.4614175 C2.49232642,50.4300795 1.28623114,57.7688359 0,64 L54,64 C52.7137689,57.7688359 51.5074707,50.4300795 49.3267612,48.4614175 C47.9119069,47.1836811 44.4630222,44.411078 32.5288666,39.0730667 L21.6021911,39" id="Fill-31" fill="#4C8FCE"></path>
                <path d="M33,28.4912867 L33,42.051059 C29.6997532,46.0519248 24.2998267,45.9134261 21,42.051059 L21,28.4912867 C21,21.1695711 33,21.1695711 33,28.4912867" id="Fill-32" fill="#E5E5E5"></path>
                <path d="M33,28.450949 L33,37.4625818 C30.7293209,39.0888249 28.5409905,40 26.999895,40 C25.4590095,40 23.2702589,39.0888249 21,37.4627882 L21,28.450949 C21,21.183017 33,21.183017 33,28.450949" id="Fill-33" fill="#000000" opacity="0.2"></path>
                <path d="M27.4998233,4 C7.97281913,4 14.9956229,27.5702076 16.2707927,29.4463985 C17.677146,31.5154993 24.3448986,37 27.4998233,37 C30.654748,37 37.3222969,31.5157028 38.7290576,29.4463985 C40.0046348,27.5700041 47.0270312,4 27.4998233,4" id="Fill-34" fill="#E5E5E5"></path>
                <path d="M12.0107754,17.0623118 C12.9699099,16.7011458 14.1911467,17.9467868 14.7374795,19.8453638 C15.2843845,21.7439407 14.9490308,23.5761766 13.9893241,23.9375609 C13.0299988,24.2991635 11.808762,23.0533042 11.2624292,21.1547272 C10.7157149,19.2563685 11.0508779,17.4241326 12.0107754,17.0623118" id="Fill-37" fill="#E5E5E5"></path>
                <path d="M41.9893793,17.062381 C41.029725,16.7009885 39.8085549,17.9466577 39.262252,19.8452776 C38.715949,21.7438976 39.0507122,23.5761749 40.0103665,23.9375674 C40.9702115,24.2991781 42.1911909,23.0530724 42.7374938,21.1546707 C43.284369,19.256269 42.9490336,17.4239917 41.9893793,17.062381" id="Fill-38" fill="#E5E5E5"></path>
                <path d="M36.3967325,10.4321525 C33.0275404,12.593587 29.0200361,11.832727 30.5751094,9.94152392 C32.1301827,8.05011229 30.4208823,9.36874168 27.3785476,10.7520098 C24.3362129,12.1350693 20.837398,11.9054977 22.9103623,10.7347033 C25.4250043,9.31536262 15.6094793,8.38519095 13.8139637,23 C10.9348577,12.4007135 15.795912,3.52519509 26.7742414,3.02143029 C38.4987019,2.48346953 43.2465363,12.1567546 40.0049666,22.685147 C40.2180041,16.9813034 38.8957717,13.249357 36.3967325,10.4321525" id="Fill-39" fill="#9B9B9B"></path>
                <polyline id="Fill-40" fill="#FFFFFF" points="20.921098 38.7999992 17 41.1337131 22.6859405 49.7999992 27 45.3000863 20.921098 38.7999992"></polyline>
                <polyline id="Fill-41" fill="#FFFFFF" points="33.0785149 38.7999992 37 41.1337131 31.3140595 49.7999992 27 45.3000863 33.0785149 38.7999992"></polyline>
                <path d="M11,64 L11.9222472,64 C11.8809888,59.931871 11.8809888,57 11.8809888,57 C11.8809888,57 11.4728539,60.0470824 11,64" id="Fill-44" fill="#000000" opacity="0.2"></path>
                <path d="M42.9222472,64 L42,64 C42.0410562,59.931871 42.0410562,57 42.0410562,57 C42.0410562,57 42.4493933,60.0470824 42.9222472,64" id="Fill-45" fill="#000000" opacity="0.2"></path>
                <path d="M13.1580545,15.3342727 C12.8568729,15.1925958 12.6448823,15.1189257 12.3044848,15.0371699 C12.3044848,15.0371699 11.5730144,14.876021 10.5443365,15.2248051 C9.24440428,15.7232715 8.17632847,17.056176 8.01479727,20.2074356 C7.80185187,24.3603055 9.92244135,26.1162252 12.1068554,26.4229112 C12.4968941,26.4776184 13.5588633,26.5610012 14.0024831,26.4755847 C14.6663369,27.2882619 16.756787,29.5660359 20.1952347,30.8192183 C20.4406834,31.4950257 21.4080977,32 22.5667885,32 C23.9104524,32 25,31.321142 25,30.4836534 C25,29.6461647 23.9104524,28.9673067 22.5667885,28.9673067 C21.6107996,28.9673067 20.7862025,29.3116166 20.3880872,29.8113033 C17.3644989,28.6671286 15.455082,26.647638 14.8101391,25.8823466 C13.7588074,23.6257235 13.600625,20.3156298 13.8490284,18.4289416 C13.9372796,17.7588286 13.9940126,17.1875548 14.0938861,16.5406263 C14.0999928,16.501172 14.2824968,15.8388872 13.7470564,15.6458669" id="Fill-46" fill="#404040"></path>
            </g>
        </g>
    </g>
</svg>