<?xml version="1.0" encoding="UTF-8"?>
<svg width="30px" height="30px" viewBox="0 0 30 30" version="1.1" xmlns="http://www.w3.org/2000/svg" xmlns:xlink="http://www.w3.org/1999/xlink">
    <!-- Generator: Sketch 42 (36781) - http://www.bohemiancoding.com/sketch -->
    <title>close</title>
    <desc>Created with Sketch.</desc>
    <defs></defs>
    <g id="Customer-New" stroke="none" stroke-width="1" fill="none" fill-rule="evenodd">
        <g id="close">
            <g id="Group-21">
                <rect id="Rectangle-8" x="0" y="0" width="30" height="30"></rect>
                <path d="M14.9999531,16.0273576 L22.7597845,23.787203 C22.9015805,23.929001 23.0875753,24 23.2733702,24 C23.459165,24 23.6451599,23.929201 23.7871559,23.787203 C24.070948,23.5038069 24.070948,23.0434133 23.7871559,22.7600172 L16.0272246,15.0000719 L23.7871559,7.24003278 C24.070948,6.95663671 24.070948,6.49624311 23.7871559,6.21284704 C23.5033638,5.92905099 23.0435766,5.92905099 22.7597845,6.21284704 L14.9999938,13.9728393 L7.24021555,6.21304704 C6.95642343,5.92925098 6.4966362,5.92925098 6.21284409,6.21304704 C5.92905197,6.4964431 5.92905197,6.95683671 6.21284409,7.24023277 L13.9727285,15.0001312 L6.21304408,22.7600172 C5.92925197,23.0434133 5.92925197,23.5038069 6.21304408,23.787203 C6.35484014,23.929001 6.54083498,24 6.72662982,24 C6.91242465,24 7.09841949,23.929201 7.24021555,23.787203 L14.9999531,16.0273576 Z" id="Combined-Shape" fill="#ffffff" fill-rule="nonzero"></path>
            </g>
        </g>
    </g>
</svg>
