<?xml version="1.0" encoding="UTF-8"?>
<svg width="93px" height="100px" viewBox="0 0 93 100" version="1.1" xmlns="http://www.w3.org/2000/svg" xmlns:xlink="http://www.w3.org/1999/xlink">
    <!-- Generator: Sketch 42 (36781) - http://www.bohemiancoding.com/sketch -->
    <title>diamond_graphic</title>
    <desc>Created with Sketch.</desc>
    <defs></defs>
    <g id="Customer-New" stroke="none" stroke-width="1" fill="none" fill-rule="evenodd">
        <g id="diamond_graphic" fill-rule="nonzero">
            <g id="Group-37-Copy" transform="translate(1.000000, 0.000000)">
                <path d="M90.6612409,54.8013245 L90.6612409,0 L0,0 L0,54.8013245 C0.300468322,79.5486565 20.5074085,99.4529004 45.3306204,99.4529004 C70.1538323,99.4529004 90.3607726,79.5486565 90.6612409,54.8013245 Z" id="Shape" fill="#D9D6CD"></path>
                <path d="M45.7180968,91.259014 C25.719417,91.237115 9.51276207,75.078817 9.49079755,55.1398087 L9.49079755,9.44444444 L81.9387538,9.44444444 L81.9387538,55.1398087 C81.9167964,75.0762351 65.7141826,91.2334665 45.7180968,91.259014 Z" id="Shape" fill="#C4BFA9"></path>
                <polygon id="Shape" fill="#E3E1DB" points="81.5545985 9.0794702 90.6612409 0 0 0 9.10664234 9.0794702"></polygon>
                <g id="diamond" transform="translate(23.447853, 34.444444)">
                    <polygon id="Shape" fill="#EFEBDF" points="34.0653653 12.0730697 22.3283882 34.2080038 44.6538762 10.1319209"></polygon>
                    <polygon id="Shape" fill="#EFEBDF" points="34.6802008 0 22.7170106 0 34.0653653 12.0730697"></polygon>
                    <polygon id="Shape" fill="#E9E5D9" points="22.3283882 14.2243879 22.3283882 34.2080038 34.0653653 12.0730697"></polygon>
                    <polygon id="Shape" fill="#D9D6CD" points="34.0653653 12.0730697 22.7170106 0 22.3283882 0 22.3283882 14.2243879"></polygon>
                    <polygon id="Shape" fill="#D9D6CD" points="10.5885109 12.0730697 22.3283882 34.2080038 22.3283882 14.2243879"></polygon>
                    <polygon id="Shape" fill="#E9E5D9" points="22.3283882 14.2243879 22.3283882 0 10.5885109 12.0730697"></polygon>
                    <polygon id="Shape" fill="#EFEBDF" points="22.3283882 0 9.9736754 0 10.5885109 12.0730697"></polygon>
                    <polygon id="Shape" fill="#EFEBDF" points="0 10.1319209 22.3283882 34.2080038 10.5885109 12.0730697"></polygon>
                    <polygon id="Shape-Copy-3" fill="#FFFFFF" points="44.6538762 10.1319209 34.6802008 0 34.0653653 12.0730697"></polygon>
                    <polygon id="Shape-Copy-2" fill="#FFFFFF" points="9.9736754 0 0 10.1319209 10.5885109 12.0730697"></polygon>
                </g>
            </g>
        </g>
    </g>
</svg>