<?xml version="1.0" encoding="UTF-8"?>
<svg width="199px" height="185px" viewBox="0 0 199 185" version="1.1" xmlns="http://www.w3.org/2000/svg" xmlns:xlink="http://www.w3.org/1999/xlink">
    <!-- Generator: Sketch 43.2 (39069) - http://www.bohemiancoding.com/sketch -->
    <title>doc_confirm</title>
    <desc>Created with Sketch.</desc>
    <defs></defs>
    <g id="add_patient" stroke="none" stroke-width="1" fill="none" fill-rule="evenodd">
        <g id="Add_patient_13" transform="translate(-620.000000, -211.000000)">
            <g id="doc_confirm" transform="translate(620.000000, 210.000000)">
                <g id="csv-copy-4" transform="translate(74.508009, 12.185185)">
                    <g id="Group-2">
                        <path d="M0,6.49276996 C0,2.90691213 2.90062112,0 6.49537976,0 L91.8510043,0 L124.269006,32.4407709 L124.269006,166.519076 C124.269006,170.108026 121.365105,173.017445 117.762731,173.017445 L6.50627495,173.017445 C2.91295852,173.017445 0,170.105017 0,166.524675 L0,6.49276996 Z" id="Rectangle-1" fill="#EEEEEE"></path>
                        <path d="M91.8726242,0 L124.290626,32.4407709 L98.3744254,32.4407709 C94.7835798,32.4407709 91.8726242,29.5333193 91.8726242,25.9538657 L91.8726242,0 Z" id="Rectangle-2" fill="#000000" opacity="0.2"></path>
                    </g>
                    <g id="Group-Copy" transform="translate(29.565217, 56.183908)" fill="#000000" opacity="0.2">
                        <rect id="Rectangle-3" x="0" y="0" width="66.5486522" height="4.16703986"></rect>
                        <rect id="Rectangle-3-Copy" x="0" y="10.8343036" width="66.5486522" height="1.66681595"></rect>
                        <rect id="Rectangle-3-Copy-2" x="0" y="15.0013435" width="66.5486522" height="1.66681595"></rect>
                        <rect id="Rectangle-3-Copy-3" x="0" y="19.1683834" width="33.2743261" height="1.66681595"></rect>
                        <rect id="Rectangle-3-Copy-6" x="0" y="24.1688312" width="66.5486522" height="1.66681595"></rect>
                        <rect id="Rectangle-3-Copy-5" x="0" y="28.3358711" width="66.5486522" height="1.66681595"></rect>
                        <rect id="Rectangle-3-Copy-4" x="0" y="32.5029109" width="33.2743261" height="1.66681595"></rect>
                        <rect id="Rectangle-3-Copy-9" x="0" y="37.5033588" width="66.5486522" height="1.66681595"></rect>
                        <rect id="Rectangle-3-Copy-8" x="0" y="41.6703986" width="66.5486522" height="1.66681595"></rect>
                        <rect id="Rectangle-3-Copy-7" x="0" y="45.8374385" width="33.2743261" height="1.66681595"></rect>
                        <rect id="Rectangle-3-Copy-12" x="0" y="50.8378863" width="66.5486522" height="1.66681595"></rect>
                        <rect id="Rectangle-3-Copy-11" x="0" y="55.0049262" width="66.5486522" height="1.66681595"></rect>
                        <rect id="Rectangle-3-Copy-13" x="0" y="59.1719661" width="66.5486522" height="1.66681595"></rect>
                    </g>
                </g>
                <g id="csv-copy" transform="translate(0.000000, 1.560664)">
                    <g id="Group-2">
                        <path d="M0,6.49276996 C0,2.90691213 2.90062112,0 6.49537976,0 L91.8510043,0 L124.269006,32.4407709 L124.269006,166.519076 C124.269006,170.108026 121.365105,173.017445 117.762731,173.017445 L6.50627495,173.017445 C2.91295852,173.017445 0,170.105017 0,166.524675 L0,6.49276996 Z" id="Rectangle-1" fill="#17B2D9"></path>
                        <path d="M91.8726242,0 L124.290626,32.4407709 L98.3744254,32.4407709 C94.7835798,32.4407709 91.8726242,29.5333193 91.8726242,25.9538657 L91.8726242,0 Z" id="Rectangle-2" fill="#000000" opacity="0.2"></path>
                    </g>
                    <g id="Group-Copy" transform="translate(29.565217, 56.183908)" fill="#000000" opacity="0.2">
                        <rect id="Rectangle-3" x="0" y="0" width="66.5486522" height="4.16703986"></rect>
                        <rect id="Rectangle-3-Copy" x="0" y="10.8343036" width="66.5486522" height="1.66681595"></rect>
                        <rect id="Rectangle-3-Copy-2" x="0" y="15.0013435" width="66.5486522" height="1.66681595"></rect>
                        <rect id="Rectangle-3-Copy-3" x="0" y="19.1683834" width="33.2743261" height="1.66681595"></rect>
                        <rect id="Rectangle-3-Copy-6" x="0" y="24.1688312" width="66.5486522" height="1.66681595"></rect>
                        <rect id="Rectangle-3-Copy-5" x="0" y="28.3358711" width="66.5486522" height="1.66681595"></rect>
                        <rect id="Rectangle-3-Copy-4" x="0" y="32.5029109" width="33.2743261" height="1.66681595"></rect>
                        <rect id="Rectangle-3-Copy-9" x="0" y="37.5033588" width="66.5486522" height="1.66681595"></rect>
                        <rect id="Rectangle-3-Copy-8" x="0" y="41.6703986" width="66.5486522" height="1.66681595"></rect>
                        <rect id="Rectangle-3-Copy-7" x="0" y="45.8374385" width="33.2743261" height="1.66681595"></rect>
                        <rect id="Rectangle-3-Copy-12" x="0" y="50.8378863" width="66.5486522" height="1.66681595"></rect>
                        <rect id="Rectangle-3-Copy-11" x="0" y="55.0049262" width="66.5486522" height="1.66681595"></rect>
                        <rect id="Rectangle-3-Copy-13" x="0" y="59.1719661" width="66.5486522" height="1.66681595"></rect>
                    </g>
                </g>
            </g>
        </g>
    </g>
</svg>