<?xml version="1.0" encoding="UTF-8"?>
<svg width="128px" height="128px" viewBox="0 0 128 128" version="1.1" xmlns="http://www.w3.org/2000/svg" xmlns:xlink="http://www.w3.org/1999/xlink">
    <!-- Generator: Sketch 44.1 (41455) - http://www.bohemiancoding.com/sketch -->
    <title>doc_regis</title>
    <desc>Created with Sketch.</desc>
    <defs></defs>
    <g id="PDP" stroke="none" stroke-width="1" fill="none" fill-rule="evenodd">
        <g id="pop_2" transform="translate(-656.000000, -311.000000)">
            <g id="Group" transform="translate(430.000000, 231.000000)">
                <g id="doc_regis" transform="translate(226.000000, 80.000000)">
                    <polygon id="Stroke-1" stroke-opacity="0.00784313771" stroke="#000000" stroke-width="1.33333335e-11" points="0 0 128.000001 0 128.000001 128.000001 0 128.000001"></polygon>
                    <path d="M128,64 C127.999992,72.4869232 126.376083,80.6508331 123.128273,88.4917373 C119.88047,96.3326339 115.255989,103.253662 109.254829,109.254829 C103.253662,115.255989 96.3326339,119.88047 88.4917373,123.128273 C80.6508331,126.376083 72.4869232,127.999992 64,128 C55.5130691,127.999992 47.3491554,126.376083 39.508255,123.128273 C31.6673564,119.88047 24.7463264,115.255989 18.7451648,109.254829 C12.7440004,103.253662 8.11951541,96.3326339 4.87170934,88.4917373 C1.62390303,80.6508331 0,72.4869232 0,64 C0,55.5130691 1.62390303,47.3491554 4.87170934,39.508255 C8.11951541,31.6673564 12.7440004,24.7463264 18.7451648,18.7451648 C24.7463264,12.7440004 31.6673564,8.11951541 39.508255,4.87170934 C47.3491554,1.62390303 55.5130691,0 64,0 C72.4869232,0 80.6508331,1.62390303 88.4917373,4.87170934 C96.3326339,8.11951541 103.253662,12.7440004 109.254829,18.7451648 C115.255989,24.7463264 119.88047,31.6673564 123.128273,39.508255 C126.376083,47.3491554 127.999992,55.5130691 128,64 Z" id="Fill-2" fill="#C2CDDC"></path>
                    <path d="M64.4000015,70.5 C64.3999938,74.9423751 63.7656555,79.2156677 62.4969825,83.3198776 C61.2283096,87.4240951 59.421875,91.0468215 57.077671,94.1880645 C54.7334632,97.3292922 52.0299339,99.749916 48.9670791,101.449943 C45.904232,103.149971 42.7152061,103.999992 39.4000015,104 C36.084793,103.999992 32.8957633,103.149971 29.8329105,101.449943 C26.7700614,99.749916 24.066534,97.3292922 21.72233,94.1880645 C19.3781242,91.0468215 17.5716857,87.4240951 16.3030109,83.3198776 C15.034337,79.2156677 14.4000005,74.9423751 14.4000015,70.5 C14.4000005,66.0576171 15.034337,61.7843208 16.3030109,57.6800994 C17.5716857,53.5758781 19.3781242,49.9531517 21.72233,46.8119201 C24.066534,43.6706809 26.7700614,41.2500534 29.8329124,39.5500297 C32.8957633,37.8500061 36.084793,36.9999961 39.4000015,37 C42.7152061,36.9999961 45.904232,37.8500061 48.9670791,39.5500297 C52.0299339,41.2500534 54.7334632,43.6706809 57.077671,46.8119201 C59.421875,49.9531517 61.2283096,53.5758781 62.4969825,57.6800994 C63.7656555,61.7843208 64.3999938,66.0576171 64.4000015,70.5 Z" id="Fill-3" fill="#76E2FF"></path>
                    <path d="M39.4000015,95 C26.7000007,95 16.3000011,82.4000015 14.6000022,66 C14.5000019,67.5 14.4000024,69 14.4000024,70.5 C14.4000024,89 25.6000022,104 39.4000015,104 C53.2000007,104 64.4000015,89 64.4000015,70.5 C64.4000015,69 64.300003,67.5 64.2000045,66 C62.5,82.4000015 52.0999984,95 39.4000015,95 Z" id="Fill-4" fill="#3AD0F9"></path>
                    <path d="M39.0999984,37 C39,37 38.8999977,37 38.7999992,37 C35.7999992,42.5 34.0999984,49.2000007 34.0999984,56.5 C34,75 45.2999992,90 59.2999992,90 C59.3999977,90 59.5,90 59.5999984,90 C62.5999984,84.5 64.2999954,77.800003 64.2999954,70.5 C64.4000015,52 53,37 39.0999984,37 Z" id="Fill-5" fill="#3AD0F9"></path>
                    <path d="M39.2000007,105 C24.7000007,105 13,89.5 13,70.5 C13,51.5 24.7000007,36 39.2000007,36 C53.7000007,36 65.4000015,51.5 65.4000015,70.5 C65.4000015,89.5 53.5999984,105 39.2000007,105 Z M39.2000007,38 C25.8999996,38 15,52.5999984 15,70.5 C15,88.4000015 25.8999996,103 39.2000007,103 C52.5,103 63.4000015,88.4000015 63.4000015,70.5 C63.4000015,52.5999984 52.5,38 39.2000007,38 Z" id="Fill-6" fill="#3F4D5F"></path>
                    <path d="M94.4000015,49.5 C94.3999938,53.9423713 93.7656555,58.2156677 92.4969787,62.3198852 C91.2283096,66.4241104 89.4218673,70.0468368 87.0776672,73.1880722 C84.7334594,76.3293075 82.0299301,78.7499389 78.9670791,80.4499588 C75.9042282,82.1499786 72.7152023,82.9999923 69.4000015,83 C66.084793,82.9999923 62.8957595,82.1499786 59.8329086,80.4499588 C56.7700614,78.7499389 54.0665359,76.3293075 51.722332,73.1880722 C49.3781242,70.0468368 47.5716819,66.4241104 46.303009,62.3198852 C45.034336,58.2156677 44.3999977,53.9423713 44.4000015,49.5 C44.3999977,45.057621 45.034336,40.7843208 46.303009,36.6800994 C47.5716819,32.5758781 49.3781242,28.9531536 51.722332,25.811922 C54.0665359,22.6706867 56.7700614,20.2500572 59.8329124,18.5500335 C62.8957595,16.8500099 66.084793,15.999999 69.4000015,16 C72.7152023,15.999999 75.9042282,16.8500099 78.9670791,18.5500335 C82.0299301,20.2500572 84.7334594,22.6706867 87.0776672,25.811922 C89.4218673,28.9531536 91.228302,32.5758781 92.4969711,36.6800994 C93.7656555,40.7843208 94.3999938,45.057621 94.4000015,49.5 Z" id="Fill-7" fill="#FBD000"></path>
                    <path d="M69.4000015,74 C56.7000007,74 46.300003,61.4000015 44.6000022,45 C44.5000038,46.5 44.4000015,48 44.4000015,49.5 C44.4000015,68 55.5999984,83 69.4000015,83 C83.2000045,83 94.4000015,68 94.4000015,49.5 C94.4000015,48 94.300003,46.5 94.2000045,45 C92.5,61.4000015 82.0999984,74 69.4000015,74 Z" id="Fill-8" fill="#F4B10B"></path>
                    <path d="M68.0999984,64 C68.0999984,71.0999984 70,77.5999984 73.1999969,82.5999984 C85.1999969,80.1999969 94.3999938,66.300003 94.3999938,49.5 C94.3999938,44.4000015 93.4999923,39.5 91.9999923,35.2000007 C91.2999954,35.1000022 90.4999923,35 89.7999954,35 C77.800003,35 68.0999984,48 68.0999984,64 Z" id="Fill-9" fill="#F4B10B"></path>
                    <path d="M69,84 C54.7000007,84 43,68.5 43,49.5 C43,30.5 54.7000007,15 69,15 C83.300003,15 95,30.5 95,49.5 C95,68.5 83.300003,84 69,84 Z M69,17 C55.7999992,17 45,31.6000003 45,49.5 C45,67.4000015 55.7999992,82 69,82 C82.1999969,82 93,67.4000015 93,49.5 C93,31.6000003 82.1999969,17 69,17 Z" id="Fill-10" fill="#3F4D5F"></path>
                    <path d="M117.300003,64 C117.299995,67.8456344 116.751922,71.5448989 115.655784,75.0978088 C114.559646,78.6507186 112.998886,81.7868118 110.973503,84.5060882 C108.948104,87.2253646 106.612251,89.3208312 103.96595,90.792488 C101.319648,92.2641601 98.564331,92.9999923 95.6999969,93 C92.8356552,92.9999923 90.0803298,92.2641601 87.4340209,90.792488 C84.7877197,89.3208312 82.4518737,87.2253646 80.4264907,84.5060882 C78.4010925,81.7868118 76.8403244,78.6507186 75.744194,75.0978088 C74.6480636,71.5448989 74.0999984,67.8456344 74.0999984,64 C74.0999984,60.1543579 74.6480636,56.4550819 75.744194,52.9021759 C76.8403244,49.349266 78.4010848,46.2131729 80.4264831,43.4939002 C82.4518661,40.77462 84.787712,38.6791496 87.4340209,37.207489 C90.0803298,35.7358283 92.8356552,34.9999961 95.6999969,35 C98.564331,34.9999961 101.319648,35.7358283 103.96595,37.207489 C106.612251,38.6791496 108.948104,40.77462 110.973503,43.4939002 C112.998886,46.2131729 114.559646,49.349266 115.655784,52.9021759 C116.751922,56.4550819 117.299995,60.1543579 117.300003,64 Z" id="Fill-11" fill="#92C438"></path>
                    <path d="M95.6999969,83 C85,83 76.1999969,72.5999984 74.3999938,59 C74.1999969,60.5999984 74.0999908,62.2999992 74.0999908,64 C74.0999908,80 83.7999877,93 95.6999893,93 C107.59999,93 117.299987,80 117.299987,64 C117.299987,62.2999992 117.199989,60.5999984 116.999984,59 C115.300003,72.5999984 106.400001,83 95.6999969,83 Z" id="Fill-12" fill="#7EA824"></path>
                    <path d="M96,94 C83.300003,94 73,80.5 73,64 C73,47.5 83.300003,34 96,34 C108.699996,34 119,47.5 119,64 C119,80.5 108.699996,94 96,94 Z M96,36 C84.4000015,36 75,48.5999984 75,64 C75,79.4000015 84.4000015,92 96,92 C107.599998,92 117,79.4000015 117,64 C117,48.5999984 107.599998,36 96,36 Z" id="Fill-13" fill="#3F4D5F"></path>
                    <path d="M83,32 C82.6999969,32 82.300003,31.7999992 82.0999984,31.5 C81.1999969,30.1000003 80.2999954,28.7999992 79.2999954,27.7000007 C78.8999938,27.3000011 78.9999923,26.7000007 79.3999938,26.3000011 C79.7999954,25.9000015 80.4999923,26.0000019 80.7999954,26.4000015 C81.8999938,27.6000022 82.9999923,29.0000019 83.8999938,30.6000022 C84.1999969,31.1000022 83.9999923,31.7000026 83.4999923,32.0000038 C83.300003,32 83.1999969,32 83,32 Z" id="Fill-14" fill-opacity="0.498039215" fill="#FFFFFF"></path>
                    <path d="M50,50 C49.5,50 49,49.5999984 49,49 C49,33 58.0999984,20 69.1999969,20 C71.6999969,20 74.1999969,20.6000003 76.5,21.8999996 C77,22.1999988 77.0999984,22.7999992 76.9000015,23.1999988 C76.5999984,23.6999988 76.0999984,23.8999996 75.5999984,23.5999984 C73.5999984,22.499998 71.4000015,21.8999977 69.2999954,21.8999977 C59.1999969,21.8999977 50.9999961,34 50.9999961,48.8999977 C50.9000015,49.5999984 50.5,50 50,50 Z" id="Fill-15" fill-opacity="0.498039215" fill="#FFFFFF"></path>
                    <path d="M113.099998,65 C112.599998,65 112.199996,64.5 112.199996,64 C112.199996,62.7000007 112.099998,61.4000015 112,60.2000007 C111.900001,59.6000022 112.300003,59.1000022 112.800003,59.1000022 C113.300003,59.0000038 113.700004,59.4000015 113.800003,60.0000038 C113.900001,61.300003 114,62.7000045 114,64.1000061 C114,64.5 113.599998,65 113.099998,65 Z" id="Fill-16" fill-opacity="0.498039215" fill="#FFFFFF"></path>
                    <path d="M112,57 C111.599998,57 111.199996,56.7000007 111,56.2000007 C109.900001,51.6000022 107.900001,47.5999984 105.199996,44.7000007 C104.799995,44.2999992 104.799995,43.7000007 105.199996,43.2999992 C105.599998,42.8999977 106.199996,42.8999977 106.599998,43.2999992 C109.5,46.5 111.699996,50.7999992 112.900001,55.7999992 C113,56.2999992 112.700004,56.8999977 112.200004,57 C112.199996,57 112.099998,57 112,57 Z" id="Fill-17" fill-opacity="0.498039215" fill="#FFFFFF"></path>
                    <path d="M78,65 C77.5,65 77,64.5999984 77,64 C77,49.7000007 85.300003,38 95.4000015,38 C97.800003,38 100.200004,38.7000007 102.5,40 C103,40.2999992 103.099998,40.9000015 102.900001,41.4000015 C102.599998,41.9000015 102,42 101.5,41.800003 C99.5999984,40.7000045 97.5,40.1000022 95.4000015,40.1000022 C86.4000015,40 79,50.7999992 79,64 C79,64.5999984 78.5,65 78,65 Z" id="Fill-18" fill-opacity="0.498039215" fill="#FFFFFF"></path>
                    <path d="M28,47.0999984 C27.7000007,47.0999984 27.5,47 27.2999992,46.7999992 C26.8999996,46.3999977 27,45.7999992 27.3999996,45.3999977 C29.1999988,43.7999992 31.1000003,42.5999984 33.0999984,41.6999969 C33.5999984,41.4999961 34.1999969,41.6999969 34.3999977,42.1999969 C34.5999984,42.6999969 34.3999977,43.2999954 33.8999977,43.4999961 C32.0999984,44.1999969 30.3999977,45.3999977 28.7999973,46.7999954 C28.3999996,47 28.2000007,47.0999984 28,47.0999984 Z" id="Fill-19" fill-opacity="0.498039215" fill="#FFFFFF"></path>
                    <path d="M18.3999996,71.5 C17.7999992,71.5 17.3999996,71.0999984 17.3999996,70.5 C17.3999996,62.9000015 19.5,55.5999984 23.2000007,50 C23.5,49.5 24.1000003,49.4000015 24.6000003,49.7000007 C25.1000003,50 25.2000007,50.6000022 24.8999996,51.1000022 C21.3999996,56.4000015 19.3999996,63.2000045 19.3999996,70.4000015 C19.3999996,71.0999984 18.8999996,71.5 18.3999996,71.5 Z" id="Fill-20" fill-opacity="0.498039215" fill="#FFFFFF"></path>
                    <polygon id="Fill-21" fill="#92C438" points="91.4000015 101 96.4000015 93 101.400001 101"></polygon>
                    <path d="M101.900001,102 L91.0999984,102 C90.6999969,102 90.2999954,101.800003 90.1999969,101.5 C90,101.199996 90,100.800003 90.1999969,100.5 L95.5999984,92.5 C96,91.9000015 97,91.9000015 97.4000015,92.5 L102.700004,100.400001 C102.900001,100.599998 103.000007,100.800003 103.000007,101.099998 C103,101.599998 102.5,102 101.900001,102 Z M93,100 L99.9000015,100 L96.4000015,94.9000015 L93,100 Z" id="Fill-22" fill="#3F4D5F"></path>
                    <polygon id="Fill-23" fill="#3AD0F9" points="34.4000015 112 39.4000015 104 44.4000015 112"></polygon>
                    <path d="M44,113 L34,113 C33.5999984,113 33.2999992,112.800003 33.0999984,112.5 C32.8999977,112.199996 32.8999977,111.800003 33.0999984,111.5 L38.0999984,103.5 C38.5,102.900001 39.3999977,102.900001 39.7999992,103.5 L44.7000007,111.400001 C44.9000015,111.599998 45,111.800003 45,112.099998 C45,112.599998 44.5999984,113 44,113 Z M35.7999992,111 L42.2000007,111 L39,105.900001 L35.7999992,111 Z" id="Fill-24" fill="#3F4D5F"></path>
                    <polygon id="Fill-25" fill="#FBD000" points="64.4000015 91 69.4000015 83 74.4000015 91"></polygon>
                    <path d="M75,92 L65,92 C64.5999984,92 64.300003,91.800003 64.0999984,91.5 C63.8999977,91.1999969 63.8999977,90.800003 64.0999984,90.5 L69.0999984,82.5 C69.5,81.9000015 70.4000015,81.9000015 70.7999954,82.5 L75.6999969,90.4000015 C75.8999938,90.5999984 76,90.800003 76,91.0999984 C76,91.5999984 75.5999984,92 75,92 Z M66.800003,90 L73.2000045,90 L70,84.9000015 L66.800003,90 Z" id="Fill-26" fill="#3F4D5F"></path>
                    <path d="M71.300003,121 C70.9000015,121 70.6000061,120.800003 70.4000015,120.5 C66.9000015,114.900001 67.2000045,109.5 71.5,103.400001 C72.5,101.900001 73,100.400001 73,99 C73,95 70.5,91.5999984 70.4000015,91.5999984 C70.0999984,91.0999984 70.2000045,90.5 70.5999984,90.1999969 C71.0999984,89.8999938 71.6999969,90 72.0999984,90.3999938 C72.2999954,90.6999969 77.6999969,97.9999923 73.1999969,104.499992 C71.0999984,107.499992 70,110.299995 70,112.899993 C70,115.09999 70.800003,117.199996 72.1999969,119.399993 C72.5,119.899993 72.2999954,120.499992 71.7999954,120.799995 C71.5999984,121 71.5,121 71.300003,121 Z" id="Fill-27" fill="#3F4D5F"></path>
                    <path d="M97.6999969,127 C97.5,127 97.2999954,126.900001 97.0999984,126.800003 C96.5999984,126.5 96.5,125.900001 96.7999954,125.400001 C100.599998,119.700004 98.4999923,112.099998 95.7999954,108.600006 C92.3999938,104.100006 94.6999969,100.600006 94.7999954,100.400009 C95.0999984,99.9000091 95.6999969,99.8000106 96.1999969,100.100006 C96.6999969,100.400009 96.7999954,101.000007 96.5,101.500007 C96.4000015,101.600006 94.9000015,104.000007 97.5,107.400009 C101.099998,112.100006 102.699996,120.400009 98.5,126.600006 C98.4000015,126.800003 98,127 97.6999969,127 Z" id="Fill-28" fill="#3F4D5F"></path>
                    <path d="M33,128 C32.5999984,128 32.2000007,127.699996 32,127.300003 C31.7999992,126.800003 32.2000007,126.200004 32.7000007,126.100006 C38.7999992,124.300003 38,113.300003 37.9000015,113.100006 C37.9000015,112.500007 38.300003,112.100006 38.800003,112.000007 C39.300003,111.900009 39.800003,112.400009 39.9000015,112.900009 C39.9000015,113.400009 40.9000015,125.700012 33.2000007,127.900009 C33.2000007,128 33.0999984,128 33,128 Z" id="Fill-29" fill="#3F4D5F"></path>
                    <path d="M59,114 C56.7999992,114 55,112.199996 55,110 C55,107.800003 56.7999992,106 59,106 C61.2000007,106 63,107.800003 63,110 C63,112.199996 61.2000007,114 59,114 Z M59,107.900001 C57.7999992,107.900001 56.9000015,108.900001 56.9000015,110 C56.9000015,111.199996 57.9000015,112.099998 59,112.099998 C60.2000007,112.099998 61.0999984,111.099998 61.0999984,110 C61.0999984,108.800003 60.2000007,107.900001 59,107.900001 Z" id="Fill-30" fill="#FFFFFF"></path>
                    <path d="M21,37 C18.7999992,37 17,35.2000007 17,33 C17,30.7999992 18.7999992,29 21,29 C23.2000007,29 25,30.7999992 25,33 C25,35.2000007 23.2000007,37 21,37 Z M21,30.8999996 C19.7999992,30.8999996 18.8999996,31.8999996 18.8999996,33 C18.8999996,34.2000007 19.8999996,35.0999984 21,35.0999984 C22.2000007,35.0999984 23.1000003,34.0999984 23.1000003,33 C23.1000003,31.7999992 22.2000007,30.8999996 21,30.8999996 Z" id="Fill-31" fill="#FFFFFF"></path>
                    <path d="M100,27 C97.800003,27 96,25.2000007 96,23 C96,20.7999992 97.800003,19 100,19 C102.199996,19 104,20.7999992 104,23 C104,25.2000007 102.199996,27 100,27 Z M100,20.8999996 C98.800003,20.8999996 97.9000015,21.8999996 97.9000015,23 C97.9000015,24.2000007 98.9000015,25.1000003 100,25.1000003 C101.199996,25.1000003 102.099998,24.1000003 102.099998,23 C102.099998,21.7999992 101.199996,20.8999996 100,20.8999996 Z" id="Fill-32" fill="#FFFFFF"></path>
                    <path d="M47.4000015,19.8999996 C47.4000015,19.5 47,19.1000003 46.4000015,19 L44.5,18.7000007 C44,18.6000003 43.4000015,18.1000003 43.4000015,17.6000003 L43.1000022,15.7000007 C43.0000038,15.2000007 42.6000022,14.7000007 42.2000007,14.7000007 C41.7999992,14.7000007 41.4000015,15.1000003 41.2999992,15.7000007 L41,17.6000003 C40.9000015,18.1000003 40.4000015,18.7000007 39.9000015,18.7000007 L38.0999984,19 C37.5999984,19.1000003 37.0999984,19.5 37.0999984,19.8999996 C37.0999984,20.2999992 37.5,20.6999988 38.0999984,20.7999992 L40,21 C40.5,21.1000003 41.0999984,21.6000003 41.0999984,22.1000003 L41.3999977,24 C41.4999961,24.5 41.8999977,25 42.2999992,25 C42.7000007,25 43.0999984,24.6000003 43.2000007,24 L43.5,21.8999996 C43.5999984,21.3999996 44.0999984,20.8999996 44.5999984,20.7999992 L46.3999977,20.6999988 C46.9000015,20.6000003 47.4000015,20.2999992 47.4000015,19.8999996 Z" id="Fill-33" fill="#FFFFFF"></path>
                    <path d="M89.5999984,108.099998 C89.5999984,107.699996 89.1999969,107.299995 88.5999984,107.199996 L86.6999969,106.899993 C86.1999969,106.799995 85.5999984,106.299995 85.5999984,105.799995 L85.2999954,103.899993 C85.1999969,103.399993 84.7999954,102.899993 84.3999938,102.899993 C83.9999923,102.899993 83.5999908,103.299995 83.4999923,103.899993 L83.1999893,105.799995 C83.0999908,106.299995 82.5999908,106.899993 82.0999908,106.899993 L80.1999893,107.199996 C79.6999893,107.299995 79.1999893,107.699996 79.1999893,108.099998 C79.1999893,108.5 79.5999908,108.900001 80.1999893,109 L82.0999908,109.300003 C82.5999908,109.400001 83.1999893,109.900001 83.1999893,110.400001 L83.4999923,112.300003 C83.5999908,112.800003 83.9999923,113.300003 84.3999938,113.300003 C84.7999954,113.300003 85.1999969,112.900001 85.2999954,112.300003 L85.5999984,110.200004 C85.6999969,109.700004 86.1999969,109.200004 86.6999969,109.100006 L88.5,109.000007 C89.1999969,108.900001 89.5999984,108.5 89.5999984,108.099998 Z" id="Fill-34" fill="#FFFFFF"></path>
                </g>
            </g>
        </g>
    </g>
</svg>