<?xml version="1.0" encoding="UTF-8"?>
<svg width="140px" height="140px" viewBox="0 0 140 140" version="1.1" xmlns="http://www.w3.org/2000/svg" xmlns:xlink="http://www.w3.org/1999/xlink">
    <!-- Generator: Sketch 44.1 (41455) - http://www.bohemiancoding.com/sketch -->
    <title>doctors</title>
    <desc>Created with Sketch.</desc>
    <defs></defs>
    <g id="PDP" stroke="none" stroke-width="1" fill="none" fill-rule="evenodd">
        <g id="doctors">
            <g>
                <rect id="Rectangle-16" x="0" y="0" width="140" height="140"></rect>
                <g id="Page-1" transform="translate(10.000000, 10.000000)">
                    <polygon id="Stroke-1" stroke-opacity="0.00784313771" stroke="#000000" stroke-width="0.5" points="0 0 120.000002 0 120.000002 120.000002 0 120.000002"></polygon>
                    <path d="M80.625,75 L39.375,75 C27.9843752,75 18.75,84.2343735 18.75,95.625 L18.75,118.125 L82.5,118.125 C93.8906263,118.125 91.2899994,118.125 101.25,118.125 L101.25,95.625 C101.25,84.2343735 92.0156263,75 80.625,75 Z" id="Fill-2" fill="#FFFFFF"></path>
                    <path d="M76.875,48.75 L76.875,30 C76.875,20.6793737 69.3206261,13.125 60,13.125 C50.6793737,13.125 43.125,20.6793737 43.125,30 L43.125,48.75 C43.125,54.5999979 46.1043763,59.7506259 50.625,62.778747 L50.625,75 L45,75 L60,90 L75,75 L69.375,75 L69.375,62.778747 C73.8956235,59.7506259 76.875,54.6000015 76.875,48.75 Z" id="Fill-3" fill="#EDF2F8"></path>
                    <path d="M43.125,30 C43.125,29.38125 43.1643748,28.7718754 43.2281256,28.1700002 L43.125,28.125 L43.125,30 Z M60,13.125 C51.2981271,13.125 44.1412496,19.7118757 43.2281256,28.1700002 L60,35.625 L60,30 L76.875,39.375 L76.875,30 C76.875,20.6793754 69.3206261,13.125 60,13.125 Z M37.5,110.625 L52.5,110.625 L52.5,97.5 L37.5,97.5 L37.5,110.625 Z" id="Fill-4" fill="#C2CDDC"></path>
                    <path d="M80.625,73.125 L71.25,73.125 L71.25,63.75 C71.25,63.7424968 71.2462519,63.7350009 71.2462519,63.7274979 C75.7949994,60.3056214 78.75,54.8793731 78.75,48.75 L78.75,39.6637487 C78.7687468,39.5512496 78.7537479,39.4424985 78.75,39.3299996 L78.75,30 C78.75,19.6443754 70.3537487,11.25 60,11.25 C49.6462511,11.25 41.25,19.6443754 41.25,30 L41.25,48.75 C41.25,54.8793769 44.2050004,60.3056287 48.7537479,63.7274979 C48.7537515,63.7350009 48.75,63.7424968 48.75,63.75 L48.75,73.125 L39.375,73.125 C26.9474994,73.125 16.875,83.197503 16.875,95.625 L16.875,116.25 C16.875,118.32 18.5549998,120 20.625,120 L99.375,120 C101.445,120 103.125,118.32 103.125,116.25 L103.125,95.625 C103.125,83.197503 93.0506229,73.125 80.625,73.125 Z M60,15 C68.2837485,15 75,21.7162494 75,30 L75,36.1818765 L61.0012506,28.3762513 C60.9300039,28.3368765 60.8493733,28.3331269 60.7724976,28.3012515 C60.7199978,28.2768773 60.6599949,28.2656263 60.6056212,28.2487517 C60.4424929,28.2000017 60.2849936,28.1568771 60.1181244,28.1493757 C60.0768756,28.1475 60.0412487,28.125 60,28.125 C59.9624991,28.125 59.9493741,28.1493741 59.9249981,28.1625007 C59.2931233,28.2000017 58.6912464,28.4962517 58.3499979,29.0625 C58.1643713,29.3718748 58.1156229,29.7093754 58.1249963,30.0412487 L58.1249963,32.5874983 L46.001247,26.4993739 C45.8324968,26.4056235 45.6506216,26.3681244 45.4706239,26.3268739 C47.1112489,19.8224991 52.9856263,15 60,15 Z M45,48.75 L45,30.22125 L58.9968752,37.2506259 C59.0699994,37.2900007 59.1506265,37.2937522 59.2256246,37.3237502 C59.2799985,37.35 59.3381237,37.3593735 59.394375,37.3781239 C59.5574998,37.4268722 59.7149991,37.4699985 59.8818754,37.4774979 C59.9212502,37.4775015 59.9587511,37.5 60,37.5 C60.0412487,37.5 60.0600026,37.4756241 60.0881265,37.460625 C60.7143759,37.4212502 61.3106274,37.1249985 61.6500019,36.5625 C61.835625,36.2512492 61.8843769,35.9156261 61.875,35.5818735 L61.875,33.1949972 L75,40.5149959 L75,48.75 C75,57.0337485 68.2837485,63.75 60,63.75 C51.7162513,63.75 45,57.0337485 45,48.75 Z M58.125,116.25 L31.875,116.25 L31.875,99.375 C31.875,98.3381222 31.0368739,97.5 30,97.5 C28.9631259,97.5 28.125,98.3381222 28.125,99.375 L28.125,116.25 L20.625,116.25 L20.625,95.625 C20.625,85.2712511 29.0212511,76.875 39.375,76.875 L44.2425011,76.875 L58.125,90.7574987 L58.125,116.25 Z M49.5093761,76.875 L52.5,76.875 L52.5,65.9287476 C54.7987496,66.9337534 57.3318743,67.5 60,67.5 C62.6681256,67.5 65.2012466,66.9337534 67.5,65.9287476 L67.5,76.875 L70.4906273,76.875 L60,87.3675011 L49.5093761,76.875 Z M99.375,116.25 L91.875,116.25 L91.875,99.375 C91.875,98.3381222 91.0368776,97.5 90,97.5 C88.9631222,97.5 88.125,98.3381222 88.125,99.375 L88.125,116.25 L61.875,116.25 L61.875,90.7574987 L75.7574987,76.875 L80.625,76.875 C90.9787487,76.875 99.375,85.2712511 99.375,95.625 L99.375,116.25 Z M80.625,99.375 L76.875,99.375 L76.875,95.625 C76.875,94.5881222 76.0368776,93.75 75,93.75 C73.9631222,93.75 73.125,94.5881222 73.125,95.625 L73.125,99.375 L69.375,99.375 C68.3381222,99.375 67.5,100.213122 67.5,101.25 C67.5,102.286878 68.3381222,103.125 69.375,103.125 L73.125,103.125 L73.125,106.875 C73.125,107.909996 73.9631222,108.75 75,108.75 C76.0368776,108.75 76.875,107.909996 76.875,106.875 L76.875,103.125 L80.625,103.125 C81.6618776,103.125 82.5,102.286878 82.5,101.25 C82.5,100.213122 81.6618776,99.375 80.625,99.375 Z M43.125,91.875 L43.125,95.625 L39.375,95.625 C37.3049998,95.625 35.625,97.3049998 35.625,99.375 L35.625,108.75 C35.625,110.82 37.3049998,112.5 39.375,112.5 L50.625,112.5 C52.695,112.5 54.375,110.82 54.375,108.75 L54.375,99.375 C54.375,97.3049998 52.695,95.625 50.625,95.625 L46.875,95.625 L46.875,91.875 C46.875,90.8381222 46.0368739,90 45,90 C43.9631259,90 43.125,90.8381222 43.125,91.875 Z M50.625,99.375 L50.625,108.75 L39.375,108.75 L39.375,99.375 L50.625,99.375 Z" id="Fill-5" fill="#8592A5"></path>
                    <path d="M60,1.875 C46.0668754,1.875 43.125,11.25 43.125,11.25 L43.125,28.125 L76.875,28.125 L76.875,11.25 C76.875,11.25 74.2537521,1.875 60,1.875 Z" id="Fill-6" fill="#FFFFFF"></path>
                    <path d="M65.625,13.125 L61.875,13.125 L61.875,9.375 C61.875,8.33812504 61.0368776,7.5 60,7.5 C58.9631222,7.5 58.125,8.33812504 58.125,9.375 L58.125,13.125 L54.375,13.125 C53.3381259,13.125 52.5,13.963125 52.5,15 C52.5,16.036874 53.3381259,16.875 54.375,16.875 L58.125,16.875 L58.125,20.625 C58.125,21.6618758 58.9631259,22.5 60,22.5 C61.0368776,22.5 61.875,21.6618758 61.875,20.625 L61.875,16.875 L65.625,16.875 C66.6618776,16.875 67.5,16.0368758 67.5,15 C67.5,13.9631241 66.6618776,13.125 65.625,13.125 Z M60,0 C47.5724994,0 41.25,5.03812506 41.25,11.25 L41.25,26.25 C41.25,28.32 42.9299998,30 45,30 L75,30 C77.07,30 78.75,28.32 78.75,26.25 L78.75,11.25 C78.75,5.03812506 72.4256229,0 60,0 Z M75,26.25 L45,26.25 L45,11.25 C45,7.57687478 49.6462511,3.75 60,3.75 C70.3537487,3.75 75,7.57687478 75,11.25 L75,26.25 Z" id="Fill-7" fill="#8592A5"></path>
                </g>
            </g>
        </g>
    </g>
</svg>