<?xml version="1.0" encoding="UTF-8"?>
<svg width="128px" height="128px" viewBox="0 0 128 128" version="1.1" xmlns="http://www.w3.org/2000/svg" xmlns:xlink="http://www.w3.org/1999/xlink">
    <!-- Generator: Sketch 44.1 (41455) - http://www.bohemiancoding.com/sketch -->
    <title>gua_pay</title>
    <desc>Created with Sketch.</desc>
    <defs></defs>
    <g id="PDP" stroke="none" stroke-width="1" fill="none" fill-rule="evenodd">
        <g id="pop_1" transform="translate(-488.000000, -350.000000)">
            <g id="Group-2" transform="translate(430.000000, 240.000000)">
                <g id="Group" transform="translate(58.000000, 110.000000)">
                    <g id="gua_pay">
                        <polygon id="Stroke-1" stroke-opacity="0.00784313771" stroke="#000000" stroke-width="1.33333335e-11" points="0 0 128.000001 0 128.000001 128.000001 0 128.000001"></polygon>
                        <path d="M128,64 C127.999992,72.4869232 126.376083,80.6508331 123.128273,88.4917373 C119.88047,96.3326339 115.255989,103.253662 109.254829,109.254829 C103.253662,115.255989 96.3326339,119.88047 88.4917373,123.128273 C80.6508331,126.376083 72.4869232,127.999992 64,128 C55.5130691,127.999992 47.3491554,126.376083 39.508255,123.128273 C31.6673564,119.88047 24.7463264,115.255989 18.7451648,109.254829 C12.7440004,103.253662 8.11951541,96.3326339 4.87170934,88.4917373 C1.62390303,80.6508331 0,72.4869232 0,64 C0,55.5130691 1.62390303,47.3491554 4.87170934,39.508255 C8.11951541,31.6673564 12.7440004,24.7463264 18.7451648,18.7451648 C24.7463264,12.7440004 31.6673564,8.11951541 39.508255,4.87170934 C47.3491554,1.62390303 55.5130691,0 64,0 C72.4869232,0 80.6508331,1.62390303 88.4917373,4.87170934 C96.3326339,8.11951541 103.253662,12.7440004 109.254829,18.7451648 C115.255989,24.7463264 119.88047,31.6673564 123.128273,39.508255 C126.376083,47.3491554 127.999992,55.5130691 128,64 Z" id="Fill-2" fill="#C2CDDC"></path>
                        <path d="M118.300003,106 L11.1999998,106 C10.5999994,106 10.1999998,105.599998 10.1999998,105 C10.1999998,104.400001 10.5999994,104 11.1999998,104 L118.299995,104 C118.899993,104 119.299995,104.400001 119.299995,105 C119.299995,105.599998 118.800003,106 118.300003,106 Z" id="Fill-3" fill="#3F4D5F"></path>
                        <path d="M36.2999992,93.800003 L36.2999992,56 C36.2999992,39 49.2999992,25 65.300003,25 C81.300003,25 94.300003,39 94.300003,56 L94.300003,93.800003" id="Fill-4" fill="#FF4848"></path>
                        <path d="M65.300003,25 C49.300003,25 36.300003,39 36.300003,56 L36.300003,93.800003 L94.300003,93.800003 L94.300003,56 C94.300003,39 81.300003,25 65.300003,25 Z M65,81 C51.7000007,81 41,70.300003 41,57 C41,43.6999969 51.7000007,33 65,33 C78.300003,33 89,43.7000007 89,57 C89,70.300003 78.300003,81 65,81 Z" id="Fill-5" fill="#E8372E"></path>
                        <path d="M80,64.9000015 C79.9999923,69.0697479 78.53553,72.6288528 75.6065979,75.5773086 C72.6776657,78.5257644 69.1421279,79.9999923 65,80 C60.8578605,79.9999923 57.3223266,78.5257644 54.3933944,75.5773086 C51.4644622,72.6288528 49.9999961,69.0697479 50,64.9000015 C49.9999961,60.7302513 51.4644622,57.1711463 54.3933944,54.2226905 C57.3223266,51.2742309 60.8578605,49.7999992 65,49.800003 C69.1421279,49.7999992 72.6776657,51.2742271 75.6065979,54.2226867 C78.53553,57.1711463 79.9999923,60.7302513 80,64.9000015 Z" id="Fill-6" fill="#FBD000"></path>
                        <path d="M94,94.800003 C93.4000015,94.800003 93,94.4000015 93,93.800003 L93,56 C93,39.5 80.5999984,26 65.300003,26 C50,26 38,39.2000007 38,56 L38,93.800003 C38,94.4000015 37.5999984,94.800003 37,94.800003 C36.4000015,94.800003 36,94.4000015 36,93.800003 L36,56 C36,38.0999984 48.9000015,24 65.300003,24 C81.6999969,24 95,38.4000015 95,56 L95,93.800003 C95,94.4000015 94.5999984,94.800003 94,94.800003 Z" id="Fill-7" fill="#3F4D5F"></path>
                        <path d="M65,73.5999984 C57.7999992,73.5999984 51.7999992,68.5 50.2999992,61.5999984 C50.0999984,62.5999984 50,63.6999969 50,64.7999954 C50,73.1999969 56.7000007,80 65,80 C73.300003,80 80,73.1999969 80,64.800003 C80,63.7000045 79.9000015,62.6000022 79.6999969,61.6000022 C78.1999969,68.5 72.1999969,73.5999984 65,73.5999984 Z" id="Fill-8" fill="#F4B10B"></path>
                        <path d="M100.300003,97.300003 C100.300003,101.5 96.7000045,105 92.300003,105 L38.300003,105 C33.9000015,105 30.300003,101.400001 30.300003,97 C30.300003,92.5999984 33.9000015,89 38.300003,89.0999984 L92.300003,89.5999984 C96.6999969,89.5999984 100.300003,93.0999984 100.300003,97.300003 Z" id="Fill-9" fill="#415E6D"></path>
                        <path d="M92.300003,98 L38.300003,98 C35.300003,98 32.7000045,96.300003 31.300003,94 C30.6000022,95.0999984 30.300003,96.4000015 30.300003,97.800003 C30.300003,102 33.9000015,105.5 38.300003,105.5 L92.300003,105.5 C96.7000045,105.5 100.300003,102 100.300003,97.800003 C100.300003,96.4000015 99.9000015,95.2000045 99.300003,94 C97.9000015,96.300003 95.300003,98 92.300003,98 Z" id="Fill-10" fill="#324D5B"></path>
                        <path d="M92,106 L38,106 C33,106 29,102.199996 29,97.5 C29,92.800003 33,89 38,89 L92,89 C97,89 101,92.800003 101,97.5 C101,102.199996 97,106 92,106 Z M38,91 C34.0999984,91 31,93.9000015 31,97.5 C31,101.099998 34.0999984,104 38,104 L92,104 C95.9000015,104 99,101.099998 99,97.5 C99,93.9000015 95.9000015,91 92,91 L38,91 Z" id="Fill-11" fill="#3F4D5F"></path>
                        <path d="M82,85 C81.6999969,85 81.4000015,84.9000015 81.1999969,84.5999984 L48.1999969,45.5999984 C47.7999954,45.1999969 47.8999977,44.5999984 48.2999954,44.1999969 C48.6999969,43.8999977 49.3999938,43.8999977 49.6999969,44.2999954 L82.6999969,83.2999954 C83.0999984,83.6999969 83,84.2999954 82.5999984,84.6999969 C82.5,84.9000015 82.1999969,85 82,85 Z" id="Fill-12" fill="#FFFFFF"></path>
                        <path d="M91.6999969,95 L84,95 C83.4000015,95 83,94.5999984 83,94 C83,93.4000015 83.4000015,93 84,93 L91.6999969,93 C92.2999954,93 92.6999969,93.4000015 92.6999969,94 C92.6999969,94.5999984 92.1999969,95 91.6999969,95 Z" id="Fill-13" fill-opacity="0.498039215" fill="#FFFFFF"></path>
                        <path d="M75,95 L46,95 C45.4000015,95 45,94.5999984 45,94 C45,93.4000015 45.4000015,93 46,93 L75,93 C75.5999984,93 76,93.4000015 76,94 C76,94.5999984 75.5999984,95 75,95 Z" id="Fill-14" fill-opacity="0.498039215" fill="#FFFFFF"></path>
                        <path d="M87,82 C86.4000015,82 86,81.5 86,81 L86,66 C86,65.4000015 86.4000015,65 87,65 C87.5999984,65 88,65.5 88,66 L88,81 C88,81.5 87.5999984,82 87,82 Z" id="Fill-15" fill-opacity="0.498039215" fill="#FFFFFF"></path>
                        <path d="M87,51 C86.5,51 86,50.5 86,50 C86,37.2000007 69.800003,30.8999996 65.9000015,30.8999996 C65.4000015,30.8999996 64.9000015,30.3999996 64.9000015,29.8999996 C64.9000015,29.2999992 65.300003,28.8999996 65.9000015,28.8999996 C70.300003,28.8999996 87.9000015,35.7000007 87.9000015,50 C88,50.5 87.5999984,51 87,51 Z" id="Fill-16" fill-opacity="0.498039215" fill="#FFFFFF"></path>
                        <path d="M42,84 C41.4000015,84 41,83.5 41,82.9000015 L41,73 C41,72.4000015 41.4000015,71.9000015 42,71.9000015 C42.5999984,71.9000015 43,72.4000015 43,73 L43,82.9000015 C43,83.5 42.5999984,84 42,84 Z" id="Fill-17" fill-opacity="0.498039215" fill="#FFFFFF"></path>
                        <path d="M115.099998,15.5 C114.799995,15.5 114.599998,15.3999996 114.400001,15.1999998 C114,14.8000001 114,14.1999998 114.400001,13.8000001 L120.800003,7.40000009 C121.200004,7 121.800003,7 122.200004,7.40000009 C122.600006,7.80000019 122.600006,8.39999961 122.200004,8.80000019 L115.800003,15.2000007 C115.599998,15.3999996 115.300003,15.5 115.099998,15.5 Z" id="Fill-18" fill="#C2CDDC"></path>
                        <path d="M109.800003,12.5 C109.700004,12.5 109.700004,12.5 109.600006,12.5 C109.100006,12.3999996 108.700004,11.8999996 108.800003,11.3000001 L110.100006,4.90000009 C110.200004,4.40000009 110.700004,4 111.300003,4.0999999 C111.800003,4.1999998 112.200004,4.6999998 112.100006,5.30000019 L110.800003,11.7000007 C110.699996,12.1999998 110.300003,12.5 109.800003,12.5 Z" id="Fill-19" fill="#C2CDDC"></path>
                        <path d="M118.099998,20.7999992 C117.599998,20.7999992 117.199996,20.5 117.099998,20 C117,19.5 117.299995,18.8999996 117.900001,18.7999992 L124.300003,17.5 C124.800003,17.3999996 125.400001,17.7000007 125.5,18.2999992 C125.599998,18.7999992 125.300003,19.3999996 124.699996,19.5 L118.299995,20.7999992 C118.199996,20.7999992 118.199996,20.7999992 118.099998,20.7999992 Z" id="Fill-20" fill="#C2CDDC"></path>
                        <path d="M109,51 C106.800003,51 105,49.2000007 105,47 C105,44.7999992 106.800003,43 109,43 C111.199996,43 113,44.7999992 113,47 C113,49.2000007 111.199996,51 109,51 Z M109,44.9000015 C107.800003,44.9000015 106.900001,45.9000015 106.900001,47 C106.900001,48.2000007 107.900001,49.0999984 109,49.0999984 C110.199996,49.0999984 111.099998,48.0999984 111.099998,47 C111.099998,45.7999992 110.199996,44.9000015 109,44.9000015 Z" id="Fill-21" fill="#FFFFFF"></path>
                        <path d="M41,23 C38.7999992,23 37,21.2000007 37,19 C37,16.7999992 38.7999992,15 41,15 C43.2000007,15 45,16.7999992 45,19 C45,21.2000007 43.2000007,23 41,23 Z M41,16.8999996 C39.7999992,16.8999996 38.9000015,17.8999996 38.9000015,19 C38.9000015,20.2000007 39.9000015,21.1000003 41,21.1000003 C42.2000007,21.1000003 43.0999984,20.1000003 43.0999984,19 C43.0999984,17.7999992 42.2000007,16.8999996 41,16.8999996 Z" id="Fill-22" fill="#FFFFFF"></path>
                        <path d="M20,80 C17.7999992,80 16,78.1999969 16,76 C16,73.800003 17.7999992,72 20,72 C22.2000007,72 24,73.800003 24,76 C24,78.1999969 22.2000007,80 20,80 Z M20,73.9000015 C18.7999992,73.9000015 17.8999996,74.9000015 17.8999996,76 C17.8999996,77.1999969 18.8999996,78.0999984 20,78.0999984 C21.2000007,78.0999984 22.1000003,77.0999984 22.1000003,76 C22.1000003,74.800003 21.2000007,73.9000015 20,73.9000015 Z" id="Fill-23" fill="#FFFFFF"></path>
                        <path d="M25.7999992,46.9000015 C25.7999992,46.5 25.3999996,46.1000022 24.7999992,46 L22.8999996,45.7000007 C22.3999996,45.6000022 21.7999992,45.1000022 21.7999992,44.6000022 L21.5,42.7000007 C21.3999996,42.2000007 21,41.7000007 20.6000003,41.7000007 C20.2000007,41.7000007 19.8000011,42.1000022 19.7000007,42.7000007 L19.4000015,44.6000022 C19.3000011,45.1000022 18.8000011,45.7000007 18.3000011,45.7000007 L16.5,46 C16,46.0999984 15.5,46.5 15.5,46.9000015 C15.5,47.300003 15.8999996,47.7000007 16.5,47.800003 L18.3999996,48.1000022 C18.8999996,48.2000007 19.5,48.7000007 19.5,49.2000007 L19.7999992,51.1000022 C19.8999996,51.6000022 20.2999992,52.1000022 20.6999988,52.1000022 C21.0999984,52.1000022 21.499998,51.7000007 21.499998,51.1000022 L21.7999973,49.0000038 C21.8999977,48.5000038 22.3999977,48.0000038 22.8999977,47.9000053 L24.6999969,47.8000068 C25.2999992,47.5999984 25.7999992,47.2999992 25.7999992,46.9000015 Z" id="Fill-24" fill="#FFFFFF"></path>
                        <path d="M88.300003,17.2999992 C88.300003,16.8999996 87.9000015,16.5 87.300003,16.3999996 L85.4000015,16.1000003 C84.9000015,16 84.300003,15.5 84.300003,15 L84,13.1000003 C83.9000015,12.6000003 83.5,12.1000003 83.0999984,12.1000003 C82.6999969,12.1000003 82.2999954,12.5 82.1999969,13.1000003 L82.0999984,15 C82,15.5 81.5,16.1000003 81,16.1000003 L79.0999984,16.3999996 C78.5999984,16.5 78.0999984,16.8999996 78.0999984,17.2999992 C78.0999984,17.6999988 78.5,18.0999984 79.0999984,18.1999988 L81,18.499998 C81.5,18.5999984 82.0999984,19.0999984 82.0999984,19.5999984 L82.4000015,21.499998 C82.5,21.999998 82.9000015,22.499998 83.300003,22.499998 C83.7000045,22.499998 84.1000061,22.0999984 84.1000061,21.499998 L84.4000091,19.3999977 C84.5000076,18.8999977 85.0000076,18.3999977 85.5000076,18.2999973 L87.3000106,18.1999969 C87.9000015,18 88.300003,17.7000007 88.300003,17.2999992 Z" id="Fill-25" fill="#FFFFFF"></path>
                        <path d="M113.800003,70.800003 C113.800003,70.4000015 113.400001,70 112.800003,69.9000015 L110.900001,69.5999984 C110.400001,69.5 109.800003,69 109.800003,68.5 L109.5,66.5999984 C109.400001,66.0999984 109,65.5999984 108.599998,65.5999984 C108.199996,65.5999984 107.799995,66 107.699996,66.5999984 L107.399993,68.5 C107.299995,69 106.799995,69.5999984 106.299995,69.5999984 L104.399993,69.9000015 C103.899993,70 103.399993,70.4000015 103.399993,70.800003 C103.399993,71.2000045 103.799995,71.6000061 104.399993,71.7000045 L106.299995,72.0000076 C106.799995,72.1000061 107.399993,72.6000061 107.399993,73.1000061 L107.699996,75.0000076 C107.799995,75.5000076 108.199996,76.0000076 108.599998,76.0000076 C109,76.0000076 109.400001,75.6000061 109.400001,75.0000076 L109.700004,72.9000091 C109.800003,72.4000091 110.300003,71.9000091 110.800003,71.8000106 L112.600006,71.7000122 C113.400001,71.5 113.800003,71.1999969 113.800003,70.800003 Z" id="Fill-26" fill="#FFFFFF"></path>
                        <path d="M82.6999969,49.4000015 C82.6999969,49 82.2999954,48.6000022 81.6999969,48.5 L77,47.5999984 C76.5,47.5 75.9000015,47 75.800003,46.3999977 L75,41.7000007 C74.9000015,41.2000007 74.5,40.7000007 74.0999984,40.7000007 C73.6999969,40.7000007 73.2999954,41.1000022 73.1999969,41.7000007 L72.3999938,46.5 C72.2999954,47 71.7999954,47.5999984 71.1999969,47.7000007 L66.3999938,48.5 C65.8999938,48.5999984 65.3999938,49 65.3999938,49.4000015 C65.3999938,49.800003 65.7999954,50.2000007 66.3999938,50.300003 L71.0999908,50.9000015 C71.5999908,51 72.1999893,51.5 72.2999877,52 L73.1999893,57 C73.2999877,57.5 73.6999893,58 74.0999908,58 C74.4999923,58 74.8999938,57.5999984 74.9999923,57 L75.8999938,51.9000015 C75.9999923,51.4000015 76.4999923,50.9000015 77.0999908,50.800003 L81.7999877,50.2000045 C82.300003,50.2000007 82.6999969,49.7999992 82.6999969,49.4000015 Z" id="Fill-27" fill="#FFFFFF"></path>
                    </g>
                </g>
            </g>
        </g>
    </g>
</svg>