<?xml version="1.0" encoding="UTF-8"?>
<svg width="42px" height="42px" viewBox="0 0 42 42" version="1.1" xmlns="http://www.w3.org/2000/svg" xmlns:xlink="http://www.w3.org/1999/xlink">
    <!-- Generator: Sketch 45.1 (43504) - http://www.bohemiancoding.com/sketch -->
    <title>gua_pay</title>
    <desc>Created with Sketch.</desc>
    <defs></defs>
    <g id="doc_registration" stroke="none" stroke-width="1" fill="none" fill-rule="evenodd">
        <g id="gua_pay">
            <g id="Page-1">
                <polygon id="Stroke-1" points="0 0 42.0000006 0 42.0000006 42.0000006 0 42.0000006"></polygon>
                <g id="Group-14" transform="translate(4.200000, 3.150000)">
                    <polygon id="Fill-2" fill="#F2F2F2" points="0.603191489 8.3671875 32.9968085 8.3671875 32.9968085 26.2171875 0.603191489 26.2171875"></polygon>
                    <path d="M28.638191,10.5984375 L4.96180845,10.5984375 C4.61106361,11.6342955 3.828032,12.4531645 2.83723404,12.8202046 L2.83723404,21.7636118 C3.82747327,22.1300955 4.61106411,22.9495209 4.96180845,23.98538 L28.6387513,23.98538 C28.9894951,22.949523 29.7725272,22.1300955 30.7633263,21.7636118 L30.7633263,12.8202046 C29.7725272,12.4531645 28.9889369,11.6342955 28.638191,10.5984375 Z" id="Fill-3" fill="#F2F2F2"></path>
                    <path d="M10.0978723,17.2921875 C10.0978723,18.4078125 9.5393617,18.965625 8.42234043,18.965625 C7.30531915,18.965625 6.74680851,18.4078125 6.74680851,17.2921875 C6.74680851,16.1765625 7.30531915,15.61875 8.42234043,15.61875 C9.5393617,15.61875 10.0978723,16.1765625 10.0978723,17.2921875 Z" id="Fill-4" fill="#FFFFFF"></path>
                    <path d="M13.7577922,19.9546259 C14.3459036,20.3512297 14.9937759,20.5966686 15.6829787,20.69819 L15.6829787,21.196875 C15.6829787,21.5047864 15.9326333,21.7546875 16.2414894,21.7546875 C16.5497872,21.7546875 16.8,21.5047864 16.8,21.196875 L16.8,20.7411414 C18.1180854,20.594994 19.0340426,19.8285593 19.0340426,18.7715065 C19.0340426,17.6910235 18.3537774,17.0679466 16.7614626,16.6880765 L15.9600001,16.4839175 C15.181995,16.2423844 15.0345483,16.0041984 15.0345483,15.6477562 C15.0345483,15.2260497 15.3663035,14.9549528 15.9438037,14.903076 C15.9460376,14.9025185 16.0298139,14.8941506 16.1571548,14.8941506 C16.3012502,14.8941506 16.5157187,14.9053071 16.7212506,14.9588564 C16.9859841,15.0280254 17.3959316,15.1758454 17.7522616,15.3805629 C17.8667573,15.4458273 17.9834858,15.4792958 18.0990959,15.4792958 C18.463245,15.4792958 18.749203,15.21043 18.749203,14.8668179 C18.749203,14.6392309 18.6296814,14.4551518 18.4068366,14.3346645 C17.9371294,14.0512961 17.3456655,13.8616397 16.8005603,13.7857774 L16.8005603,13.3875 C16.8005603,13.07903 16.5503476,12.8296875 16.2420497,12.8296875 C15.9331936,12.8296875 15.683539,13.07903 15.683539,13.3875 L15.683539,13.8036282 C14.4581666,13.9665094 13.674018,14.6978021 13.674018,15.7158092 C13.674018,16.7990808 14.3230077,17.4026343 15.9175553,17.7997968 L16.7190178,17.9838759 C17.5176882,18.2220608 17.6740705,18.4775391 17.6740705,18.839003 C17.6740705,19.2746536 17.3400814,19.5496551 16.7363306,19.613247 C16.734655,19.613247 16.6536707,19.6193838 16.5285648,19.6193838 C16.3788842,19.6193838 16.1683252,19.611017 15.9493889,19.5753175 C15.5238043,19.5050334 14.9155858,19.2417458 14.4743619,18.9360644 C14.3693621,18.856856 14.2291762,18.81223 14.0901068,18.81223 C13.7304264,18.81223 13.4500536,19.0810947 13.4500536,19.4247078 C13.4489362,19.6467144 13.5561699,19.8302339 13.7577922,19.9546259 Z M4.51276596,24.54375 L29.087234,24.54375 C29.087234,23.3115424 30.0875268,22.3125 31.3212766,22.3125 L31.3212766,12.271875 C30.0875268,12.271875 29.087234,11.2728326 29.087234,10.040625 L4.51276596,10.040625 C4.51276596,11.2728326 3.5124732,12.271875 2.2787234,12.271875 L2.2787234,22.3125 C3.5124732,22.3125 4.51276596,23.3115424 4.51276596,24.54375 Z M3.39574468,13.1928239 C4.3463296,12.8564627 5.09864345,12.1056477 5.43486702,11.15625 L28.1645742,11.15625 C28.5013565,12.1056467 29.2531121,12.8570201 30.2036971,13.1928239 L30.2036971,21.3909935 C29.2531121,21.7273548 28.5007983,22.4781708 28.1645742,23.4275675 L5.43486702,23.4275675 C5.09864345,22.4787283 4.3463296,21.7273548 3.39574468,21.391551 L3.39574468,13.1928239 Z M32.4382979,7.809375 L1.16170213,7.809375 C0.545106327,7.809375 0.0446808511,8.30917494 0.0446808511,8.925 L0.0446808511,25.659375 C0.0446808511,26.2752 0.545106327,26.775 1.16170213,26.775 L32.4382979,26.775 C33.0548936,26.775 33.5553191,26.2752 33.5553191,25.659375 L33.5553191,8.925 C33.5553191,8.30917494 33.0548936,7.809375 32.4382979,7.809375 Z M32.4382979,25.659375 L1.16170213,25.659375 L1.16170213,8.925 L32.4382979,8.925 L32.4382979,25.659375 Z M8.42234043,19.5234375 C9.6560902,19.5234375 10.656383,18.5243951 10.656383,17.2921875 C10.656383,16.0599799 9.6560902,15.0609375 8.42234043,15.0609375 C7.18859059,15.0609375 6.18829787,16.0599799 6.18829787,17.2921875 C6.18829787,18.5243951 7.18859059,19.5234375 8.42234043,19.5234375 Z M8.42234043,16.1765625 C9.03893617,16.1765625 9.5393617,16.6763624 9.5393617,17.2921875 C9.5393617,17.9080125 9.03893617,18.4078125 8.42234043,18.4078125 C7.80574462,18.4078125 7.30531915,17.9080125 7.30531915,17.2921875 C7.30531915,16.6763624 7.80574462,16.1765625 8.42234043,16.1765625 Z" id="Fill-5" fill="#CCCCCC"></path>
                    <path d="M26.2946809,13.9453125 C25.060931,13.9453125 24.0606383,14.9443549 24.0606383,16.1765625 L24.0606383,22.3125 C21.3021547,22.3125 19.0764895,23.6607327 17.9170213,25.659375 L17.9170213,26.775 L6.55970739,26.775 C7.80071809,31.5839006 12.1559837,35.1421875 17.3585106,35.1421875 C22.9564621,35.1421875 27.5792549,31.0244156 28.3896539,25.659375 L28.5287234,25.659375 L28.5287234,16.1765625 C28.5287234,14.9443549 27.5284306,13.9453125 26.2946809,13.9453125 Z" id="Fill-6" fill="#FFFFFF"></path>
                    <path d="M26.2946809,13.3875 C24.7520739,13.3875 23.5021277,14.6358838 23.5021277,16.1765625 L23.5021277,21.7546875 C19.8008782,21.7546875 16.8,24.7512571 16.8,28.4484375 C16.8,28.7569086 17.0496534,29.00625 17.3585106,29.00625 C17.6673678,29.00625 17.9170213,28.7569086 17.9170213,28.4484375 C17.9170213,25.3681972 20.4180322,22.8703125 23.5021277,22.8703125 L24.6191489,22.8703125 L24.6191489,16.1765625 C24.6191489,15.2522674 25.3692279,14.503125 26.2946809,14.503125 C27.2201338,14.503125 27.9702128,15.2522674 27.9702128,16.1765625 L27.9702128,23.9859375 C27.9702128,29.8390641 23.2189628,34.584375 17.3585106,34.584375 C12.4659573,34.584375 8.35811181,31.272642 7.13050543,26.775 L5.97829815,26.775 C7.23271265,31.8957189 11.8448937,35.7 17.3585106,35.7 C23.8361167,35.7 29.087234,30.4554466 29.087234,23.9859375 L29.087234,16.1765625 C29.087234,14.6358848 27.8372878,13.3875 26.2946809,13.3875 Z M8.42234043,6.69375 C9.15119698,6.69375 9.76444138,7.16063895 9.99510633,7.809375 L11.2148936,7.809375 L11.2148936,5.0203125 C11.2148936,4.09601715 11.9649736,3.346875 12.8904255,3.346875 C13.8158774,3.346875 14.5659574,4.09601715 14.5659574,5.0203125 L14.5659574,7.809375 L15.6829787,7.809375 L15.6829787,2.7890625 C15.6829787,1.86476715 16.4330587,1.115625 17.3585106,1.115625 C18.2839614,1.115625 19.0340426,1.86476715 19.0340426,2.7890625 L19.0340426,7.809375 L20.1510638,7.809375 L20.1510638,5.0203125 C20.1510638,4.09601715 20.9011428,3.346875 21.8265957,3.346875 C22.7520487,3.346875 23.5021277,4.09601715 23.5021277,5.0203125 L23.5021277,7.809375 L24.6191489,7.809375 L24.6191489,5.0203125 C24.6191489,3.47963432 23.3692027,2.23125 21.8265957,2.23125 C21.1949199,2.23125 20.6190964,2.4487968 20.1510638,2.80133428 L20.1510638,2.7890625 C20.1510638,1.24838432 18.9011176,0 17.3585106,0 C15.8159036,0 14.5659574,1.24838432 14.5659574,2.7890625 L14.5659574,2.80133428 C14.0979259,2.4487968 13.5221013,2.23125 12.8904255,2.23125 C11.3478185,2.23125 10.0978723,3.47963432 10.0978723,5.0203125 L10.0978723,6.1359375 C9.62984076,5.78284196 9.05401624,5.578125 8.42234043,5.578125 C7.07130336,5.578125 5.94422856,6.5364471 5.6861967,7.809375 L6.84957447,7.809375 C7.08023942,7.16063895 7.69348382,6.69375 8.42234043,6.69375 Z" id="Fill-7" fill="#CCCCCC"></path>
                </g>
            </g>
        </g>
    </g>
</svg>