<?xml version="1.0" encoding="UTF-8"?>
<svg width="42px" height="42px" viewBox="0 0 42 42" version="1.1" xmlns="http://www.w3.org/2000/svg" xmlns:xlink="http://www.w3.org/1999/xlink">
    <!-- Generator: Sketch 45.1 (43504) - http://www.bohemiancoding.com/sketch -->
    <title>hassle_free</title>
    <desc>Created with Sketch.</desc>
    <defs></defs>
    <g id="doc_registration" stroke="none" stroke-width="1" fill="none" fill-rule="evenodd">
        <g id="hassle_free">
            <g id="Page-1">
                <polygon id="Stroke-1" points="0 0 42.0000006 0 42.0000006 42.0000006 0 42.0000006"></polygon>
                <g id="Group-12" transform="translate(4.200000, 3.150000)">
                    <polygon id="Fill-2" fill="#F2F2F2" points="0.603191489 1.115625 20.1510638 1.115625 20.1510638 35.1421875 0.603191489 35.1421875"></polygon>
                    <polygon id="Fill-3" fill="#FFFFFF" points="0.603191489 5.0203125 19.5925532 5.0203125 19.5925532 29.5640625 0.603191489 29.5640625"></polygon>
                    <path d="M19.0340426,0 L1.16170213,0 C0.545106327,0 0.0446808511,0.499799982 0.0446808511,1.115625 L0.0446808511,34.584375 C0.0446808511,35.2002 0.545106327,35.7 1.16170213,35.7 L19.0340426,35.7 C19.6506383,35.7 20.1510638,35.2002 20.1510638,34.584375 L20.1510638,1.115625 C20.1510638,0.499799982 19.6506383,0 19.0340426,0 Z M19.0340426,34.584375 L1.16170213,34.584375 L1.16170213,30.121875 L19.0340426,30.121875 L19.0340426,34.584375 Z M19.0340426,29.00625 L1.16170213,29.00625 L1.16170213,5.578125 L19.0340426,5.578125 L19.0340426,29.00625 Z M19.0340426,4.4625 L1.16170213,4.4625 L1.16170213,1.115625 L19.0340426,1.115625 L19.0340426,4.4625 Z M8.42234043,3.346875 L11.7734043,3.346875 C12.0817021,3.346875 12.3319149,3.09697502 12.3319149,2.7890625 C12.3319149,2.4805922 12.0817021,2.23125 11.7734043,2.23125 L8.42234043,2.23125 C8.11348432,2.23125 7.86382979,2.4805922 7.86382979,2.7890625 C7.86382979,3.09697502 8.11348432,3.346875 8.42234043,3.346875 Z" id="Fill-4" fill="#CCCCCC"></path>
                    <polygon id="Fill-5" fill="#F2F2F2" points="7.30531915 18.4078125 32.9968085 18.4078125 32.9968085 35.1421875 7.30531915 35.1421875"></polygon>
                    <path d="M18.4755319,29.00625 C18.4755319,30.4937507 17.7308518,31.2375 16.2414894,31.2375 C14.752128,31.2375 14.0074468,30.4937507 14.0074468,29.00625 C14.0074468,27.5187493 14.752128,26.775 16.2414894,26.775 C17.7308518,26.775 18.4755319,27.5187493 18.4755319,29.00625 Z" id="Fill-6" fill="#FFFFFF"></path>
                    <path d="M21.8265957,28.4484375 L29.6457447,28.4484375 C29.9540415,28.4484375 30.2042553,28.1979789 30.2042553,27.890625 C30.2042553,27.5821539 29.9540415,27.3328125 29.6457447,27.3328125 L21.8265957,27.3328125 C21.5177385,27.3328125 21.2680851,27.5821539 21.2680851,27.890625 C21.2680851,28.1979789 21.5177385,28.4484375 21.8265957,28.4484375 Z M32.4382979,17.85 L7.86382979,17.85 C7.24723399,17.85 6.74680851,18.3492424 6.74680851,18.965625 L6.74680851,34.584375 C6.74680851,35.2002 7.24723399,35.7 7.86382979,35.7 L32.4382979,35.7 C33.0548936,35.7 33.5553191,35.2002 33.5553191,34.584375 L33.5553191,18.965625 C33.5553191,18.3492424 33.0548936,17.85 32.4382979,17.85 Z M32.4382979,34.584375 L7.86382979,34.584375 L7.86382979,23.428125 L32.4382979,23.428125 L32.4382979,34.584375 Z M32.4382979,21.196875 L7.86382979,21.196875 L7.86382979,18.965625 L32.4382979,18.965625 L32.4382979,21.196875 Z M12.8904255,31.7953125 C13.5221013,31.7953125 14.0979259,31.5772084 14.5659574,31.2246709 C15.033989,31.5772084 15.6098135,31.7953125 16.2414894,31.7953125 C17.7840963,31.7953125 19.0340426,30.5469287 19.0340426,29.00625 C19.0340426,27.4655713 17.7840963,26.2171875 16.2414894,26.2171875 C15.6098135,26.2171875 15.033989,26.4341765 14.5659574,26.786714 C14.0979259,26.4341765 13.5221013,26.2171875 12.8904255,26.2171875 C11.3478185,26.2171875 10.0978723,27.4655713 10.0978723,29.00625 C10.0978723,30.5469287 11.3478196,31.7953125 12.8904255,31.7953125 Z M15.3009574,27.6217602 C15.5690423,27.4393557 15.8929784,27.3328125 16.2414894,27.3328125 C17.1669423,27.3328125 17.9170213,28.0813963 17.9170213,29.00625 C17.9170213,29.9299865 17.1669423,30.6796875 16.2414894,30.6796875 C15.8929784,30.6796875 15.5690423,30.5731443 15.3009574,30.3907397 C15.5372076,29.9813068 15.6829787,29.5127443 15.6829787,29.00625 C15.6829787,28.4997557 15.5372076,28.0311931 15.3009574,27.6217602 Z M21.8265957,30.6796875 L25.7361702,30.6796875 C26.0450274,30.6796875 26.2946809,30.4292289 26.2946809,30.121875 C26.2946809,29.8134039 26.0450274,29.5640625 25.7361702,29.5640625 L21.8265957,29.5640625 C21.5177385,29.5640625 21.2680851,29.8134039 21.2680851,30.121875 C21.2680851,30.4292289 21.5177385,30.6796875 21.8265957,30.6796875 Z" id="Fill-7" fill="#CCCCCC"></path>
                </g>
            </g>
        </g>
    </g>
</svg>