<?xml version="1.0" encoding="UTF-8"?>
<svg width="42px" height="42px" viewBox="0 0 42 42" version="1.1" xmlns="http://www.w3.org/2000/svg" xmlns:xlink="http://www.w3.org/1999/xlink">
    <!-- Generator: Sketch 45.1 (43504) - http://www.bohemiancoding.com/sketch -->
    <title>increased_revenue</title>
    <desc>Created with Sketch.</desc>
    <defs></defs>
    <g id="doc_registration" stroke="none" stroke-width="1" fill="none" fill-rule="evenodd">
        <g id="increased_revenue">
            <g id="Group-10">
                <polygon id="Stroke-1" points="0 0 42.0000006 0 42.0000006 42.0000006 0 42.0000006"></polygon>
                <g id="Group-9" transform="translate(0.000000, 5.880000)">
                    <polygon id="Fill-2" fill="#FFFFFF" points="7.21875 15.2393939 13.78125 15.2393939 13.78125 29.6768939 7.21875 29.6768939"></polygon>
                    <polygon id="Fill-3" fill="#F2F2F2" points="17.71875 8.67689392 24.28125 8.67689392 24.28125 29.6768939 17.71875 29.6768939"></polygon>
                    <polygon id="Fill-4" fill="#FFFFFF" points="28.21875 2.11439392 34.78125 2.11439392 34.78125 29.6768939 28.21875 29.6768939"></polygon>
                    <path d="M41.34375,29.0206439 L35.4375,29.0206439 L35.4375,2.77064392 C35.4375,2.04614386 34.8495,1.45814392 34.125,1.45814392 L28.875,1.45814392 C28.1504999,1.45814392 27.5625,2.04614386 27.5625,2.77064392 L27.5625,29.0206439 L24.9375,29.0206439 L24.9375,9.33314392 C24.9375,8.60864386 24.3495,8.02064392 23.625,8.02064392 L18.375,8.02064392 C17.6504999,8.02064392 17.0625,8.60864386 17.0625,9.33314392 L17.0625,29.0206439 L14.4375,29.0206439 L14.4375,15.8956439 C14.4375,15.1711439 13.8495,14.5831439 13.125,14.5831439 L7.875,14.5831439 C7.15049993,14.5831439 6.5625,15.1711439 6.5625,15.8956439 L6.5625,29.0206439 L0.65625,29.0206439 C0.293343728,29.0206439 0,29.3139867 0,29.6768939 C0,30.0391427 0.293343747,30.3331439 0.65625,30.3331439 L41.34375,30.3331439 C41.7066572,30.3331439 42,30.0391427 42,29.6768939 C42,29.3139867 41.7066572,29.0206439 41.34375,29.0206439 Z M10.5,29.0206439 L10.5,17.8643939 C10.5,17.5014867 10.2066565,17.2081439 9.84375,17.2081439 C9.48084342,17.2081439 9.1875,17.5014867 9.1875,17.8643939 L9.1875,29.0206439 L7.875,29.0206439 L7.875,15.8956439 L13.125,15.8956439 L13.125,29.0206439 L10.5,29.0206439 Z M21,29.0206439 L21,11.3018939 C21,10.938988 20.7066559,10.6456439 20.34375,10.6456439 C19.9808441,10.6456439 19.6875,10.938988 19.6875,11.3018939 L19.6875,29.0206439 L18.375,29.0206439 L18.375,9.33314392 L23.625,9.33314392 L23.625,29.0206439 L21,29.0206439 Z M31.5,29.0206439 L31.5,4.73939392 C31.5,4.37648735 31.2066572,4.08314392 30.84375,4.08314392 C30.4808428,4.08314392 30.1875,4.37648735 30.1875,4.73939392 L30.1875,29.0206439 L28.875,29.0206439 L28.875,2.77064392 L34.125,2.77064392 L34.125,29.0206439 L31.5,29.0206439 Z" id="Fill-5" fill="#CCCCCC"></path>
                    <path d="M15.7040627,0.571550279 C15.6948752,0.547925115 15.6824058,0.527581273 15.6705936,0.50526914 C15.646969,0.459331844 15.6194066,0.417331759 15.5859375,0.379268885 C15.5675626,0.357612641 15.5491876,0.337268799 15.5281879,0.317581476 C15.4881561,0.282144042 15.4448436,0.25458166 15.3982505,0.229644088 C15.3772507,0.217831824 15.3595316,0.203394114 15.3372189,0.194206654 C15.2617503,0.164018839 15.1803749,0.145643924 15.09375,0.145643924 C15.0832495,0.145643924 15.0747191,0.150894167 15.0642187,0.151550056 C15.0517505,0.152206568 15.039937,0.144987405 15.026813,0.145643924 L11.15625,0.145643924 C10.7933441,0.145643924 10.5,0.438987372 10.5,0.801893924 C10.5,1.16414392 10.7933441,1.45814392 11.15625,1.45814392 L13.4760936,1.45814392 L6.74821868,8.18601945 C6.4883438,8.44589438 6.4883438,8.86655109 6.74821868,9.12708195 C7.00809368,9.38695688 7.42874974,9.38695688 7.68928125,9.12708195 L14.4375,2.37755017 L14.4375,4.73939392 C14.4375,5.10164392 14.7308441,5.39564392 15.09375,5.39564392 C15.4566559,5.39564392 15.75,5.10164392 15.75,4.73939392 L15.75,0.801893924 C15.75,0.719862674 15.7309691,0.644394068 15.7040627,0.571550279 Z" id="Fill-6" fill="#CCCCCC"></path>
                </g>
            </g>
        </g>
    </g>
</svg>