<?xml version="1.0" encoding="UTF-8"?>
<svg width="170px" height="60px" viewBox="0 0 170 60" version="1.1" xmlns="http://www.w3.org/2000/svg" xmlns:xlink="http://www.w3.org/1999/xlink">
    <!-- Generator: Sketch 42 (36781) - http://www.bohemiancoding.com/sketch -->
    <title>logo</title>
    <desc>Created with Sketch.</desc>
    <defs></defs>
    <g id="Customer-New" stroke="none" stroke-width="1" fill="none" fill-rule="evenodd">
        <g id="logo" fill="#FFFFFF">
            <g id="logo_new">
                <g transform="translate(0.000000, 13.000000)">
                    <path d="M58.6036218,11.7984337 C62.1654987,10.9148798 66.6702252,16.700054 68.6606858,24.7361869 C68.7863991,25.2200378 68.8911602,25.7249257 68.9959213,26.2087767 C67.7597405,23.894707 66.062611,22.4852282 64.3654814,22.7166352 C61.6835977,23.0953011 60.070277,27.4920335 60.7826524,32.5619498 C60.8874135,33.2351337 61.0131268,33.8872806 61.1807445,34.5183905 C61.1807445,34.4973535 61.1807445,34.4973535 61.1807445,34.4973535 C61.32741,35.2546854 61.0131268,35.9909803 60.3845603,36.2223873 C59.8188504,36.4327572 59.1693317,36.1592763 58.7712396,35.5912773 C57.556011,33.4665406 56.487448,30.857953 55.7750726,27.9548474 C53.784612,19.9187146 55.041745,12.6819876 58.6036218,11.7984337 Z M59.7140893,39.2727518 C59.7140893,38.7468269 59.9864681,38.284013 60.4264647,38.010532 C60.6359869,37.88431 60.9083657,37.800162 61.1807445,37.800162 C61.9978809,37.800162 62.6473997,38.4523089 62.6473997,39.2727518 C62.6473997,39.5251958 62.584543,39.7776398 62.4588297,39.9880097 C62.2074031,40.4508237 61.7255021,40.7453416 61.1807445,40.7453416 C60.363608,40.7453416 59.7140893,40.0931947 59.7140893,39.2727518 Z M58.037912,9.18984607 C56.0707417,9.18984607 54.4760352,7.58868672 54.4760352,5.61355658 C54.4760352,3.63842643 56.0707417,2.03726708 58.037912,2.03726708 C60.0050823,2.03726708 61.5997888,3.63842643 61.5997888,5.61355658 C61.5997888,7.58868672 60.0050823,9.18984607 58.037912,9.18984607 Z M73.2701735,36.7062382 C71.8244705,36.6010532 70.7559075,34.5815015 70.6930508,32.0149878 L70.6930508,32.2674318 C70.6930508,29.7850662 70.3368632,27.0502565 69.64544,24.2312989 C68.5559247,19.7924926 66.7540341,15.9427221 64.7216691,13.2920605 C66.062611,14.1545774 67.5502183,14.6384283 69.0797302,14.6384283 C71.384474,14.6384283 73.5425523,13.5445045 75.3653951,11.6722117 C75.3444429,11.6932487 75.3444429,11.6932487 75.3444429,11.6932487 C75.7215828,11.3776938 76.1825316,11.1883608 76.6434804,11.1883608 C77.8587089,11.1883608 78.9063198,12.4505806 79.3044119,14.1966514 C79.6605996,16.0689441 79.8491695,18.0884958 79.8491695,20.1711585 C79.8491695,26.8609236 77.8377567,32.7302457 74.8625419,36.0120173 C74.380641,36.4958682 73.8358833,36.7483122 73.2701735,36.7062382 Z" id="Combined-Shape" fill-rule="nonzero"></path>
                    <path d="M123.540156,13.3790154 L123.540156,18.7507157 L116.983777,18.7507157 L116.983777,34.8881988 L111.653932,34.8881988 L111.631632,14.1400063 C111.631632,8.827965 112.575681,5.12749734 114.463809,3.03849233 C116.247866,1.06885904 119.273285,0.0840571623 123.540156,0.0840571623 L123.540156,5.47813956 C120.849202,5.47813956 119.14694,5.87355243 118.433317,6.66439004 C117.526421,7.66412815 117.043246,9.90231424 116.983777,13.3790154 L123.540156,13.3790154 Z M131.679877,1.69556726 C132.244829,2.24766144 132.5273,2.92657788 132.5273,3.73233696 C132.5273,4.52317457 132.244829,5.20209101 131.679877,5.76910666 C131.114925,6.3361223 130.438481,6.61962587 129.650522,6.61962587 C128.862563,6.61962587 128.186118,6.3361223 127.621167,5.76910666 C127.056215,5.20209101 126.773744,4.52317457 126.773744,3.73233696 C126.773744,2.92657788 127.056215,2.24766144 127.621167,1.69556726 C128.186118,1.12855161 128.862563,0.84504804 129.650522,0.84504804 C130.438481,0.84504804 131.114925,1.12855161 131.679877,1.69556726 Z M132.326595,13.3790154 L132.326595,34.8881988 L126.974449,34.8881988 L126.974449,13.3790154 L132.326595,13.3790154 Z M136.095397,13.3790154 L140.064905,13.3790154 L140.064905,0.84504804 L145.41705,0.84504804 L145.41705,13.3790154 L149.208154,13.3790154 L149.208154,18.7507157 L145.41705,18.7507157 L145.41705,34.8881988 L140.064905,34.8881988 L140.064905,18.7507157 L136.095397,18.7507157 L136.095397,13.3790154 Z M158.373703,29.8969939 C158.998123,30.2401876 159.726602,30.4565456 160.559162,30.5460743 C161.421457,30.6356031 162.149936,30.5535363 162.744622,30.2998714 C163.413643,30.0014421 163.777883,29.5165018 163.837351,28.8450359 C163.89682,27.9945124 163.346744,27.3678203 162.187106,26.9649408 C161.785694,26.8306476 161.183583,26.6814352 160.380757,26.5172991 C159.265721,26.2785557 158.57441,26.1293433 158.306801,26.0696574 C156.552478,25.6369349 155.236755,25.0326247 154.359594,24.2567086 C153.170222,23.1823631 152.575545,21.6454754 152.575545,19.6459991 C152.575545,17.5271512 153.527028,15.7589842 155.430023,14.3414451 C157.080276,13.1328065 159.027843,12.5284962 161.272782,12.5284962 C162.774363,12.5284962 164.186721,12.826921 165.509897,13.4237796 C166.922276,14.0654026 168.029861,14.9681376 168.832687,16.1320118 L164.439468,19.1759753 C164.112391,18.5940382 163.606915,18.146401 162.923026,17.8330503 C162.298606,17.5644639 161.629595,17.4525546 160.915972,17.497319 C160.202349,17.5420834 159.622539,17.7360595 159.176525,18.0792532 C158.685909,18.4522898 158.455472,18.9297695 158.485206,19.5117066 C158.485206,20.0339579 158.789978,20.4517526 159.399531,20.7651034 C159.890146,21.0336897 160.663226,21.2575083 161.718794,21.4365659 C164.469216,21.9140528 166.357315,22.4810599 167.383148,23.1376043 C169.107737,24.2119498 169.970018,26.0024986 169.970018,28.5093046 C169.970018,30.6281526 168.929334,32.3963196 166.847933,33.8138587 C165.078743,35.0224973 163.064275,35.6268076 160.804469,35.6268076 C158.87174,35.6268076 157.080276,35.1717097 155.430023,34.2615004 C153.556762,33.2319193 152.374842,31.8740865 151.884226,30.187961 L157.347875,28.598833 C157.377609,29.0763198 157.719548,29.5090358 158.373703,29.8969939 Z" id="efits"></path>
                    <path d="M23.1319234,0.84504804 L23.1319234,34.8881988 L17.7797779,34.8881988 L17.7797779,32.6276082 C16.5012034,34.6270844 14.4718685,35.6268076 11.6917123,35.6268076 C8.53987755,35.6268076 5.84153116,34.5077145 3.59659223,32.2694949 C1.36652045,30.0163537 0.251501283,27.3081486 0.251501283,24.1447981 C0.251501283,20.9665262 1.36652045,18.2583211 3.59659223,16.0201014 C5.84153116,13.7818818 8.53987755,12.6627887 11.6917123,12.6627887 C14.4718685,12.6627887 16.5012034,13.6625118 17.7797779,15.6619881 L17.7797779,0.84504804 L23.1319234,0.84504804 Z M17.7797779,24.0776519 C17.7649107,22.4213693 17.1702338,21.0038515 15.9957294,19.8250558 C14.8063577,18.6313387 13.3716997,18.034489 11.6917123,18.034489 C10.0117249,18.034489 8.57706693,18.6313387 7.38769531,19.8250558 C6.19832369,21.018773 5.60364681,22.4586727 5.60364681,24.1447981 C5.60364681,25.8309236 6.19832369,27.2708233 7.38769531,28.4645405 C8.57706693,29.6582576 10.0117249,30.2551072 11.6917123,30.2551072 C13.3716997,30.2551072 14.8063577,29.6582576 15.9957294,28.4645405 C17.1702338,27.2857448 17.7649107,25.8607663 17.7797779,24.1895623 L17.7797779,24.0776519 Z" id="de"></path>
                    <path d="M50.6139633,26.8745164 C50.1445114,28.6339163 49.210142,30.2455497 47.8108271,31.7094649 C46.416597,33.1874017 44.8044354,34.2606295 42.9742938,34.9291803 C39.9985673,36.0162133 37.0720646,35.8864115 34.1946977,34.5397711 C31.3363862,33.2020488 29.3657221,31.0399208 28.2826463,28.0533221 C27.1995704,25.0667235 27.3244569,22.1390907 28.6573094,19.270336 C29.9990476,16.3824563 32.1577476,14.3950297 35.133474,13.3079967 C38.1092004,12.2209637 41.028718,12.3533171 43.8921144,13.705061 C46.7504258,15.0427833 48.7338019,17.2399648 49.8423021,20.2966714 C50.0812906,20.9556861 50.2618519,21.6280937 50.3839912,22.3139144 L34.3319133,28.1777392 C35.0917669,29.1387338 36.1233373,29.8019659 37.4266555,30.1674555 C38.7299737,30.5329451 40.0172733,30.4834841 41.2885931,30.0190709 C43.3841751,29.2535547 44.7746348,27.9834348 45.4600138,26.2086731 L50.6139633,26.8745164 Z M43.6576704,19.8644252 C41.7556224,17.8915562 39.5472823,17.3644393 37.0325839,18.2830588 C34.4899444,19.2118851 33.1358485,21.04036 32.9702556,23.7685383 L43.6576704,19.8644252 Z" id="Combined-Shape"></path>
                    <path d="M107.196053,26.8745164 C106.726601,28.6339163 105.792232,30.2455497 104.392917,31.7094649 C102.998687,33.1874017 101.386525,34.2606295 99.5563833,34.9291803 C96.5806569,36.0162133 93.6541541,35.8864115 90.7767872,34.5397711 C87.9184758,33.2020488 85.9478117,31.0399208 84.8647358,28.0533221 C83.78166,25.0667235 83.9065464,22.1390907 85.2393989,19.270336 C86.5811372,16.3824563 88.7398371,14.3950297 91.7155635,13.3079967 C94.69129,12.2209637 97.6108076,12.3533171 100.474204,13.705061 C103.332515,15.0427833 105.315891,17.2399648 106.424392,20.2966714 C106.66338,20.9556861 106.843941,21.6280937 106.966081,22.3139144 L90.9140029,28.1777392 C91.6738564,29.1387338 92.7054268,29.8019659 94.008745,30.1674555 C95.3120632,30.5329451 96.5993629,30.4834841 97.8706826,30.0190709 C99.9662646,29.2535547 101.356724,27.9834348 102.042103,26.2086731 L107.196053,26.8745164 Z M100.23976,19.8644252 C98.337712,17.8915562 96.1293719,17.3644393 93.6146735,18.2830588 C91.072034,19.2118851 89.7179381,21.04036 89.5523452,23.7685383 L100.23976,19.8644252 Z" id="Combined-Shape-Copy"></path>
                </g>
            </g>
        </g>
    </g>
</svg>