<?xml version="1.0" encoding="UTF-8"?>
<svg width="150px" height="30px" viewBox="0 0 150 30" version="1.1" xmlns="http://www.w3.org/2000/svg" xmlns:xlink="http://www.w3.org/1999/xlink">
    <!-- Generator: Sketch 46.2 (44496) - http://www.bohemiancoding.com/sketch -->
    <title>logo_colored</title>
    <desc>Created with Sketch.</desc>
    <defs></defs>
    <g id="Page-1" stroke="none" stroke-width="1" fill="none" fill-rule="evenodd">
        <g id="updated_logo-copy" transform="translate(-30.000000, -17.000000)">
            <g id="logo_colored" transform="translate(30.000000, 17.000000)">
                <g id="Group">
                    <path d="M0,15 L0,0 L7.5,0 C11.6421356,0 15,3.35786438 15,7.5 C15,11.6421356 11.6421356,15 7.5,15 L0,15 Z M3.75,11.25 L7.5,11.25 C9.57106781,11.25 11.25,9.57106781 11.25,7.5 C11.25,5.42893219 9.57106781,3.75 7.5,3.75 L3.75,3.75 L3.75,11.25 Z" id="Combined-Shape" fill="#45CDD8"></path>
                    <path d="M30,30 L22.5,30 C18.3578644,30 15,26.6421356 15,22.5 C15,18.3578644 18.3578644,15 22.5,15 L30,15 L30,30 Z M26.25,26.25 L26.25,18.75 L22.5,18.75 C20.4289322,18.75 18.75,20.4289322 18.75,22.5 C18.75,24.5710678 20.4289322,26.25 22.5,26.25 L26.25,26.25 Z" id="Combined-Shape-Copy-3" fill="#45CDD8"></path>
                    <path d="M15,9.18485099e-16 L30,0 L30,7.5 C30,11.6421356 26.6421356,15 22.5,15 C18.3578644,15 15,11.6421356 15,7.5 L15,9.18485099e-16 Z M18.75,3.75 L18.75,7.5 C18.75,9.57106781 20.4289322,11.25 22.5,11.25 C24.5710678,11.25 26.25,9.57106781 26.25,7.5 L26.25,3.75 L18.75,3.75 Z" id="Combined-Shape-Copy" fill="#3791E5"></path>
                    <path d="M0,30 L0,22.5 C0,18.3578644 3.35786438,15 7.5,15 C11.6421356,15 15,18.3578644 15,22.5 L15,30 L0,30 Z M3.75,26.25 L11.25,26.25 L11.25,22.5 C11.25,20.4289322 9.57106781,18.75 7.5,18.75 C5.42893219,18.75 3.75,20.4289322 3.75,22.5 L3.75,26.25 Z" id="Combined-Shape-Copy-2" fill="#3791E5"></path>
                </g>
                <path d="M42.8235738,14.6197183 C41.9182651,15.530521 41.4656175,16.6337963 41.4656175,17.9295775 C41.4656175,19.2159689 41.9182651,20.3145494 42.8235738,21.2253521 C43.7383128,22.1361548 44.8463563,22.5915493 46.1477376,22.5915493 C47.4396885,22.5915493 48.543017,22.1361548 49.457756,21.2253521 C50.372495,20.3145494 50.8298576,19.2159689 50.8298576,17.9295775 C50.8298576,16.6337963 50.372495,15.530521 49.457756,14.6197183 C48.543017,13.7089156 47.4396885,13.2535211 46.1477376,13.2535211 C44.8463563,13.2535211 43.7383128,13.7089156 42.8235738,14.6197183 Z M54.2954751,4 L54.2954751,17.9295775 C54.2860448,20.1643304 53.4844815,22.0657199 51.8907609,23.6338028 C50.2970404,25.2112755 48.3827184,26 46.1477376,26 C43.9033264,26 41.9842894,25.2065807 40.3905688,23.6197183 C38.7968483,22.0328559 38,20.1220769 38,17.8873239 C38,15.652571 38.7968483,13.741792 40.3905688,12.1549296 C41.9842894,10.5680672 43.9033264,9.77464789 46.1477376,9.77464789 C48.1941125,9.77464789 49.7548035,10.2441268 50.8298576,11.1830986 L50.8298576,4 L54.2954751,4 Z M64.8479269,13.2535211 C63.5465457,13.2535211 62.4385022,13.7089156 61.5237632,14.6197183 C60.6184545,15.530521 60.1658069,16.6337963 60.1658069,17.9295775 L60.1658069,18.028169 L68.0730731,14.4929577 C67.3752309,13.6666625 66.300193,13.2535211 64.8479269,13.2535211 Z M72.2459595,14.5070423 C72.3591231,14.7417852 72.415704,14.9812194 72.415704,15.2253521 C72.415704,15.4225362 72.3779834,15.6197173 72.302541,15.8169014 C72.1422259,16.2582182 71.8404609,16.5774638 71.3972368,16.7746479 C70.076995,17.3662001 68.341846,18.1455351 66.1917378,19.1126761 C63.5229632,20.31456 61.9575571,21.0234731 61.4954724,21.2394366 C62.2121751,22.1408496 63.3296488,22.5915493 64.8479269,22.5915493 L64.8479269,26 C62.6035158,26 60.6844787,25.2065807 59.0907582,23.6197183 C57.4970377,22.0328559 56.7001894,20.1220769 56.7001894,17.8873239 C56.7001894,15.652571 57.4970377,13.741792 59.0907582,12.1549296 C60.6844787,10.5680672 62.6035158,9.77464789 64.8479269,9.77464789 C66.4699384,9.77464789 67.9504731,10.215958 69.2895755,11.0985915 C70.6192477,11.9624456 71.6046992,13.0985845 72.2459595,14.5070423 Z M78.6538156,26 L75.1881981,26 L75.1881981,16.5915493 C75.1881981,14.7136056 75.8577392,13.1079879 77.1968417,11.7746479 C78.5359441,10.4413079 80.1485011,9.77464789 82.0345609,9.77464789 C83.9111904,9.77464789 85.5190322,10.4413079 86.8581347,11.7746479 C88.1972371,13.1079879 88.8667783,14.7136056 88.8667783,16.5915493 L88.8667783,26 L85.4011608,26 L85.4011608,16.5915493 C85.4011608,15.6619672 85.0758203,14.8685479 84.4251297,14.2112676 C83.7650088,13.5539873 82.9681605,13.2253521 82.0345609,13.2253521 C81.091531,13.2253521 80.2899676,13.5539873 79.6298467,14.2112676 C78.979156,14.8685479 78.6538156,15.6619672 78.6538156,16.5915493 L78.6538156,26 Z M99.4192301,13.2535211 C98.1178489,13.2535211 97.0098053,13.7089156 96.0950663,14.6197183 C95.1897576,15.530521 94.7371101,16.6337963 94.7371101,17.9295775 L94.7371101,18.028169 L102.644376,14.4929577 C101.946534,13.6666625 100.871496,13.2535211 99.4192301,13.2535211 Z M106.817263,14.5070423 C106.930426,14.7417852 106.987007,14.9812194 106.987007,15.2253521 C106.987007,15.4225362 106.949287,15.6197173 106.873844,15.8169014 C106.713529,16.2582182 106.411764,16.5774638 105.96854,16.7746479 C104.648298,17.3662001 102.913149,18.1455351 100.763041,19.1126761 C98.0942664,20.31456 96.5288602,21.0234731 96.0667756,21.2394366 C96.7834783,22.1408496 97.900952,22.5915493 99.4192301,22.5915493 L99.4192301,26 C97.174819,26 95.2557819,25.2065807 93.6620614,23.6197183 C92.0683408,22.0328559 91.2714925,20.1220769 91.2714925,17.8873239 C91.2714925,15.652571 92.0683408,13.741792 93.6620614,12.1549296 C95.2557819,10.5680672 97.174819,9.77464789 99.4192301,9.77464789 C101.041242,9.77464789 102.521776,10.215958 103.860879,11.0985915 C105.190551,11.9624456 106.176002,13.0985845 106.817263,14.5070423 Z M118.277584,4 L118.277584,7.43661972 L115.997613,7.43661972 C115.224328,7.43661972 114.568932,7.70422268 114.031405,8.23943662 C113.503309,8.77465056 113.234549,9.29107732 113.225119,9.78873239 L118.277584,9.78873239 L118.277584,13.2394366 L113.225119,13.2394366 L113.225119,26 L109.759501,26 L109.759501,10.1971831 C109.778362,8.47886465 110.386607,7.01878535 111.584255,5.81690141 C112.800764,4.60562775 114.271868,4 115.997613,4 L118.277584,4 Z M125.663787,9.77426595 L125.663787,26 L122.198169,26 L122.198169,9.77426595 L125.663787,9.77426595 Z M123.938051,7.94366197 C123.391093,7.94366197 122.924301,7.75117563 122.537658,7.36619718 C122.151016,6.98121873 121.957698,6.51643465 121.957698,5.97183099 C121.957698,5.43661704 122.151016,4.97652775 122.537658,4.5915493 C122.924301,4.20657085 123.391093,4.01408451 123.938051,4.01408451 C124.475578,4.01408451 124.937655,4.20657085 125.324298,4.5915493 C125.72037,4.96713803 125.918404,5.42722732 125.918404,5.97183099 C125.918404,6.52582437 125.72037,6.99060845 125.324298,7.36619718 C124.937655,7.75117563 124.475578,7.94366197 123.938051,7.94366197 Z M133.232846,4 L133.232846,9.77464789 L136.828337,9.77426595 L136.828337,13.2253521 L133.232846,13.2253521 L133.232846,21.5774648 C133.232846,21.8497666 133.327148,22.0798113 133.515754,22.2676056 C133.70436,22.4554 133.940114,22.5492958 134.223023,22.5492958 L136.828337,22.5492958 L136.828337,26 L134.223023,26 C132.997084,26 131.945621,25.5680794 131.068604,24.7042254 C130.201016,23.8309815 129.767229,22.7887385 129.767229,21.5774648 L129.767229,4 L133.232846,4 Z M144.610611,13.2253521 C144.195678,13.2253521 143.846762,13.3661958 143.563853,13.6478873 C143.280944,13.9389686 143.139492,14.286383 143.139492,14.6901408 C143.139492,15.2535239 143.412966,15.6760549 143.959924,15.9577465 C144.14853,16.0610334 144.935948,16.2957728 146.322202,16.6619718 C147.444407,16.9812223 148.278976,17.3990585 148.825934,17.915493 C149.608648,18.6572807 150,19.7136082 150,21.084507 C150,22.4366265 149.519062,23.5962393 148.557171,24.5633803 C147.585851,25.5211315 146.421226,26 145.063263,26 L141.37132,26 L141.37132,22.5492958 L145.204717,22.5492958 C145.61965,22.5492958 145.968566,22.4084521 146.251475,22.1267606 C146.534384,21.845069 146.675836,21.4976546 146.675836,21.084507 C146.675836,20.5680725 146.407077,20.1784051 145.86955,19.915493 C145.728095,19.8497649 144.935962,19.6150255 143.493126,19.2112676 C142.370921,18.8826275 141.536352,18.4507069 140.989394,17.915493 C140.20668,17.1549258 139.815328,16.0798192 139.815328,14.6901408 C139.815328,13.3380214 140.296266,12.1831034 141.258157,11.2253521 C142.229477,10.2582111 143.394102,9.77464789 144.752065,9.77464789 L147.354814,9.77464789 L147.354814,13.2253521 L144.610611,13.2253521 Z" id="denefits" fill="#1E4468"></path>
            </g>
        </g>
    </g>
</svg>