<?xml version="1.0" encoding="UTF-8"?>
<svg width="58px" height="40px" viewBox="0 0 58 40" version="1.1" xmlns="http://www.w3.org/2000/svg" xmlns:xlink="http://www.w3.org/1999/xlink">
    <!-- Generator: Sketch 42 (36781) - http://www.bohemiancoding.com/sketch -->
    <title>mail_graphic</title>
    <desc>Created with Sketch.</desc>
    <defs></defs>
    <g id="Customer-New" stroke="none" stroke-width="1" fill="none" fill-rule="evenodd">
        <g id="mail_graphic">
            <g id="Group">
                <path d="M1.91846539e-13,5.99922047 C1.9095836e-13,2.68594249 2.68113741,7.77156117e-14 6.00212389,7.86037901e-14 L51.9978761,7.81597009e-14 C55.3127576,7.72715225e-14 58,2.68662393 58,5.99922047 L58,34.0007795 C58,37.3140575 55.3188626,40 51.9978761,40 L6.00212389,40 C2.6872424,40 1.91846539e-13,37.3133761 1.91846539e-13,34.0007795 L1.91846539e-13,5.99922047 Z" id="Rectangle-9" fill="#4582BC"></path>
                <path d="M0,34.0056959 C0,37.3162587 2.68113741,40 6.00212389,40 L51.9978761,40 C55.3127576,40 58,37.3167544 58,34.0056959 L32.3976734,18 C30.5211902,16.8349177 27.4816651,16.8331449 25.6023266,18 L0,34.0056959 Z" id="Rectangle-9-Copy-2" fill="#4C8FCF"></path>
                <path d="M0,5.99430406 C0,2.68374134 2.68113741,-6.66133815e-16 6.00212389,0 L51.9978761,1.99840144e-15 C55.3127576,1.11022302e-15 58,2.68324555 58,5.99430406 L32.1864632,25 C30.4266282,26.3353929 27.5717771,26.3341828 25.8135368,25 L0,5.99430406 Z" id="Rectangle-9-Copy" fill="#5F9EDA"></path>
            </g>
        </g>
    </g>
</svg>