<?xml version="1.0" encoding="UTF-8"?>
<svg width="240px" height="141px" viewBox="0 0 240 141" version="1.1" xmlns="http://www.w3.org/2000/svg" xmlns:xlink="http://www.w3.org/1999/xlink">
    <!-- Generator: Sketch 43.2 (39069) - http://www.bohemiancoding.com/sketch -->
    <title>mailbox</title>
    <desc>Created with Sketch.</desc>
    <defs></defs>
    <g id="add_patient" stroke="none" stroke-width="1" fill="none" fill-rule="evenodd">
        <g id="Add_patient_4" transform="translate(-600.000000, -210.000000)" fill-rule="nonzero">
            <g id="mailbox" transform="translate(600.000000, 210.000000)">
                <path d="M43.5529412,34.6255714 L43.5529412,34.6255714 C19.499316,34.6255714 2.94571951e-15,54.1005132 0,78.1240714 L0,121.703143 C6.63622386e-16,127.115257 4.39287669,131.502643 9.81176471,131.502643 L148.578151,131.502643 L148.578151,34.6255714 L43.5529412,34.6255714 Z" id="Shape" fill="#18BAE2"></path>
                <path d="M0,90.4716429 L0,121.693071 C6.63622386e-16,127.105186 4.39287669,131.492571 9.81176471,131.492571 L148.578151,131.492571 L148.578151,90.4716429 L0,90.4716429 Z" id="Shape" fill="#17B2D9"></path>
                <path d="M148.578151,34.6255714 L148.578151,34.6255714 C172.631776,34.6255714 192.131092,54.1005132 192.131092,78.1240714 L192.131092,131.502643 L105.02521,131.502643 L105.02521,78.1240714 C105.02521,54.1005132 124.524526,34.6255714 148.578151,34.6255714 L148.578151,34.6255714 Z" id="Shape" fill="#EEEEEE"></path>
                <path d="M111.70084,131.512714 L111.70084,78.1341429 C111.70084,64.9756172 118.729616,52.8166379 130.139496,46.237375 C141.549375,39.6581121 155.606927,39.6581121 167.016807,46.237375 C178.426687,52.8166379 185.455462,64.9756172 185.455462,78.1341429 L185.455462,131.512714 L111.70084,131.512714 Z" id="Shape" fill="#707070"></path>
                <path d="M235.966387,123.667071 L0.191596639,123.667071 C1.12564009,128.23233 5.14633666,131.511373 9.81176471,131.512714 L235.966387,131.512714 C238.058335,131.406815 239.70008,129.681908 239.70008,127.589893 C239.70008,125.497878 238.058335,123.772971 235.966387,123.667071 L235.966387,123.667071 Z" id="Shape" fill="#149EC0"></path>
                <rect id="Rectangle-path" fill="#707070" x="154.638655" y="131.512714" width="35.5159664" height="9.15492857" rx="4.57746429"></rect>
                <path d="M159.226891,131.512714 L159.226891,131.512714 C156.698448,131.512714 154.648739,133.55986 154.648739,136.085143 L154.648739,136.085143 C154.648739,138.610425 156.698448,140.657571 159.226891,140.657571 L159.226891,140.657571 C161.755334,140.657571 163.805042,138.610425 163.805042,136.085143 L163.805042,136.085143 C163.805042,133.55986 161.755334,131.512714 159.226891,131.512714 Z" id="Shape" fill="#18BAE2"></path>
                <path d="M79.2504202,90.1493571 L74.8033613,90.1493571 L74.8033613,2.21571429 C74.8033552,1.62632116 75.0384718,1.06121388 75.4567024,0.645396123 C75.8749331,0.229578362 76.4418081,-0.00267905968 77.0319328,-8.80307112e-14 L77.0319328,-8.80307112e-14 C78.2571695,-8.79557793e-14 79.2504202,0.992009076 79.2504202,2.21571429 L79.2504202,90.1493571 Z" id="Shape" fill="#707070"></path>
                <ellipse id="Oval" fill="#707070" cx="77.0319328" cy="90.1493571" rx="10.1445378" ry="10.1318571"></ellipse>
                <ellipse id="Oval" fill="#AAAAAA" cx="77.0319328" cy="90.1493571" rx="6.51428571" ry="6.50614286"></ellipse>
                <path d="M74.8033613,4.02857143 L59.5865546,11.8238571 C58.1397336,12.5623862 57.2292681,14.0483409 57.2292681,15.6711429 C57.2292681,17.2939449 58.1397336,18.7798995 59.5865546,19.5184286 L74.712605,27.2029286 L74.8033613,4.02857143 Z" id="Shape" fill="#AAAAAA"></path>
                <rect id="Rectangle-path" fill="#CCCCCC" x="150.564706" y="70.5100714" width="74.9445378" height="44.1632143"></rect>
                <polygon id="Shape" fill="#DDDDDD" points="225.509244 114.663214 188.036975 86.0301429 150.564706 114.663214"></polygon>
                <path d="M150.564706,70.5 L184.436975,96.3835714 C186.562273,98.0054675 189.511676,98.0054675 191.636975,96.3835714 L225.509244,70.5 L150.564706,70.5 Z" id="Shape" fill="#EEEEEE"></path>
            </g>
        </g>
    </g>
</svg>