<?xml version="1.0" encoding="UTF-8"?>
<svg width="42px" height="42px" viewBox="0 0 42 42" version="1.1" xmlns="http://www.w3.org/2000/svg" xmlns:xlink="http://www.w3.org/1999/xlink">
    <!-- Generator: Sketch 45.1 (43504) - http://www.bohemiancoding.com/sketch -->
    <title>more_patients</title>
    <desc>Created with Sketch.</desc>
    <defs></defs>
    <g id="doc_registration" stroke="none" stroke-width="1" fill="none" fill-rule="evenodd">
        <g id="more_patients">
            <g id="Page-1">
                <polygon id="Stroke-1" points="0 0 42.0000006 0 42.0000006 42.0000006 0 42.0000006"></polygon>
                <g id="Group-11" transform="translate(0.000000, 3.900000)">
                    <path d="M11.8125,20.50125 L5.25,20.50125 C2.71293738,20.50125 0.65625,22.5579367 0.65625,25.095 L0.65625,28.37625 C7.49240612,28.37625 3.36918738,28.37625 5.90625,28.37625 L10.6771878,28.37625 C10.6680003,28.37625 10.9659381,28.37625 11.8125,28.37625 L16.40625,28.37625 L16.40625,25.095 C16.40625,22.5579367 14.349562,20.50125 11.8125,20.50125 Z M36.75,20.50125 L30.1875,20.50125 C27.6504367,20.50125 25.59375,22.5579367 25.59375,25.095 L25.59375,28.37625 C32.4299061,28.37625 28.3066867,28.37625 30.84375,28.37625 L35.6146878,28.37625 C35.6055003,28.37625 35.9034368,28.37625 36.75,28.37625 L41.34375,28.37625 L41.34375,25.095 C41.34375,22.5579367 39.2870632,20.50125 36.75,20.50125 Z" id="Fill-2" fill="#F2F2F2"></path>
                    <path d="M8.53125,6.06375 C6.35709393,6.06375 4.59375,7.82709388 4.59375,10.00125 L4.59375,13.93875 C4.59375,15.3949686 5.38650012,16.6641561 6.5625,17.3446866 L6.5625,20.50125 L5.25,20.50125 L5.25,21.1575 C5.25,22.9700632 6.71868743,24.43875 8.53125,24.43875 C10.3438125,24.43875 11.8125,22.9700632 11.8125,21.1575 L11.8125,20.50125 L10.5,20.50125 L10.5,17.3446866 C11.6759999,16.663499 12.46875,15.3949674 12.46875,13.9387487 L12.46875,10.0012487 C12.46875,7.82709388 10.7054061,6.06375 8.53125,6.06375 Z M37.40625,13.93875 L37.40625,10.00125 C37.40625,7.82709388 35.6429061,6.06375 33.46875,6.06375 C31.2945939,6.06375 29.53125,7.82709388 29.53125,10.00125 L29.53125,13.93875 C29.53125,15.3949686 30.3240001,16.6641561 31.5,17.3446866 L31.5,20.50125 L30.1875,20.50125 L30.1875,21.1575 C30.1875,22.9700632 31.6561868,24.43875 33.46875,24.43875 C35.2813132,24.43875 36.75,22.9700632 36.75,21.1575 L36.75,20.50125 L35.4375,20.50125 L35.4375,17.3446866 C36.6134999,16.6641561 37.40625,15.3949686 37.40625,13.93875 Z" id="Fill-3" fill="#FFFFFF"></path>
                    <path d="M8.53125,6.06375 C6.57168743,6.06375 4.95009389,7.49765586 4.64821887,9.37256237 L8.53125,11.31375 L8.53125,10.00125 L12.46875,12.62625 L12.46875,10.00125 C12.46875,7.82709388 10.7054061,6.06375 8.53125,6.06375 Z M4.59375,10.00125 C4.59375,9.78665645 4.61540624,9.5773125 4.64821887,9.37256237 L4.59375,9.345 L4.59375,10.00125 Z M33.46875,6.06375 C31.5091874,6.06375 29.8875932,7.49765586 29.5863747,9.37256237 L33.46875,11.31375 L33.46875,10.00125 L37.40625,12.62625 L37.40625,10.00125 C37.40625,7.82709388 35.6429061,6.06375 33.46875,6.06375 Z M29.53125,10.00125 C29.53125,9.78665645 29.5529068,9.5773125 29.5863747,9.37256237 L29.53125,9.345 L29.53125,10.00125 Z" id="Fill-4" fill="#F2F2F2"></path>
                    <path d="M36.75,19.845 L36.09375,19.845 L36.09375,17.87625 C36.09375,17.8237488 36.0760309,17.7771556 36.0635615,17.7279363 C37.2704057,16.9004065 38.0625,15.512438 38.0625,13.93875 L38.0625,10.00125 C38.0625,7.46418796 36.0058132,5.4075 33.46875,5.4075 C30.9316867,5.4075 28.875,7.46418796 28.875,10.00125 L28.875,13.93875 C28.875,15.512438 29.6670942,16.9004065 30.8739384,17.7279388 C30.861469,17.7771556 30.84375,17.8237488 30.84375,17.87625 L30.84375,19.845 L30.1875,19.845 C27.288188,19.845 24.9375,22.195688 24.9375,25.095 L24.9375,28.37625 C24.9375,29.10075 25.5254999,29.68875 26.25,29.68875 L40.6875,29.68875 C41.412,29.68875 42,29.10075 42,28.37625 L42,25.095 C42,22.195688 39.649312,19.845 36.75,19.845 Z M33.46875,6.72 C35.2813132,6.72 36.75,8.18868678 36.75,10.00125 L36.75,11.2002185 L33.847406,9.47953118 C33.7686567,9.42178158 33.6787497,9.38437461 33.5789995,9.3673127 C33.5527489,9.36206309 33.5278126,9.35418743 33.501562,9.35221849 C33.4897509,9.35090671 33.4805635,9.345 33.46875,9.345 C33.4444695,9.345 33.4241245,9.35615632 33.4004999,9.35878118 C33.3427491,9.36337487 33.2876243,9.37256237 33.2331555,9.39225033 C33.2141247,9.40012474 33.1970615,9.40996934 33.1793425,9.4198127 C33.1222476,9.44737507 33.0704047,9.48084421 33.0231557,9.52546849 C33.0060925,9.54121855 32.9929672,9.56024941 32.9778743,9.57796842 C32.9503118,9.61012454 32.9174999,9.63506211 32.895843,9.67378086 C32.8866555,9.69018684 32.8866555,9.70856178 32.8794357,9.72496777 C32.8669663,9.75056125 32.8617167,9.77812362 32.8531851,9.80568599 C32.8354661,9.86212375 32.821029,9.91659263 32.8190614,9.97434224 C32.8177496,9.98353092 32.8125,9.99140664 32.8125,10.00125 L32.8125,10.154812 L30.4874067,8.77603086 C30.4709995,8.7661875 30.4519686,8.7661875 30.4349055,8.75765592 C30.9244694,7.56328112 32.0965314,6.72 33.46875,6.72 Z M30.1875,13.93875 L30.1875,10.1147814 L33.0907498,11.8361259 C33.1694991,11.8932196 33.2587502,11.9306253 33.3585005,11.9483443 C33.384751,11.9535939 33.4096874,11.9614697 33.435938,11.9634385 C33.447749,11.9640932 33.4569365,11.97 33.46875,11.97 C33.4930304,11.97 33.5133755,11.9588436 33.537,11.9562187 C33.5947509,11.9516251 33.6498756,11.9424376 33.7043445,11.9227496 C33.7233753,11.9148752 33.7404384,11.9050306 33.7581574,11.8951872 C33.8152524,11.8676249 33.8670952,11.8341557 33.9143443,11.7895314 C33.9314074,11.7737814 33.9445327,11.7547505 33.9596257,11.7370315 C33.9871881,11.7048754 34.0200001,11.6799378 34.0416569,11.6412191 C34.0508444,11.6248131 34.0508444,11.6064382 34.0580642,11.5900322 C34.0705336,11.5644387 34.0757832,11.5368763 34.0843148,11.5093139 C34.1020338,11.4528762 34.1164709,11.3977514 34.1184386,11.3406577 C34.1197503,11.331469 34.125,11.3235933 34.125,11.31375 L34.125,11.160188 L36.4500932,12.5389691 C36.5452498,12.5954069 36.6476236,12.6150936 36.75,12.6177197 L36.75,13.93875 C36.75,15.7513132 35.2813132,17.22 33.46875,17.22 C31.6561868,17.22 30.1875,15.7513119 30.1875,13.93875 Z M32.15625,21.1575 L32.15625,18.3395633 C32.5723117,18.4642499 33.0126564,18.5325 33.46875,18.5325 C33.9248435,18.5325 34.3651882,18.4642499 34.78125,18.3395633 L34.78125,21.1575 L36.09375,21.1575 C36.09375,22.607156 34.918406,23.7825 33.46875,23.7825 C32.0190939,23.7825 30.84375,22.607156 30.84375,21.1575 L32.15625,21.1575 Z M40.6875,28.37625 L26.25,28.37625 L26.25,25.095 C26.25,23.1433131 27.6714377,21.5276244 29.5345319,21.2159067 C29.5660322,23.3631562 31.3142806,25.095 33.46875,25.095 C35.6232193,25.095 37.3714678,23.3631562 37.402968,21.2159067 C39.2660622,21.5276244 40.6875,23.1433131 40.6875,25.095 L40.6875,28.37625 Z M11.8125,19.845 L11.15625,19.845 L11.15625,17.87625 C11.15625,17.8237488 11.1378751,17.7771556 11.1267187,17.7279363 C12.3329057,16.9004065 13.125,15.512438 13.125,13.93875 L13.125,10.00125 C13.125,7.46418796 11.068312,5.4075 8.53125,5.4075 C5.99418801,5.4075 3.9375,7.46418796 3.9375,10.00125 L3.9375,13.93875 C3.9375,15.512438 4.7295936,16.9004065 5.9357813,17.7279388 C5.92462491,17.7771556 5.90625,17.8237488 5.90625,17.87625 L5.90625,19.845 L5.25,19.845 C2.35068735,19.845 0,22.195688 0,25.095 L0,28.37625 C0,29.10075 0.587999979,29.68875 1.3125,29.68875 L15.75,29.68875 C16.4745,29.68875 17.0625,29.10075 17.0625,28.37625 L17.0625,25.095 C17.0625,22.195688 14.711812,19.845 11.8125,19.845 Z M8.53125,6.72 C10.3438125,6.72 11.8125,8.18868678 11.8125,10.00125 L11.8125,11.2002185 L8.91121901,9.48018704 C8.83115671,9.42178033 8.74059388,9.38437461 8.63953184,9.36665559 C8.61393835,9.36140599 8.59031322,9.35353027 8.56471908,9.35156138 C8.55290618,9.35156263 8.54306224,9.345 8.53125,9.345 C8.5194377,9.345 8.51549987,9.35221849 8.5076248,9.35615632 C8.28843757,9.35812526 8.07515579,9.46443822 7.95768711,9.673125 C7.90190586,9.77287526 7.88353092,9.88115586 7.88156197,9.98878184 C7.8802502,9.99337552 7.875,9.99534323 7.875,10.00125 L7.875,10.154812 L5.5499061,8.77603086 C5.5335001,8.7661875 5.51446866,8.7661875 5.49674964,8.75765592 C5.98762473,7.56328112 7.15903145,6.72 8.53125,6.72 Z M5.25,13.93875 L5.25,10.1147814 L8.15128092,11.8348129 C8.23134322,11.8925624 8.32190605,11.9306253 8.42296809,11.9483443 C8.44856158,11.9535939 8.47218671,11.9614697 8.49778086,11.9634385 C8.50959375,11.9634373 8.5194377,11.97 8.53125,11.97 C8.54306224,11.97 8.54700007,11.9627814 8.55487513,11.9588436 C8.77406237,11.9568747 8.98668763,11.8505617 9.10481283,11.641875 C9.16059408,11.5421247 9.17896901,11.4338441 9.18093796,11.3262181 C9.18224974,11.3216244 9.1875,11.3196567 9.1875,11.31375 L9.1875,11.160188 L11.5125932,12.5389691 C11.6077498,12.5954069 11.7101249,12.6150936 11.8125,12.6177197 L11.8125,13.93875 C11.8125,15.7513132 10.3438125,17.22 8.53125,17.22 C6.71868743,17.22 5.25,15.7513119 5.25,13.93875 Z M7.21875,21.1575 L7.21875,18.3395633 C7.63481237,18.4642499 8.07515645,18.5325 8.53125,18.5325 C8.98734349,18.5325 9.42768757,18.4642499 9.84375,18.3395633 L9.84375,21.1575 L11.15625,21.1575 C11.15625,22.607156 9.98090599,23.7825 8.53125,23.7825 C7.08159395,23.7825 5.90625,22.607156 5.90625,21.1575 L7.21875,21.1575 Z M15.75,28.37625 L1.3125,28.37625 L1.3125,25.095 C1.3125,23.1433131 2.73393742,21.5276244 4.59637512,21.2159067 C4.62853123,23.3631562 6.37678125,25.095 8.53125,25.095 C10.6857193,25.095 12.4339691,23.3631562 12.4661251,21.2159067 C14.3285622,21.5276244 15.75,23.1433131 15.75,25.095 L15.75,28.37625 Z M38.71875,25.75125 L36.09375,25.75125 C35.7308428,25.75125 35.4375,26.0445928 35.4375,26.4075 C35.4375,26.7704072 35.7308428,27.06375 36.09375,27.06375 L38.71875,27.06375 C39.0816572,27.06375 39.375,26.7704072 39.375,26.4075 C39.375,26.0445928 39.0816572,25.75125 38.71875,25.75125 Z" id="Fill-5" fill="#CCCCCC"></path>
                    <path d="M25.59375,22.47 L16.40625,22.47 C12.4195307,22.47 9.1875,25.7020307 9.1875,29.68875 L9.1875,33.62625 L26.25,33.62625 C30.2367192,33.62625 29.3264998,33.62625 32.8125,33.62625 L32.8125,29.68875 C32.8125,25.7020307 29.5804692,22.47 25.59375,22.47 Z" id="Fill-6" fill="#F2F2F2"></path>
                    <path d="M26.90625,13.2825 L26.90625,6.72 C26.90625,3.45778079 24.2622191,0.81375 21,0.81375 C17.7377808,0.81375 15.09375,3.45778079 15.09375,6.72 L15.09375,13.2825 C15.09375,15.3299993 16.1365317,17.133375 17.71875,18.1925615 L17.71875,22.47 L16.40625,22.47 L16.40625,23.12625 C16.40625,25.6633132 18.462938,27.72 21,27.72 C23.5370607,27.72 25.59375,25.6633132 25.59375,23.12625 L25.59375,22.47 L24.28125,22.47 L24.28125,18.1925615 C25.8634682,17.133375 26.90625,15.3300005 26.90625,13.2825 Z" id="Fill-7" fill="#FFFFFF"></path>
                    <path d="M15.09375,6.72 C15.09375,6.5034375 15.1075312,6.29015638 15.1298439,6.07950007 L15.09375,6.06375 L15.09375,6.72 Z M21,0.81375 C17.9543445,0.81375 15.4494374,3.11915651 15.1298439,6.07950007 L21,8.68875 L21,6.72 L26.90625,10.00125 L26.90625,6.72 C26.90625,3.45778138 24.2622191,0.81375 21,0.81375 Z" id="Fill-8" fill="#F2F2F2"></path>
                    <path d="M25.59375,21.81375 L24.9375,21.81375 L24.9375,18.5325 C24.9375,18.5298739 24.9361882,18.5272503 24.9361882,18.5246243 C26.5282498,17.3269675 27.5625,15.4277806 27.5625,13.2825 L27.5625,10.102312 C27.5690614,10.0629374 27.5638118,10.0248745 27.5625,9.98549987 L27.5625,6.72 C27.5625,3.09618789 24.623812,0.1575 21,0.1575 C17.3761879,0.1575 14.4375,3.09618789 14.4375,6.72 L14.4375,13.2825 C14.4375,15.4277819 15.4717501,17.3269701 17.0638118,18.5246243 C17.063813,18.5272503 17.0625,18.5298739 17.0625,18.5325 L17.0625,21.81375 L16.40625,21.81375 C12.0572819,21.81375 8.53125,25.3397819 8.53125,29.68875 L8.53125,32.97 C8.53125,33.6945 9.11924993,34.2825 9.84375,34.2825 L32.15625,34.2825 C32.88075,34.2825 33.46875,33.6945 33.46875,32.97 L33.46875,29.68875 C33.46875,25.3397819 29.942718,21.81375 25.59375,21.81375 Z M21,1.47 C23.899312,1.47 26.25,3.8206873 26.25,6.72 L26.25,8.88365678 L21.3510936,6.15168796 C21.3254989,6.13790678 21.2972807,6.13659441 21.2703741,6.12609454 C21.2519992,6.11690704 21.2309982,6.11296921 21.2119674,6.10706309 C21.1548725,6.09000059 21.0997478,6.07490697 21.0413436,6.07228151 C21.0269064,6.071625 21.014437,6.06375 21,6.06375 C20.9868747,6.06375 20.9822809,6.07228092 20.9737493,6.07687526 C20.7532491,6.09000059 20.5419363,6.19368809 20.4224993,6.391875 C20.3575299,6.50015618 20.340468,6.61828138 20.3437487,6.73443704 L20.3437487,7.62562441 L16.1004365,5.49478086 C16.0413739,5.46196823 15.9777176,5.44884355 15.9147184,5.43440586 C16.4889371,3.15787467 18.5449692,1.47 21,1.47 Z M15.75,13.2825 L15.75,6.7974375 L20.6489063,9.25771908 C20.6744998,9.27150026 20.7027193,9.27281329 20.7296245,9.28331257 C20.7479995,9.2925 20.7683433,9.29643783 20.7880312,9.30234336 C20.8451249,9.31940527 20.9002497,9.33449947 20.9586564,9.33712428 C20.9724376,9.33712552 20.9855629,9.345 21,9.345 C21.014437,9.345 21.0210009,9.33646842 21.0308443,9.33121875 C21.2500316,9.31743757 21.4593755,9.21374948 21.5775007,9.016875 C21.6424687,8.90859309 21.6595319,8.79046914 21.65625,8.67365573 L21.65625,7.83824902 L26.25,10.4002486 L26.25,13.2825 C26.25,16.181812 23.899312,18.5325 21,18.5325 C18.100688,18.5325 15.75,16.181812 15.75,13.2825 Z M18.375,23.12625 L18.375,19.2950616 C19.1795624,19.6468137 20.066156,19.845 21,19.845 C21.9338439,19.845 22.8204363,19.6468137 23.625,19.2950616 L23.625,23.12625 L24.9375,23.12625 C24.9375,25.3004061 23.1741561,27.06375 21,27.06375 C18.8258439,27.06375 17.0625,25.3004061 17.0625,23.12625 L18.375,23.12625 Z M32.15625,32.97 C25.1560313,32.97 26.1955311,32.97 9.84375,32.97 L9.84375,29.68875 C9.84375,26.2854369 12.4346249,23.4878428 15.7513118,23.1597178 C15.7696879,26.043281 18.1118443,28.37625 21,28.37625 C23.8881568,28.37625 26.2303133,26.043281 26.2480323,23.1597178 C29.5653738,23.4878428 32.15625,26.2854369 32.15625,29.68875 L32.15625,32.97 Z M27.5625,30.345 L23.625,30.345 C23.2620928,30.345 22.96875,30.6383428 22.96875,31.00125 C22.96875,31.3641572 23.2620928,31.6575 23.625,31.6575 L27.5625,31.6575 C27.9254072,31.6575 28.21875,31.3641572 28.21875,31.00125 C28.21875,30.6383428 27.9254072,30.345 27.5625,30.345 Z" id="Fill-9" fill="#CCCCCC"></path>
                </g>
            </g>
        </g>
    </g>
</svg>