<?xml version="1.0" encoding="UTF-8"?>
<svg width="88px" height="56px" viewBox="0 0 88 56" version="1.1" xmlns="http://www.w3.org/2000/svg" xmlns:xlink="http://www.w3.org/1999/xlink">
    <!-- Generator: Sketch 45.1 (43504) - http://www.bohemiancoding.com/sketch -->
    <title>new_pop</title>
    <desc>Created with Sketch.</desc>
    <defs></defs>
    <g id="doc_registration" stroke="none" stroke-width="1" fill="none" fill-rule="evenodd">
        <g id="new_pop">
            <path d="M6,0 L82,0 C85.3137085,-6.08718376e-16 88,2.6862915 88,6 L88,50 C88,53.3137085 85.3137085,56 82,56 L6,56 C2.6862915,56 4.05812251e-16,53.3137085 0,50 L0,6 C-4.05812251e-16,2.6862915 2.6862915,6.08718376e-16 6,0 Z" id="Rectangle-2" fill="#EBEBEB"></path>
            <path d="M6,0 L82,0 C85.3137085,-6.08718376e-16 88,2.6862915 88,6 L88,8 L0,8 L0,6 C-4.05812251e-16,2.6862915 2.6862915,6.08718376e-16 6,0 Z" id="Rectangle-2-Copy" fill="#BBBBBB"></path>
            <path d="M24,32 C27.315,32 30,29.315 30,26 C30,22.6849999 27.315,20 24,20 C20.6849999,20 18,22.6849999 18,26 C18,29.315 20.6849999,32 24,32 Z M24,35 C19.9949999,35 12,37.0100001 12,41 L12,44 L36,44 L36,41 C36,37.0100001 28.005,35 24,35 Z" id="Fill-2" fill="#CCCCCC"></path>
            <path d="M52,20 L52,24.8 L76,24.8 L76,20 L52,20 Z M52,34.4 L76,34.4 L76,29.6 L52,29.6 L52,34.4 Z M52,44 L76,44 L76,39.2 L52,39.2 L52,44 Z" id="Fill-6" fill="#CCCCCC"></path>
        </g>
    </g>
</svg>