<?xml version="1.0" encoding="UTF-8"?>
<svg width="140px" height="140px" viewBox="0 0 140 140" version="1.1" xmlns="http://www.w3.org/2000/svg" xmlns:xlink="http://www.w3.org/1999/xlink">
    <!-- Generator: Sketch 44.1 (41455) - http://www.bohemiancoding.com/sketch -->
    <title>patients</title>
    <desc>Created with Sketch.</desc>
    <defs></defs>
    <g id="PDP" stroke="none" stroke-width="1" fill="none" fill-rule="evenodd">
        <g id="patients">
            <g>
                <rect id="Rectangle-16" x="0" y="0" width="140" height="140"></rect>
                <g id="Page-1" transform="translate(10.000000, 10.000000)">
                    <polygon id="Stroke-1" stroke-opacity="0.00784313771" stroke="#000000" stroke-width="0.5" points="0 0 120.000002 0 120.000002 120.000002 0 120.000002"></polygon>
                    <path d="M33.75,69.375 L15,69.375 C7.75124966,69.375 1.875,75.2512478 1.875,82.5 L1.875,91.875 C21.4068746,91.875 9.62624966,91.875 16.875,91.875 L30.5062507,91.875 C30.4800009,91.875 31.3312517,91.875 33.75,91.875 L46.875,91.875 L46.875,82.5 C46.875,75.2512478 40.9987485,69.375 33.75,69.375 Z M105,69.375 L86.25,69.375 C79.0012478,69.375 73.125,75.2512478 73.125,82.5 L73.125,91.875 C92.6568746,91.875 80.8762478,91.875 88.125,91.875 L101.756251,91.875 C101.730001,91.875 102.581248,91.875 105,91.875 L118.125,91.875 L118.125,82.5 C118.125,75.2512478 112.248752,69.375 105,69.375 Z" id="Fill-2" fill="#FFFFFF"></path>
                    <path d="M24.375,28.125 C18.1631255,28.125 13.125,33.1631254 13.125,39.375 L13.125,50.625 C13.125,54.7856246 15.3900003,58.4118746 18.75,60.3562474 L18.75,69.375 L15,69.375 L15,71.25 C15,76.4287519 19.1962498,80.625 24.375,80.625 C29.55375,80.625 33.75,76.4287519 33.75,71.25 L33.75,69.375 L30,69.375 L30,60.3562474 C33.3599996,58.4099972 35.625,54.7856211 35.625,50.6249963 L35.625,39.3749963 C35.625,33.1631254 30.5868744,28.125 24.375,28.125 Z M106.875,50.625 L106.875,39.375 C106.875,33.1631254 101.836874,28.125 95.625,28.125 C89.4131254,28.125 84.375,33.1631254 84.375,39.375 L84.375,50.625 C84.375,54.7856246 86.6400002,58.4118746 90,60.3562474 L90,69.375 L86.25,69.375 L86.25,71.25 C86.25,76.4287519 90.4462479,80.625 95.625,80.625 C100.803752,80.625 105,76.4287519 105,71.25 L105,69.375 L101.25,69.375 L101.25,60.3562474 C104.61,58.4118746 106.875,54.7856246 106.875,50.625 Z" id="Fill-3" fill="#EDF2F8"></path>
                    <path d="M24.375,28.125 C18.7762498,28.125 14.1431254,32.2218739 13.2806253,37.5787496 L24.375,43.125 L24.375,39.375 L35.625,46.875 L35.625,39.375 C35.625,33.1631254 30.5868744,28.125 24.375,28.125 Z M13.125,39.375 C13.125,38.7618756 13.186875,38.16375 13.2806253,37.5787496 L13.125,37.5 L13.125,39.375 Z M95.625,28.125 C90.0262498,28.125 85.3931235,32.2218739 84.5324993,37.5787496 L95.625,43.125 L95.625,39.375 L106.875,46.875 L106.875,39.375 C106.875,33.1631254 101.836874,28.125 95.625,28.125 Z M84.375,39.375 C84.375,38.7618756 84.4368767,38.16375 84.5324993,37.5787496 L84.375,37.5 L84.375,39.375 Z" id="Fill-4" fill="#C2CDDC"></path>
                    <path d="M105,67.5 L103.125,67.5 L103.125,61.875 C103.125,61.7249964 103.074374,61.5918731 103.038747,61.4512466 C106.486874,59.0868757 108.75,55.1212513 108.75,50.625 L108.75,39.375 C108.75,32.1262513 102.873752,26.25 95.625,26.25 C88.3762478,26.25 82.5,32.1262513 82.5,39.375 L82.5,50.625 C82.5,55.1212513 84.7631263,59.0868757 88.2112526,61.4512538 C88.1756257,61.5918731 88.125,61.7249964 88.125,61.875 L88.125,67.5 L86.25,67.5 C77.9662513,67.5 71.25,74.2162513 71.25,82.5 L71.25,91.875 C71.25,93.945 72.9299998,95.625 75,95.625 L116.25,95.625 C118.32,95.625 120,93.945 120,91.875 L120,82.5 C120,74.2162513 113.283749,67.5 105,67.5 Z M95.625,30 C100.803752,30 105,34.1962479 105,39.375 L105,42.8006242 L96.7068742,37.8843748 C96.4818763,37.7193759 96.2249993,37.6124989 95.9399985,37.5637506 C95.8649968,37.5487517 95.7937502,37.5262498 95.7187485,37.5206243 C95.6850026,37.5168763 95.6587528,37.5 95.625,37.5 C95.5556273,37.5 95.4974985,37.5318752 95.4299998,37.5393748 C95.2649974,37.5524996 95.1074981,37.5787496 94.9518728,37.6350009 C94.8974991,37.6574992 94.8487472,37.6856267 94.7981214,37.7137506 C94.6349931,37.7925002 94.4868707,37.8881263 94.3518733,38.0156243 C94.3031214,38.0606244 94.2656207,38.1149983 94.2224979,38.1656241 C94.1437481,38.2574987 94.0499996,38.3287489 93.9881229,38.4393739 C93.9618729,38.4862481 93.9618729,38.5387479 93.9412449,38.5856222 C93.9056181,38.6587464 93.8906192,38.7374961 93.8662432,38.8162457 C93.8156175,38.9774964 93.7743686,39.1331218 93.7687468,39.2981207 C93.7649989,39.3243741 93.75,39.3468761 93.75,39.375 L93.75,39.8137485 L87.1068763,35.8743739 C87.0599985,35.84625 87.0056246,35.84625 86.9568729,35.8218741 C88.3556269,32.4093746 91.7043756,30 95.625,30 Z M86.25,50.625 L86.25,39.6993756 L94.5449994,44.6175026 C94.7699976,44.7806274 95.0250006,44.8875009 95.3100013,44.9381267 C95.385003,44.9531256 95.4562496,44.9756276 95.5312513,44.981253 C95.5649972,44.9831235 95.591247,45 95.625,45 C95.6943726,45 95.7525013,44.9681246 95.82,44.960625 C95.9850024,44.9475002 96.1425017,44.9212502 96.2981271,44.8649989 C96.3525008,44.8425006 96.4012526,44.8143731 96.4518784,44.7862493 C96.6150067,44.7074996 96.7631291,44.6118735 96.8981265,44.4843756 C96.9468784,44.4393754 96.9843791,44.3850015 97.0275019,44.3343758 C97.1062517,44.2425011 97.2000002,44.1712509 97.2618769,44.0606259 C97.2881269,44.0137517 97.2881269,43.9612519 97.3087549,43.9143776 C97.3443817,43.8412534 97.3593806,43.7625038 97.3837566,43.6837541 C97.4343823,43.5225034 97.4756312,43.3650039 97.481253,43.2018791 C97.4850009,43.1756258 97.5,43.1531237 97.5,43.125 L97.5,42.6862513 L104.143124,46.6256259 C104.414999,46.7868769 104.707496,46.8431246 105,46.8506276 L105,50.625 C105,55.8037519 100.803752,60 95.625,60 C90.4462479,60 86.25,55.8037483 86.25,50.625 Z M91.875,71.25 L91.875,63.1987522 C93.0637478,63.5549998 94.3218756,63.75 95.625,63.75 C96.9281243,63.75 98.1862521,63.5549998 99.375,63.1987522 L99.375,71.25 L103.125,71.25 C103.125,75.3918742 99.7668743,78.75 95.625,78.75 C91.4831256,78.75 88.125,75.3918742 88.125,71.25 L91.875,71.25 Z M116.25,91.875 L75,91.875 L75,82.5 C75,76.9237517 79.0612506,72.3074983 84.3843769,71.4168763 C84.4743776,77.551875 89.4693731,82.5 95.625,82.5 C101.780627,82.5 106.775622,77.551875 106.865623,71.4168763 C112.188749,72.3074983 116.25,76.9237517 116.25,82.5 L116.25,91.875 Z M33.75,67.5 L31.875,67.5 L31.875,61.875 C31.875,61.7249964 31.8225002,61.5918731 31.7906248,61.4512466 C35.2368735,59.0868757 37.5,55.1212513 37.5,50.625 L37.5,39.375 C37.5,32.1262513 31.6237485,26.25 24.375,26.25 C17.1262514,26.25 11.25,32.1262513 11.25,39.375 L11.25,50.625 C11.25,55.1212513 13.5131246,59.0868757 16.9593751,61.4512538 C16.9274998,61.5918731 16.875,61.7249964 16.875,61.875 L16.875,67.5 L15,67.5 C6.71624957,67.5 0,74.2162513 0,82.5 L0,91.875 C0,93.945 1.67999994,95.625 3.75,95.625 L45,95.625 C47.07,95.625 48.75,93.945 48.75,91.875 L48.75,82.5 C48.75,74.2162513 42.0337485,67.5 33.75,67.5 Z M24.375,30 C29.55375,30 33.75,34.1962479 33.75,39.375 L33.75,42.8006242 L25.4606257,37.8862487 C25.2318763,37.7193724 24.9731254,37.6124989 24.6843767,37.5618731 C24.6112524,37.5468743 24.5437521,37.5243722 24.4706259,37.5187468 C24.4368748,37.5187504 24.4087492,37.5 24.375,37.5 C24.3412506,37.5 24.3299996,37.5206243 24.3074994,37.5318752 C23.6812502,37.5375007 23.0718737,37.8412521 22.7362489,38.4375 C22.5768739,38.7225007 22.5243741,39.0318739 22.5187485,39.3393767 C22.5150006,39.3525015 22.5,39.3581235 22.5,39.375 L22.5,39.8137485 L15.8568746,35.8743739 C15.8100003,35.84625 15.7556248,35.84625 15.704999,35.8218741 C17.1074992,32.4093746 20.4543756,30 24.375,30 Z M15,50.625 L15,39.6993756 L23.2893741,44.6137511 C23.5181235,44.7787498 23.7768744,44.8875009 24.0656231,44.9381267 C24.1387474,44.9531256 24.2062478,44.9756276 24.2793739,44.981253 C24.313125,44.9812494 24.3412506,45 24.375,45 C24.4087492,45 24.4200002,44.9793756 24.4425004,44.9681246 C25.0687496,44.9624991 25.6762504,44.6587478 26.0137509,44.0625 C26.1731259,43.7774991 26.2256257,43.4681259 26.2312513,43.1606231 C26.2349993,43.1474983 26.25,43.1418763 26.25,43.125 L26.25,42.6862513 L32.8931235,46.6256259 C33.1649994,46.7868769 33.4574996,46.8431246 33.75,46.8506276 L33.75,50.625 C33.75,55.8037519 29.55375,60 24.375,60 C19.1962498,60 15,55.8037483 15,50.625 Z M20.625,71.25 L20.625,63.1987522 C21.8137496,63.5549998 23.0718756,63.75 24.375,63.75 C25.6781242,63.75 26.9362502,63.5549998 28.125,63.1987522 L28.125,71.25 L31.875,71.25 C31.875,75.3918742 28.5168743,78.75 24.375,78.75 C20.2331256,78.75 16.875,75.3918742 16.875,71.25 L20.625,71.25 Z M45,91.875 L3.75,91.875 L3.75,82.5 C3.75,76.9237517 7.81124978,72.3074983 13.1325003,71.4168763 C13.2243749,77.551875 18.219375,82.5 24.375,82.5 C30.5306267,82.5 35.5256259,77.551875 35.6175004,71.4168763 C40.9387492,72.3074983 45,76.9237517 45,82.5 L45,91.875 Z M110.625,84.375 L103.125,84.375 C102.088122,84.375 101.25,85.2131222 101.25,86.25 C101.25,87.2868776 102.088122,88.125 103.125,88.125 L110.625,88.125 C111.661878,88.125 112.5,87.2868776 112.5,86.25 C112.5,85.2131222 111.661878,84.375 110.625,84.375 Z" id="Fill-5" fill="#8592A5"></path>
                    <path d="M73.125,75 L46.875,75 C35.4843735,75 26.25,84.2343735 26.25,95.625 L26.25,106.875 L75,106.875 C86.3906263,106.875 83.7899994,106.875 93.75,106.875 L93.75,95.625 C93.75,84.2343735 84.5156263,75 73.125,75 Z" id="Fill-6" fill="#C2CDDC"></path>
                    <path d="M76.875,48.75 L76.875,30 C76.875,20.6793737 69.3206261,13.125 60,13.125 C50.6793737,13.125 43.125,20.6793737 43.125,30 L43.125,48.75 C43.125,54.5999979 46.1043763,59.7525 50.625,62.778747 L50.625,75 L46.875,75 L46.875,76.875 C46.875,84.1237521 52.7512513,90 60,90 C67.2487449,90 73.125,84.1237521 73.125,76.875 L73.125,75 L69.375,75 L69.375,62.778747 C73.8956235,59.7525 76.875,54.6000015 76.875,48.75 Z" id="Fill-7" fill="#EDF2F8"></path>
                    <path d="M43.125,30 C43.125,29.38125 43.1643748,28.7718754 43.2281256,28.1700002 L43.125,28.125 L43.125,30 Z M60,13.125 C51.2981271,13.125 44.1412496,19.7118757 43.2281256,28.1700002 L60,35.625 L60,30 L76.875,39.375 L76.875,30 C76.875,20.6793754 69.3206261,13.125 60,13.125 Z" id="Fill-8" fill="#C2CDDC"></path>
                    <path d="M73.125,73.125 L71.25,73.125 L71.25,63.75 C71.25,63.7424968 71.2462519,63.7350009 71.2462519,63.7274979 C75.7949994,60.3056214 78.75,54.8793731 78.75,48.75 L78.75,39.6637487 C78.7687468,39.5512496 78.7537479,39.4424985 78.75,39.3299996 L78.75,30 C78.75,19.6462511 70.3537487,11.25 60,11.25 C49.6462511,11.25 41.25,19.6462511 41.25,30 L41.25,48.75 C41.25,54.8793769 44.2050004,60.3056288 48.7537479,63.7274979 C48.7537515,63.7350009 48.75,63.7424968 48.75,63.75 L48.75,73.125 L46.875,73.125 C34.4493769,73.125 24.375,83.1993769 24.375,95.625 L24.375,105 C24.375,107.07 26.0549998,108.75 28.125,108.75 L91.875,108.75 C93.945,108.75 95.625,107.07 95.625,105 L95.625,95.625 C95.625,83.1993769 85.5506229,73.125 73.125,73.125 Z M60,15 C68.2837485,15 75,21.7162494 75,30 L75,36.1818765 L61.0031246,28.3762513 C60.9299968,28.3368765 60.8493733,28.3331269 60.7724976,28.3031272 C60.7199977,28.2768773 60.6599949,28.2656263 60.6056212,28.2487517 C60.4424929,28.2000017 60.2849936,28.1568771 60.1181244,28.1493757 C60.0768756,28.1475 60.0412487,28.125 60,28.125 C59.9624991,28.125 59.9493741,28.1493741 59.9249981,28.1625008 C59.2949974,28.2000017 58.6912464,28.4962517 58.3499979,29.0625 C58.1643712,29.3718748 58.1156229,29.7093754 58.1249963,30.0412487 L58.1249963,32.5874983 L46.001247,26.4993739 C45.8324968,26.4056235 45.6506216,26.3681244 45.4706239,26.3268739 C47.1112489,19.8224991 52.9856263,15 60,15 Z M45,48.75 L45,30.22125 L58.9968752,37.2506259 C59.0699994,37.2900007 59.1506265,37.2937522 59.2274987,37.3237502 C59.2799985,37.35 59.3381237,37.3612509 59.394375,37.3781239 C59.5574998,37.4268722 59.7149991,37.4699985 59.8818754,37.4774979 C59.9212502,37.4775015 59.9587511,37.5 60,37.5 C60.0412487,37.5 60.0600026,37.4756241 60.0881265,37.460625 C60.7143759,37.4212502 61.3125013,37.1249985 61.6500019,36.5625 C61.835625,36.2531231 61.8843769,35.9156261 61.875,35.5818735 L61.875,33.1949972 L75,40.5149959 L75,48.75 C75,57.0337485 68.2837485,63.75 60,63.75 C51.7162513,63.75 45,57.0337485 45,48.75 Z M52.5,76.875 L52.5,65.9287476 C54.7987496,66.9337534 57.3318742,67.5 60,67.5 C62.6681256,67.5 65.2012466,66.9337534 67.5,65.9287476 L67.5,76.875 L71.25,76.875 C71.25,83.0868744 66.2118744,88.125 60,88.125 C53.7881254,88.125 48.75,83.0868744 48.75,76.875 L52.5,76.875 Z M91.875,105 C71.8743752,105 74.8443746,105 28.125,105 L28.125,95.625 C28.125,85.9012483 35.5274998,77.9081224 45.0037479,76.9706224 C45.0562511,85.2093743 51.7481267,91.875 60,91.875 C68.2518767,91.875 74.9437522,85.2093743 74.994378,76.9706224 C84.4724964,77.9081224 91.875,85.9012483 91.875,95.625 L91.875,105 Z M78.75,97.5 L67.5,97.5 C66.4631222,97.5 65.625,98.3381222 65.625,99.375 C65.625,100.411878 66.4631222,101.25 67.5,101.25 L78.75,101.25 C79.7868776,101.25 80.625,100.411878 80.625,99.375 C80.625,98.3381222 79.7868776,97.5 78.75,97.5 Z" id="Fill-9" fill="#8592A5"></path>
                </g>
            </g>
        </g>
    </g>
</svg>