<?xml version="1.0" encoding="UTF-8"?>
<svg width="73px" height="80px" viewBox="0 0 73 80" version="1.1" xmlns="http://www.w3.org/2000/svg" xmlns:xlink="http://www.w3.org/1999/xlink">
    <!-- Generator: Sketch 43.2 (39069) - http://www.bohemiancoding.com/sketch -->
    <title>pdp</title>
    <desc>Created with Sketch.</desc>
    <defs></defs>
    <g id="doc_registration" stroke="none" stroke-width="1" fill="none" fill-rule="evenodd" opacity="1">
        <g id="Artboard" transform="translate(-184.000000, -41.000000)" fill-rule="nonzero" fill="#FFFFFF">
            <g id="pdp" transform="translate(184.000000, 41.000000)">
                <path d="M40.9606976,27.1087979 C40.7882105,26.5892231 40.4443889,26.2997369 39.8369868,26.1888599 C38.4559302,25.934538 36.2809767,26.8250966 35.1793699,28.1533089 L34.665257,28.7731771 L33.8715678,28.6308211 C32.2227883,28.3350961 30.2424107,28.8334351 28.6746894,30.157048 C26.8729942,31.6799926 26.1234891,32.9416905 26.2001379,33.9815932 C26.2763346,35.0153629 27.2278695,36.1683954 29.2791108,37.4312753 C30.3183853,38.0720978 31.2019216,38.88669 31.985982,39.8733182 C32.7128849,40.7880217 33.1738751,41.553756 34.0206978,43.1218196 C34.8347977,44.6301881 35.237879,45.2167727 35.6231141,45.4153055 C35.7008539,45.1096984 35.7763399,44.3652873 35.778886,43.1419665 C35.7791619,43.0094244 35.7790821,42.9014373 35.778679,42.6551594 C35.778511,42.5652682 35.778511,42.5652682 35.7783733,42.4747961 C35.7748407,39.8477478 35.8711438,38.9465128 36.6696232,38.137855 C37.0092834,37.7915493 37.4419825,37.6036794 37.9021376,37.6195856 C38.0064312,37.6261394 38.0064312,37.6261394 38.0495149,37.6316465 C38.757814,37.7225716 39.1537524,38.1079851 39.6521534,38.816842 C39.8879846,39.1522558 40.0760711,39.4627862 40.4833902,40.1650026 C41.6163864,42.1172531 42.2777227,42.8846741 42.7810964,42.9085983 C43.787261,41.1665238 42.380239,31.3744012 40.9606976,27.1087979 Z M37.1542407,42.6489713 C37.1570287,44.3761234 37.1610829,46.0077173 36.4484168,46.6108444 C36.2000366,46.8161304 35.8710267,46.8963321 35.5557095,46.8284569 C34.3507061,46.6266023 33.6695886,45.3671361 32.8083249,43.7713822 C31.8874095,42.066121 30.7426653,39.9453372 28.5520525,38.5945931 C26.1633494,37.1239497 24.9430135,35.6421972 24.8282537,34.0852383 C24.7134939,32.5282794 25.6770201,30.8978264 27.7855009,29.1155607 C29.8744795,27.3518547 32.3481305,26.9667468 34.1191896,27.2844038 C35.524216,25.5903571 38.1915486,24.4938201 40.0909064,24.8435873 C41.1816023,25.0426831 41.9347587,25.6758855 42.2670162,26.676729 C43.1720048,29.3961433 45.5689622,40.922887 43.9548557,43.6192495 C43.8125725,43.8833777 43.582182,44.0894357 43.3036161,44.201709 C43.244265,44.2231669 43.1831246,44.2393346 43.1209111,44.2500228 C41.434563,44.5426961 40.246484,42.4966759 39.2915863,40.8513045 C38.7738879,39.9587949 38.2367922,39.035618 37.8698535,38.9885137 C37.8424289,38.985356 37.767933,38.9746979 37.6530317,39.0918472 C37.4433006,39.3042547 37.3212621,39.6956706 37.2504522,40.1880879 C37.1508417,40.8871745 37.152613,41.776669 37.1542407,42.6489713 Z" id="Shape"></path>
                <path d="M42.7720296,53.7825723 C41.3507977,55.6307702 40.0128836,57.3367721 38.7056827,59.0652022 C35.9030108,62.7471476 33.0560721,66.400393 30.3554877,70.1460104 C28.5140617,72.6953042 26.8804163,75.3818263 25.1582372,78.0109484 C24.8684923,78.451987 24.6825736,79.0232296 24.2881332,79.3007982 C23.8163544,79.6296864 23.2400738,79.7752328 22.6686138,79.7098268 C22.3196948,79.6798226 21.9523912,79.0744115 21.7937376,78.6394947 C20.4050348,74.4311685 19.1257593,70.1831034 17.6873168,65.9928402 C14.6265378,57.1082058 11.4961232,48.2488596 8.38560446,39.3822882 C6.54144942,34.1416118 4.71719025,28.8937102 2.78350371,23.6855473 C2.09796276,22.1421338 1.31758462,20.6423364 0.446782371,19.1946366 C1.04991157,18.8148798 1.68270469,18.4840076 2.33901557,18.2052334 C3.98490143,17.6523029 5.72453712,17.3563686 7.30365217,16.6821651 C17.0568849,12.5357914 26.9543482,8.78479649 37.0248881,5.5082562 C40.5499376,4.36245555 43.8648552,2.73326917 47.2771283,1.37096352 C50.9154678,-0.0510506576 51.3505693,-0.309803676 52.5025169,3.80539809 C53.7688513,8.32681653 55.5904034,12.7025763 57.1126478,17.1534483 C59.9390522,25.3955922 62.6198432,33.7018097 65.565623,41.9006022 C67.6245135,47.5446351 69.9257604,53.1118499 72.2035057,58.6764054 C72.8411306,59.7057952 72.7798834,61.019986 72.0490814,61.9899126 L42.7720296,53.7825723 Z M4.26956958,20.3474026 C4.93020543,24.8760971 21.966022,72.9351989 23.8246882,75.5288428 L41.6300995,51.3316252 L69.3528219,58.9840318 L49.7677604,3.04108561 C34.2907551,8.48248315 18.9488026,13.5837944 4.26956958,20.3474026 Z" id="Shape"></path>
                <path d="M26.9413232,15.5433277 L29.3130567,25.4729578 C27.426058,22.3075195 26.0960744,17.2719078 26.9413232,15.5433277 Z" id="Shape"></path>
                <path d="M50.0545785,16.1496142 C48.805345,13.435399 47.1537186,10.8225378 47.1939836,7.75197812 L47.9119742,7.55840208 L50.0545785,16.1496142 Z" id="Shape"></path>
                <path d="M10.9488919,21.1159335 L13.866152,30.6571582 C11.9930627,28.0239764 10.3186353,23.0015109 10.9488919,21.1159335 Z" id="Shape"></path>
                <path d="M21.1431832,17.0668486 L23.5801359,25.136993 C21.7999602,22.8898419 20.6964721,20.186043 20.3970874,17.3377945 L21.1431832,17.0668486 Z" id="Shape"></path>
                <path d="M37.6700964,10.4270198 C39.1765936,13.5067596 39.4256883,16.5058196 40.4200095,19.2006675 C38.5978851,17.1086732 37.2354204,12.8796246 37.6700964,10.4270198 Z" id="Shape"></path>
                <path d="M15.8403165,18.7127456 L18.2784943,27.3421406 C15.8345685,23.3603056 15.0914255,20.79812 15.8403165,18.7127456 Z" id="Shape"></path>
                <path d="M32.3665584,13.5843385 L34.0525147,19.6884265 C32.9036006,17.8668746 31.6949988,16.0669984 31.6005667,13.8625096 L32.3665584,13.5843385 Z" id="Shape"></path>
                <path d="M7.40742383,22.4020235 L9.55118362,29.884619 C8.19506869,27.6573857 7.1997535,25.2311489 6.60164037,22.6946451 L7.40742383,22.4020235 Z" id="Shape"></path>
                <path d="M44.7602953,13.8969136 L42.2150523,9.11232886 C43.894971,9.73359369 44.3460765,10.5996137 44.7602953,13.8969136 Z" id="Shape"></path>
            </g>
        </g>
    </g>
</svg>
