<?xml version="1.0" encoding="UTF-8"?>
<svg width="84px" height="80px" viewBox="0 0 84 80" version="1.1" xmlns="http://www.w3.org/2000/svg" xmlns:xlink="http://www.w3.org/1999/xlink">
    <!-- Generator: Sketch 43.2 (39069) - http://www.bohemiancoding.com/sketch -->
    <title>pf</title>
    <desc>Created with Sketch.</desc>
    <defs></defs>
    <g id="doc_registration" stroke="none" stroke-width="1" fill="none" fill-rule="evenodd" opacity="1">
        <g id="Artboard" transform="translate(-37.000000, -41.000000)" fill-rule="nonzero" fill="#36af47">
            <g id="pf" transform="translate(37.000000, 41.000000)">
                <path d="M66.8091053,11.1445117 C67.8593538,10.9801451 68.5094594,10.8766838 69.1556756,10.7625408 C72.1781325,10.0407874 75.3044389,11.4889373 76.7176179,14.2653407 C77.3432768,15.4235951 77.8855735,16.6250203 78.3403618,17.8604309 C80.0144868,22.2594087 81.6392272,26.6884507 83.3133521,31.0874285 C84.5151653,34.3880835 83.8247346,36.3691213 80.7617154,38.0641762 C79.8640015,38.548047 78.9924998,39.0707682 77.9824859,39.6438838 C78.937898,42.7317665 79.7613995,45.7224804 80.7873419,48.6395408 C82.3763924,53.2025357 81.6524624,55.5223747 77.3737847,57.6234286 C74.3550835,59.1088107 71.1955157,60.3067339 68.0504922,61.5114623 C57.2739321,65.6500079 46.4594918,69.7176579 35.6761663,73.8707618 C31.9277095,75.3071323 28.2715841,76.9639426 24.5376714,78.4071183 C23.1318972,78.9361807 21.6698435,79.3017031 20.1802233,79.4965074 C18.4323474,79.7332379 17.3503586,78.5180219 16.6373979,77.1564469 C15.498588,75.0764731 14.5107576,72.9172469 13.6815857,70.6955531 C11.4257552,64.5001489 9.4043299,58.2194617 7.27635679,51.9775396 C5.21196457,45.9544207 3.1391727,39.9303255 1.0579812,33.9052541 C-0.785904555,28.5761034 0.324891818,24.071155 4.32206067,20.0039712 C6.27463131,17.9683723 8.68361563,16.4284776 11.3498964,15.511569 C21.6523309,11.9487492 31.9647992,8.40244026 42.2873014,4.87264199 C46.4524719,3.45401481 50.6682041,2.17425014 54.8323613,0.719701277 C57.3468899,-0.195152132 59.3127039,1.0614079 60.9250473,2.507054 C62.4189414,4.05778789 63.7259657,5.77879362 64.8191961,7.63461911 C65.5560147,8.69719114 66.1098393,9.88682527 66.8091053,11.1445117 Z M16.9969652,72.4772348 C21.9057499,71.3445129 25.8988053,68.6578593 30.5425614,67.9239817 C26.3646794,70.0367505 21.9798117,71.6804709 18.1778568,74.5274358 C23.3294809,73.8628146 27.8632179,71.1367047 33.057625,70.5895825 L22.1249687,74.6639522 L22.3583305,75.3048561 C23.8317304,74.8776645 25.3323558,74.5252451 26.7707515,74.0019179 C31.448201,72.3001355 36.1363053,70.5944766 40.7709718,68.7751952 C49.4969109,65.3343337 58.6224411,62.9577688 67.0965849,58.8585164 C67.6805714,58.5734657 68.3325397,58.4088427 68.9505171,58.1840059 C71.4224266,57.2846584 73.8943362,56.385311 76.3128079,55.3723411 C78.8978668,54.2866654 79.6197401,52.6570915 78.8721631,49.9411739 C78.2414309,47.6787133 77.5854997,45.4133239 76.8762946,43.167317 C76.5690349,42.3234603 76.176537,41.5106155 75.7654417,40.5472787 L73.3681157,41.4194906 C68.4043639,43.4030376 63.1920196,44.69708 57.8757945,45.2656908 C55.7786628,45.5668155 53.6486245,44.9899988 51.9858771,43.6706947 C49.8474287,41.9248805 48.4734236,39.4119478 48.1572522,36.6684819 C47.5460271,32.9352129 48.9228352,28.8294505 53.4336975,27.2003738 L61.63788,24.2154707 C63.6409791,23.4866892 65.6168527,22.6831356 67.5511204,21.9310096 C66.8424371,19.3219093 66.3008324,17.0391184 65.5848619,14.8076698 C64.1412528,10.3127273 61.2958609,8.52940641 56.7251532,9.56332034 C51.6061489,10.7483322 46.5125075,12.0692779 41.5238788,13.6786303 C33.9877438,16.1785439 26.6263024,18.8931254 19.267901,21.7154719 C15.2463092,23.2633131 11.3268541,25.124801 7.44426606,27.0212628 C5.681652,27.8802915 3.85138375,28.8849025 3.03865383,31.4910818 L18.8222459,26.5227793 C13.6394165,29.3882723 8.16746343,30.3992768 3.4295866,33.3932069 L4.5730593,36.5336359 C6.61403873,35.87575 8.55912512,35.2527526 10.4964328,34.6083917 C14.3884683,33.3012352 14.3845789,33.2905535 16.4743911,33.7278053 L5.06615895,37.9872992 L6.32242317,41.4374984 C9.33534214,40.7647047 12.0137759,39.173282 15.1807344,39.2549293 L6.87471271,42.9543043 L7.87816834,45.710191 L15.7963405,43.3978952 L15.9713618,43.8785731 L8.2085702,47.2472416 L9.27219889,50.8643011 L16.0235753,49.2910336 L16.2063754,49.7930749 L9.98852725,52.5996513 L11.6315072,57.6752838 L18.5816291,55.3885776 L18.7294249,55.7944834 L12.4738302,59.4252777 L13.8039923,63.0784299 L20.2607905,60.7292724 L20.459148,61.2740407 L14.0687666,64.8329062 L15.2589116,68.101516 C18.0504646,67.0858736 20.7878943,66.1866971 23.4980984,65.2127485 C26.2083025,64.2387999 28.9000731,63.2473643 31.5723969,62.20252 L31.7396395,62.6618345 L15.7619805,69.7813911 L16.9969652,72.4772348 Z M76.0696256,20.8035237 C71.8660531,22.5143486 67.8126608,24.2068243 63.7029547,25.8109174 C60.9066628,26.9129614 58.0024822,27.7518386 55.1791287,28.9121154 C51.3224252,30.5814176 50.0113049,32.9455372 50.4134877,36.900023 C50.8156704,40.8545087 53.5127147,43.3571257 57.5648696,43.0199403 C59.3359904,42.8316044 61.0938265,42.5354332 62.8286297,42.1330692 C68.4040781,40.8637113 73.7980969,38.9012217 78.8853869,36.2911874 C80.2974064,35.5960048 81.5741477,34.4298782 81.1108219,32.7597371 C79.9795692,28.5261513 78.6370835,24.3089339 76.0696256,20.8035237 Z M3.92677334,25.5792446 C5.86616788,23.48251 7.46699385,21.0855683 10.091632,19.8766216 C13.5733915,18.2711535 17.0502484,16.6190819 20.6710117,15.3622344 C27.7488271,12.8960052 34.9238767,10.6968192 42.0600326,8.39081589 C45.4484173,7.29109472 48.8241206,6.12340667 52.2446335,5.14506105 C54.1917465,4.593907 56.2196867,4.36415266 58.4896469,3.9374738 C57.1518776,3.04468721 55.4693505,2.84723431 53.9644947,3.40642475 C51.0787475,4.26278888 48.2192126,5.15800344 45.3684697,6.11050316 C40.1077194,7.86724792 34.8615132,9.63079792 29.6357671,11.4836783 C23.4559932,13.7320468 17.2334364,15.8629163 11.0964456,18.2287839 C7.72247092,19.4715134 5.08918795,22.1711965 3.92677334,25.5792446 L3.92677334,25.5792446 Z M70.6552238,20.5476205 C73.75204,19.541883 75.5625638,17.4557447 74.9575221,15.595228 C74.3066574,13.509447 71.1977418,12.5599072 68.0972001,13.6879679 L70.6552238,20.5476205 Z M9.333323,23.3944537 C11.193917,21.0481628 22.2826996,16.2758604 29.9003172,14.6293666 L9.333323,23.3944537 Z M50.5565125,8.26327986 L50.4242742,7.90010099 L32.3120236,13.6309549 L32.4948236,14.1329962 L50.5565125,8.26327986 Z M53.1496779,7.46497774 L53.2391332,7.71065756 L54.6562193,7.19508339 L54.5628746,6.93872184 L53.1496779,7.46497774 Z" id="Shape-Copy-8"></path>
                <polygon id="Shape-Copy-7" points="31.8950633 66.8996463 35.6455468 65.5351192 35.7155553 65.7273904 32.110841 67.4259799"></polygon>
                <path d="M61.7552427,32.9550381 C62.9193696,35.555694 63.15437,37.5266482 61.2863551,39.3554772 C59.0060075,41.5762596 57.3868385,41.6693888 55.0051904,39.5358936 L54.3794644,38.9772585 C52.1588152,36.9545425 51.6999006,34.9319897 52.9599373,32.7921009 C54.4267285,30.7971874 56.9463691,29.8804741 59.3528068,30.4662024 C60.5446467,30.7978012 61.4643933,31.750625 61.7552427,32.9550381 L61.7552427,32.9550381 Z M56.6337504,32.907083 C55.1023668,33.5274761 54.2641182,35.1849328 54.6694244,36.7911159 C55.3685071,38.0598336 56.8093677,38.7268326 58.2249613,38.4370347 C59.7166309,37.8943251 60.8963321,35.8320518 60.391892,34.6123534 C59.6803534,33.2440199 58.1275202,32.5394161 56.6337504,32.907083 Z" id="Shape-Copy-6"></path>
                <path d="M59.0471688,35.6580522 C58.4992,36.0751602 57.9951913,36.778694 57.5881191,36.7211525 C56.4463886,36.5679959 56.2727384,35.6271412 56.4332759,34.5767968 C57.6959646,33.8028801 58.2513242,34.6653426 59.0471688,35.6580522 Z" id="Shape-Copy-5"></path>
            </g>
        </g>
    </g>
</svg>
