<?xml version="1.0" encoding="UTF-8"?>
<svg width="128px" height="128px" viewBox="0 0 128 128" version="1.1" xmlns="http://www.w3.org/2000/svg" xmlns:xlink="http://www.w3.org/1999/xlink">
    <!-- Generator: Sketch 44.1 (41455) - http://www.bohemiancoding.com/sketch -->
    <title>pf_upgrade</title>
    <desc>Created with Sketch.</desc>
    <defs></defs>
    <g id="PDP" stroke="none" stroke-width="1" fill="none" fill-rule="evenodd">
        <g id="pop_3-copy" transform="translate(-656.000000, -311.000000)">
            <g id="pf_upgrade" transform="translate(656.000000, 311.000000)">
                <polygon id="Stroke-1" stroke-opacity="0.00784313771" stroke="#000000" stroke-width="1.33333335e-11" points="0 0 128.000001 0 128.000001 128.000001 0 128.000001"></polygon>
                <path d="M128,64 C127.999992,72.4869232 126.376083,80.6508331 123.128273,88.4917373 C119.88047,96.3326339 115.255989,103.253662 109.254829,109.254829 C103.253662,115.255989 96.3326339,119.88047 88.4917373,123.128273 C80.6508331,126.376083 72.4869232,127.999992 64,128 C55.5130691,127.999992 47.3491554,126.376083 39.508255,123.128273 C31.6673564,119.88047 24.7463264,115.255989 18.7451648,109.254829 C12.7440004,103.253662 8.11951541,96.3326339 4.87170934,88.4917373 C1.62390303,80.6508331 0,72.4869232 0,64 C0,55.5130691 1.62390303,47.3491554 4.87170934,39.508255 C8.11951541,31.6673564 12.7440004,24.7463264 18.7451648,18.7451648 C24.7463264,12.7440004 31.6673564,8.11951541 39.508255,4.87170934 C47.3491554,1.62390303 55.5130691,0 64,0 C72.4869232,0 80.6508331,1.62390303 88.4917373,4.87170934 C96.3326339,8.11951541 103.253662,12.7440004 109.254829,18.7451648 C115.255989,24.7463264 119.88047,31.6673564 123.128273,39.508255 C126.376083,47.3491554 127.999992,55.5130691 128,64 Z" id="Fill-2" fill="#3AD0F9"></path>
                <path d="M79.6999969,61.5 C79.6999969,61.5 87.8999938,63.2000007 87.8999938,70.5 C87.8999938,74.0999984 86.9999923,77.300003 86.0999908,79.5999984 C85.0999908,82.0999984 83.9999923,81.5999984 83.4999923,79.1999969 C82.7999954,76.1999969 81.2999954,72.6999969 78.0999908,72" id="Fill-3" fill="#F74541"></path>
                <path d="M47,61.5 C47,61.5 38.7999992,63.2000007 38.7999992,70.5 C38.7999992,74.0999984 39.7000007,77.300003 40.5999984,79.5999984 C41.5999984,82.0999984 42.6999969,81.5999984 43.1999969,79.1999969 C43.8999977,76.1999969 45.3999977,72.6999969 48.5999984,72" id="Fill-4" fill="#F74541"></path>
                <path d="M84.800003,82 C84.800003,82 84.7000045,82 84.7000045,82 C83.7000045,81.9000015 83.0000076,81 82.5000076,79.1999969 C81.9000091,76.5999984 80.5000076,73.3999938 77.8000106,72.7999954 C77.3000106,72.6999969 76.9000091,72.0999984 77.0000076,71.5999984 C77.1000061,71.0999984 77.7000045,70.6999969 78.2000045,70.9000015 C81.2000045,71.5999984 83.300003,74.300003 84.4000015,78.7000045 C84.5,79.2000045 84.7000045,79.6000061 84.800003,79.800003 C84.9000015,79.6000061 85,79.4000015 85.2000045,79 C86.4000015,76.0999984 87.0000076,73.1999969 87.0000076,70.4000015 C87.0000076,64 79.6000061,62.5 79.5000076,62.5 C79.0000076,62.4000015 78.6000061,61.9000015 78.7000045,61.2999992 C78.800003,60.7999992 79.300003,60.3999977 79.9000015,60.5 C83,61.0999984 89,64 89,70.4000015 C89,73.5 88.4000015,76.5999984 87.0999984,79.800003 C86.9000015,80.300003 86.1999969,82 84.800003,82 Z" id="Fill-5" fill="#A03513"></path>
                <path d="M53,89.800003 C53,92 54.4000015,94 56,94 C57.5999984,94 58,95.5999984 58,97.800003 L58,107 C58,109.199996 59.4000015,111 61,111 C62.5999984,111 64,109.199996 64,107 L64,96.9000015 C64,94.7000045 65.4000015,92.9000015 67,92.9000015 C68.5999984,92.9000015 69.9000015,94.2000045 69.9000015,95.800003 C69.9000015,97.4000015 71.4000015,99.1000061 73,99.1000061 C74.5999984,99.1000061 76,96.9000091 76,94.7000045 L76,70.1999969 C76,68 74.5,66.1999969 73,66.1999969 C71.4000015,66.1999969 70.0999984,67.8999938 70.0999984,70 C70.0999984,72.0999984 68.6999969,73.800003 67.0999984,73.800003 C65.5,73.800003 64.0999984,75.6000061 64.0999984,77.800003 L64.0999984,86 C64.0999984,88.1999969 62.6999969,90 61.0999984,90 C59.5,90 58.0999984,88.1999969 58.0999984,86 L58.0999984,73 C58.0999984,70.800003 57.1999969,69 55.5999984,69 C54,69 53,70.800003 53,73 L53,89.800003 Z" id="Fill-6" fill="#FFFFFF"></path>
                <path d="M81.5,47 C81.5,26 63.9000015,12.7000007 63.9000015,12.7000007 C63.9000015,12.7000007 46.2000007,26.1000003 46.2000007,47 C46.2000007,53.2999992 47.7000007,68.1999969 48.2999992,70.6999969 C48.8999977,73.1999969 54.5999984,78.1999969 63.7999992,78.1999969 C73,78.1999969 78.6999969,73.1999969 79.300003,70.7999954 C80,68.4000015 81.5,53.4000015 81.5,47 Z" id="Fill-7" fill="#F74541"></path>
                <path d="M71.5,41.7000007 C71.5,43.8262939 70.7482376,45.641201 69.2447204,47.1447219 C67.7412033,48.6482391 65.9262924,49.3999977 63.7999992,49.4000015 C61.6736984,49.3999977 59.8587913,48.6482391 58.3552703,47.1447219 C56.851757,45.641201 56.0999984,43.8262939 56.0999984,41.7000007 C56.0999984,39.5736999 56.851757,37.7587928 58.3552742,36.2552757 C59.8587913,34.7517547 61.6736984,33.9999961 63.7999992,34 C65.9262924,33.9999961 67.7411956,34.7517547 69.2447128,36.2552757 C70.7482376,37.7587928 71.5,39.5736999 71.5,41.7000007 Z" id="Fill-8" fill="#3AD0F9"></path>
                <path d="M63.7999992,37.5999984 C67.300003,37.5999984 70.300003,40 71.1999969,43.2999992 C71.3999938,42.7000007 71.5,42 71.5,41.2999992 C71.5,37.0999984 68.0999984,33.5999984 63.7999992,33.5999984 C59.5999984,33.5999984 56.0999984,37 56.0999984,41.2999992 C56.0999984,42 56.1999969,42.7000007 56.3999977,43.2999992 C57.2999992,40 60.2000007,37.5999984 63.7999992,37.5999984 Z" id="Fill-9" fill="#00B3F9"></path>
                <path d="M64,51 C59,51 55,47 55,42 C55,37 59,33 64,33 C69,33 73,37 73,42 C73,47 69,51 64,51 Z M64,35.0999984 C60.2000007,35.0999984 57.0999984,38.1999969 57.0999984,42 C57.0999984,45.7999992 60.1999969,48.9000015 64,48.9000015 C67.800003,48.9000015 70.9000015,45.800003 70.9000015,42 C70.9000015,38.2000007 67.800003,35.0999984 64,35.0999984 Z" id="Fill-10" fill="#A03513"></path>
                <path d="M63.9000015,23 C66.9000015,23 69.7000045,22.3999996 72.300003,21.2999992 C68,15.5999994 63.9000015,12.3999996 63.9000015,12.3999996 C63.9000015,12.3999996 59.7000007,15.5999994 55.5,21.2999992 C58,22.3999996 60.9000015,23 63.9000015,23 Z" id="Fill-11" fill="#FFFFFF"></path>
                <path d="M81,54.2000007 C80.300003,56.9000015 74,62.4000015 63.7999992,62.4000015 C53.5999984,62.4000015 47.2999992,56.800003 46.5999984,54.1000022 C46.5,53.9000015 46.5,53.6000022 46.3999977,53.2000007 C46.8999977,60.1000022 47.7999992,68.5999984 48.1999969,70.4000015 C48.7999954,72.9000015 54.4999961,77.9000015 63.6999969,77.9000015 C72.8999938,77.9000015 78.5999984,72.9000015 79.1999969,70.5 C79.6999969,68.6999969 80.5999984,60.2000007 81,53.2999992 C81.0999984,53.7000007 81.0999984,54 81,54.2000007 Z" id="Fill-12" fill-opacity="0.298039227" fill="#A81000"></path>
                <path d="M37,44 C37,42.9000015 35.7000007,42 34,42 L20.1000003,42 C18.3999996,42 17,42.9000015 17,44 C17,45.0999984 16.3999996,46 15,46 C13.6000003,46 12,47 12,48 C12,49.0999984 13.3000001,50 15,50 L25.3999996,50 C27.1000003,50 28,49.0999984 28,48 C28,46.9000015 29.2999992,46 31,46 L34,46 C35.7000007,46 37,45.0999984 37,44 Z" id="Fill-13" fill="#FFFFFF"></path>
                <path d="M63.5,79 C54,79 47.9000015,73.6999969 47.0999984,70.800003 C46.5,68.0999984 45,53.2999992 45,46.9000015 C45,25.7000007 62.2000007,12.5 62.9000015,11.9000015 C63.300003,11.6000013 63.7000007,11.6000013 64.0999984,11.9000015 C64.7999954,12.5000019 82,25.7000007 82,46.9000015 C82,53 80.5999984,68.1999969 79.9000015,70.9000015 C79.0999984,73.800003 72.9000015,79 63.5,79 Z M63.5,14 C60.5,16.6000003 47,28.8999996 47,46.9000015 C47,53 48.5,67.800003 49.0999984,70.300003 C49.5999984,72.2000045 54.6999969,77 63.5,77 C72.300003,77 77.5,72.1999969 78,70.4000015 C78.5999984,68.0999984 80.0999984,53.2000007 80.0999984,47 C80,28.8999996 66.5,16.6000003 63.5,14 Z" id="Fill-14" fill="#A03513"></path>
                <path d="M42.0999984,82 C40.7999992,82 40.0999984,80.300003 39.8999977,79.6999969 C38.6999969,76.5 38.0999984,73.3999938 38.0999984,70.2999954 C38.0999984,63.8999938 43.8999977,61.0999946 47,60.3999938 C47.5,60.2999954 48,60.5999946 48.2000007,61.1999931 C48.2999992,61.6999931 48,62.2999916 47.4000015,62.3999938 C46.9000015,62.5 40,64 40,70.4000015 C40,73.9000015 40.9000015,77 41.7000007,79 C41.7999992,79.4000015 42,79.5999984 42.1000022,79.800003 C42.2000007,79.6000061 42.300003,79.300003 42.5000038,78.7000045 C43.6000022,74.2000045 45.7000045,71.5000076 48.6000022,70.9000015 C49.1000022,70.800003 49.7000007,71.0999984 49.800003,71.5999984 C49.9000015,72.0999984 49.6000022,72.6999969 49.1000022,72.7999954 C46.4000015,73.3999938 45.1000022,76.5999984 44.5000038,79.1999969 C44.1000022,81 43.4000053,81.8999938 42.4000053,82 C42.0999984,82 42.0999984,82 42.0999984,82 Z" id="Fill-15" fill="#A03513"></path>
                <path d="M125.199996,81.5999984 C123.299995,80.1999969 121,79.4000015 118.5,79.4000015 C112.099998,79.4000015 107,84.5 107,90.9000015 C107,91.5 107.099998,92.0999984 107.199996,92.7000045 C106.299995,92.5000076 105.5,92.4000015 104.5,92.4000015 C98.5,92.4000015 93.5,97.0999984 93,103 C91.9000015,102.599998 90.6999969,102.400001 89.5,102.400001 C85.800003,102.400001 82.4000015,104.200004 80.300003,107 C78.300003,103.699996 74.6000061,101.400001 70.5,101.400001 C66.0999984,101.400001 62.2999992,103.900001 60.2999992,107.5 C58.2000007,105.599998 55.5,104.400001 52.5,104.400001 C50.5,104.400001 48.5999984,104.900001 46.9000015,105.800003 C46.4000015,100 41.4000015,95.4000015 35.5,95.4000015 C33.5,95.4000015 31.6000003,95.9000015 30,96.800003 C30,96.5 30,96.2000045 30,95.9000015 C30,89.5 24.8999996,84.4000015 18.5,84.4000015 C12.8000001,84.4000015 8.10000038,88.5999984 7.1999998,94 C18,114.199996 39.2000007,128 63.7000007,128 C77.5,128 90.300003,123.599998 100.800003,116.199996 C100.900001,115.799995 101,115.299995 101,114.899993 C101.400001,114.999992 101.800003,115.09999 102.199996,115.199996 C113.199996,106.900001 121.400001,95.0999984 125.199996,81.5999984 Z" id="Fill-16" fill="#FFFFFF"></path>
                <path d="M64.0999984,72 C57.6999969,72 51.5,69.300003 46.8999977,64.5 C46.4999961,64.0999984 46.4999961,63.5 46.8999977,63.0999984 C47.2999992,62.6999969 47.8999977,62.6999969 48.2999992,63.0999984 C52.5999984,67.5 58.1999969,70 64.0999984,70 C69.6999969,70 75.0999984,67.800003 79.1999969,63.7999992 C79.5999984,63.3999977 80.1999969,63.3999977 80.5999984,63.7999992 C81,64.1999969 81,64.800003 80.5999984,65.1999969 C76.0999984,69.5999984 70.1999969,72 64.0999984,72 Z" id="Fill-17" fill="#A03513"></path>
                <path d="M6.5,92.4000015 C7,93.4000015 7.5,94.4000015 8.10000038,95.4000015 C8.1999998,89.6999969 13.3000001,85 19,85 C24.7999992,85 29,89.9000015 29,95.6999969 C29,96 29,96.2999954 29,96.5999984 C29,97 29.1000003,97.2999954 29.5,97.5 C29.7999992,97.6999969 30.2000007,97.6999969 30.5,97.5 C32,96.6999969 34.2000007,96 36,96 C41.5,96 45.5,100.400001 46,105.900001 C46,106.200004 46.2000007,106.5 46.5,106.700004 C46.7999992,106.900001 47.2000007,106.900001 47.5,106.700004 C49,105.800003 51.2999992,105.000007 53,105.000007 C55.7000007,105.000007 57.7000007,106.400009 59.7000007,108.200004 C59.9000015,108.400001 60.2000007,108.500007 60.5,108.500007 C60.7999992,108.400009 61.0999984,108.30001 61.2000007,108.000007 C63,104.500007 67.0999984,102.000007 70.9000015,102.000007 C74.5999984,102.000007 77.5,104.200004 79.4000015,107.500007 C79.5999984,107.80001 79.9000015,108.000007 80.2000045,108.000007 C80.5000076,108.000007 80.800003,107.900009 81.0000076,107.600006 C83.0000076,104.900009 85.5000076,103.100006 88.8000106,103.100006 C90.8000106,103.100006 91.5000076,103.600006 92.6000137,103.900009 C92.9000167,104.000007 93.2000122,103.900009 93.5000152,103.80001 C93.8000183,103.600013 93.9000167,103.30001 93.9000167,103.000007 C94.4000167,96.7000045 100.300018,92.0000076 106.800018,93.5000076 C107.100021,93.6000061 107.500015,93.5000076 107.700019,93.3000106 C107.900016,93.1000137 108.100021,92.7000122 108.000022,92.4000091 C107.900024,91.8000106 107.900024,91.2000122 107.900024,90.7000122 C107.900024,84.8000106 112.600021,80.1000137 118.400024,80.1000137 C120.800025,80.1000137 123.100021,80.9000167 124.800025,82.3000106 C125.000022,81.6000137 125.200027,80.9000091 125.400024,80.2000122 C123.400024,78.8000106 121.000022,78.0000152 118.400024,78.0000152 C111.500022,78.0000152 105.900024,83.7000122 105.900024,90.7000122 C105.900024,90.9000091 105.900024,90.8000106 105.900024,91.0000152 C98.9000244,91.0000152 93.3000259,95.2000122 92.1000213,101.600013 C91.2000198,101.400016 89.8000183,101.000015 88.9000244,101.000015 C85.4000244,101.000015 82.7000274,102.700012 80.3000259,105.300018 C77.9000244,102.200019 74.8000259,100.000015 70.9000244,100.000015 C66.7000274,100.000015 62.3000259,102.400016 60.0000228,105.900016 C57.8000221,104.200019 55.6000213,103.000015 52.9000244,103.000015 C51.3000259,103.000015 49.2000236,103.600013 47.7000236,104.300018 C46.5999984,98.4000015 42,94 36,94 C34.5,94 32.4000015,94.5 31,95.0999984 C30.7000007,88.4000015 25.2000007,83.0999984 18.5,83.0999984 C12.8000001,83.0999984 7.90000009,87 6.5,92.4000015 Z" id="Fill-18" fill="#3F4D5F"></path>
                <path d="M125,82.300003 C120.800003,83.5 117.599998,87.5 117.599998,92.1000061 C117.599998,92.300003 117.599998,92.5000076 117.599998,92.7000045 C115.400001,93.9000015 113.599998,95.800003 112.799995,98.2000045 C108.199996,99.2000045 104.699996,103.300003 104.699996,108.200004 C104.699996,108.800003 104.799995,109.400001 104.899993,109.900001 C104.09999,109.700004 103.299995,109.599998 102.499992,109.599998 C98.5999908,109.599998 95.1999893,111.799995 93.4999923,115 C91.8999938,114 89.9999923,113 87.9999923,113 C82.9999923,113 78.7999954,117.099998 77.8999938,121.900001 C76.5999908,121.300003 75.4999923,121 73.9999923,121 C71.5999908,121 69.1999893,121.800003 67.4999923,123.099998 C66.1999893,119 62.5999908,116 57.9999923,116 C54.3999938,116 50.9999923,117.800003 49.0999908,120.599998 C47.39999,117.199996 43.9999923,114.900001 39.89999,114.900001 C38.9999885,114.900001 38.0999908,115 37.2999916,115.300003 C37.39999,114.800003 37.39999,114.400001 37.39999,113.900001 C37.39999,108.300003 32.7999916,103.700004 27.1999893,103.700004 C26.2999897,103.700004 25.39999,103.800003 24.5999889,104.000007 C24.5999889,103.80001 24.5999889,103.600006 24.5999889,103.400009 C24.5999889,97.8000106 19.5999889,93.0000076 13.8999891,93.0000076 C11.4999885,93.0000076 9.69998931,94.1000061 7.89998912,95.5000076 C19,114.900001 39.7999992,128 63.7000007,128 C92.6999969,128 117.199996,108.699996 125,82.300003 Z" id="Fill-19" fill="#E4F5F9"></path>
                <path d="M85,74.4000015 C85,74.4000015 84.9000015,74.4000015 84.9000015,74.4000015 C84.4000015,74.300003 84,73.800003 84,73.300003 C84.6999969,67.800003 81.9000015,66.300003 81.800003,66.2000045 C81.300003,65.9000015 81.1000061,65.300003 81.4000015,64.9000015 C81.7000045,64.4000015 82.2000045,64.2000045 82.7000045,64.5 C82.9000015,64.5999984 86.800003,66.5999984 86.0000076,73.5999984 C86,74 85.5,74.4000015 85,74.4000015 Z" id="Fill-20" fill-opacity="0.498039215" fill="#FFFFFF"></path>
                <path d="M77.5,56 C77.5,56 77.4000015,56 77.5,56 C76.800003,55.9000015 76.300003,55.5 76.4000015,54.9000015 C76.4000015,54.800003 77.2000045,46.7000007 76.4000015,40 C76.2000045,38.5999984 75.800003,37 75.0999984,35.4000015 C74.9000015,34.9000015 75.1999969,34.300003 75.7999954,34.1000022 C76.3999938,33.9000015 76.9999923,34.2000007 77.2999954,34.7000007 C78.0999984,36.5 78.5999984,38.2000007 78.6999969,39.7999992 C79.5,46.7000007 78.6999969,54.7999992 78.6999969,55.0999984 C78.5999984,55.5999984 78.0999984,56 77.5,56 Z" id="Fill-21" fill-opacity="0.498039215" fill="#FFFFFF"></path>
                <path d="M74,32 C73.6999969,32 73.300003,31.7999992 73.1999969,31.5 C71.6999969,28.7000007 70.2999954,26.7999992 70.1999969,26.7999992 C69.8999938,26.3999996 69.8999938,25.6999988 70.2999954,25.2999992 C70.6999969,24.8999996 71.2999954,25 71.6999969,25.3999996 C71.7999954,25.5 73.2999954,27.5 74.8999938,30.3999996 C75.1999969,30.8999996 74.9999923,31.5 74.4999923,31.7999992 C74.4000015,32 74.1999969,32 74,32 Z" id="Fill-22" fill-opacity="0.498039215" fill="#FFFFFF"></path>
                <path d="M50.2000007,52.0999984 C49.7000007,52.0999984 49.2000007,51.6999969 49.2000007,51.1999969 C48.6000022,42.0999984 50,38.7999954 50,38.5999984 C50.2000007,38.0999984 50.7999992,37.8999977 51.4000015,38.0999984 C51.9000015,38.2999992 52.2000007,38.8999977 52,39.3999977 C52,39.4999961 50.7000007,42.5999984 51.2999992,51.0999984 C51.2999992,51.5999984 50.7999992,52.0999984 50.2000007,52.0999984 Z" id="Fill-23" fill-opacity="0.498039215" fill="#FFFFFF"></path>
                <path d="M41.7000007,72.9000015 C41.2000007,72.9000015 40.7000007,72.5 40.7000007,72 C40.2999992,66.800003 44.2000007,64.5999984 44.4000015,64.5 C44.9000015,64.1999969 45.5,64.4000015 45.800003,64.9000015 C46.1000022,65.4000015 45.9000015,66 45.4000015,66.300003 C45.300003,66.4000015 42.4000015,68 42.7000007,71.9000015 C42.7000007,72.4000015 42.2999992,72.800003 41.7000007,72.9000015 C41.7999992,72.9000015 41.7000007,72.9000015 41.7000007,72.9000015 Z" id="Fill-24" fill-opacity="0.498039215" fill="#FFFFFF"></path>
                <path d="M63.0999984,47 C62.5,47 62.0999984,46.5999984 62,46 C62,45.4000015 62.4000015,45 63,44.9000015 C66.800003,44.7000007 66.9000015,42.1000022 66.9000015,42 C66.9000015,41.4000015 67.4000015,41 68,41 C68.5999984,41 69.0999984,41.5 69.0999984,42 C69,43.5999984 67.800003,46.7999992 63.0999984,47 Z" id="Fill-25" fill="#FFFFFF"></path>
                <path d="M64.5,75 C56.5999984,75 50.5,70.9000015 50.4000015,70.800003 C49.9000015,70.5 49.800003,69.9000015 50.1000022,69.4000015 C50.4000015,68.9000015 51.0000038,68.800003 51.5000038,69.0999984 C52.0000038,69.4000015 63.7000045,77.2999954 75.5,69.5999984 C76,69.2999954 76.5999984,69.4000015 76.9000015,69.9000015 C77.2000045,70.4000015 77.0999984,71 76.5999984,71.300003 C72.5,74.0999984 68.300003,75 64.5,75 Z" id="Fill-26" fill-opacity="0.498039215" fill="#FFFFFF"></path>
                <path d="M37,27 C34.7999992,27 33,25.2000007 33,23 C33,20.7999992 34.7999992,19 37,19 C39.2000007,19 41,20.7999992 41,23 C41,25.2000007 39.2000007,27 37,27 Z M37,20.8999996 C35.7999992,20.8999996 34.9000015,21.8999996 34.9000015,23 C34.9000015,24.2000007 35.9000015,25.1000003 37,25.1000003 C38.2000007,25.1000003 39.0999984,24.1000003 39.0999984,23 C39.0999984,21.7999992 38.2000007,20.8999996 37,20.8999996 Z" id="Fill-27" fill="#FFFFFF"></path>
                <path d="M109,48 C106.800003,48 105,46.2000007 105,44 C105,41.7999992 106.800003,40 109,40 C111.199996,40 113,41.7999992 113,44 C113,46.2000007 111.199996,48 109,48 Z M109,41.9000015 C107.800003,41.9000015 106.900001,42.9000015 106.900001,44 C106.900001,45.2000007 107.900001,46.0999984 109,46.0999984 C110.199996,46.0999984 111.099998,45.0999984 111.099998,44 C111.099998,42.7999992 110.199996,41.9000015 109,41.9000015 Z" id="Fill-28" fill="#FFFFFF"></path>
                <path d="M110.300003,64.6999969 C110.300003,64.2999954 109.900001,63.8999977 109.300003,63.7999954 L107.400001,63.4999961 C106.900001,63.3999977 106.300003,62.8999977 106.300003,62.3999977 L106,60.4999961 C105.900001,59.9999961 105.5,59.4999961 105.099998,59.4999961 C104.699996,59.4999961 104.299995,59.8999977 104.199996,60.4999961 L103.899993,62.3999977 C103.799995,62.8999977 103.299995,63.4999961 102.799995,63.4999961 L100.899993,63.7999954 C100.399993,63.8999938 99.8999938,64.2999954 99.8999938,64.6999969 C99.8999938,65.0999984 100.299995,65.5 100.899993,65.5999984 L102.799995,65.9000015 C103.299995,66 103.899993,66.5 103.899993,67 L104.199996,68.9000015 C104.299995,69.4000015 104.699996,69.9000015 105.099998,69.9000015 C105.5,69.9000015 105.900001,69.5 106,68.9000015 L106.300003,66.800003 C106.400001,66.300003 106.900001,65.800003 107.400001,65.7000045 L109.200004,65.6000061 C109.800003,65.4000015 110.300003,65.0999984 110.300003,64.6999969 Z" id="Fill-29" fill="#FFFFFF"></path>
                <path d="M99.800003,24.5 C99.800003,24.1000003 99.4000015,23.7000007 98.800003,23.6000003 L97,23.2999992 C96.5,23.1999988 95.9000015,22.6999988 95.9000015,22.1999988 L95.5999984,20.2999992 C95.5,19.7999992 95.0999984,19.2999992 94.6999969,19.2999992 C94.2999954,19.2999992 93.8999938,19.6999988 93.7999954,20.2999992 L93.4999923,22.1999988 C93.3999938,22.6999988 92.8999938,23.2999992 92.3999938,23.2999992 L90.4999923,23.5999984 C89.9999923,23.6999988 89.4999923,24.0999984 89.4999923,24.499998 C89.4999923,24.8999977 89.8999938,25.2999973 90.4999923,25.3999977 L92.3999938,25.6999969 C92.8999938,25.7999973 93.4999923,26.2999973 93.4999923,26.7999973 L93.7999954,28.6999969 C93.8999938,29.1999969 94.2999954,29.6999969 94.6999969,29.6999969 C95.0999984,29.6999969 95.5,29.2999973 95.5999984,28.6999969 L95.9000015,26.5999965 C96,26.0999965 96.5,25.5999965 97,25.4999961 L98.800003,25.3999958 C99.4000015,25.2000007 99.800003,24.8999996 99.800003,24.5 Z" id="Fill-30" fill="#FFFFFF"></path>
                <path d="M24.7999992,69.0999984 C24.7999992,68.6999969 24.3999996,68.2999954 23.7999992,68.1999969 L22,68 C21.5,67.9000015 20.8999996,67.4000015 20.8999996,66.9000015 L20.6000003,65 C20.5,64.5 20.1000003,64 19.7000007,64 C19.3000011,64 18.9000015,64.4000015 18.8000011,65 L18.5000019,66.9000015 C18.4000015,67.4000015 17.9000015,68 17.4000015,68 L15.5000019,68.300003 C15.0000019,68.4000015 14.5000019,68.800003 14.5000019,69.2000045 C14.5000019,69.6000061 14.9000015,70.0000076 15.5000019,70.1000061 L17.4000015,70.4000091 C17.9000015,70.5000076 18.5000019,71.0000076 18.5000019,71.5000076 L18.8000011,73.4000091 C18.9000015,73.9000091 19.3000011,74.4000091 19.7000007,74.4000091 C20.1000003,74.4000091 20.5,74.0000076 20.6000003,73.4000091 L20.8999996,71.3000106 C21,70.8000106 21.5,70.3000106 22,70.2000122 L23.7999992,70.1000137 C24.3999996,69.9000015 24.7999992,69.5 24.7999992,69.0999984 Z" id="Fill-31" fill="#FFFFFF"></path>
            </g>
        </g>
    </g>
</svg>