<?xml version="1.0" encoding="UTF-8"?>
<svg width="140px" height="140px" viewBox="0 0 140 140" version="1.1" xmlns="http://www.w3.org/2000/svg" xmlns:xlink="http://www.w3.org/1999/xlink">
    <!-- Generator: Sketch 44.1 (41455) - http://www.bohemiancoding.com/sketch -->
    <title>plans</title>
    <desc>Created with Sketch.</desc>
    <defs></defs>
    <g id="PDP" stroke="none" stroke-width="1" fill="none" fill-rule="evenodd">
        <g id="plans">
            <g>
                <rect id="Rectangle-16-Copy" x="0" y="0" width="140" height="140"></rect>
                <g id="Page-1" transform="translate(10.000000, 10.000000)">
                    <polygon id="Stroke-1" stroke-opacity="0.00784313771" stroke="#000000" stroke-width="0.5" points="0 0 120.000002 0 120.000002 120.000002 0 120.000002"></polygon>
                    <polygon id="Fill-2" fill="#C2CDDC" points="106.875 28.125 114.375 28.125 114.375 39.375 106.875 39.375"></polygon>
                    <path d="M112.5,26.25 L26.25,26.25 C24.1799998,26.25 22.5,27.9299998 22.5,30 L112.5,30 L112.5,37.5 L116.25,37.5 L116.25,30 C116.25,27.9299998 114.57,26.25 112.5,26.25 Z" id="Fill-3" fill="#8592A5"></path>
                    <polygon id="Fill-4" fill="#FFFFFF" points="13.125 0 106.875 0 106.875 37.5 13.125 37.5"></polygon>
                    <polygon id="Fill-5" fill="#EDF2F8" points="33.984375 39.375 30 28.125 1.875 28.125 1.875 118.125 118.125 118.125 118.125 39.375"></polygon>
                    <path d="M86.25,75 C86.25,82.2487305 83.6871814,88.4359144 78.5615514,93.5615443 C73.4359215,98.6871742 67.2487376,101.249993 60,101.25 C52.7512584,101.249993 46.5640747,98.6871742 41.4384412,93.5615443 C36.3128113,88.4359144 33.7499963,82.2487305 33.75,75 C33.7499963,67.7512622 36.3128113,61.564071 41.4384412,56.4384412 C46.5640747,51.3128078 52.7512584,48.7499963 60,48.75 C67.2487376,48.7499963 73.4359215,51.3128078 78.5615514,56.4384412 C83.6871814,61.564071 86.25,67.7512622 86.25,75 Z" id="Fill-6" fill="#FFFFFF"></path>
                    <polygon id="Fill-7" fill="#C2CDDC" points="65.625 69.375 65.625 60 54.375 60 54.375 69.375 45 69.375 45 80.625 54.375 80.625 54.375 90 65.625 90 65.625 80.625 75 80.625 75 69.375"></polygon>
                    <path d="M95.625,28.125 C96.6618776,28.125 97.5,27.2868758 97.5,26.25 L97.5,13.125 C97.5,12.088125 96.6618776,11.25 95.625,11.25 C94.5881222,11.25 93.75,12.088125 93.75,13.125 L93.75,26.25 C93.75,27.2868758 94.5881222,28.125 95.625,28.125 Z M7.5,110.625 C7.5,111.661878 8.33812504,112.5 9.375,112.5 L110.625,112.5 C111.661878,112.5 112.5,111.661878 112.5,110.625 C112.5,109.588122 111.661878,108.75 110.625,108.75 L9.375,108.75 C8.33812504,108.75 7.5,109.588122 7.5,110.625 Z M46.875,82.5 L52.5,82.5 L52.5,88.125 C52.5,90.195 54.1799998,91.875 56.25,91.875 L63.75,91.875 C65.82,91.875 67.5,90.195 67.5,88.125 L67.5,82.5 L73.125,82.5 C75.195,82.5 76.875,80.82 76.875,78.75 L76.875,71.25 C76.875,69.1799998 75.195,67.5 73.125,67.5 L67.5,67.5 L67.5,61.875 C67.5,59.8049998 65.82,58.125 63.75,58.125 L56.25,58.125 C54.1799998,58.125 52.5,59.8049998 52.5,61.875 L52.5,67.5 L46.875,67.5 C44.8049998,67.5 43.125,69.1799998 43.125,71.25 L43.125,78.75 C43.125,80.82 44.8049998,82.5 46.875,82.5 Z M46.875,71.25 L56.25,71.25 L56.25,61.875 L63.75,61.875 L63.75,71.25 L73.125,71.25 L73.125,78.75 L63.75,78.75 L63.75,88.125 L56.25,88.125 L56.25,78.75 L46.875,78.75 L46.875,71.25 Z M116.25,37.5 L108.75,37.5 L108.75,3.75 C108.75,1.68000005 107.07,0 105,0 L15,0 C12.9299998,0 11.25,1.67999994 11.25,3.75 L11.25,26.25 L3.75,26.25 C1.68000005,26.25 0,27.9299998 0,30 L0,116.25 C0,118.32 1.67999994,120 3.75,120 L116.25,120 C118.32,120 120,118.32 120,116.25 L120,41.25 C120,39.1799998 118.32,37.5 116.25,37.5 Z M15,3.75 L105,3.75 L105,37.5 L86.25,37.5 L86.25,13.125 C86.25,12.088125 85.4118776,11.25 84.375,11.25 C83.3381222,11.25 82.5,12.088125 82.5,13.125 L82.5,37.5 L50.625,37.5 L50.625,13.125 C50.625,12.088125 49.7868739,11.25 48.75,11.25 C47.7131259,11.25 46.875,12.088125 46.875,13.125 L46.875,37.5 L39.375,37.5 L39.375,13.125 C39.375,12.088125 38.5368739,11.25 37.5,11.25 C36.4631259,11.25 35.625,12.088125 35.625,13.125 L35.625,37.5 L33.75,30 C33.28125,27.8118752 32.07,26.25 30,26.25 L28.125,26.25 L28.125,13.125 C28.125,12.088125 27.2868758,11.25 26.25,11.25 C25.2131241,11.25 24.375,12.088125 24.375,13.125 L24.375,26.25 L15,26.25 L15,3.75 Z M116.25,116.25 L3.75,116.25 L3.75,30 L29.6493744,30 L32.9306244,41.25 L116.25,41.25 L116.25,116.25 Z M60,103.125 C75.5325006,103.125 88.125,90.5325006 88.125,75 C88.125,59.4674993 75.5325006,46.875 60,46.875 C44.4674993,46.875 31.875,59.4674993 31.875,75 C31.875,90.5325006 44.4674993,103.125 60,103.125 Z M60,50.625 C73.4625006,50.625 84.375,61.5374993 84.375,75 C84.375,88.4625006 73.4625006,99.375 60,99.375 C46.5374992,99.375 35.625,88.4625006 35.625,75 C35.625,61.5374993 46.5374992,50.625 60,50.625 Z" id="Fill-8" fill="#8592A5"></path>
                </g>
            </g>
        </g>
    </g>
</svg>