<?xml version="1.0" encoding="UTF-8"?>
<svg width="100px" height="100px" viewBox="0 0 100 100" version="1.1" xmlns="http://www.w3.org/2000/svg" xmlns:xlink="http://www.w3.org/1999/xlink">
    <!-- Generator: Sketch 42 (36781) - http://www.bohemiancoding.com/sketch -->
    <title>president_graphic</title>
    <desc>Created with Sketch.</desc>
    <defs></defs>
    <g id="Customer-New" stroke="none" stroke-width="1" fill="none" fill-rule="evenodd">
        <g id="president_graphic" fill-rule="nonzero">
            <g id="Group-41-Copy">
                <g id="Group-31" transform="translate(22.000000, 19.000000)">
                    <polygon id="Shape" fill="#F4CC6A" points="27.505 0.02 19.005 17.245 27.505 28.93"></polygon>
                    <polygon id="Shape" fill="#C68F30" points="27.52 28.95 36.005 17.245 27.505 0.02 27.505 28.93"></polygon>
                    <polygon id="Shape" fill="#F4CC6A" points="55.015 20.005 36.005 17.245 27.52 28.95"></polygon>
                    <polygon id="Shape" fill="#C68F30" points="41.26 33.415 55.015 20.005 27.52 28.95"></polygon>
                    <polygon id="Shape" fill="#F4CC6A" points="27.505 28.97 27.505 43.405 44.51 52.345 27.52 28.95"></polygon>
                    <polygon id="Shape" fill="#C68F30" points="27.52 28.95 44.51 52.345 41.26 33.415"></polygon>
                    <polygon id="Shape" fill="#F4CC6A" points="27.505 28.93 19.005 17.245 0 20.005 27.505 28.945"></polygon>
                    <polygon id="Shape-Copy" fill="#FFFFFF" opacity="0.200000003" points="27.505 28.93 19.005 17.245 0 20.005 27.505 28.945"></polygon>
                    <polygon id="Shape" fill="#C68F30" points="10.505 52.345 27.505 43.405 27.505 28.97"></polygon>
                    <polygon id="Shape" fill="#F4CC6A" points="27.505 28.955 13.755 33.415 10.505 52.345 27.505 28.97"></polygon>
                    <polygon id="Shape" fill="#C68F30" points="27.505 28.945 0 20.005 13.755 33.415 27.505 28.955"></polygon>
                </g>
                <path d="M93.2886437,56.8008179 C92.8654338,58.4594469 92.3426359,60.086105 91.725692,61.6732878 C92.2301352,61.0931324 92.8550957,60.6180075 93.5672207,60.2865458 C95.0016309,59.6143498 96.6546824,59.5899022 98.1082677,60.2193866 C97.6527714,61.7385545 96.5716966,62.9906385 95.1368356,63.6608528 C93.7761964,64.2963986 92.2201532,64.3513897 90.8228945,63.8205536 C90.0919187,65.4347406 89.2614793,67.0023772 88.3377277,68.5149808 C88.9675359,67.9651608 89.7203935,67.5590881 90.5454417,67.3382583 C92.0747342,66.9248126 93.70753,67.1876363 95.0306332,68.0602194 C94.3187951,69.4763956 93.0376487,70.5209051 91.5090642,70.9313295 C90.0397154,71.325849 88.4759768,71.0984314 87.1817402,70.3076901 C86.162482,71.8066335 85.0483918,73.2445778 83.8460304,74.6124762 C84.5882996,74.1357268 85.4418494,73.8381175 86.3395273,73.7575554 C87.9202684,73.623845 89.4822926,74.1761188 90.6292248,75.2742333 C89.6824892,76.5449412 88.239537,77.3504288 86.6629269,77.4883079 C85.134966,77.6219324 83.6222287,77.1162033 82.4815987,76.0952741 C81.2440235,77.3802941 79.9244717,78.5952495 78.5290644,79.7316994 C79.3285149,79.410231 80.200781,79.2764959 81.0779453,79.3541527 C82.6553576,79.4906136 84.0989421,80.2973612 85.0436812,81.5704052 C83.8915574,82.6575619 82.3311557,83.2003978 80.7545457,83.0625187 C79.2397295,82.9300438 77.8482992,82.1812673 76.9018322,80.9957008 C75.5181178,82.0203278 74.0676606,82.9707711 72.5557548,83.8397301 C73.3330476,83.7068038 74.1383199,83.7402793 74.9170907,83.948959 C76.451936,84.3538233 77.7394925,85.3993582 78.4527398,86.8200134 C77.1300345,87.6916081 75.4986537,87.9553284 73.9694973,87.5447505 C72.5284431,87.157828 71.3076156,86.2068236 70.5770845,84.912177 C69.1177807,85.6566743 67.6069325,86.3274715 66.0488437,86.9186342 C66.7335239,86.9617094 67.4116379,87.1323579 68.046872,87.4300425 C69.4831816,88.0985792 70.5649037,89.351541 71.0183812,90.8719499 C69.5642827,91.4991584 67.9121181,91.4745638 66.4772571,90.8043495 C65.1714357,90.1944088 64.1586285,89.1025494 63.6436966,87.7660382 L63.5951938,87.7826282 C59.278558,89.1844368 55.192222,91.1738536 51.445946,93.6830978 C53.9743821,95.2552686 56.5135244,97.1686537 58.8921661,99.5242892 L56.1775919,100 C54.2609591,98.056136 52.1924851,96.2820771 49.9959913,94.6925294 C47.7983662,96.2819267 45.7288196,98.0559924 43.8111984,100 L41.1022097,99.5186926 C43.4773546,97.1630786 46.0138299,95.2501278 48.5401496,93.6785328 C44.7850097,91.1625787 40.6881348,89.1689298 36.3600832,87.7658384 L36.3518111,87.7630978 C35.8372324,89.1009479 34.8238976,90.1939615 33.5171186,90.8043495 C32.0822577,91.4745638 30.4300931,91.4991584 28.9759946,90.8719499 C29.429472,89.351541 30.5111942,88.0985792 31.9475038,87.4300425 C32.5734722,87.1367 33.2410787,86.9667147 33.9155757,86.9206005 C32.3652593,86.3333861 30.8615344,85.6670185 29.4086867,84.9273704 C28.6771954,86.214263 27.4602897,87.1593432 26.0248785,87.5447505 C24.4957221,87.9553284 22.8643413,87.6916081 21.541636,86.8200134 C22.2548833,85.3993582 23.5424398,84.3538233 25.0772851,83.948959 C25.8379095,83.7451418 26.6238147,83.708459 27.3842408,83.8307097 C25.8870445,82.9694229 24.450021,82.027939 23.0783691,81.0133821 C22.1322138,82.1887104 20.7471019,82.9307036 19.2398301,83.0625187 C17.66322,83.2003978 16.1028184,82.6575619 14.9506946,81.5704052 C15.8954337,80.2973612 17.3390182,79.4906136 18.9164305,79.3541527 C19.7670803,79.2788432 20.6131235,79.4023392 21.3926175,79.7030631 C20.0170792,78.5801107 18.7153271,77.3805876 17.4932966,76.1126281 C16.3549547,77.1219301 14.8507273,77.6211731 13.3314489,77.4883079 C11.7548388,77.3504288 10.3118865,76.5449412 9.36515098,75.2742333 C10.5120832,74.1761188 12.0741074,73.623845 13.6548485,73.7575554 C14.5204958,73.8352429 15.345108,74.1147648 16.0684674,74.5621286 C14.8874583,73.2139312 13.791917,71.7978626 12.7881489,70.3225642 C11.4987048,71.1012714 9.94540586,71.3233642 8.48531163,70.9313295 C6.9567271,70.5209051 5.67558069,69.4763956 4.96374262,68.0602194 C6.28684583,67.1876363 7.91964155,66.9248126 9.44893413,67.3382583 C10.2428403,67.5507528 10.969903,67.9347699 11.5848075,68.4533376 C10.6784945,66.9633411 9.86252461,65.420093 9.14280203,63.8316846 C7.75301203,64.3525958 6.20818851,64.2948424 4.85635132,63.663408 C3.42095296,62.9929427 2.34006016,61.7396386 1.8861081,60.2193866 C3.33969334,59.5899022 4.99274485,59.6143498 6.42715505,60.2865458 C7.11139005,60.605026 7.71515436,61.0561367 8.20886248,61.605609 C7.60409806,60.0416788 7.09062852,58.4395334 6.67368468,56.8063412 C5.2339883,57.0534358 3.74944275,56.7223318 2.54648062,55.8761117 C1.25012144,54.9641917 0.404208457,53.5408989 0.221616107,51.9644056 C1.76122356,51.5983565 3.38357179,51.9100238 4.6788799,52.820685 C5.25014023,53.2206351 5.73409778,53.7200222 6.11251537,54.2881717 C5.80776248,52.6908859 5.59451997,51.0683245 5.47742312,49.4268397 C4.03621055,49.4075122 2.65267494,48.8264986 1.62616376,47.797956 C0.50574312,46.675318 -0.0825724423,45.1265018 0.00936544982,43.5415268 C1.59287934,43.4472617 3.14065687,44.0382521 4.25996413,45.16454 C4.72703083,45.6318811 5.10150695,46.173443 5.37262825,46.7608621 C5.37186799,46.6578864 5.37148731,46.5548509 5.37148731,46.4517573 C5.37148731,44.9213876 5.45526636,43.4056062 5.61892626,41.9090378 C4.21435743,41.6335561 2.96388413,40.8231897 2.13702744,39.6393501 C1.22911737,38.3394635 0.918343758,36.7129946 1.28286939,35.1690172 C2.85482855,35.3510196 4.27388433,36.1984342 5.18157882,37.4972017 C5.5575136,38.0333307 5.83136552,38.6254571 5.99760396,39.2446055 C6.2768368,37.6505887 6.64701685,36.0823493 7.10319314,34.5457611 C5.75389063,34.0339714 4.65086778,33.0130805 4.03698267,31.6936076 C3.3680921,30.2559071 3.34354614,28.6004729 3.96951586,27.1434968 C5.4869218,27.5978717 6.7374089,28.6817345 7.40462518,30.1208865 C7.69764203,30.7486373 7.86733184,31.4181808 7.91317999,32.0946109 C8.47816542,30.5451507 9.13197081,29.0327931 9.86914827,27.5640014 C8.59740795,26.8286358 7.6639611,25.6151916 7.28168766,24.1858116 C6.87207394,22.654202 7.13422475,21.0202363 8.00227834,19.6944258 C9.42012763,20.4090846 10.4635976,21.6991891 10.8676622,23.2370719 C11.0631817,23.9696208 11.104594,24.7255724 10.9991678,25.4597611 C11.8411829,23.9905741 12.7690088,22.5710237 13.7766755,21.2081925 C12.6221692,20.2608864 11.8938797,18.8845668 11.7635228,17.3880646 C11.6259161,15.8083345 12.1676798,14.2448448 13.2526893,13.090441 C14.523219,14.0370497 15.3283732,15.4834911 15.4645646,17.0640251 C15.5363272,17.8778237 15.4272123,18.6874146 15.1559639,19.4387756 C16.2541948,18.1014106 17.4327181,16.8262794 18.6852026,15.6208933 C17.6902525,14.4795293 17.2011781,12.9778653 17.3372338,11.4629161 C17.4791199,9.88304639 18.2873656,8.43900579 19.558768,7.49384374 C20.6465976,8.64687029 21.1894817,10.2115148 21.0501082,11.7920304 C20.9743157,12.6399084 20.706035,13.4484963 20.2769564,14.1614325 C21.6035011,13.0028409 23.0029133,11.918659 24.4686575,10.9166402 C23.6952487,9.62533421 23.4758798,8.07136646 23.8674888,6.61088282 C24.2781958,5.07917397 25.3218715,3.79594291 26.7361916,3.0837251 C27.6070512,4.4094467 27.8693559,6.04547369 27.4567267,7.5777927 C27.2475593,8.36046775 26.872665,9.07816699 26.3672435,9.68766017 C27.8355818,8.78877627 29.3631739,7.96954888 30.9441376,7.23695667 C30.4394647,5.85323905 30.5020518,4.32028273 31.1268691,2.97731245 C31.7957597,1.53961195 33.0453707,0.456397683 34.5615382,0 C35.1897793,1.45646185 35.16538,3.11278472 34.4945116,4.55003358 C34.1992293,5.18694269 33.7897087,5.75426555 33.2933707,6.22823494 C34.658224,5.68744938 36.0584179,5.20966761 37.4905093,4.79897465 C38.1196104,3.51081764 39.2244799,2.51030362 40.579689,2.01643651 C42.0665894,1.47457826 43.7135842,1.59409614 45.1070445,2.34497426 C44.5233718,3.8187057 43.3381171,4.97167614 41.8506726,5.51264831 C40.5301055,5.99582952 39.0823226,5.95534927 37.7991506,5.41247988 C36.1343427,5.88520392 34.5130436,6.44993424 32.9408223,7.10007588 C33.8481334,7.04770806 34.7645026,7.21870316 35.606112,7.61181344 C37.0409729,8.28202773 38.1220477,9.53411171 38.577544,11.0532796 C37.1239588,11.682764 35.4709073,11.6583164 34.0364971,10.9861204 C32.7059075,10.3667916 31.6796274,9.24590494 31.1752248,7.87547024 C29.6224133,8.59803106 28.122037,9.40552471 26.6798697,10.2911137 C27.4657553,10.1541668 28.280577,10.1869262 29.0682723,10.3984221 C30.5968568,10.8088464 31.8780032,11.8533559 32.5898413,13.2695321 C31.2711082,14.1372443 29.6455058,14.3998914 28.1214064,13.9914932 C26.7308122,13.6246797 25.5432086,12.7319623 24.8018062,11.5108351 C23.4331341,12.4497996 22.1234094,13.4615955 20.8781495,14.5396891 C21.5969435,14.2962737 22.3657947,14.2003256 23.1385395,14.2679044 C24.7151496,14.4057834 26.1581019,15.211271 27.1048375,16.481979 C25.9579053,17.5800934 24.395881,18.1323672 22.81514,17.9986568 C21.3900584,17.8707629 20.0761893,17.1958622 19.1422034,16.125618 C17.9222012,17.3015121 16.7736094,18.5446546 15.702486,19.8478714 C16.3844891,19.4630317 17.1475388,19.2227015 17.9447818,19.1530745 C19.5243136,19.0151267 21.0873488,19.5604068 22.239829,20.6514439 C21.2950899,21.924488 19.8515053,22.7312355 18.274093,22.8676964 C16.8354646,22.9977506 15.4091368,22.5589662 14.2949041,21.6555037 C13.2434749,23.08188 12.2807776,24.5711153 11.4138604,26.1148627 C12.0589371,25.5315481 12.8388191,25.1015428 13.6966238,24.8712226 C15.2252083,24.4607983 16.8559468,24.7234679 18.1791388,25.5932393 C17.4658915,27.0138945 16.178335,28.0594295 14.6434897,28.4642937 C13.2267197,28.8439319 11.7222394,28.643709 10.4580794,27.9166247 C9.63677021,29.5589483 8.92128324,31.2564012 8.31946883,32.9996868 C8.86678299,32.2476032 9.59975276,31.6367919 10.4598404,31.2350505 C11.8947013,30.5648362 13.546866,30.5402417 15.0009645,31.1674502 C14.547487,32.687859 13.4657648,33.9408208 12.0294553,34.6093575 C10.6800488,35.2417189 9.13714663,35.3008288 7.74884276,34.781539 C7.218647,36.5752581 6.80748486,38.4126643 6.52348254,40.2841344 C6.93199975,39.400173 7.56955326,38.6294514 8.38357664,38.0600464 C9.6848991,37.1497781 11.3127921,36.8410285 12.8561157,37.2117752 C12.6704516,38.7896928 11.8183131,40.212055 10.515773,41.1182001 C9.28739811,41.9829517 7.76447909,42.3086249 6.29690756,42.0281705 C6.13921448,43.4857077 6.05850917,44.9617041 6.05850917,46.4517573 C6.05850917,46.8548721 6.06445201,47.2571135 6.0762687,47.6583863 C6.32512412,46.7267354 6.81418491,45.8657247 7.50810342,45.1684388 C8.62327062,44.04786 10.1619574,43.4561878 11.739007,43.5415268 C11.8373075,45.1228752 11.2559308,46.6708496 10.1415415,47.7949407 C9.08632567,48.853715 7.65197122,49.4376385 6.16626868,49.4218178 C6.29741295,51.226344 6.54709072,53.0081061 6.90888279,54.758243 C7.02015457,53.8656404 7.34700473,53.0034218 7.87412566,52.251113 C8.78424449,50.9521884 10.2047262,50.1046013 11.7781058,49.9216476 C12.143432,51.4643019 11.8323802,53.0898608 10.9235176,54.3877323 C10.079987,55.597345 8.7932595,56.4163022 7.352257,56.6721482 C7.78761958,58.3672488 8.32887905,60.0286989 8.96995194,61.648101 C8.9510325,60.8032211 9.12420516,59.9556964 9.48847322,59.1727456 C10.1573638,57.7350451 11.4069748,56.6518309 12.9231423,56.1954332 C13.5513834,57.651895 13.5269841,59.3082179 12.8561157,60.7454668 C12.2449921,62.0636297 11.1445461,63.0837305 9.7978624,63.5950749 C10.4935138,65.1234452 11.2798016,66.6094993 12.1512606,68.0456929 C12.0248336,67.274865 12.0605473,66.4774519 12.2668631,65.7060048 C12.6766301,64.1738222 13.720306,62.8901084 15.1350175,62.1781957 C16.0058772,63.5039173 16.2681818,65.1399442 15.8555526,66.6722633 C15.4870416,68.0545219 14.6016552,69.2345525 13.3929903,69.9741341 C14.3171443,71.3287091 15.3199054,72.6326198 16.3962075,73.8788734 C16.1703839,73.1756401 16.0841048,72.4267649 16.1518718,71.6747466 C16.293582,70.1021735 17.0955614,68.6640232 18.3578762,67.718827 C19.4381233,68.865146 19.9804269,70.4179419 19.8492163,71.9890307 C19.7226883,73.4044783 19.0597154,74.7104288 18.0077354,75.6446623 C19.1528681,76.8324375 20.3689605,77.9592899 21.6509607,79.0182462 C21.2961374,78.3584535 21.0740875,77.6264122 21.0075975,76.8631038 C20.8699908,75.2833737 21.4117545,73.719884 22.496764,72.5654802 C23.7672937,73.5120889 24.5724479,74.9585303 24.7086392,76.5390642 C24.8341959,77.9628946 24.4060618,79.3738447 23.5246261,80.4825828 C24.9083738,81.5050633 26.3594822,82.4520065 27.8724325,83.3157945 C27.3391371,82.6930198 26.9440369,81.9529241 26.7258732,81.1432691 C26.3158558,79.6216018 26.5692944,77.9970838 27.4232134,76.6733826 C28.8345704,77.3781368 29.8789369,78.6525867 30.2941828,80.1768525 C30.6697366,81.5839325 30.4767164,83.0773563 29.7666326,84.3370461 C31.3884992,85.1612959 33.0745311,85.8926172 34.8185596,86.5224949 C34.0622098,85.9757361 33.4470841,85.2407923 33.0418852,84.3767558 C32.3673021,82.9382911 32.3389829,81.27941 32.9640727,79.8186702 C34.4919873,80.2660362 35.7537306,81.3508359 36.4271097,82.79606 C37.0654043,84.1635237 37.1184839,85.7293039 36.5810331,87.132574 L36.5835049,87.1334229 C39.9033489,88.2598836 44.8553583,89.8676052 49.9887917,92.8127285 C55.1269945,89.8627103 60.08594,88.2553147 63.4052853,87.1278263 L63.4108034,87.1259313 C62.8760608,85.7243639 62.9299785,84.1613664 63.5672661,82.79606 C64.2344823,81.356908 65.4849694,80.2730452 67.0023754,79.8186702 C67.6283451,81.2756464 67.6037991,82.9310806 66.9349086,84.3687811 C66.5327966,85.2330729 65.9208143,85.9692546 65.1672163,86.5181602 C66.9137313,85.8883479 68.6018472,85.157117 70.2254502,84.3329743 C69.5172442,83.0741388 69.3250437,81.5824167 69.7001929,80.1768525 C70.1154389,78.6525867 71.1598054,77.3781368 72.5711623,76.6733826 C73.4250814,77.9970838 73.67852,79.6216018 73.2685026,81.1432691 C73.0512862,81.9494084 72.6586666,82.6865911 72.1288838,83.3076741 C73.6392667,82.4458911 75.0878062,81.5013924 76.4690734,80.481732 C75.588095,79.3731229 75.160212,77.9625305 75.2857365,76.5390642 C75.4219279,74.9585303 76.2270821,73.5120889 77.4976118,72.5654802 C78.5826213,73.719884 79.124385,75.2833737 78.9867783,76.8631038 C78.9202913,77.6263777 78.6982584,78.3583873 78.3434632,79.0181567 C79.6260584,77.959604 80.8425493,76.8331664 81.9879308,75.6458079 C80.9352025,74.7114965 80.2717392,73.405057 80.1451595,71.9890307 C80.0139489,70.4179419 80.5562525,68.865146 81.6364996,67.718827 C82.8988144,68.6640232 83.7007937,70.1021735 83.8425039,71.6747466 C83.9104525,72.428779 83.8235287,73.1796514 83.5963508,73.8845228 C84.674424,72.6370676 85.6786281,71.3317844 86.603923,69.9756859 C85.3939598,69.2362037 84.507592,68.055489 84.1388231,66.6722633 C83.7261939,65.1399442 83.9884986,63.5039173 84.8593583,62.1781957 C86.2740698,62.8901084 87.3177457,64.1738222 87.7275127,65.7060048 C87.9345407,66.4801148 87.9697867,67.2803703 87.8418002,68.0536742 C88.7152262,66.6147639 89.5030421,65.1257442 90.1997966,63.5942001 C88.8541611,63.0825677 87.7546209,62.0628784 87.1438456,60.7454668 C86.4729772,59.3082179 86.4485779,57.651895 87.0768191,56.1954332 C88.5929865,56.6518309 89.8425975,57.7350451 90.5114881,59.1727456 C90.8745623,59.9531303 91.0477916,60.7976663 91.0301897,61.6397916 C91.6694266,60.0231276 92.2091678,58.3645413 92.6434151,56.6723782 C91.201888,56.4167932 89.9146418,55.5977077 89.0708581,54.3877323 C88.1658567,53.0881308 87.8588971,51.4627102 88.2274411,49.9216476 C89.7987893,50.1075117 91.2163431,50.9563126 92.1240671,52.254864 C92.6496923,53.006801 92.9754482,53.868173 93.086137,54.7597385 C93.4477371,53.0091684 93.69723,51.2269083 93.8282494,49.4218163 C92.3424962,49.4376758 90.9080838,48.8537488 89.8528342,47.7949407 C88.7404861,46.6698803 88.1611884,45.1220294 88.2609543,43.5415268 C89.8370607,43.4578393 91.3742243,44.0502416 92.4881297,45.1706235 C93.1810928,45.8676157 93.669501,46.7279559 93.9181196,47.6587976 C93.9299281,47.2573911 93.9358666,46.8550126 93.9358666,46.4517573 C93.9358666,44.9617622 93.8551228,43.4857697 93.6973443,42.0281942 C92.2298109,42.3086066 90.7069431,41.9829274 89.4786028,41.1182001 C88.1781757,40.210938 87.3281704,38.7887423 87.1438456,37.2117752 C88.6863717,36.8428643 90.312718,37.1524951 91.6127051,38.0625758 C92.4256996,38.6317281 93.0625169,39.4017434 93.4707503,40.2847979 C93.1865237,38.4126057 92.7749666,36.5744361 92.2441945,34.7799484 C90.8547908,35.3009488 89.3101177,35.2423638 87.959335,34.6093575 C86.5230254,33.9408208 85.4413033,32.687859 84.9878258,31.1674502 C86.4419243,30.5402417 88.0940889,30.5648362 89.5289499,31.2350505 C90.3934653,31.6388601 91.1295506,32.2538977 91.6777595,33.0113133 C91.074635,31.2634642 90.3571711,29.5616169 89.5332559,27.9151599 C88.2685704,28.64344 86.7630214,28.8441867 85.3453006,28.4642937 C83.8104553,28.0594295 82.5228988,27.0138945 81.8096515,25.5932393 C83.1328435,24.7234679 84.7635819,24.4607983 86.2921664,24.8712226 C87.152439,25.1022054 87.9343398,25.534024 88.5804941,26.1199009 C87.7134109,24.5762658 86.7504757,23.0871038 85.6987138,21.6607765 C84.5825521,22.5635014 83.1543464,23.0005314 81.7146972,22.8676964 C80.1453101,22.7250557 78.7109944,21.9189465 77.7713034,20.6514439 C78.9234272,19.5642872 80.4838289,19.0214514 82.060439,19.1593304 C82.8496672,19.2283506 83.6054027,19.4646642 84.2821648,19.8428822 C83.2127509,18.5430712 82.0661536,17.3030557 80.8483686,16.1299722 C79.9146209,17.1976927 78.6023838,17.8709364 77.1792358,17.9986568 C75.5984948,18.1323672 74.0364705,17.5800934 72.8895383,16.481979 C73.8362739,15.211271 75.2792262,14.4057834 76.8558362,14.2679044 C77.6227772,14.2008332 78.3858826,14.2948416 79.1000216,14.5342293 C77.8549429,13.4577238 76.5454375,12.4474015 75.176987,11.509787 C74.4394368,12.7281446 73.2579109,13.6208041 71.8729694,13.9914932 C70.3436768,14.404939 68.7108811,14.1421152 67.3877779,13.2695321 C68.099616,11.8533559 69.3807624,10.8088464 70.9093469,10.3984221 C71.6972004,10.1868837 72.5121912,10.1541537 73.298223,10.2911963 C71.860071,9.40924329 70.3640058,8.6048431 68.8157188,7.88476973 C68.3101022,9.2509752 67.2854573,10.3681931 65.9578787,10.9861204 C64.5234685,11.6583164 62.870417,11.682764 61.4168318,11.0532796 C61.872328,9.53411171 62.9534029,8.28202773 64.3882638,7.61181344 C65.2202737,7.22318699 66.1253478,7.05163771 67.0225036,7.09837113 C65.4550176,6.45174239 63.8387199,5.8898692 62.1790916,5.41927536 C60.8999265,5.9556792 59.4587387,5.99380557 58.1437032,5.51264831 C56.6562587,4.97167614 55.471004,3.8187057 54.8873313,2.34497426 C56.2807916,1.59409614 57.9277864,1.47457826 59.4146868,2.01643651 C60.7735063,2.51161933 61.8806506,3.51615216 62.5088843,4.80927608 C63.9431785,5.22160971 65.345309,5.70116766 66.7118381,6.24384944 C66.2081092,5.76674417 65.7928106,5.19395203 65.4942786,4.55003358 C64.8234102,3.11278472 64.799011,1.45646185 65.4272521,0 C66.9434195,0.456397683 68.1930305,1.53961195 68.8619211,2.97731245 C69.4880502,4.32310223 69.5495859,5.85967663 69.0414665,7.24566984 C70.6302134,7.98248999 72.1648649,8.80675624 73.6394851,9.71138832 C73.1247033,9.09664658 72.7433925,8.37047244 72.5320635,7.5777927 C72.1194343,6.04547369 72.381739,4.4094467 73.2525987,3.0837251 C74.6659778,3.79697187 75.7084244,5.08065364 76.1180381,6.61226321 C76.5093325,8.07537393 76.2876059,9.63189002 75.5102728,10.9239522 C76.9929084,11.938065 78.4074892,13.03625 79.7472846,14.2104791 C79.3007852,13.4856755 79.0218036,12.6594122 78.9442676,11.7920304 C78.8063776,10.2106776 79.3513358,8.64591604 80.4411933,7.49384374 C81.7117937,8.4398685 82.5189513,9.88435089 82.6597675,11.4641853 C82.7953421,12.9852141 82.3008442,14.4924349 81.2971723,15.6347763 C82.5646878,16.8559422 83.7562381,18.1485982 84.8652839,19.5049444 C84.5754105,18.7352519 84.4567447,17.9019678 84.5298112,17.0640251 C84.667361,15.4825619 85.4746379,14.0359601 86.747272,13.090441 C87.8322815,14.2448448 88.3740452,15.8083345 88.2364385,17.3880646 C88.1052981,18.893562 87.3690153,20.2774276 86.2024212,21.2252281 C87.2206328,22.6042815 88.1570772,24.041342 89.0056081,25.5290787 C88.8873256,24.7732227 88.925035,23.992697 89.1267136,23.2370719 C89.5307782,21.6991891 90.5742482,20.4090846 91.9920974,19.6944258 C92.860151,21.0202363 93.1223018,22.654202 92.7126881,24.1858116 C92.3280933,25.6238715 91.3856107,26.8433653 90.102022,27.5773451 C90.8455446,29.060999 91.5040153,30.5890689 92.0718525,32.1548971 C92.1114877,31.4579884 92.2824456,30.7672814 92.5841651,30.1208865 C93.2513813,28.6817345 94.5018684,27.5978717 96.0192744,27.1434968 C96.6471225,28.6003084 96.6234989,30.2565598 95.9543578,31.6947988 C95.3366342,33.022522 94.2231834,34.0475296 92.8620375,34.5550629 C93.3237658,36.112962 93.6971454,37.7033786 93.9770455,39.320193 C94.1409292,38.6736578 94.4215905,38.05511 94.812797,37.4972017 C95.7216009,36.2005502 97.1404919,35.3552708 98.7115064,35.1746138 C99.0742075,36.7177891 98.7625589,38.3427117 97.8548349,39.6412631 C97.0218206,40.832938 95.7594455,41.6458486 94.3428718,41.9152338 C94.5059203,43.4097898 94.5893752,44.9234996 94.5893752,46.4517573 C94.5893752,46.5757531 94.5888246,46.699665 94.5877253,46.8234902 C94.8608558,46.2119234 95.245206,45.6484443 95.7288261,45.16454 C96.8507695,44.0352333 98.4032768,43.4439907 99.9905959,43.5415268 C100.082843,45.1285645 99.4930525,46.6793245 98.370099,47.8023612 C97.3344999,48.838037 95.9367162,49.4186845 94.4833794,49.4278916 C94.3645172,51.0937349 94.1466389,52.7401178 93.834558,54.3604023 C94.2196221,53.7623112 94.720149,53.2374986 95.3154959,52.820685 C96.6125305,51.9138926 98.2347409,51.6063255 99.7727597,51.9755988 C99.5872627,53.5500568 98.7401383,54.9704158 97.4441515,55.8799363 C96.232703,56.7301279 94.7366368,57.058442 93.2886437,56.8008179 L93.2886437,56.8008179 Z" id="Combined-Shape" fill="#E1AD3D"></path>
            </g>
        </g>
    </g>
</svg>