<?xml version="1.0" encoding="UTF-8"?>
<svg width="30px" height="30px" viewBox="0 0 30 30" version="1.1" xmlns="http://www.w3.org/2000/svg" xmlns:xlink="http://www.w3.org/1999/xlink">
    <!-- Generator: Sketch 42 (36781) - http://www.bohemiancoding.com/sketch -->
    <title>profile_placeholder</title>
    <desc>Created with Sketch.</desc>
    <defs></defs>
    <g id="Customer-New" stroke="none" stroke-width="1" fill="none" fill-rule="evenodd">
        <g id="profile_placeholder" fill-rule="nonzero">
            <circle id="Oval-2-Copy" fill="#FFFFFF" cx="15" cy="15" r="15"></circle>
            <path d="M15,18.65 C9.12857143,18.65 6.55714286,22.8214286 5.45,26.0071429 C8.00714286,28.2285714 11.35,29.5714286 15,29.5714286 C18.65,29.5714286 21.9928571,28.2285714 24.55,26.0071429 C23.4428571,22.8214286 20.8714286,18.65 15,18.65 Z M15,15.3285714 C17.643077,15.3285714 19.7857143,13.1859341 19.7857143,10.5428571 C19.7857143,7.89978014 17.643077,5.75714286 15,5.75714286 C12.356923,5.75714286 10.2142857,7.89978014 10.2142857,10.5428571 C10.2142857,13.1859341 12.356923,15.3285714 15,15.3285714 Z" id="Combined-Shape" fill="#E5E5E5"></path>
            <circle id="Oval-2-Copy-Copy" fill="#FFFFFF" cx="15" cy="15" r="15"></circle>
            <path d="M15,18.65 C9.12857143,18.65 6.55714286,22.8214286 5.45,26.0071429 C8.00714286,28.2285714 11.35,29.5714286 15,29.5714286 C18.65,29.5714286 21.9928571,28.2285714 24.55,26.0071429 C23.4428571,22.8214286 20.8714286,18.65 15,18.65 Z M15,15.3285714 C17.643077,15.3285714 19.7857143,13.1859341 19.7857143,10.5428571 C19.7857143,7.89978014 17.643077,5.75714286 15,5.75714286 C12.356923,5.75714286 10.2142857,7.89978014 10.2142857,10.5428571 C10.2142857,13.1859341 12.356923,15.3285714 15,15.3285714 Z" id="Combined-Shape-Copy" fill="#E5E5E5"></path>
        </g>
    </g>
</svg>