<?xml version="1.0" encoding="UTF-8"?>
<svg width="24px" height="24px" viewBox="0 0 24 24" version="1.1" xmlns="http://www.w3.org/2000/svg" xmlns:xlink="http://www.w3.org/1999/xlink">
    <!-- Generator: Sketch 42 (36781) - http://www.bohemiancoding.com/sketch -->
    <title>search</title>
    <desc>Created with Sketch.</desc>
    <defs></defs>
    <g id="Customer-New" stroke="none" stroke-width="1" fill="none" fill-rule="evenodd">
        <g id="search">
            <g id="Group-2">
                <rect id="Rectangle-5" x="0" y="0" width="24" height="24"></rect>
                <path d="M19.8542611,19.1535049 L15.7655867,15.0647737 C16.777995,13.8908607 17.3928933,12.364685 17.3928933,10.6965395 C17.3928933,7.00354925 14.3884984,4 10.6964466,4 C7.0043949,4 4,7.00443656 4,10.6965395 C4,14.3886424 7.0043949,17.393079 10.6964466,17.393079 C12.364569,17.393079 13.8907236,16.7781721 15.0646203,15.7657498 L19.1532948,19.8544809 C19.2500104,19.9511979 19.3768942,20 19.503778,20 C19.6306617,20 19.7575455,19.9511979 19.8542611,19.8544809 C20.0485796,19.661047 20.0485796,19.3469388 19.8542611,19.1535049 Z M10.6964466,16.4010648 C7.55097118,16.4010648 4.99200044,13.8420586 4.99200044,10.6965395 C4.99200044,7.55102041 7.55097118,4.9920142 10.6964466,4.9920142 C13.8419221,4.9920142 16.4008928,7.55102041 16.4008928,10.6965395 C16.4008928,13.8420586 13.8419221,16.4010648 10.6964466,16.4010648 Z" id="Shape" fill="#505050" fill-rule="nonzero"></path>
            </g>
        </g>
    </g>
</svg>