<?xml version="1.0" encoding="UTF-8"?>
<svg width="500px" height="234px" viewBox="0 0 500 234" version="1.1" xmlns="http://www.w3.org/2000/svg" xmlns:xlink="http://www.w3.org/1999/xlink">
    <!-- Generator: Sketch 42 (36781) - http://www.bohemiancoding.com/sketch -->
    <title>share_graphic</title>
    <desc>Created with Sketch.</desc>
    <defs></defs>
    <g id="Customer-New" stroke="none" stroke-width="1" fill="none" fill-rule="evenodd">
        <g id="share_graphic" fill-rule="nonzero">
            <g id="Group-9">
                <g id="Group-35" transform="translate(0.000000, 34.887273)">
                    <path d="M120.881335,122.640825 C181.266623,113.034068 225.958139,78.3486187 220.702629,45.168705 C215.447119,11.9887914 162.234739,-7.1210281 101.84945,2.48572855 C41.4641621,12.0924852 -3.22735364,46.7779347 2.02815612,79.9578483 C7.28366589,113.137762 60.4960465,132.247581 120.881335,122.640825 Z" id="Oval" fill="#EEF2F5"></path>
                    <path d="M51.8111325,15.4936597 C69.2952447,8.48900154 87.7509187,4.22298751 106.530008,2.84543192 C167.107701,-2.06192231 218.206224,20.8386522 220.872894,53.7463882 C223.538799,86.6446807 176.786008,117.446237 116.198322,122.354426 C55.6455898,127.259782 4.511547,104.334651 1.86191347,71.4533538 C0.895208615,59.481401 6.46966062,47.4661108 17.7047852,36.7022504 L16.5286643,35.4729932 C4.95043544,46.5655663 -0.845230038,59.0576646 0.166746659,71.5902768 C2.91399228,105.682916 54.9709479,129.021821 116.335553,124.050694 C177.735025,119.076743 225.332115,87.7189481 222.568011,53.6088409 C219.803206,19.4900963 167.782114,-3.82394199 106.399224,1.14866562 C87.4522944,2.5385086 68.8253535,6.84411085 51.179023,13.9137585 L51.8111325,15.4936597 Z" id="Shape" fill="#DCE5EB"></path>
                    <path d="M151.913196,62.1367855 C152.692052,62.3909236 161.440601,78.67392 161.440601,78.67392 L168.685775,74.5350982 L156.821802,57.4896873" id="Shape" fill="#505050"></path>
                    <path d="M162.907748,79.6360145 C161.694182,76.2414545 171.656297,70.2147491 168.1605,65.7491782 C164.664703,61.2836073 147.511753,65.5858036 153.670151,80.4528873 C159.828549,95.3199709 162.907748,79.6360145 162.907748,79.6360145 Z" id="Shape" fill="#F29E6A"></path>
                    <path d="M126.790554,101.854953 C126.790554,101.854953 161.657956,121.387287 150.953211,82.9761164 C149.46795,80.6162618 164.193767,78.6376145 164.193767,78.6376145 C164.193767,78.6376145 180.966346,112.546909 148.344948,117.992727 C131.010868,120.951622 117.08202,109.769542 117.08202,109.769542" id="Shape" fill="#707070"></path>
                    <path d="M61.3122891,131.861411 C54.0671147,125.943622 64.6812953,84.9729164 98.8241801,82.4315345 C132.967065,79.8901527 141.38958,122.131549 138.871882,128.466851 C136.354184,134.802153 68.466899,137.7792 61.3122891,131.861411 Z" id="Shape" fill="#707070"></path>
                    <path d="M85.9519602,86.0880292 C85.1714813,86.7923194 115.7839,117.048132 115.7839,117.048132 L117.852862,109.740323 L113.721132,79.4938528 C113.721132,79.4938528 92.8058937,79.88589 85.9519602,86.0880292 Z" id="Shape" fill="#DDDDDD"></path>
                    <path d="M119.291798,19.8227782 C137.839445,27.3198545 120.523478,52.1527855 120.523478,52.1527855 L119.291798,19.8227782 Z" id="Shape" fill="#8A6B58"></path>
                    <path d="M125.72189,42.1869382 C124.780018,36.8500364 122.968724,25.2322909 124.435872,23.1447273 C122.968529,21.6932172 121.217027,20.5621292 119.291798,19.8227782 L120.487252,51.1543855 L120.940075,51.5355927 C122.836199,48.5841521 124.437858,45.4528393 125.72189,42.1869382 L125.72189,42.1869382 Z" id="Shape" fill="#000000" opacity="0.100000001"></path>
                    <path d="M111.5938,18.1527273 C127.225264,22.7816727 120.813285,37.4490764 128.203363,64.9323055 C135.593441,92.4155345 71.1476135,101.183302 67.0178641,63.5345455 C62.8881146,25.8857891 70.5136607,5.9904 111.5938,18.1527273 Z" id="Shape" fill="#FFC4A0"></path>
                    <path d="M121.356673,82.4133818 C79.6969194,101.292218 70.8940324,55.7833309 72.4517449,52.0438691 C77.6501576,50.6461091 82.9753609,34.14528 75.8750899,26.4666764 C90.890714,32.4752291 116.013357,28.7902255 121.791383,27.8462836 C120.439398,22.9755888 116.518462,19.2484492 111.5938,18.1527273 C107.019756,16.7617756 102.344554,15.7300005 97.6106134,15.0667636 L91.1986339,15.1938327 L75.5309441,19.0240582 C66.184669,26.2851491 64.6631823,41.9146473 67.035977,63.4619345 C70.0427244,91.1266909 105.489741,93.7951418 121.356673,82.4133818 Z" id="Shape" fill="#000000" opacity="0.100000001"></path>
                    <path d="M98.9333832,45.5463605 C99.7301114,45.4708821 100.274486,44.3335673 100.149278,43.0060968 C100.024071,41.6786263 99.2766937,40.6636862 98.4799655,40.7391647 C97.6832373,40.8146431 97.1388624,41.9519579 97.2640703,43.2794284 C97.3892781,44.6068989 98.136655,45.621839 98.9333832,45.5463605 Z" id="Oval" fill="#7B604F"></path>
                    <path d="M117.438648,42.496543 C117.533773,41.1665673 116.963792,40.0419228 116.16556,39.9845791 C115.367328,39.9272355 114.64312,40.9589076 114.547995,42.2888832 C114.45287,43.6188589 115.022851,44.7435034 115.821082,44.8008471 C116.619314,44.8581908 117.343523,43.8265187 117.438648,42.496543 Z" id="Oval" fill="#7B604F"></path>
                    <path d="M70.731016,23.9071418 C100.49057,35.4704291 162.165118,13.0155055 114.61866,8.40471273 C67.0722029,3.79392 70.731016,23.9071418 70.731016,23.9071418 Z" id="Shape" fill="#8A6B58"></path>
                    <path d="M131.282562,16.6642036 C102.64601,31.34976 73.6653117,23.5077818 72.1075991,17.7533673 C70.9899429,19.598699 70.5064141,21.7602298 70.731016,23.9071418 C90.9269399,31.74912 125.776229,23.9434473 131.282562,16.6642036 Z" id="Shape" fill="#000000" opacity="0.100000001"></path>
                    <path d="M71.1295006,23.4170182 C58.6496875,20.6941091 60.8232399,49.1031273 67.6337039,52.4613818 C74.4441679,55.8196364 81.508213,25.6679564 71.1295006,23.4170182 Z" id="Shape" fill="#8A6B58"></path>
                    <path d="M76.3460262,34.2905018 C74.1543609,48.2499491 64.6269565,50.1559855 63.2141474,44.6194036 L63.2141474,44.6194036 C64.1741331,48.4133236 65.7318456,51.4811345 67.7061556,52.4432291 C71.9264698,54.5489455 76.2735745,43.4031709 76.3460262,34.2905018 Z" id="Shape" fill="#000000" opacity="0.100000001"></path>
                    <path d="M109.800619,48.7945309 C134.506664,44.0203636 136.028151,58.0887273 111.104751,58.0887273 C104.167496,57.9616582 102.827139,50.1559855 109.800619,48.7945309 Z" id="Shape" fill="#FDAF9B"></path>
                    <path d="M102.736574,35.0710691 C102.736574,35.6156509 99.8203916,35.6156509 96.5238372,36.4688291 C93.2272828,37.3220073 90.6914717,38.5745455 90.4016647,38.1933382 C90.1118578,37.8121309 92.3759748,35.5793455 95.998562,34.7080145 C99.6211493,33.8366836 102.827139,34.6354036 102.736574,35.0710691 Z" id="Shape" fill="#8A6B58"></path>
                    <path d="M111.068525,34.0363636 C111.068525,33.6006982 113.839804,32.8201309 117.154472,34.0363636 C120.469139,35.2525964 122.280432,37.5579927 121.881948,37.8847418 C121.483463,38.2114909 119.454814,36.74112 116.556745,35.7608727 C113.658675,34.7806255 111.104751,34.5809455 111.068525,34.0363636 Z" id="Shape" fill="#8A6B58"></path>
                    <path d="M69.318207,51.6263564 C63.7394226,49.5569455 60.6239976,52.5702982 60.497207,55.4928873 C60.3160777,59.9221527 69.5536751,60.9387055 69.9159339,59.50464 C70.4230961,57.3263127 66.8548476,57.5441455 66.9816382,56.0737745 C67.1084287,54.6034036 73.0132459,53.0059636 69.318207,51.6263564 Z" id="Shape" fill="#EC9982"></path>
                    <path d="M111.5938,68.1816436 C93.172944,65.8762473 100.073973,78.1656436 107.971213,78.0385745 C115.868453,77.9115055 127.895443,70.2147491 111.5938,68.1816436 Z" id="Shape" fill="#80301B"></path>
                    <path d="M117.172584,69.4523345 C114.111498,74.5714036 105.326724,74.6621673 100.780377,74.3172655 C102.490731,76.6027468 105.174962,77.9478109 108.025552,77.9478109 C114.763564,77.9115055 124.345307,72.3749236 117.172584,69.4523345 Z" id="Shape" fill="#A33D23"></path>
                    <path d="M118.784636,70.3418182 C116.593969,69.0094649 114.100165,68.2596801 111.539461,68.1634909 C108.465253,67.5713163 105.29291,67.7458667 102.301864,68.6717673 C104.656546,71.4309818 112.300205,73.4459345 118.784636,70.3418182 Z" id="Shape" fill="#FFFFFF"></path>
                    <path d="M141.08166,62.0097164 L186.563243,4.64709818 L212.808888,42.9312 L145.82725,69.2345018 C142.601342,68.4437254 140.531112,65.291963 141.08166,62.0097164 L141.08166,62.0097164 Z" id="Shape" fill="#8C8C8C"></path>
                    <path d="M210.490432,39.6455564 C191.707317,48.0865745 151.949422,62.0278691 141.552597,65.6402618 C142.367965,67.427233 143.934607,68.7578125 145.82725,69.2708073 L212.736436,42.9675055 L210.490432,39.6455564 Z" id="Shape" fill="#000000" opacity="0.100000001"></path>
                    <path d="M157.836126,48.7037673 C167.055611,36.9226473 181.85388,22.0918691 191.834108,12.3983127 L186.400227,4.59264 L141.08166,62.0097164 C141.042022,62.4323485 141.042022,62.8577751 141.08166,63.2804073 C144.124634,62.5542982 149.504176,59.3594182 157.836126,48.7037673 Z" id="Shape" fill="#FFFFFF" opacity="0.100000001"></path>
                    <path d="M213.280462,42.7724582 C215.230726,41.4038687 210.839352,31.7462346 203.472055,21.2015285 C196.104757,10.6568225 188.55138,3.21811024 186.601116,4.5866997 C184.650852,5.95528917 189.042226,15.6129233 196.409524,26.1576294 C203.776822,36.7023354 211.330198,44.1410477 213.280462,42.7724582 Z" id="Oval" fill="#707070"></path>
                </g>
                <g id="Group-34" transform="translate(229.591837, 0.000000)">
                    <path d="M90.767925,91.9854067 C136.126035,84.7803392 169.695845,58.7662521 165.748195,33.8813168 C161.800545,8.99638162 121.830329,-5.33598299 76.4722195,1.86908449 C31.1141098,9.07415198 -2.45570054,35.0882391 1.49194954,59.9731743 C5.43959963,84.8581095 45.4098153,99.1904742 90.767925,91.9854067 Z" id="Oval" fill="#EEF2F5"></path>
                    <path d="M75.1360544,93.3549382 C57.4489796,93.3549382 40.7414966,90.1827491 27.3537415,84.16512 C10.8503401,76.7451927 1.23129252,65.8671709 0.25170068,53.5460073 C-0.727891156,41.2248436 7.06802721,28.9581382 22.1972789,19.0603636 L22.7006803,19.8363927 C7.8707483,29.5435636 0.170068027,41.4971345 1.17687075,53.46432 C2.18367347,65.4315055 11.5578231,76.0372364 27.7346939,83.3210182 C43.9115646,90.6048 65.1088435,93.6953018 87.244898,91.95264 C109.380952,90.2099782 129.680272,83.7839127 144.591837,74.0495127 C159.503401,64.3151127 167.068027,52.3615418 166.115646,40.3807418 C165.163265,28.3999418 155.666667,17.8078255 139.489796,10.5376582 C123.312925,3.26749091 102.115646,0.14976 80.047619,1.90603636 C66.6184773,2.90435006 53.4032414,5.83437291 40.8095238,10.6057309 L40.4693878,9.74801455 C53.1327696,4.94611928 66.4209556,1.99325114 79.9251701,0.980247273 C102.142857,-0.789643636 123.462585,2.34170182 139.789116,9.69355636 C156.115646,17.0454109 165.911565,27.9915055 166.891156,40.3126691 C167.870748,52.6338327 160.088435,64.9005382 144.959184,74.8255418 C129.829932,84.7505455 109.47619,91.1085382 87.244898,92.8648145 C83.1632653,93.1915636 79.0816327,93.3549382 75.1360544,93.3549382 Z" id="Shape" fill="#DCE5EB"></path>
                    <path d="M53.9115646,94.0628945 C49.5306122,88.6170764 65.2721088,56.4050618 90.7823129,59.6725527 C116.292517,62.9400436 116.156463,95.3018182 113.340136,99.5223273 C110.52381,103.742836 58.292517,99.4814836 53.9115646,94.0628945 Z" id="Shape" fill="#707070"></path>
                    <path d="M80.8231293,62.4907636 C80.170068,62.9264291 99.4897959,88.7804509 99.4897959,88.7804509 L101.843537,83.6069236 L102.210884,60.7072582 C102.210884,60.7072582 86.6190476,58.6650764 80.8231293,62.4907636 Z" id="Shape" fill="#DDDDDD"></path>
                    <path d="M111.326531,15.2346764 C125.340136,20.7894109 112.37415,39.4821818 112.37415,39.4821818 L111.326531,15.2346764 Z" id="Shape" fill="#8A6B58"></path>
                    <path d="M116.238095,31.9805673 C115.517007,27.9778909 114.102041,19.2781964 115.190476,17.7125236 C114.081782,16.6321079 112.761557,15.7930882 111.312925,15.2482909 L112.333333,38.7469964 L112.673469,39.0329018 C114.090793,36.8052842 115.284796,34.4430414 116.238095,31.9805673 Z" id="Shape" fill="#000000" opacity="0.100000001"></path>
                    <path d="M105.530612,14.0229818 C117.285714,17.4266182 112.52381,28.4544 118.210884,49.0259782 C123.897959,69.5975564 75.4897959,76.4592873 72.2789116,48.1954909 C69.0680272,19.9316945 74.6190476,5.06461091 105.530612,14.0229818 Z" id="Shape" fill="#FFC49F"></path>
                    <path d="M96.10206,34.9723855 C96.7001932,34.9124329 97.1043305,34.0571748 97.0047259,33.0621131 C96.9051214,32.0670514 96.3394932,31.3089957 95.7413601,31.3689483 C95.1432269,31.4289008 94.7390896,32.2841589 94.8386942,33.2792206 C94.9382987,34.2742823 95.5039269,35.0323381 96.10206,34.9723855 Z" id="Oval" fill="#7B604F"></path>
                    <path d="M110.001011,32.5808709 C110.066895,31.5830054 109.634055,30.7419279 109.034237,30.7022718 C108.434418,30.6626157 107.89476,31.4393979 107.828875,32.4372634 C107.762991,33.4351289 108.195831,34.2762064 108.795649,34.3158625 C109.395468,34.3555186 109.935126,33.5787364 110.001011,32.5808709 Z" id="Oval" fill="#7B604F"></path>
                    <path d="M113.095238,62.1640145 C81.8027211,76.5001309 75.122449,42.4093091 76.2653061,39.5910982 C80.1564626,38.5155491 84.1020408,26.1263127 78.7278912,20.3945891 C90.0340136,24.8329309 108.891156,21.9738764 113.217687,21.2250764 C112.178085,17.5821589 109.217863,14.8083644 105.517007,14.0093673 C102.075678,12.9792778 98.5593654,12.2191004 95,11.7357382 L90.1836735,11.8582691 L78.4421769,14.7990109 C71.4489796,20.2448291 70.4013605,32.0077964 72.2517007,48.1682618 C74.6326531,68.9168291 101.272109,70.7956364 113.095238,62.1640145 Z" id="Shape" fill="#000000" opacity="0.100000001"></path>
                    <path d="M74.8639456,18.5021673 C97.2721088,27.0521018 143.503401,9.92500364 107.761905,6.68474182 C72.0204082,3.44448 74.8639456,18.5021673 74.8639456,18.5021673 Z" id="Shape" fill="#8A6B58"></path>
                    <path d="M120.319728,12.8112873 C98.877551,23.9479855 77.0680272,18.1890327 75.8707483,13.8868364 C75.0406907,15.2740642 74.6870956,16.8949954 74.8639456,18.5021673 C90.0612245,24.3019636 116.210884,18.2979491 120.319728,12.8112873 Z" id="Shape" fill="#000000" opacity="0.100000001"></path>
                    <path d="M75.1632653,18.1345745 C65.7891156,16.1468509 67.5306122,37.44 72.6598639,39.9178473 C77.7891156,42.3956945 82.9183673,19.7819345 75.1632653,18.1345745 Z" id="Shape" fill="#8A6B58"></path>
                    <path d="M79.0816327,26.2624582 C77.5306122,36.7592727 70.3877551,38.2160291 69.2993197,34.0363636 L69.2993197,34.0363636 C70.0340136,36.8818036 71.2312925,39.1690473 72.7006803,39.8770036 C75.8843537,41.48352 79.0816327,33.09696 79.0816327,26.2624582 Z" id="Shape" fill="#000000" opacity="0.100000001"></path>
                    <path d="M104.306122,37.0043345 C122.278912,33.2603345 124.047619,43.87968 105.326531,43.9205236 C100.129252,43.9069091 99.0816327,38.1207273 104.306122,37.0043345 Z" id="Shape" fill="#FCAF9A"></path>
                    <path d="M100.537415,24.4244945 C100.428571,24.6967855 98.6462585,24.0569018 96.3877551,24.0432873 C94.1292517,24.0296727 92.3061224,24.56064 92.2244898,24.3291927 C92.1428571,24.0977455 93.9115646,23.06304 96.3877551,23.1174982 C98.8639456,23.1719564 100.659864,24.2338909 100.537415,24.4244945 Z" id="Shape" fill="#8A6B58"></path>
                    <path d="M106.727891,21.7832727 C106.809524,21.5790545 108.37415,21.9738764 109.897959,23.2400291 C110.566281,23.776845 111.093947,24.4684102 111.435374,25.2549818 C111.680272,25.8812509 111.62585,26.3305309 111.435374,26.3441455 C111.244898,26.35776 111.14966,26.0310109 110.809524,25.5681164 C110.351396,24.9701626 109.826445,24.4265886 109.244898,23.9479855 C107.92517,22.7499055 106.605442,21.9874909 106.727891,21.7832727 Z" id="Shape" fill="#8A6B58"></path>
                    <path d="M73.9115646,39.3051927 C69.7210884,37.7803636 67.3809524,40.0403782 67.3129252,42.2459345 C67.1904762,45.5678836 74.1156463,46.3302982 74.4013605,45.2139055 C74.7823129,43.58016 72.0884354,43.7571491 72.1836735,42.6543709 C72.2789116,41.5515927 76.6870748,40.3126691 73.9115646,39.3051927 Z" id="Shape" fill="#EC9982"></path>
                    <path d="M112.673469,49.2029673 C106.755102,57.9162764 92.7414966,48.5630836 90.0748299,47.0790982 C87.4081633,45.5951127 85.9931973,59.45472 89.4353741,60.7753309 C92.877551,62.0959418 106.455782,65.1047564 111.380952,57.0041018 C111.92517,55.9830109 112.673469,49.2029673 112.673469,49.2029673 Z" id="Shape" fill="#80301B"></path>
                    <path d="M101.326531,52.2934691 C97.3551645,51.0615269 93.5664301,49.303257 90.0612245,47.0654836 C87.3401361,45.5814982 85.9795918,59.4411055 89.4217687,60.7617164 C94.1718078,62.4097625 99.2692105,62.7898599 104.210884,61.8644945 L106.292517,60.8842473 C106.292517,60.8842473 96.0204082,55.8196364 101.326531,52.2934691 Z" id="Shape" fill="#692716"></path>
                    <path d="M87.3945578,55.4928873 C87.5170068,58.0251927 88.1292517,60.2715927 89.4353741,60.7617164 C92.80751,61.9066539 96.3510265,62.4638647 99.9115646,62.4090764 C100.202606,62.2555652 100.464966,62.0529066 100.687075,61.8100364 C103.204082,58.85568 94.5102041,55.7515636 87.3945578,55.4928873 Z" id="Shape" fill="#A33D23"></path>
                    <path d="M90.0612245,47.0790982 L90.0612245,47.0790982 C88.170068,50.9184 104.251701,59.904 111.136054,50.9456291 L111.136054,50.9456291 C104.605442,56.4731345 92.5238095,48.4405527 90.0612245,47.0790982 Z" id="Shape" fill="#F0F0F0"></path>
                    <path d="M88.2244898,59.5091782 C88.4538659,60.0690903 88.8864543,60.5214233 89.4353741,60.7753309 C92.5646259,61.9597964 103.707483,64.4784873 109.557823,59.1960436 C103.136054,61.7147345 89.0136054,59.6180945 88.2244898,59.5091782 Z" id="Shape" fill="#F0F0F0"></path>
                </g>
                <g id="Group-33" transform="translate(307.823129, 94.450909)">
                    <path d="M103.998831,110.965901 C156.086905,102.695622 194.637601,72.8355586 190.104223,44.2715834 C185.570844,15.7076082 139.670088,-0.743682726 87.5820152,7.52659676 C35.493942,15.7968762 -3.05675477,45.6569395 1.47662388,74.2209147 C6.01000252,102.78489 51.9107584,119.236181 103.998831,110.965901 Z" id="Oval" fill="#EEF3F6"></path>
                    <path d="M85.5108954,112.579414 C39.3884464,112.579414 2.35924451,93.7328325 0.109368951,67.4163787 C-2.37486865,38.3495116 38.529119,11.0329076 91.2918257,6.46972201 C116.790415,4.28189331 141.28906,7.68865515 160.147392,16.0492863 C179.005724,24.4099174 190.270726,36.8649136 191.489409,51.0076634 C192.536226,63.3063862 185.739727,76.01142 172.334218,86.5755071 L171.678005,85.7472577 C184.802279,75.339444 191.45816,63.0407213 190.426968,51.1014275 C189.255157,37.3649887 178.349511,25.2694215 159.725541,17.0338092 C141.101571,8.79819684 116.696671,5.42268971 91.3699464,7.59489106 C39.2009568,12.0486852 -1.265555,38.8495868 1.17181019,67.3226146 C3.60917538,95.7956424 48.0442177,115.345455 100.213207,110.89166 C116.874853,109.572929 133.22242,105.622334 148.648028,99.1867769 L149.06988,100.1713 C133.525552,106.65937 117.051157,110.641676 100.26008,111.969947 C95.3072286,112.376258 90.3543775,112.579414 85.5108954,112.579414 Z" id="Shape" fill="#DCE5EB"></path>
                    <path d="M43.8569493,116.001803 C37.607295,110.907288 46.7630385,75.6363636 76.2145346,73.4485349 C105.666031,71.2607062 112.931254,107.625545 110.759499,113.079489 C108.587744,118.533434 49.9972347,121.143201 43.8569493,116.001803 Z" id="Shape" fill="#707070"></path>
                    <path d="M64.0589569,76.0270473 C63.4183673,76.6677686 91.1512085,101.296469 91.1512085,101.296469 L92.6042531,94.9361382 L87.7451468,69.1197596 C87.7451468,69.1197596 69.7461424,70.4012021 64.0589569,76.0270473 Z" id="Shape" fill="#DDDDDD"></path>
                    <path d="M90.5106189,17.8620586 C106.994082,22.956574 93.9010564,45.506837 93.9010564,45.506837 L90.5106189,17.8620586 Z" id="Shape" fill="#8A6B58"></path>
                    <path d="M97.650849,36.567994 C96.4634146,32.0516905 94.0572977,22.2220887 95.1666114,20.3311796 C93.7922215,19.1920412 92.1960205,18.3512025 90.4793706,17.8620586 L93.744815,44.6473328 L94.1510425,44.9442524 C95.5906056,42.2742671 96.7629019,39.4685529 97.650849,36.567994 L97.650849,36.567994 Z" id="Shape" fill="#000000" opacity="0.100000001"></path>
                    <path d="M83.7766163,17.0025545 C97.54148,19.8467318 93.1510978,32.8799399 101.447514,55.9146506 C109.74393,78.9493614 55.0125823,91.1386927 48.7785521,59.0401202 C42.5445219,26.9415477 47.5754936,9.53268219 83.7766163,17.0025545 Z" id="Shape" fill="#FFC49F"></path>
                    <path d="M74.8590517,41.8017943 C75.5384167,41.6792873 75.9240792,40.6641919 75.720453,39.5345154 C75.5168269,38.4048389 74.8010212,37.5883668 74.1216562,37.7108739 C73.4422912,37.833381 73.0566286,38.8484763 73.2602548,39.9781528 C73.4638809,41.1078293 74.1796867,41.9243014 74.8590517,41.8017943 Z" id="Oval" fill="#7B604F"></path>
                    <path d="M89.3445244,39.9272492 C90.0347876,39.9185729 90.5826656,38.9810647 90.5682442,37.8332661 C90.5538227,36.6854676 89.9825629,35.7620266 89.2922996,35.7707029 C88.6020364,35.7793792 88.0541584,36.7168874 88.0685798,37.864686 C88.0830013,39.0124845 88.6542611,39.9359256 89.3445244,39.9272492 Z" id="Oval" fill="#7B604F"></path>
                    <path d="M96.7602732,71.4013524 C62.2934296,90.6229902 51.5596482,52.2109692 52.5752171,48.8979715 C56.934351,47.3352367 60.387285,32.7705485 53.6689066,26.7227648 C67.0119186,30.7858753 88.338864,25.8163787 93.2292185,24.5661908 C91.710812,20.4902974 88.0709048,17.5825792 83.7609922,17.0025545 C79.7271123,16.1329252 75.6316032,15.5790818 71.5116697,15.3460556 L66.027598,15.9867769 L52.8408274,20.4093163 C45.3256181,27.2853494 45.1850008,40.83426 48.7629279,59.1495116 C53.3407997,82.5905334 84.0109784,82.3092412 96.7602732,71.4013524 Z" id="Shape" fill="#000000" opacity="0.100000001"></path>
                    <path d="M49.0597865,24.8943651 C75.4802002,32.7080391 126.867983,8.89196093 85.6671368,8.40751315 C44.4662906,7.92306536 49.0597865,24.8943651 49.0597865,24.8943651 Z" id="Shape" fill="#8A6B58"></path>
                    <path d="M100.588186,14.2833959 C77.0426138,28.9574756 51.5596482,24.3317806 49.7941209,19.5185575 C48.9677372,21.181823 48.7097665,23.070337 49.0597865,24.8943651 C66.9806703,30.145154 96.385294,20.9093914 100.588186,14.2833959 Z" id="Shape" fill="#000000" opacity="0.100000001"></path>
                    <path d="M49.3722692,24.4411721 C38.4353741,23.003456 42.3726564,47.2258452 48.4660694,49.6012021 C54.5594823,51.976559 58.4030197,25.6132231 49.3722692,24.4411721 Z" id="Shape" fill="#8A6B58"></path>
                    <path d="M54.6844754,33.380015 C53.8095238,45.5224643 45.7630939,47.8353118 44.1381837,43.1939895 L44.1381837,43.1939895 C45.2318732,46.3194591 46.809911,48.8979715 48.5598142,49.5699474 C52.3096068,51.0858002 55.2469443,41.2093163 54.6844754,33.380015 Z" id="Shape" fill="#000000" opacity="0.100000001"></path>
                    <path d="M84.3703335,43.4127724 C104.68171,37.5056349 107.587799,49.507438 86.151485,51.2264463 C80.2768099,51.6796394 78.558155,45.1161533 84.3703335,43.4127724 Z" id="Shape" fill="#FCAF9A"></path>
                    <path d="M79.0893756,30.4108189 C78.9800066,30.7233659 76.8863724,30.1607814 74.2927659,30.4108189 C71.6991593,30.6608565 69.69927,31.3640872 69.6055251,31.1140496 C69.5117803,30.864012 71.4179249,29.5513148 74.2927659,29.3481593 C77.1676069,29.1450038 79.1987445,30.1764087 79.0893756,30.4108189 Z" id="Shape" fill="#8A6B58"></path>
                    <path d="M85.8233781,35.130278 C85.6358885,34.9583772 86.6514573,33.4268971 88.6044743,32.2392186 C89.4390448,31.7169811 90.3882169,31.405889 91.3699464,31.3328325 C92.135529,31.3328325 92.6042531,31.535988 92.5730048,31.6766341 C92.5417565,31.8172802 92.1199049,31.8641623 91.4949394,32.0673178 C90.674591,32.3413955 89.8882746,32.7084186 89.1513191,33.1612322 C87.3857917,34.2238918 86.042116,35.3646882 85.8233781,35.130278 Z" id="Shape" fill="#8A6B58"></path>
                    <path d="M49.8566174,48.8042074 C44.9193905,47.4290008 42.4507771,50.2419234 42.560146,52.7735537 C42.7163874,56.5866266 50.7628173,56.7585274 50.950307,55.5395943 C51.2315414,53.6330579 48.1848349,54.0862509 48.1848349,52.8048084 C48.1848349,51.5233659 53.1220618,49.6793388 49.8566174,48.8042074 Z" id="Shape" fill="#EC9982"></path>
                    <path d="M89.2138156,58.9619835 C86.4014712,53.9924869 67.0431669,49.7418482 70.5898457,60.7278738 C74.1365245,71.7138993 97.0102594,72.7921863 89.2138156,58.9619835 Z" id="Shape" fill="#80301B"></path>
                    <path d="M70.9492008,61.63426 C72.2830351,64.355034 74.5594638,66.4986489 77.3550965,67.6664162 C80.2841007,66.372432 83.1235764,64.8845333 85.8546264,63.2126221 C90.4481223,60.1496619 80.9642719,60.3528174 70.9492008,61.63426 Z" id="Shape" fill="#A33D23"></path>
                    <path d="M73.2303247,54.2894065 C78.1029279,56.7081055 83.421576,58.0965581 88.8544605,58.3681443 C86.2296057,55.2895567 77.8394447,52.7579264 73.2303247,54.2894065 Z" id="Shape" fill="#FAFAFA"></path>
                    <path d="M89.0575742,67.6820436 C85.0890437,64.9785124 75.339583,64.2752817 75.3708313,66.6350113 C79.9330789,69.5104433 86.1358608,70.0261458 89.0575742,67.6820436 Z" id="Shape" fill="#FAFAFA"></path>
                    <path d="M140.945329,0.828249437 C100.322576,-2.29722014 104.853576,10.8453794 105.009817,16.4555973 C105.166058,22.0658152 106.103506,45.3818182 132.148941,47.710293 C158.194375,50.0387678 166.33455,52.7579264 173.849759,40.5529677 C180.8025,29.2543952 197.270339,5.04763336 140.945329,0.828249437 Z" id="Shape" fill="#CCCCCC"></path>
                    <path d="M130.539655,46.0069121 C114.571788,45.6787378 110.665754,50.3669421 126.1024,55.7583772 C141.539047,61.1498122 107.47843,59.7433509 107.47843,59.7433509 C107.47843,59.7433509 138.726702,66.4787378 139.570405,59.9152517 C140.414109,53.3517656 117.399757,50.1637866 142.226508,48.0384673" id="Shape" fill="#CCCCCC"></path>
                </g>
                <g id="Group-36" transform="translate(163.265306, 157.418182)">
                    <path d="M70.0688381,70.893868 C105.027088,65.3617216 130.899899,45.3877604 127.857379,26.280777 C124.81486,7.17379353 94.0091496,-3.83078618 59.0509001,1.70136023 C24.0926506,7.23350664 -1.78016053,27.2074679 1.26235904,46.3144513 C4.30487861,65.4214347 35.1105886,76.4260145 70.0688381,70.893868 Z" id="Oval" fill="#EEF2F5"></path>
                    <path d="M57.5173813,72.0032164 C26.6572582,72.0032164 1.87898068,59.4591021 0.348033361,41.8868885 C-0.291609014,34.5694885 3.15826543,27.1371007 10.3201628,20.509627 L10.8025161,21.0322984 C3.80839375,27.5029707 0.442406826,34.6949296 1.06107732,41.824168 C2.72834187,60.9016752 32.5608428,73.8848336 67.5838842,70.8428859 C84.5815939,69.3689524 100.237103,64.3617601 111.624835,56.7516641 C123.012566,49.141568 128.853235,39.994818 128.056303,30.7748939 C127.259372,21.5549698 119.919214,13.5058298 107.399001,8.01777976 C94.8787875,2.52972973 78.5312062,0.271789145 61.5334965,1.75617601 C46.7692922,3.04194773 32.6237584,7.1187849 21.6869224,13.2549475 L21.3408864,12.6381952 C32.3616099,6.44976547 46.6015172,2.36247487 61.4705809,1.04534286 C78.5836359,-0.439044003 95.0255907,1.80844315 107.692607,7.31740004 C120.359623,12.8263569 127.940958,21.2100067 128.769347,30.6599062 C129.597737,40.1098057 123.662694,49.580612 112.065244,57.2952423 C100.467794,65.0098727 84.8017986,70.017065 67.6467999,71.5014519 C64.2388692,71.8568684 60.8309385,72.0032164 57.5173813,72.0032164 Z" id="Shape" fill="#DCE5EB"></path>
                    <path d="M93.389784,31.3916462 C100.03088,28.7573822 106.713919,26.2381059 113.438902,23.8338173 L112.568569,22.3494304 C107.634352,26.6668064 102.956685,31.2671429 98.5593527,36.1270494 C98.0140837,36.7333482 98.5593527,37.9668528 99.4296857,37.6114362 C104.599254,35.5834711 109.747851,33.6600402 115.273942,32.9073933 L114.403609,31.4230065 C109.638692,36.3626208 105.306198,41.6993713 101.453472,47.3749386 C101.268773,47.6953742 101.299604,48.0958479 101.53119,48.3844333 C101.762777,48.6730188 102.14793,48.7909137 102.502066,48.6816172 C106.967927,47.2228071 111.575834,46.2382098 116.249134,45.7442037 C117.381616,45.629216 117.392102,43.8416797 116.249134,43.9671208 C111.402663,44.4629031 106.622422,45.4685468 101.988255,46.9672549 L103.036849,48.2739334 C106.778644,42.7277985 110.988287,37.5100372 115.619978,32.6774179 C115.88876,32.3869026 115.935697,31.9554645 115.73564,31.6142597 C115.535583,31.2730548 115.135458,31.1021168 114.749645,31.193031 C109.223554,31.9456779 104.064471,33.8691088 98.9053887,35.8970739 L99.7757218,37.3814608 C104.190007,32.5200527 108.88521,27.9196874 113.837368,23.6038419 C114.10615,23.3133266 114.153087,22.8818885 113.95303,22.5406836 C113.752973,22.1994787 113.352848,22.0285408 112.967035,22.119455 C106.242052,24.5237436 99.5590123,27.0430199 92.9179166,29.6772839 C91.8693226,30.095421 92.320218,31.7679696 93.389784,31.3916462 L93.389784,31.3916462 Z" id="Shape" fill="#CCCCCC"></path>
                    <path d="M77.5664997,37.3187402 C74.1690549,31.046683 77.157548,23.7920036 81.1107476,24.1056064 C85.0639472,24.4192093 85.2107503,39.3780657 85.2107503,39.3780657" id="Shape" fill="#F29E6A"></path>
                    <path d="M61.806131,52.2462363 C61.806131,52.2462363 78.3529452,60.6089792 75.5217412,36.0120616 L86.1020553,36.4824659 C86.1020553,36.4824659 89.2478374,65.4175564 64.7421943,60.8180478" id="Shape" fill="#707070"></path>
                    <polygon id="Rectangle-path" fill="#505050" points="87.1840135 31.2415634 87.2039981 29.778219 92.6981218 29.8527863 92.6781372 31.3161307"></polygon>
                    <polygon id="Rectangle-path" fill="#CCCCCC" points="70.0744847 32.5898213 70.1392917 27.8444045 85.7933503 28.0568645 85.7285433 32.8022813"></polygon>
                    <polygon id="Rectangle-path" fill="#505050" points="71.2121245 33.7048854 71.2835338 26.5861005 86.939043 26.7421702 86.8676338 33.8609551"></polygon>
                    <polygon id="Shape" fill="#CCCCCC" points="87.2240509 26.875765 87.1296774 33.9945499 90.915102 31.2034845 90.9360739 29.7818182"></polygon>
                    <path d="M76.9268573,24.1056064 C72.8792842,26.6353362 73.8335048,28.4437793 75.7524319,28.6842082 C77.6713591,28.924637 84.6235377,29.4891222 85.5567864,27.1789145 C86.4900351,24.8687067 80.2718723,22.0149207 76.9268573,24.1056064 Z" id="Shape" fill="#F29E6A"></path>
                    <path d="M25.4408891,74.3029707 C21.2465129,70.895153 27.3703022,47.312218 47.1363001,45.8382846 C66.9022981,44.3643511 71.7782605,68.699933 70.3207147,72.4004467 C68.863169,76.1009605 29.5618638,77.700335 25.4408891,74.3029707 Z" id="Shape" fill="#707070"></path>
                    <path d="M40.49163,47.7453126 C40.0397951,48.1508851 57.761936,65.5739958 57.761936,65.5739958 L58.9591503,61.3761605 L56.5776812,43.9589767 C56.5776812,43.9589767 44.4699805,44.1742961 40.49163,47.7453126 Z" id="Shape" fill="#DDDDDD"></path>
                    <path d="M62.8756969,11.4987715 C72.9946296,17.1122627 61.271348,30.0536073 61.271348,30.0536073 L62.8756969,11.4987715 Z" id="Shape" fill="#8A6B58"></path>
                    <path d="M64.972885,24.7223587 C64.8155959,21.5863301 64.6058771,14.8334152 65.5915555,13.7567121 C64.8531706,12.8216763 63.9284456,12.0493089 62.8756969,11.4883181 L61.3237777,29.4786688 L61.5544684,29.729551 C62.8561619,28.1764788 64.0011667,26.4993106 64.972885,24.7223587 L64.972885,24.7223587 Z" id="Shape" fill="#000000" opacity="0.100000001"></path>
                    <path d="M58.5659754,9.99347778 C67.2168763,13.7567121 62.4772312,21.680411 64.7736522,37.9041322 C67.0700732,54.1278535 29.4045747,54.5459906 29.7506107,32.6774179 C30.0966467,10.8088452 35.8429422,0.104534286 58.5659754,9.99347778 Z" id="Shape" fill="#FFC49F"></path>
                    <path d="M46.6625157,23.7594468 C46.6853656,22.99194 46.3284772,22.3586453 45.8653831,22.3449436 C45.402289,22.3312419 45.0083536,22.9423218 44.9855037,23.7098286 C44.9626537,24.4773355 45.3195422,25.1106301 45.7826362,25.1243318 C46.2457303,25.1380335 46.6396658,24.5269537 46.6625157,23.7594468 Z" id="Oval" fill="#7B604F"></path>
                    <path d="M56.6359169,24.7037325 C56.7855226,23.9505112 56.5383775,23.2671809 56.083903,23.1774715 C55.6294284,23.0877621 55.1397246,23.6256448 54.9901189,24.3788661 C54.8405132,25.1320875 55.0876583,25.8154178 55.5421328,25.9051272 C55.9966074,25.9948366 56.4863112,25.4569539 56.6359169,24.7037325 Z" id="Oval" fill="#7B604F"></path>
                    <path d="M59.5516538,47.4062989 C34.2595651,55.2150101 32.4979271,28.5901273 33.6618665,26.5621622 C36.744733,26.1335716 41.0020249,17.0809024 37.457777,12.1991512 C45.6577825,16.704579 60.3590712,16.3805227 63.7355441,16.2550815 C63.3078396,13.3724952 61.3196845,10.9603359 58.5659754,9.98302435 C56.0380882,8.85877742 53.4261755,7.93258841 50.7539496,7.21286576 L47.0628986,6.8260889 L37.7933271,7.87143176 C31.9107144,11.3733304 29.9393576,20.2273844 29.7506107,32.6774179 C29.4989481,48.7234309 49.6738978,52.7793612 59.5516538,47.4062989 Z" id="Shape" fill="#000000" opacity="0.100000001"></path>
                    <path d="M34.6894887,10.3698012 C50.9636684,19.0984141 88.0000105,10.6520438 61.0091995,4.64132231 C34.0183885,-1.36939915 34.6894887,10.3698012 34.6894887,10.3698012 Z" id="Shape" fill="#8A6B58"></path>
                    <path d="M69.9851646,10.5475095 C52.4946158,16.8927407 36.409183,10.3384409 35.9268297,6.95153004 C35.15353,7.92633674 34.7225234,9.12721008 34.6999746,10.3698012 C45.7206982,16.2864418 66.3360573,14.3107438 69.9851646,10.5475095 Z" id="Shape" fill="#000000" opacity="0.100000001"></path>
                    <path d="M34.9516372,10.1084655 C27.9784867,7.66236319 27.2025271,24.0533393 30.8726063,26.4053607 C34.5426855,28.7573822 40.7084186,12.1364306 34.9516372,10.1084655 Z" id="Shape" fill="#8A6B58"></path>
                    <path d="M37.1746566,16.6941255 C34.9201794,24.5132901 29.3102012,24.9209739 28.8907636,21.6595041 L28.8907636,21.6595041 C29.163398,23.8965379 29.8554701,25.7572482 30.9145501,26.4471744 C33.1795133,27.9629216 36.4825845,21.899933 37.1746566,16.6941255 Z" id="Shape" fill="#000000" opacity="0.100000001"></path>
                    <path d="M55.3467916,27.3775296 C69.4608676,26.3321867 69.7544739,34.5694885 55.4411651,32.7401385 C51.4669936,32.2174671 51.2467888,27.6911325 55.3467916,27.3775296 Z" id="Shape" fill="#FCAF9A"></path>
                    <path d="M50.3974277,20.3423721 C50.2820823,20.5409873 48.9923116,19.8719678 47.2516455,19.6419924 C45.5109794,19.412017 44.1058633,19.6419924 44.0429477,19.4433773 C43.980032,19.2447621 45.4585497,18.6489167 47.346019,18.9311593 C49.2334883,19.2134018 50.5022871,20.2064776 50.3974277,20.3423721 Z" id="Shape" fill="#8A6B58"></path>
                    <path d="M55.1685306,20.5305338 C55.0426993,20.4050927 55.797687,19.4224704 57.1503734,18.7220907 C57.7302539,18.408155 58.3780292,18.2395382 59.0378427,18.2307795 C59.5516538,18.2307795 59.855746,18.4189413 59.8242882,18.5130221 C59.7928304,18.607103 59.5201959,18.6175564 59.0902724,18.7325441 C58.5262284,18.8789837 57.9808918,19.0894272 57.4649516,19.3597498 C56.2485825,19.9869556 55.3153338,20.6977887 55.1685306,20.5305338 Z" id="Shape" fill="#8A6B58"></path>
                    <path d="M31.8897426,26.1022113 C28.8383339,24.5237436 26.8250333,26.0185839 26.5523988,27.6911325 C26.1329612,30.2104088 31.3864174,31.4334599 31.6800238,30.6599062 C32.1309192,29.4473085 30.0651889,29.3218673 30.232964,28.4960465 C30.400739,27.6702256 33.9135291,27.1475542 31.8897426,26.1022113 Z" id="Shape" fill="#EC9982"></path>
                    <path d="M60.5268462,37.4859951 C55.1370728,43.5385303 45.3536902,35.0189859 43.4662209,33.6182265 C41.5787516,32.2174671 38.9153227,38.3013625 41.4634063,39.6498548 C44.0114899,40.9983471 54.6547195,45.4306008 59.2370756,39.7543891 C59.7099576,39.0233463 60.140582,38.2659824 60.5268462,37.4859951 L60.5268462,37.4859951 Z" id="Shape" fill="#80301B"></path>
                    <path d="M58.628891,40.4025017 L58.2304253,39.2735314 L58.0311924,39.2735314 C54.6337476,40.5488497 50.4708292,38.5522448 47.4194205,36.5556399 L44.1268352,35.7193656 C44.1268352,35.7193656 40.7293905,36.9737771 40.5825873,38.6672325 C40.7292447,39.113089 41.040345,39.4867465 41.4529204,39.7125754 C43.8961445,40.9565334 53.7529286,45.0751843 58.628891,40.4025017 Z" id="Shape" fill="#FAFAFA"></path>
                    <path d="M43.4662209,33.6286799 L43.4662209,33.6286799 C41.6626392,36.3883851 53.0503706,44.8556623 59.1951318,38.677686 L59.1951318,38.677686 C53.6375833,42.2213983 45.2068871,34.9144516 43.4662209,33.6286799 Z" id="Shape" fill="#F0F0F0"></path>
                </g>
            </g>
        </g>
    </g>
</svg>