<?xml version="1.0" encoding="UTF-8"?>
<svg width="738px" height="178px" viewBox="0 0 738 178" version="1.1" xmlns="http://www.w3.org/2000/svg" xmlns:xlink="http://www.w3.org/1999/xlink">
    <!-- Generator: Sketch 45.1 (43504) - http://www.bohemiancoding.com/sketch -->
    <title>sign_up_graphic</title>
    <desc>Created with Sketch.</desc>
    <defs></defs>
    <g id="doc_registration" stroke="none" stroke-width="1" fill="none" fill-rule="evenodd">
        <g id="sign_up_graphic" fill-rule="nonzero">
            <g id="Group-29" transform="translate(583.000000, 7.000000)">
                <path d="M87.9000765,127.328941 C76.4096045,140.626217 76.9799404,160.733341 89.6058865,173.35697 C102.826301,186.574957 124.260827,186.574957 137.481241,173.35697 C146.601191,164.238124 153.440718,157.400188 157.999822,152.843162 L87.9000765,127.328941 Z" id="Shape" fill="#FFE06B" transform="translate(118.844503, 155.299701) scale(1, -1) rotate(-20.000000) translate(-118.844503, -155.299701) "></path>
                <path d="M92.7228526,139.153041 L108.178943,123.699787 C111.529116,120.275857 111.499015,114.793883 108.111445,111.406935 C104.723876,108.019987 99.2408957,107.989892 95.8163371,111.33945 L80.3602464,126.792704 L92.7228526,139.153041 Z" id="Shape" fill="#FDBB8D" transform="translate(95.516113, 123.999956) scale(1, -1) rotate(-20.000000) translate(-95.516113, -123.999956) "></path>
                <path d="M113.433167,59.6781764 C116.673669,56.4372913 121.547794,55.4673718 125.782484,57.2207417 C130.017175,58.9741117 132.778363,63.1054257 132.778363,67.6880375 C132.778363,72.2706493 130.017175,76.4019634 125.782484,78.1553333 C121.547794,79.9087033 116.673669,78.9387838 113.433167,75.6978986 C109.009576,71.2737833 109.009576,64.1022918 113.433167,59.6781764" id="Shape" fill="#FDBB8D" transform="translate(121.446919, 67.688038) scale(1, -1) rotate(-20.000000) translate(-121.446919, -67.688038) "></path>
                <path d="M27.6877563,99.6567582 C30.9282576,96.4158731 35.8023825,95.4459535 40.0370733,97.1993235 C44.2717641,98.9526935 47.0329523,103.084008 47.0329523,107.666619 C47.0329523,112.249231 44.2717641,116.380545 40.0370733,118.133915 C35.8023825,119.887285 30.9282576,118.917366 27.6877563,115.67648 C23.264165,111.252365 23.264165,104.080874 27.6877563,99.6567582" id="Shape" fill="#FDBB8D" transform="translate(35.701508, 107.666619) scale(1, -1) rotate(-20.000000) translate(-35.701508, -107.666619) "></path>
                <path d="M73.3930318,120.032938 C75.6881633,122.328097 78.8012991,123.617542 82.0474227,123.617542 C85.2935463,123.617542 88.4066821,122.328097 90.7018137,120.032938 L112.696148,98.0426405 C120.939774,89.8005274 124.94544,78.3408746 123.976601,65.75395 C123.013428,53.3539599 117.30238,41.3448329 107.891615,31.9301305 C98.4808505,22.5154282 86.4638533,16.8054282 74.061587,15.8480968 C61.4950148,14.8737714 50.0332584,18.878702 41.7669695,27.1264798 L19.7726352,49.1167774 C17.4770547,51.4114877 16.1873733,54.5240521 16.1873733,57.76958 C16.1873733,61.0151078 17.4770547,64.1276722 19.7726352,66.4223825 L73.3930318,120.032938 Z" id="Shape" fill="#583C29" transform="translate(70.153091, 69.660976) scale(1, -1) rotate(-20.000000) translate(-70.153091, -69.660976) "></path>
                <path d="M45.1162188,54.2272832 C60.9349157,38.4114895 88.7422812,40.5640689 107.212536,59.0365987 C125.682791,77.5091284 127.841431,105.305726 112.017069,121.121519 C96.1927061,136.937313 68.3910064,134.784734 49.9207514,116.312204 C31.4504965,97.8396741 29.2918562,70.0430768 45.1105531,54.2272832" id="Shape" fill="#FFD9B8" transform="translate(78.566171, 87.674401) scale(1, -1) rotate(-20.000000) translate(-78.566171, -87.674401) "></path>
                <path d="M64.2919185,83.1336589 C69.4302316,77.9119248 76.9749404,75.8467384 84.0569951,77.7234346 C91.1390498,79.6001307 96.670288,85.1303537 98.5473286,92.2111086 C100.424369,99.2918635 98.3588037,106.835188 93.1361111,111.972558 L64.2919185,83.1336589 Z" id="Shape" fill="#FFFFFF" transform="translate(81.760235, 94.507447) scale(1, -1) rotate(-20.000000) translate(-81.760235, -94.507447) "></path>
                <path d="M40.9322733,36.8095259 C40.9606019,49.4247739 46.3033782,62.7481072 56.7056444,73.1484644 C67.1079107,83.5488215 80.4393555,88.8906172 93.0569192,88.9189406 L40.9322733,36.8095259 Z" id="Shape" fill="#583C29" transform="translate(66.994596, 62.864233) scale(1, -1) rotate(-20.000000) translate(-66.994596, -62.864233) "></path>
            </g>
            <g id="Group-11" transform="translate(310.000000, 3.000000)">
                <path d="M35.1641698,112.143241 C28.8150699,118.494363 25.2504481,127.107713 25.2549575,136.087302 L25.2549575,175 L92.9603399,175 L92.9603399,136.087302 C92.9603399,117.394408 77.8039738,102.240823 59.1076487,102.240823 C50.1264111,102.223828 41.5132697,105.792119 35.1641698,112.143241 Z" id="Shape" fill="#6BD87E"></path>
                <path d="M50.3654391,84.742619 L50.3654391,106.596964 C50.3654391,111.424267 54.2794597,115.337569 59.1076487,115.337569 C63.9358378,115.337569 67.8498584,111.424267 67.8498584,106.596964 L67.8498584,84.742619 L50.3654391,84.742619 Z" id="Shape" fill="#FDBB8D"></path>
                <path d="M23.1303116,57.3482143 C23.1303116,63.6052498 18.057051,68.6775794 11.7988669,68.6775794 C5.54068272,68.6775794 0.467422096,63.6052498 0.467422096,57.3482143 C0.467422096,51.0911787 5.54068272,46.0188492 11.7988669,46.0188492 C18.057051,46.0188492 23.1303116,51.0911787 23.1303116,57.3482143" id="Shape" fill="#FDBB8D"></path>
                <path d="M117.747875,57.3482143 C117.747875,63.6052498 112.674615,68.6775794 106.416431,68.6775794 C100.158246,68.6775794 95.0849858,63.6052498 95.0849858,57.3482143 C95.0849858,51.0911787 100.158246,46.0188492 106.416431,46.0188492 C112.674615,46.0188492 117.747875,51.0911787 117.747875,57.3482143" id="Shape" fill="#FDBB8D"></path>
                <path d="M59.1076487,4.13985119 C45.7932011,4.13985119 33.2606232,8.59795635 23.815864,16.6814583 C14.2407932,24.878254 8.97167139,35.816756 8.97167139,47.4746726 C8.97167139,59.1325893 14.2464589,70.0710913 23.815864,78.2678869 C33.266289,86.3570536 45.7988669,90.809494 59.1076487,90.809494 C72.4164306,90.809494 84.9546742,86.3570536 94.4050992,78.2678869 C103.98017,70.0710913 109.254958,59.138254 109.254958,47.4746726 C109.254958,35.8110913 103.98017,24.8839187 94.4050992,16.6814583 C84.9546742,8.59229167 72.4220963,4.13985119 59.1076487,4.13985119 Z" id="Shape" fill="#583C28"></path>
                <path d="M106.416431,57.3482143 C106.416431,79.7180456 85.2379603,97.8506944 59.1076487,97.8506944 C32.9773371,97.8506944 11.7988669,79.7237103 11.7988669,57.3482143 C11.7988669,34.9727183 32.9773371,16.8457341 59.1076487,16.8457341 C85.2379603,16.8457341 106.416431,34.9727183 106.416431,57.3482143" id="Shape" fill="#FFCFA6"></path>
                <path d="M79.5042493,60.5884127 C79.5042493,71.8510767 70.3723802,80.9812698 59.1076487,80.9812698 C47.8429173,80.9812698 38.7110482,71.8510767 38.7110482,60.5884127 L79.5042493,60.5884127 Z" id="Shape" fill="#FFFFFF"></path>
                <path d="M95.9631728,29.9764683 C87.0453258,21.094246 73.8215297,15.4295635 59.1076487,15.4295635 C44.3937677,15.4295635 31.1926346,21.094246 22.2804533,29.9764683 L95.9631728,29.9764683 Z" id="Shape" fill="#583C28"></path>
                <ellipse id="Oval" fill="#583C28" cx="59.1076487" cy="7.25542659" rx="6.94617564" ry="6.94490079"></ellipse>
                <ellipse id="Oval" fill="#583C28" transform="translate(69.499911, 8.592425) rotate(-75.000000) translate(-69.499911, -8.592425) " cx="69.4999109" cy="8.59242483" rx="6.94617564" ry="6.94490079"></ellipse>
                <ellipse id="Oval" fill="#583C28" transform="translate(79.224572, 12.679984) rotate(-60.000000) translate(-79.224572, -12.679984) " cx="79.2245718" cy="12.6799844" rx="6.94617564" ry="6.94490079"></ellipse>
                <ellipse id="Oval" fill="#583C28" transform="translate(48.695795, 8.624700) rotate(-15.000000) translate(-48.695795, -8.624700) " cx="48.6957947" cy="8.62469979" rx="6.94617564" ry="6.94490079"></ellipse>
                <ellipse id="Oval" fill="#583C28" transform="translate(38.997787, 12.634818) rotate(-30.000000) translate(-38.997787, -12.634818) " cx="38.9977871" cy="12.6348183" rx="6.94617564" ry="6.94490079"></ellipse>
            </g>
            <g id="Group-24" transform="translate(441.000000, 2.000000)">
                <path d="M44.7461695,59.8184342 C34.8538182,69.7089699 28.8538182,82.3525413 27.8396539,95.4266286 C26.8028267,108.829268 31.0974443,121.076311 39.9416369,129.918881 C48.7858295,138.76145 61.0351213,143.055279 74.4402205,142.018643 C87.5167077,141.004664 100.1626,135.005766 110.054951,125.11523 C119.947303,115.224694 125.947303,102.581123 126.961467,89.5070354 C127.998294,76.1043965 123.703677,63.8573528 114.859484,55.0147834 C106.015291,46.1722139 93.7659995,41.8783846 80.3665661,42.9150215 C67.2900788,43.9289997 54.6441865,49.9278985 44.7518352,59.8184342 L44.7461695,59.8184342 Z" id="Shape" fill="#583C28" transform="translate(77.400560, 92.466832) rotate(20.000000) translate(-77.400560, -92.466832) "></path>
                <path d="M160.319743,160.384796 C152.013194,152.079772 139.553371,139.622235 122.940274,123.012187 C109.71986,109.794199 88.285334,109.794199 75.06492,123.012187 C61.844506,136.230175 61.844506,157.660767 75.06492,170.878754 C81.7568238,177.56943 86.7757517,182.587437 90.1217037,185.932775 L160.319743,160.384796 Z" id="Shape" fill="#A4E0FF" transform="translate(112.734676, 149.515736) rotate(20.000000) translate(-112.734676, -149.515736) "></path>
                <path d="M69.2050931,104.596139 L84.6611837,120.049393 C88.0781523,123.46417 93.6168844,123.462901 97.0322883,120.04656 C100.447692,116.630219 100.446424,111.092503 97.0294557,107.677726 L81.573365,92.224472 L69.2050931,104.596139 Z" id="Shape" fill="#F3A564" transform="translate(84.399052, 107.417059) rotate(20.000000) translate(-84.399052, -107.417059) "></path>
                <path d="M31.8015115,32.0019631 C21.9091602,41.8924988 15.9091602,54.5360702 14.8949959,67.6101576 C13.8581687,81.0127964 18.1527862,93.2655048 26.9969789,102.10241 C35.8411715,110.939314 48.0904633,115.272796 61.4955624,114.219165 C74.5720497,113.205187 87.2179421,107.206289 97.1102933,97.3157528 C107.002645,87.4252171 113.002645,74.7816456 114.016809,61.7075583 C115.053636,48.3049195 110.759019,36.0578758 101.914826,27.2153064 C93.0706333,18.3727369 80.8270072,14.0789076 67.4219081,15.1155445 C54.3454208,16.1295226 41.6995285,22.1284214 31.8071772,32.0189572 L31.8015115,32.0019631 Z" id="Shape" fill="#583C28" transform="translate(64.455902, 64.669088) rotate(20.000000) translate(-64.455902, -64.669088) "></path>
                <path d="M32.5695942,83.0272649 C36.9934797,87.4521307 36.9925109,94.6246536 32.5674303,99.0483246 C28.1423496,103.471996 20.9685101,103.471996 16.5434295,99.0483246 C12.1183488,94.6246536 12.1173801,87.4521307 16.5412656,83.0272649 C18.6664555,80.901604 21.5493485,79.7073478 24.5554299,79.7073478 C27.5615113,79.7073478 30.4444042,80.901604 32.5695942,83.0272649" id="Shape" fill="#F3A564" transform="translate(24.555430, 91.036713) rotate(20.000000) translate(-24.555430, -91.036713) "></path>
                <path d="M118.31919,43.051419 C121.56067,46.2913255 122.530767,51.1645558 120.777076,55.3984695 C119.023384,59.6323831 114.891311,62.3930645 110.307858,62.3930645 C105.724405,62.3930645 101.592333,59.6323831 99.8386411,55.3984695 C98.0849492,51.1645558 99.0550468,46.2913255 102.296527,43.051419 C106.721454,38.6286395 113.894262,38.6286395 118.31919,43.051419" id="Shape" fill="#F3A564" transform="translate(110.307858, 51.063699) rotate(20.000000) translate(-110.307858, -51.063699) "></path>
                <path d="M100.885607,37.6081238 C116.704304,53.4239175 114.55133,81.2261794 96.0754089,99.6930444 C77.5994883,118.15991 49.7977886,120.318154 33.9790917,104.496695 C18.1603948,88.6752369 20.3133693,60.8786397 38.78929,42.4117746 C57.2652106,23.9449095 85.0669104,21.7866655 100.885607,37.6081238" id="Shape" fill="#F8BA77" transform="translate(67.432349, 71.052410) rotate(20.000000) translate(-67.432349, -71.052410) "></path>
                <path d="M82.0218343,60.3856472 C90.0010191,68.3492892 90.0124339,81.2723167 82.0473301,89.2500371 C74.0822262,97.2277574 61.1568265,97.2391702 53.1776417,89.2755281 L82.0218343,60.3856472 Z" id="Shape" fill="#FFFFFF" transform="translate(70.595670, 77.813224) rotate(20.000000) translate(-70.595670, -77.813224) "></path>
                <path d="M86.5642476,21.4052175 C72.3432844,19.5132136 56.4169388,24.804027 44.3886102,36.79616 C32.3602816,48.7882929 27.1024912,64.7457036 28.9948425,78.9640568 L86.5642476,21.4052175 Z" id="Shape" fill="#583C28" transform="translate(57.591292, 49.997196) rotate(20.000000) translate(-57.591292, -49.997196) "></path>
            </g>
            <g id="Group-17" transform="translate(127.000000, 2.000000)">
                <path d="M80.0416971,185.920136 C83.3991001,182.564719 88.4352046,177.531593 95.1500106,170.820759 C103.702119,162.27022 107.042097,149.807538 103.911809,138.127285 C100.78152,126.447032 91.6565287,117.323716 79.9741315,114.194002 C68.2917343,111.064287 55.8267648,114.403653 47.2746565,122.954191 C30.642077,139.59317 18.1696412,152.066913 9.85734926,160.375418 L80.0416971,185.920136 Z" id="Shape" fill="#FF7261" transform="translate(57.461721, 149.480033) rotate(-20.000000) translate(-57.461721, -149.480033) "></path>
                <path d="M88.6427639,92.1722655 L73.1866733,107.61419 C70.9377085,109.8139 70.0443959,113.052176 70.8475554,116.093538 C71.6507149,119.1349 74.0264552,121.510204 77.0683755,122.313216 C80.1102958,123.116228 83.3491655,122.223079 85.5492795,119.974527 L101.00537,104.521273 L88.6427639,92.1722655 Z" id="Shape" fill="#F3A564" transform="translate(85.781528, 107.387649) rotate(-20.000000) translate(-85.781528, -107.387649) "></path>
                <path d="M61.2627779,87.4982693 C67.9011467,80.8611189 67.9011467,70.1001718 61.2627779,63.4630213 C54.6244091,56.8258708 43.8614866,56.8258708 37.2231178,63.4630213 L25.2061206,75.477813 L37.2231178,87.4926046 C40.4100362,90.6809807 44.7333464,92.4728339 49.2417743,92.4738963 C53.7502022,92.4749586 58.0743566,90.6851431 61.2627779,87.4982693 L61.2627779,87.4982693 Z" id="Shape" fill="#F3E5A2" transform="translate(45.723838, 75.479528) rotate(-20.000000) translate(-45.723838, -75.479528) "></path>
                <path d="M147.998614,126.051194 L135.981617,138.065986 L123.987283,126.051194 C117.350304,119.414309 117.350911,108.654796 123.98864,102.01866 C130.626369,95.3825238 141.387857,95.3825238 148.025586,102.01866 C154.663315,108.654796 154.663923,119.414309 148.026943,126.051194 L147.998614,126.051194 Z" id="Shape" fill="#F3E5A2" transform="translate(136.007113, 117.553772) rotate(-20.000000) translate(-136.007113, -117.553772) "></path>
                <path d="M138.388229,31.9322758 C128.495877,22.0417401 115.849985,16.0428413 102.773498,15.0288631 C89.3683986,13.9922262 77.1191068,18.2860556 68.2749142,27.1229604 C59.4307216,35.9598651 55.136104,48.2125735 56.1729312,61.6152123 C57.1870955,74.6892996 63.1870955,87.3328711 73.0794468,97.2234068 C82.9717981,107.113943 95.6176904,113.112841 108.694178,114.126819 C122.099277,115.163456 134.348569,110.869627 143.192761,102.027058 C152.036954,93.1844881 156.331571,80.9374445 155.289079,67.5348056 C154.274914,54.4607183 148.274914,41.8171469 138.382563,31.9266112 L138.388229,31.9322758 Z" id="Shape" fill="#F3E5A2" transform="translate(105.731760, 64.577839) rotate(-20.000000) translate(-105.731760, -64.577839) "></path>
                <path d="M67.9070425,59.0038017 C64.6665412,62.2446869 59.7924163,63.2146064 55.5577255,61.4612364 C51.3230346,59.7078665 48.5618465,55.5765524 48.5618465,50.9939406 C48.5618465,46.4113288 51.3230346,42.2800147 55.5577255,40.5266448 C59.7924163,38.7732748 64.6665412,39.7431944 67.9070425,42.9840795 C72.3306338,47.4081949 72.3306338,54.5796863 67.9070425,59.0038017" id="Shape" fill="#F3A564" transform="translate(59.893291, 50.993941) rotate(-20.000000) translate(-59.893291, -50.993941) "></path>
                <path d="M153.65584,98.9751227 C150.415339,102.216008 145.541214,103.185927 141.306523,101.432557 C137.071832,99.6791874 134.310644,95.5478733 134.310644,90.9652615 C134.310644,86.3826498 137.071832,82.2513357 141.306523,80.4979657 C145.541214,78.7445958 150.415339,79.7145153 153.65584,82.9554004 C158.079432,87.3795158 158.079432,94.5510073 153.65584,98.9751227" id="Shape" fill="#F3A564" transform="translate(145.642089, 90.965262) rotate(-20.000000) translate(-145.642089, -90.965262) "></path>
                <path d="M136.218221,104.42494 C120.399524,120.240734 92.5921586,118.093819 74.1219036,99.6212892 C55.6516487,81.1487594 53.4930084,53.3521622 69.3117053,37.5363686 C85.1304022,21.7205749 112.937768,23.8731543 131.408023,42.3400193 C149.878278,60.8068844 152.036918,88.6091463 136.218221,104.42494" id="Shape" fill="#F8BA77" transform="translate(102.764963, 70.981599) rotate(-20.000000) translate(-102.764963, -70.981599) "></path>
                <path d="M117.019348,89.2038299 C109.040163,97.1674719 96.1147632,97.1560591 88.1496593,89.1783388 C80.1845554,81.2006185 80.1959703,68.2775909 88.175155,60.3139489 L117.019348,89.2038299 Z" id="Shape" fill="#FFFFFF" transform="translate(99.601319, 77.741526) rotate(-20.000000) translate(-99.601319, -77.741526) "></path>
                <path d="M141.1967,78.8709343 C143.089051,64.6525811 137.797267,48.7291585 125.802932,36.7030374 C113.808598,24.6769164 97.8482582,19.420091 83.627295,21.3347537 L141.1967,78.8709343 Z" id="Shape" fill="#F3E5A2" transform="translate(112.599473, 49.910670) rotate(-20.000000) translate(-112.599473, -49.910670) "></path>
            </g>
            <g id="Group-8" transform="translate(-14.000000, 6.000000)">
                <path d="M67.9119684,189.484867 C69.7615056,188.416442 72.5358115,186.813803 76.234886,184.676953 C86.8657064,178.709533 93.4660314,167.487783 93.5145327,155.298418 C93.5630339,143.109054 87.0522186,131.835154 76.4692225,125.783356 C65.8862263,119.731558 52.8659681,119.836776 42.3821948,126.058818 C29.2070496,133.656346 19.3202431,139.360984 12.7217754,143.172732 L67.9119684,189.484867 Z" id="Shape" fill="#FFE06B" transform="translate(53.118289, 155.401079) rotate(-40.000000) translate(-53.118289, -155.401079) "></path>
                <path d="M77.6599261,101.645204 L58.7307476,112.572377 C56.0254474,114.134747 54.3593147,117.021433 54.3599657,120.145047 C54.3606166,123.268661 56.0279523,126.154652 58.7339035,127.715895 C61.4398547,129.277139 64.7733229,129.276444 67.478623,127.714073 L86.4078015,116.786901 L77.6599261,101.645204 Z" id="Shape" fill="#FDBB8D" transform="translate(70.383883, 115.265772) rotate(-40.000000) translate(-70.383883, -115.265772) "></path>
                <path d="M109.399917,110.387878 C120.227112,104.156727 127.530229,93.3938304 130.017481,80.2064494 C132.425413,67.3192967 129.898501,53.5484534 122.906999,41.4373621 L122.906999,41.4373621 C115.915498,29.3262709 105.252608,20.2514494 92.8786705,15.8953086 C80.1987838,11.425874 67.2526082,12.4058641 56.4254127,18.654009 L109.399917,110.387878 Z" id="Shape" fill="#F66C3B" transform="translate(93.665524, 61.760648) rotate(-40.000000) translate(-93.665524, -61.760648) "></path>
                <path d="M46.0124571,71.0503172 C42.0433803,73.3416278 37.0846136,73.0168181 33.4484608,70.2273489 C29.812308,67.4378797 28.214862,62.7331006 29.4010218,58.3068794 C30.5871816,53.8806582 34.3233486,50.6046814 38.8673247,50.0065575 C43.4113009,49.4084337 47.8682093,51.6059553 50.1597659,55.5744045 C53.2887102,60.9930167 51.4319263,67.9217087 46.0124571,71.0503172" id="Shape" fill="#FDBB8D" transform="translate(40.347066, 61.238848) rotate(-40.000000) translate(-40.347066, -61.238848) "></path>
                <path d="M134.903962,103.396503 C130.934886,105.687814 125.976119,105.363004 122.339966,102.573535 C118.703813,99.7840656 117.106367,95.0792865 118.292527,90.6530653 C119.478687,86.2268441 123.214854,82.9508673 127.75883,82.3527435 C132.302806,81.7546196 136.759715,83.9521413 139.051271,87.9205904 C142.180216,93.3392027 140.323432,100.267895 134.903962,103.396503" id="Shape" fill="#FDBB8D" transform="translate(129.238572, 93.585034) rotate(-40.000000) translate(-129.238572, -93.585034) "></path>
                <path d="M108.443119,118.373308 C89.0663485,129.555391 62.7717309,120.282306 49.7065751,97.6632286 C36.6414193,75.0441512 41.7745638,47.6327524 61.1343371,36.4506691 C80.4941105,25.2685857 106.805725,34.541671 119.870881,57.1607484 C132.936037,79.7798258 127.802892,107.191225 108.443119,118.373308" id="Shape" fill="#FFD9B8" transform="translate(84.788728, 77.411989) rotate(-40.000000) translate(-84.788728, -77.411989) "></path>
                <path d="M95.9004862,101.020819 C86.1579859,106.520997 73.8024459,103.147682 68.2080087,93.4602057 C62.6135715,83.7727296 65.8687695,71.3876511 75.5038856,65.7015235 L95.9004862,101.020819 Z" id="Shape" fill="#FFFFFF" transform="translate(80.686188, 84.680543) rotate(-40.000000) translate(-80.686188, -84.680543) "></path>
                <path d="M112.608895,89.9459423 C118.115977,76.7019146 117.141473,59.957113 108.642889,45.2346031 C100.144305,30.5120931 86.1159768,21.306984 71.889348,19.4546328 L112.608895,89.9459423 Z" id="Shape" fill="#F66C3B" transform="translate(93.965736, 54.700288) rotate(-40.000000) translate(-93.965736, -54.700288) "></path>
            </g>
        </g>
    </g>
</svg>