<?xml version="1.0" encoding="UTF-8"?>
<svg width="59px" height="100px" viewBox="0 0 59 100" version="1.1" xmlns="http://www.w3.org/2000/svg" xmlns:xlink="http://www.w3.org/1999/xlink">
    <!-- Generator: Sketch 42 (36781) - http://www.bohemiancoding.com/sketch -->
    <title>silver_graphic</title>
    <desc>Created with Sketch.</desc>
    <defs></defs>
    <g id="Customer-New" stroke="none" stroke-width="1" fill="none" fill-rule="evenodd">
        <g id="silver_graphic" fill-rule="nonzero">
            <g id="Group-30-Copy-2" transform="translate(1.000000, 0.000000)">
                <polygon id="Shape" fill="#CBCBCB" points="28.2483784 46.174359 19.5186486 63.8410256 28.2483784 75.825641"></polygon>
                <polygon id="Shape" fill="#A4A4A4" points="28.2637838 75.8461538 36.9781081 63.8410256 28.2483784 46.174359 28.2483784 75.825641"></polygon>
                <polygon id="Shape" fill="#CBCBCB" points="56.5018919 66.6717949 36.9781081 63.8410256 28.2637838 75.8461538"></polygon>
                <polygon id="Shape" fill="#A4A4A4" points="42.3751351 80.425641 56.5018919 66.6717949 28.2637838 75.8461538"></polygon>
                <polygon id="Shape" fill="#CBCBCB" points="28.2483784 75.8666667 28.2483784 90.6717949 45.712973 99.8410256 28.2637838 75.8461538"></polygon>
                <polygon id="Shape" fill="#A4A4A4" points="28.2637838 75.8461538 45.712973 99.8410256 42.3751351 80.425641"></polygon>
                <polygon id="Shape" fill="#CBCBCB" points="28.2483784 75.825641 19.5186486 63.8410256 0 66.6717949 28.2483784 75.8410256"></polygon>
                <polygon id="Shape" fill="#FFFFFF" opacity="0.200000003" style="mix-blend-mode: screen;" points="28.2483784 75.825641 19.5186486 63.8410256 0 66.6717949 28.2483784 75.8410256"></polygon>
                <polygon id="Shape" fill="#A4A4A4" points="10.7889189 99.8410256 28.2483784 90.6717949 28.2483784 75.8666667"></polygon>
                <polygon id="Shape" fill="#CBCBCB" points="28.2483784 75.8512821 14.1267568 80.425641 10.7889189 99.8410256 28.2483784 75.8666667"></polygon>
                <polygon id="Shape" fill="#A4A4A4" points="28.2483784 75.8410256 0 66.6717949 14.1267568 80.425641 28.2483784 75.8512821"></polygon>
                <path d="M30.78,48.2051282 L25.7218919,48.2051282 C23.3039085,48.2023023 21.3444513,46.2454895 21.3416216,43.8307692 L21.3416216,40.4358974 C21.3444513,38.0211772 23.3039085,36.0643644 25.7218919,36.0615385 L30.78,36.0615385 C33.1979834,36.0643644 35.1574406,38.0211772 35.1602703,40.4358974 L35.1602703,43.8358974 C35.1546139,46.2486148 33.1959827,48.2023096 30.78,48.2051282 Z M25.7218919,40.1435897 C25.5613871,40.1463303 25.4319335,40.2756093 25.4291892,40.4358974 L25.4291892,43.8358974 C25.4319335,43.9961856 25.5613871,44.1254646 25.7218919,44.1282051 L30.78,44.1282051 C30.9405048,44.1254646 31.0699584,43.9961856 31.0727027,43.8358974 L31.0727027,40.4358974 C31.0699584,40.2756093 30.9405048,40.1463303 30.78,40.1435897 L25.7218919,40.1435897 Z" id="Shape" fill="#A4A4A4"></path>
                <polygon id="Shape" fill="#A4A4A4" points="10.0597297 0 10.0597297 27.4871795 17.1667568 34.5846154 17.1667568 0"></polygon>
                <polygon id="Shape" fill="#A4A4A4" points="39.3351351 0 39.3351351 34.5846154 46.4421622 27.4871795 46.4421622 0"></polygon>
                <polygon id="Shape" fill="#CBCBCB" points="5.96189189 0 5.96189189 23.4 8.61162162 26.0461538 8.61162162 0"></polygon>
                <polygon id="Shape" fill="#CBCBCB" points="47.8851351 0 47.8851351 26.0461538 50.54 23.4 50.54 0"></polygon>
                <polygon id="Shape" fill="#E5E5E5" points="8.61162162 0 8.61162162 26.0461538 10.0597297 27.4871795 10.0597297 0"></polygon>
                <polygon id="Shape" fill="#E5E5E5" points="46.4421622 0 46.4421622 27.4871795 47.8851351 26.0461538 47.8851351 0"></polygon>
                <polygon id="Shape" fill="#E5E5E5" points="25.2391892 0 17.1667568 0 17.1667568 34.5846154 25.2391892 42.6461538"></polygon>
                <polygon id="Shape" fill="#E5E5E5" points="31.2627027 0 31.2627027 42.6461538 39.3351351 34.5846154 39.3351351 0"></polygon>
                <rect id="Rectangle-path" fill="#CBCBCB" x="25.2391892" y="0" width="6.02351351" height="42.6461538"></rect>
            </g>
        </g>
    </g>
</svg>