<?xml version="1.0" encoding="UTF-8"?>
<svg width="224px" height="312px" viewBox="0 0 224 312" version="1.1" xmlns="http://www.w3.org/2000/svg" xmlns:xlink="http://www.w3.org/1999/xlink">
    <!-- Generator: Sketch 46.2 (44496) - http://www.bohemiancoding.com/sketch -->
    <title>Group 39</title>
    <desc>Created with Sketch.</desc>
    <defs></defs>
    <g id="Page-1" stroke="none" stroke-width="1" fill="none" fill-rule="evenodd">
        <g id="Artboard-3">
            <g id="Group-39">
                <ellipse id="Oval-2" fill="#1CADD0" cx="112" cy="298.5" rx="112" ry="13.5"></ellipse>
                <g id="Group-37" transform="translate(1.000000, 0.000000)">
                    <path d="M37.66,1.48 C37.6833335,1.69000105 37.5783345,1.8416662 37.345,1.935 C37.1116655,2.0283338 36.8900011,2.1216662 36.68,2.215 C36.3533317,2.4016676 36.061668,3.4516571 35.805,5.365 C35.594999,6.88167425 35.49,8.09499545 35.49,9.005 L35.385,19.61 C35.3616666,20.543338 35.1633352,21.5583278 34.79,22.655 C34.2999975,24.055007 33.6816704,24.755 32.935,24.755 C31.7916609,24.755 30.7300049,23.6933439 29.75,21.57 C29.3533314,20.7299958 28.7991702,19.1375117 28.0875,16.7925 C27.3758298,14.4474883 26.320007,10.9300234 24.92,6.24 C24.6633321,6.2866669 24.5233335,6.5199979 24.5,6.94 C24.4533331,7.57000315 24.2666683,9.20332015 23.94,11.84 C23.6833321,13.8466767 23.555,15.4799937 23.555,16.74 C23.555,20.4966854 23.788331,22.6666638 24.255,23.25 C24.5116679,23.6233352 24.64,23.8333331 24.64,23.88 C24.64,24.1366679 24.470835,24.3816655 24.1325,24.615 C23.794165,24.8483345 23.4966679,24.965 23.24,24.965 C22.306662,24.965 21.84,23.436682 21.84,20.38 C21.84,19.9599979 21.8166669,19.3650038 21.77,18.595 C21.7233331,17.8249961 21.7,17.2300021 21.7,16.81 C21.7,15.8066617 21.8516651,14.2725103 22.155,12.2075 C22.4583348,10.1424897 22.61,8.5966718 22.61,7.57 L22.61,3.055 C22.61,3.0083331 22.5925002,2.93250053 22.5575,2.8275 C22.5224998,2.72249948 22.505,2.6466669 22.505,2.6 C22.505,1.9933303 23.0999941,1.69 24.29,1.69 C25.2700049,1.69 25.9466648,1.9933303 26.32,2.6 C26.4133338,2.76333415 26.5066662,3.27666235 26.6,4.14 C26.6700004,4.7000028 26.7399996,5.27166375 26.81,5.855 C27.1133349,7.721676 27.9533264,10.7899787 29.33,15.06 C30.9400081,20.0066914 32.106663,22.48 32.83,22.48 C33.4600032,22.48 33.7633334,21.2316791 33.74,18.735 L33.635,8.235 C33.635,6.99832715 33.8566644,5.62167425 34.3,4.105 C34.8833363,2.12165675 35.641662,1.13 36.575,1.13 C36.9250018,1.13 37.2866648,1.2466655 37.66,1.48 Z M48.93,18.105 C48.93,20.1116767 48.4866711,21.8616592 47.6,23.355 C46.5499947,25.1516756 45.091676,26.05 43.225,26.05 C41.3349905,26.05 39.923338,25.3150074 38.99,23.845 C38.2199962,22.6316606 37.835,21.0216767 37.835,19.015 C37.835,17.0316568 38.2783289,15.0833429 39.165,13.17 C40.2850056,10.8133216 41.7083247,9.635 43.435,9.635 C43.8783356,9.635 44.5083292,9.8916641 45.325,10.405 C47.7283453,11.8983408 48.93,14.4649818 48.93,18.105 Z M47.25,18.07 C47.25,16.5766592 47.0516687,15.235006 46.655,14.045 C46.0716638,12.3883251 45.1733394,11.56 43.96,11.56 C42.559993,11.56 41.4633373,12.4816575 40.67,14.325 C40.0633303,15.7483404 39.76,17.2766585 39.76,18.91 C39.76,20.3800073 39.9699979,21.6166617 40.39,22.62 C40.9966697,23.9966736 41.9416602,24.685 43.225,24.685 C44.625007,24.685 45.6866631,23.8916746 46.41,22.305 C46.9700028,21.0683272 47.25,19.6566746 47.25,18.07 Z M79.03,1.725 C79.03,1.93500105 78.9425009,2.1333324 78.7675,2.32 C78.5924991,2.5066676 78.4350007,2.68749912 78.295,2.8625 C78.1549993,3.03750087 78.085,3.39333065 78.085,3.93 C78.1083334,4.6766704 78.1083334,5.06166655 78.085,5.085 C77.5016638,10.0783583 77.21,14.7449783 77.21,19.085 L77.21,22.41 C77.3033338,24.0666749 77.6533303,24.999999 78.26,25.21 L78.26,25.56 C78.1433328,25.816668 77.9450014,25.945 77.665,25.945 C76.1949926,25.945 75.3200014,24.5100144 75.04,21.64 C74.9233328,20.5433279 74.9116662,19.4350056 75.005,18.315 L75.915,7.01 L73.325,16.46 C71.7383254,21.4066914 70.1866742,23.88 68.67,23.88 C67.99333,23.88 67.2933369,23.4483377 66.57,22.585 C65.9866638,21.9316634 65.5433349,21.2083373 65.24,20.415 C64.516663,18.5716575 63.7700039,16.016683 63,12.75 C62.4166637,10.1366536 61.8216697,7.53501295 61.215,4.945 L61.005,5.47 C60.5849979,9.78668825 60.4099997,12.878324 60.48,14.745 L60.83,22.76 C60.8766669,23.6000042 61.1566641,24.0549997 61.67,24.125 C61.6933334,24.7550032 61.1333391,25.07 59.99,25.07 C58.9399947,25.07 58.415,23.1450192 58.415,19.295 C58.415,17.5449912 58.5083324,14.9375173 58.695,11.4725 C58.8816676,8.00748267 58.975,5.40000875 58.975,3.65 C58.975,3.2766648 58.9400004,2.98500105 58.87,2.775 C58.7999997,2.56499895 58.765,2.4366669 58.765,2.39 C58.765,1.47999545 59.698324,1.025 61.565,1.025 C61.9150017,1.025 62.3349975,1.26999755 62.825,1.76 C62.8950003,2.48333695 62.9999993,3.55665955 63.14,4.98 C63.396668,7.0333436 64.0849944,10.0199804 65.205,13.94 C66.5583401,18.7466907 67.6666623,21.15 68.53,21.15 C69.6266721,21.15 70.8283268,18.9566886 72.135,14.57 C72.9516708,11.7466526 73.6049975,8.94668055 74.095,6.17 C74.3983349,5.2833289 74.783331,4.0233415 75.25,2.39 C75.5300014,1.33999475 76.3349933,0.815 77.665,0.815 C77.9683349,0.815 78.2716652,0.89666585 78.575,1.06 C78.8783349,1.22333415 79.03,1.4449986 79.03,1.725 Z M91.875,18.105 C91.875,20.1116767 91.4316711,21.8616592 90.545,23.355 C89.4949947,25.1516756 88.036676,26.05 86.17,26.05 C84.2799905,26.05 82.868338,25.3150074 81.935,23.845 C81.1649962,22.6316606 80.78,21.0216767 80.78,19.015 C80.78,17.0316568 81.2233289,15.0833429 82.11,13.17 C83.2300056,10.8133216 84.6533247,9.635 86.38,9.635 C86.8233356,9.635 87.4533292,9.8916641 88.27,10.405 C90.6733453,11.8983408 91.875,14.4649818 91.875,18.105 Z M90.195,18.07 C90.195,16.5766592 89.9966687,15.235006 89.6,14.045 C89.0166638,12.3883251 88.1183394,11.56 86.905,11.56 C85.504993,11.56 84.4083373,12.4816575 83.615,14.325 C83.0083303,15.7483404 82.705,17.2766585 82.705,18.91 C82.705,20.3800073 82.9149979,21.6166617 83.335,22.62 C83.9416697,23.9966736 84.8866602,24.685 86.17,24.685 C87.570007,24.685 88.6316631,23.8916746 89.355,22.305 C89.9150028,21.0683272 90.195,19.6566746 90.195,18.07 Z M104.72,25.175 C104.579999,25.4316679 104.381668,25.56 104.125,25.56 C103.868332,25.56 103.448336,25.3966683 102.865,25.07 L102.865,24.79 C102.865,24.579999 102.876667,24.2650021 102.9,23.845 C102.923333,23.4249979 102.935,23.1216676 102.935,22.935 C102.935,15.1882946 101.966676,11.315 100.03,11.315 C99.4233303,11.315 98.7700035,11.7583289 98.07,12.645 C96.2966578,14.8383443 95.41,17.6033167 95.41,20.94 C95.41,21.3833356 95.4858326,22.0308291 95.6375,22.8825 C95.7891674,23.7341709 95.865,24.3816645 95.865,24.825 C95.865,25.1750017 95.6200024,25.35 95.13,25.35 C94.196662,25.35 93.73,24.6150074 93.73,23.145 L93.73,15.2 C93.73,14.9899989 93.7533331,14.6866686 93.8,14.29 C93.8466669,13.8933314 93.87,13.590001 93.87,13.38 C93.87,13.0766651 93.8291671,12.6333362 93.7475,12.05 C93.6658329,11.4666638 93.625,11.0350014 93.625,10.755 C93.625,10.5683324 93.7708319,10.3525012 94.0625,10.1075 C94.3541681,9.86249877 94.5816659,9.74 94.745,9.74 C95.0483348,9.74 95.3283321,9.9033317 95.585,10.23 C95.5149997,11.7466743 95.48,12.633332 95.48,12.89 C95.48,13.2400018 95.4916665,13.5783317 95.515,13.905 C95.725001,13.8349997 96.0049982,13.4500035 96.355,12.75 C96.7983356,11.8633289 97.1716651,11.2566683 97.475,10.93 C98.0350028,10.2766634 98.676663,9.95 99.4,9.95 C99.6800014,9.95 100.099997,10.0549989 100.66,10.265 C101.920006,10.731669 102.818331,11.5016613 103.355,12.575 C104.265005,14.4183425 104.72,16.8566515 104.72,19.89 L104.72,25.175 Z M113.785,13.975 C113.598332,14.1150007 113.155004,14.2316662 112.455,14.325 C111.684996,14.4183338 111.241667,14.4999997 111.125,14.57 C111.101667,14.826668 111.09,16.121655 111.09,18.455 C111.09,20.2750091 111.113333,21.4999968 111.16,22.13 C111.16,22.3866679 111.218333,22.7949972 111.335,23.355 C111.451667,23.9150028 111.51,24.3466652 111.51,24.65 C111.51,24.8366676 111.393335,25.0233324 111.16,25.21 C110.926665,25.3966676 110.716668,25.49 110.53,25.49 C110.063331,25.49 109.690001,25.0116714 109.41,24.055 C109.223332,23.3549965 109.13,22.6900031 109.13,22.06 C109.13,18.7699835 109.153333,16.3433412 109.2,14.78 C109.059999,14.6633328 108.523338,14.6633328 107.59,14.78 C106.84333,14.8733338 106.47,14.6050031 106.47,13.975 C106.47,13.0883289 107.414991,12.6799997 109.305,12.75 L109.76,6.415 C109.76,6.34499965 109.730834,6.23416743 109.6725,6.0825 C109.614166,5.93083257 109.585,5.82000035 109.585,5.75 C109.585,5.6099993 109.678332,5.47583397 109.865,5.3475 C110.051668,5.21916603 110.273332,5.16666655 110.53,5.19 C111.346671,5.26000035 111.755,5.6683296 111.755,6.415 C111.755,6.99833625 111.673334,7.8733275 111.51,9.04 C111.346666,10.2066725 111.265,11.0699972 111.265,11.63 C111.265,11.9100014 111.288333,12.178332 111.335,12.435 L113.26,12.33 C113.913337,12.33 114.24,12.5866641 114.24,13.1 C114.24,13.4733352 114.088335,13.7649989 113.785,13.975 Z M125.405,25.945 C125.218332,26.1316676 124.868336,26.225 124.355,26.225 C124.098332,26.225 123.830001,26.0616683 123.55,25.735 C123.573333,23.7283233 123.585,22.1300059 123.585,20.94 C123.585,15.0133037 122.593343,12.05 120.61,12.05 C119.769996,12.05 119.070003,12.5399951 118.51,13.52 C118.019998,14.3600042 117.775,15.2233289 117.775,16.11 C117.775,16.2033338 117.745834,16.3491657 117.6875,16.5475 C117.629166,16.7458343 117.6,16.8916662 117.6,16.985 L117.6,21.465 C117.6,21.8616686 117.658333,22.4333296 117.775,23.18 C117.891667,23.9266704 117.95,24.4866648 117.95,24.86 C117.95,25.2333352 117.670003,25.42 117.11,25.42 C116.713331,25.42 116.380835,25.2333352 116.1125,24.86 C115.844165,24.4866648 115.71,24.1016686 115.71,23.705 L115.92,2.18 C115.873333,2.0399993 115.85,1.9000007 115.85,1.76 C115.85,1.3399979 116.083331,1.13 116.55,1.13 C116.783334,1.13 117.127498,1.28749843 117.5825,1.6025 C118.037502,1.91750157 118.265,2.17999895 118.265,2.39 C118.265,2.9500028 118.154168,3.75499475 117.9325,4.805 C117.710832,5.85500525 117.6,6.64833065 117.6,7.185 C117.6,7.2316669 117.623333,8.78331805 117.67,11.84 C118.533338,11.0699962 119.198331,10.685 119.665,10.685 C120.41167,10.685 121.309995,10.9066644 122.36,11.35 C124.39001,12.1900042 125.405,14.4066487 125.405,18 L125.405,25.945 Z M130.025,24.65 C130.025,25.2566697 129.698337,25.56 129.045,25.56 C128.018328,25.56 127.516667,23.4483544 127.54,19.225 L127.645,3.51 C127.645,3.25333205 127.61,2.88583573 127.54,2.4075 C127.47,1.92916428 127.435,1.5733345 127.435,1.34 C127.878336,1.0133317 128.251665,0.85 128.555,0.85 C128.881668,0.85 129.208332,0.9666655 129.535,1.2 C129.861668,1.4333345 130.025,1.7133317 130.025,2.04 C130.025,2.2733345 129.966667,2.5766648 129.85,2.95 C129.709999,3.416669 129.628333,3.70833275 129.605,3.825 C129.324999,5.4116746 129.185,7.6283191 129.185,10.475 C129.185,15.0716896 129.173333,17.2883342 129.15,17.125 C129.22,19.9950144 129.406665,22.1533261 129.71,23.6 C129.71,23.6700004 129.762499,23.8274988 129.8675,24.0725 C129.972501,24.3175012 130.025,24.5099993 130.025,24.65 Z M142.975,11.28 C142.788332,12.3066718 142.613334,13.3333282 142.45,14.36 C142.239999,15.4566721 142.135,16.4833285 142.135,17.44 L142.1,28.395 C142.1,29.9583411 141.627505,31.2008287 140.6825,32.1225 C139.737495,33.0441713 138.471675,33.505 136.885,33.505 C136.021662,33.505 135.053339,33.271669 133.98,32.805 C132.743327,32.2916641 131.891669,31.6500038 131.425,30.88 C131.308333,30.669999 131.25,30.460001 131.25,30.25 C131.25,29.5733299 131.576663,29.235 132.23,29.235 C132.370001,29.235 132.521666,29.2816662 132.685,29.375 C133.081669,29.7950021 133.478331,30.2033313 133.875,30.6 C134.668337,31.323337 135.671661,31.685 136.885,31.685 C138.425008,31.685 139.451664,31.1483387 139.965,30.075 C140.268335,29.3983299 140.42,28.1733422 140.42,26.4 C140.42,26.1666655 140.373334,25.7000035 140.28,25 C140.186666,24.4166638 140.163333,23.9033355 140.21,23.46 C139.556663,24.0666697 139.090001,24.4516658 138.81,24.615 C138.296664,24.9416683 137.73667,25.105 137.13,25.105 C135.543325,25.105 134.341671,24.4866729 133.525,23.25 C132.801663,22.1766613 132.44,20.811675 132.44,19.155 C132.44,16.0049843 132.486666,13.3450109 132.58,11.175 C132.673334,10.4283296 133.081663,10.055 133.805,10.055 C134.691671,10.055 135.088334,10.2066651 134.995,10.51 C134.551664,11.7233394 134.33,14.4416456 134.33,18.665 C134.33,21.931683 135.263324,23.565 137.13,23.565 C138.273339,23.565 139.18333,22.6900087 139.86,20.94 C140.373336,19.5866599 140.618333,18.2216735 140.595,16.845 L140.56,12.855 C140.583333,12.4583313 140.6125,11.9566697 140.6475,11.35 C140.6825,10.7433303 141.061663,10.4633331 141.785,10.51 C142.625004,10.5800003 143.021667,10.8366645 142.975,11.28 Z M165.795,2.775 C165.538332,3.03166795 165.246668,3.16 164.92,3.16 C164.779999,3.16 164.570001,3.14250018 164.29,3.1075 C164.009999,3.07249982 163.788334,3.055 163.625,3.055 C162.644995,3.055 161.338341,3.25333135 159.705,3.65 C157.768324,4.14000245 156.46167,4.41999965 155.785,4.49 L155.05,11.07 C155.003333,11.536669 154.98,11.9333317 154.98,12.26 C154.98,12.7733359 155.154998,13.03 155.505,13.03 C155.598334,13.03 155.703333,13.0183334 155.82,12.995 C158.060011,12.4349972 159.681662,12.155 160.685,12.155 C162.131674,12.155 162.621669,12.1316669 162.155,12.085 C162.621669,12.1316669 162.994999,12.3649979 163.275,12.785 L163.38,13.66 C163.31,13.8233341 163.193334,13.905 163.03,13.905 C162.866666,13.905 162.650835,13.9283331 162.3825,13.975 C162.114165,14.0216669 161.910001,14.045 161.77,14.045 C159.763323,14.045 157.500013,14.4299962 154.98,15.2 C154.816666,15.9700038 154.735,17.6849867 154.735,20.345 C154.735,22.5383443 154.816666,23.763332 154.98,24.02 C155.073334,24.1600007 155.184166,24.2999993 155.3125,24.44 C155.440834,24.5800007 155.505,24.6966662 155.505,24.79 C155.505,24.9533342 155.376668,25.1341657 155.12,25.3325 C154.863332,25.5308343 154.665001,25.63 154.525,25.63 C154.501667,25.63 154.15167,25.4433352 153.475,25.07 C152.984998,23.7866602 152.74,22.0950105 152.74,19.995 C152.74,18.3383251 152.874165,15.8825163 153.1425,12.6275 C153.410835,9.37248373 153.545,6.91667495 153.545,5.26 C153.545,4.90999825 153.381668,4.7116669 153.055,4.665 C152.541664,4.5716662 152.238334,4.49000035 152.145,4.42 C151.794998,4.1866655 151.62,3.9766676 151.62,3.79 C151.62,3.5566655 151.724999,3.3233345 151.935,3.09 C152.028334,3.0433331 152.319998,3.00833345 152.81,2.985 C153.206669,2.96166655 153.474999,2.86833415 153.615,2.705 C153.661667,2.5183324 153.685,2.34333415 153.685,2.18 C153.685,1.82999825 153.918331,1.5150014 154.385,1.235 C154.758335,1.02499895 155.073332,0.92 155.33,0.92 C155.563334,0.92 155.691667,1.07166515 155.715,1.375 L155.715,2.11 C155.761667,2.27333415 155.843333,2.38999965 155.96,2.46 C157.056672,2.2266655 158.164994,1.9933345 159.285,1.76 C160.615007,1.50333205 161.734995,1.375 162.645,1.375 C163.975007,1.375 165.024996,1.841662 165.795,2.775 Z M176.68,21.535 C176.68,22.5616718 175.991674,23.4833292 174.615,24.3 C173.378327,25.0466704 172.211672,25.42 171.115,25.42 C167.988318,25.42 166.425,23.4366865 166.425,19.47 C166.425,17.7199913 166.739997,15.8416767 167.37,13.835 C168.210004,11.2216536 169.283327,9.915 170.59,9.915 C171.710006,9.915 172.934993,10.4808277 174.265,11.6125 C175.595007,12.7441723 176.26,13.8699944 176.26,14.99 C176.26,16.4366739 175.676673,17.6966613 174.51,18.77 C173.343327,19.8433387 172.025007,20.38 170.555,20.38 C170.414999,20.38 170.117502,20.2633345 169.6625,20.03 C169.207498,19.7966655 168.898334,19.68 168.735,19.68 C168.431665,19.68 168.28,19.7733324 168.28,19.96 C168.28,22.6433468 169.166658,23.985 170.94,23.985 C171.850005,23.985 172.689996,23.6816697 173.46,23.075 C173.926669,22.7249982 174.439997,22.1766704 175,21.43 C175.443336,20.8466637 175.734999,20.555 175.875,20.555 C176.411669,20.555 176.68,20.8816634 176.68,21.535 Z M174.265,15.095 C174.265,14.2783292 174.031669,13.5141702 173.565,12.8025 C173.098331,12.0908298 172.480004,11.735 171.71,11.735 C170.776662,11.735 170.018336,12.3183275 169.435,13.485 C168.944998,14.4650049 168.7,15.4799947 168.7,16.53 C168.7,17.20667 168.915831,17.7724977 169.3475,18.2275 C169.779169,18.6825023 170.33333,18.91 171.01,18.91 C171.966671,18.91 172.759997,18.5016707 173.39,17.685 C173.973336,16.9383296 174.265,16.0750049 174.265,15.095 Z M188.51,21.535 C188.51,22.5616718 187.821674,23.4833292 186.445,24.3 C185.208327,25.0466704 184.041672,25.42 182.945,25.42 C179.818318,25.42 178.255,23.4366865 178.255,19.47 C178.255,17.7199913 178.569997,15.8416767 179.2,13.835 C180.040004,11.2216536 181.113327,9.915 182.42,9.915 C183.540006,9.915 184.764993,10.4808277 186.095,11.6125 C187.425007,12.7441723 188.09,13.8699944 188.09,14.99 C188.09,16.4366739 187.506672,17.6966613 186.34,18.77 C185.173328,19.8433387 183.855007,20.38 182.385,20.38 C182.244999,20.38 181.947502,20.2633345 181.4925,20.03 C181.037498,19.7966655 180.728334,19.68 180.565,19.68 C180.261665,19.68 180.11,19.7733324 180.11,19.96 C180.11,22.6433468 180.996658,23.985 182.77,23.985 C183.680005,23.985 184.519996,23.6816697 185.29,23.075 C185.756669,22.7249982 186.269997,22.1766704 186.83,21.43 C187.273336,20.8466637 187.564999,20.555 187.705,20.555 C188.241669,20.555 188.51,20.8816634 188.51,21.535 Z M186.095,15.095 C186.095,14.2783292 185.861669,13.5141702 185.395,12.8025 C184.928331,12.0908298 184.310004,11.735 183.54,11.735 C182.606662,11.735 181.848336,12.3183275 181.265,13.485 C180.774998,14.4650049 180.53,15.4799947 180.53,16.53 C180.53,17.20667 180.745831,17.7724977 181.1775,18.2275 C181.609169,18.6825023 182.16333,18.91 182.84,18.91 C183.796671,18.91 184.589997,18.5016707 185.22,17.685 C185.803336,16.9383296 186.095,16.0750049 186.095,15.095 Z M200.83,22.935 C200.83,23.7516707 200.211673,24.4399972 198.975,25 C197.948328,25.4433355 196.956671,25.665 196,25.665 C195.369997,25.665 194.646671,25.5133349 193.83,25.21 C193.386664,25.0233324 192.675005,24.5333373 191.695,23.74 C190.621661,22.8766623 190.085,22.2816683 190.085,21.955 C190.085,21.231663 190.516662,20.9049996 191.38,20.975 L191.59,20.975 C191.636667,21.6750035 192.383326,22.4333292 193.83,23.25 C195.136673,23.9966704 196.186663,24.37 196.98,24.37 C198.006672,24.37 198.52,24.0200035 198.52,23.32 C198.52,22.8999979 197.890006,22.3166704 196.63,21.57 C194.903325,20.5666617 193.725003,19.7616697 193.095,19.155 C191.81166,17.9183271 191.17,16.4950081 191.17,14.885 C191.17,13.6716606 191.484997,12.5166721 192.115,11.42 C192.838337,10.1133268 193.748328,9.46 194.845,9.46 C195.638337,9.46 196.594994,9.82749632 197.715,10.5625 C198.835006,11.2975037 199.488332,12.0383296 199.675,12.785 C199.861668,13.4150032 199.955,14.1499958 199.955,14.99 C199.955,15.9000045 199.791668,16.8916613 199.465,17.965 C199.254999,18.1283342 199.010001,18.21 198.73,18.21 C198.566666,18.21 198.310002,18.145834 197.96,18.0175 C197.609998,17.889166 197.435,17.7550007 197.435,17.615 C197.435,17.7083338 197.563332,17.4516697 197.82,16.845 C198.006668,16.4483314 198.1,15.7250053 198.1,14.675 C198.1,12.1783209 197.318341,10.93 195.755,10.93 C194.938329,10.93 194.285002,11.4783278 193.795,12.575 C193.374998,13.4616711 193.165,14.3599954 193.165,15.27 C193.165,16.4133391 193.829993,17.5216613 195.16,18.595 C195.603336,18.9683352 196.828323,19.7733272 198.835,21.01 C200.165007,21.8266707 200.83,22.468331 200.83,22.935 Z" id="No-Monthly-Fees" stroke="#FFFFFF" fill="#FFFFFF"></path>
                    <g id="uyj" transform="translate(0.000000, 71.000000)" fill-rule="nonzero">
                        <path d="M9,18.7318697 C9,18.7318697 34.4297175,6.55306333 35.7559956,0 L37.8043014,6.01727828 L41.2608176,7.61948165 L43.124776,12.6991361 L46.3201331,16.7123722 L49.1826406,20.9883491 L52.2550994,23.4560514 L53.3202185,24.7903622 L55.5170265,29.6021241 L56.792097,31.8792106 L59.4548946,35.2175636 L61.3188529,37.5564714 L62.383972,38.8907823 C63.1433056,39.7542916 63.9667006,40.5585627 64.8470598,41.2966632 L66.0094734,44.1713561 L69,47.2624237 C69,47.2624237 46.7502774,59.7194262 44.9324059,65 L9,18.7318697 Z" id="Shape" fill="#F6F9F5"></path>
                        <path d="M58,50 C59.9291675,48.6023392 61.914253,47.245614 63.9999906,46 C64.0055824,46 61.5060523,47.6081871 58,50 Z" id="Shape" fill="#DDDDDD"></path>
                        <path d="M42.9336735,62 L42,60.7656566 C46.4183673,56.9260606 53.2244898,52.1882828 58,49 C52.6338938,52.8923467 47.5941423,57.240903 42.9336735,62 L42.9336735,62 Z" id="Shape" fill="#DDDDDD"></path>
                        <path d="M55,46 C56.9291705,44.5964912 58.9142591,43.245614 61,42 C61,42 58.5060578,43.6081871 55,46 Z" id="Shape" fill="#DDDDDD"></path>
                        <path d="M39.9132653,59 L39,57.7656566 C43.4183673,53.9260606 50.2244898,49.1935354 55,46 C49.6283201,49.8933905 44.58187,54.2418365 39.9132653,59 L39.9132653,59 Z" id="Shape" fill="#DDDDDD"></path>
                        <path d="M52,43 C53.9291676,41.5944363 55.914253,40.2415813 57.9999907,39 C58.0055825,39 55.4836852,40.6163982 52,43 Z" id="Shape" fill="#DDDDDD"></path>
                        <path d="M36.9336735,55 L36,53.7656566 C40.4234694,49.9313131 47.2244898,45.1935354 52,42 C46.6354354,45.8944095 41.5958458,50.2428261 36.9336735,55 L36.9336735,55 Z" id="Shape" fill="#DDDDDD"></path>
                        <path d="M50,39 C51.9329341,37.6002984 53.9384928,36.2415922 55.9999167,35.0000159 C56.0166762,34.9941594 53.5027447,36.6105512 50,39 Z" id="Shape" fill="#DDDDDD"></path>
                        <path d="M33.9339713,52 L33,50.7704123 C37.4248804,46.934519 44.2280702,42.1948262 49,39 C43.6354986,42.8942932 38.5960017,47.2427158 33.9339713,52 L33.9339713,52 Z" id="Shape" fill="#DDDDDD"></path>
                        <path d="M47,35 C48.9291705,33.5965132 50.9142591,32.2456572 53,31.0000627 C53,30.988367 50.528425,32.6140725 47,35 Z" id="Shape" fill="#DDDDDD"></path>
                        <path d="M31.9387755,48 L31,46.7704123 C35.4183673,42.934519 42.2244898,38.1895715 47,35 C41.6376143,38.8948354 36.5997668,43.2432213 31.9387755,48 L31.9387755,48 Z" id="Shape" fill="#DDDDDD"></path>
                        <path d="M44,32 C45.9347593,30.5964912 47.914253,29.2397661 49.9999906,28 C50.0055824,28.005848 47.5116441,29.619883 44,32 Z" id="Shape" fill="#DDDDDD"></path>
                        <path d="M28.9339713,44 L28,42.7656566 C32.4248804,38.910303 39.2382775,34.1830303 44,31 C38.6364997,34.8959957 33.5971224,39.2443151 28.9339713,44 L28.9339713,44 Z" id="Shape" fill="#DDDDDD"></path>
                        <path d="M41,28 C42.9291705,26.5944363 44.9422181,25.2474378 47,24 C47,24.011713 44.5060578,25.6222548 41,28 Z" id="Shape" fill="#DDDDDD"></path>
                        <path d="M25.9387755,41 L25,39.7656566 C29.4234694,35.9260606 36.2244898,31.1882828 41,28 C35.6366052,31.8938495 30.5986669,36.2423139 25.9387755,41 L25.9387755,41 Z" id="Shape" fill="#DDDDDD"></path>
                        <path d="M38,25 C39.9273743,23.6002928 41.9106145,22.2415813 44,21 C44,21 41.5027933,22.5988287 38,25 Z" id="Shape" fill="#DDDDDD"></path>
                        <path d="M22.9336735,37 L22,35.7704123 C26.4234694,31.9292643 33.2244898,27.1895715 38,24 C32.636643,27.8956619 27.5971649,32.2439823 22.9336735,37 L22.9336735,37 Z" id="Shape" fill="#DDDDDD"></path>
                        <path d="M35,21 C36.9329609,19.5964912 38.9106145,18.245614 41,17 C41,17 38.5027933,18.6081871 35,21 Z" id="Shape" fill="#DDDDDD"></path>
                        <path d="M19.9387755,34 L19,32.7656566 C23.4234694,28.9313131 30.2244898,24.1935354 35,21 C29.6372431,24.8947028 24.5993717,29.2431094 19.9387755,34 L19.9387755,34 Z" id="Shape" fill="#DDDDDD"></path>
                        <path d="M32,18 C33.9273743,16.6002928 35.9106145,15.2415813 38,14 C37.9832402,14 35.4916201,15.6105417 32,18 Z" id="Shape" fill="#DDDDDD"></path>
                        <path d="M16.9387755,30 L16,28.7656566 C20.4234694,24.9313131 27.2244898,20.1882828 32,17 C26.6375468,20.8951088 21.5997071,25.2434881 16.9387755,30 L16.9387755,30 Z" id="Shape" fill="#DDDDDD"></path>
                        <path d="M30,14 C31.9329609,12.6002928 33.9385475,11.2415813 36,10 C36,10 33.5027933,11.6105417 30,14 Z" id="Shape" fill="#DDDDDD"></path>
                        <path d="M13.9387755,27 L13,25.7661551 C17.4234694,21.9333603 24.2244898,17.197496 29,14 C23.6376525,17.8956134 18.5998387,22.2439703 13.9387755,27 L13.9387755,27 Z" id="Shape" fill="#DDDDDD"></path>
                        <path d="M27,10 C28.9329609,8.60029283 30.9441341,7.24158126 33,6 C33,6 30.5083799,7.61054173 27,10 Z" id="Shape" fill="#DDDDDD"></path>
                        <path d="M11.939075,23 L11,21.7656566 C15.4248804,17.9260606 22.2280702,13.1882828 27,10 C21.6357124,13.8928191 16.5977818,18.2413633 11.939075,23 L11.939075,23 Z" id="Shape" fill="#DDDDDD"></path>
                        <path d="M168.467705,218.345906 C170.234942,220.571162 170.522632,223.302392 169.073908,224.453743 L167.774167,225.486344 C166.340854,226.642857 163.741371,225.780635 161.968996,223.560542 L2.53229538,23.6592571 C0.765057584,21.4391644 0.477367711,18.7027709 1.92609172,17.5462575 L3.22583347,16.5136562 C4.66428284,15.3571427 7.25862902,16.2193648 9.03100413,18.4394576 L168.467705,218.345906 Z" id="Shape" fill="#6FC7C4"></path>
                        <path d="M165.956,220.998423 C167.731277,223.21425 168.495059,225.55404 167.664188,226.220337 L166.915888,226.819489 C166.085017,227.490952 163.969135,226.230668 162.188697,224.009675 L2.07316306,24.0119071 C0.277243314,21.7650894 -0.507181401,19.4511254 0.34433227,18.7796626 L1.09779285,18.1805112 C1.92866377,17.5090484 4.04454622,18.7693324 5.81982321,20.9903246 L165.956,220.998423 Z" id="Shape" fill="#52ABAB"></path>
                        <path d="M210,18.7303852 C210,18.7303852 184.572453,6.55254398 183.251408,0 L181.203277,6.01680139 L177.747056,7.61887779 L175.883257,12.6981297 L172.688172,16.7110477 L169.825909,20.9866857 L166.753712,23.4541924 L165.688684,24.7883975 L163.507424,29.6049295 L162.242704,31.8818355 L159.580133,35.2199239 L157.716334,37.5586464 L156.651306,38.8928515 C155.892137,39.7563884 155.068805,40.5606031 154.188428,41.2985418 L152.990271,44.1730068 L150,47.2638294 C150,47.2638294 172.247824,59.7198447 174.06554,65 L210,18.7303852 Z" id="Shape" fill="#F6F9F5"></path>
                        <path d="M161,50 C159.070829,48.6023392 157.085741,47.245614 155,46 C155,46 157.493942,47.6081871 161,50 Z" id="Shape" fill="#DDDDDD"></path>
                        <path d="M176.066327,62 L177,60.7656566 C172.581633,56.9260606 165.77551,52.1882828 161,49 C166.366062,52.8924053 171.405809,57.2409576 176.066327,62 L176.066327,62 Z" id="Shape" fill="#DDDDDD"></path>
                        <path d="M164,46 C162.070829,44.5964912 160.085741,43.245614 158,42 C158,42 160.493942,43.6081871 164,46 Z" id="Shape" fill="#DDDDDD"></path>
                        <path d="M179.066327,59 L180,57.7704123 C175.581633,53.9292643 168.77551,49.1948262 164,46 C169.364599,49.8939997 174.404207,54.2424322 179.066327,59 L179.066327,59 Z" id="Shape" fill="#DDDDDD"></path>
                        <path d="M167,43 C165.070829,41.5944363 163.057782,40.2415813 161,39 C161.016775,39 163.493942,40.6163982 167,43 Z" id="Shape" fill="#DDDDDD"></path>
                        <path d="M182.066327,55 L183,53.7656566 C178.576531,49.9313131 171.77551,45.1935354 167,42 C172.364709,45.8942157 177.404314,50.2426454 182.066327,55 Z" id="Shape" fill="#DDDDDD"></path>
                        <path d="M170,39 C168.067039,37.6002984 166.061453,36.2415922 164,35.0000159 C164,34.9941594 166.50838,36.6105512 170,39 Z" id="Shape" fill="#DDDDDD"></path>
                        <path d="M184.066029,52 L185,50.7704123 C180.57512,46.934519 173.77193,42.1948262 169,39 C174.364588,42.8941769 179.404094,47.2426073 184.066029,52 L184.066029,52 Z" id="Shape" fill="#DDDDDD"></path>
                        <path d="M173,35 C171.070829,33.5965132 169.085741,32.2456572 167,31.0000627 C167,30.988367 169.48835,32.6140725 173,35 Z" id="Shape" fill="#DDDDDD"></path>
                        <path d="M187.061224,48 L188,46.7704123 C183.581633,42.934519 176.77551,38.1895715 172,35 C177.362256,38.8950093 182.40009,43.2433836 187.061224,48 L187.061224,48 Z" id="Shape" fill="#DDDDDD"></path>
                        <path d="M176,32 C174.067039,30.5964912 172.089385,29.2397661 170,28 C170.005587,28.005848 172.49162,29.619883 176,32 Z" id="Shape" fill="#DDDDDD"></path>
                        <path d="M190.066327,44 L191,42.7656566 C186.566327,38.910303 179.765306,34.1830303 175,31 C180.363482,34.8958575 185.402959,39.2441764 190.066327,44 L190.066327,44 Z" id="Shape" fill="#DDDDDD"></path>
                        <path d="M178,28 C176.070829,26.5944363 174.085741,25.2474378 172,24 C172,24.011713 174.493942,25.6222548 178,28 Z" id="Shape" fill="#DDDDDD"></path>
                        <path d="M193.061224,41 L194,39.7656566 C189.576531,35.9260606 182.77551,31.1882828 178,28 C183.363366,31.8938884 188.401301,36.2423501 193.061224,41 Z" id="Shape" fill="#DDDDDD"></path>
                        <path d="M181,25 C179.072626,23.6002928 177.089385,22.2415813 175,21 C175.005587,21 177.497207,22.5988287 181,25 Z" id="Shape" fill="#DDDDDD"></path>
                        <path d="M196.061224,37 L197,35.7704123 C192.576531,31.9292643 185.77551,27.1895715 181,24 C186.361852,27.8955497 191.399644,32.2438875 196.061224,37 L196.061224,37 Z" id="Shape" fill="#DDDDDD"></path>
                        <path d="M184,21 C182.067087,19.5964912 180.089482,18.245614 178.000149,17 C177.977803,17 180.474948,18.6081871 184,21 Z" id="Shape" fill="#DDDDDD"></path>
                        <path d="M199.061224,34 L200,32.7656566 C195.576531,28.9313131 188.77551,24.1935354 184,21 C189.362757,24.8947028 194.400628,29.2431094 199.061224,34 L199.061224,34 Z" id="Shape" fill="#DDDDDD"></path>
                        <path d="M187,18 C185.072626,16.6002928 183.089385,15.2415813 181,14 C181,14 183.497207,15.6105417 187,18 Z" id="Shape" fill="#DDDDDD"></path>
                        <path d="M202.061224,30 L203,28.7656566 C198.576531,24.9313131 191.77551,20.1882828 187,17 C192.36254,20.8949929 197.400389,25.2433799 202.061224,30 L202.061224,30 Z" id="Shape" fill="#DDDDDD"></path>
                        <path d="M190,14 C188.067039,12.6002928 186.061453,11.2415813 184,10 C184.027933,10 186.519553,11.6105417 190,14 Z" id="Shape" fill="#DDDDDD"></path>
                        <path d="M204.061224,27 L205,25.7661551 C200.576531,21.9333603 193.77551,17.197496 189,14 C194.362275,17.8957098 199.400082,22.2440602 204.061224,27 L204.061224,27 Z" id="Shape" fill="#DDDDDD"></path>
                        <path d="M193,10 C191.067039,8.60029283 189.061453,7.24158126 187,6 C187,6 189.497207,7.61054173 193,10 Z" id="Shape" fill="#DDDDDD"></path>
                        <path d="M207.060925,23 L208,21.7656566 C203.57512,17.9260606 196.77193,13.1882828 192,10 C197.364463,13.8925846 202.402412,18.2411447 207.060925,23 L207.060925,23 Z" id="Shape" fill="#DDDDDD"></path>
                        <path d="M50.5325749,218.345906 C48.7650147,220.571162 48.4772724,223.302392 49.9262607,224.453743 L51.2262395,225.486344 C52.659813,226.642857 55.2597707,225.780635 57.0324692,223.560542 L216.467425,23.6592571 C218.234985,21.4391644 218.522728,18.7027709 217.073739,17.5462575 L215.77376,16.5136562 C214.335049,15.3571427 211.740229,16.2193648 209.967531,18.4394576 L50.5325749,218.345906 Z" id="Shape" fill="#6FC7C4"></path>
                        <path d="M53.0440407,220.998423 C51.2687282,223.21425 50.504931,225.55404 51.3358185,226.220337 L52.0892941,226.819489 C52.9201817,227.490952 55.0361064,226.230668 56.8114189,224.009675 L216.955959,24.0119071 C218.731272,21.7909149 219.495069,19.4511254 218.664182,18.7796626 L217.910706,18.1805112 C217.079818,17.5090484 214.963894,18.7693324 213.188581,20.9903246 L53.0440407,220.998423 Z" id="Shape" fill="#52ABAB"></path>
                        <ellipse id="Oval" fill="#F6F9F5" cx="188" cy="138.5" rx="7" ry="10.5"></ellipse>
                        <path d="M171.379257,150.285414 C175.559539,148.574335 182.675241,142.505434 184.186495,137.661686 C184.263338,137.429062 184.324813,137.211946 184.391411,137 L186,137 L186,141.46638 C183.382201,148.016038 178.433484,155.14467 170.385415,158.447931 L170.441767,158.380728 C168.054498,159.357749 163.571964,159.44046 161.758459,156.674819 C158.336365,150.714476 167.373153,151.5726 171.379257,150.285414 Z" id="Shape" fill="#F6F9F5"></path>
                        <path d="M120.355089,84.1477937 C120.355089,84.1477937 106.376813,92.5136122 89.0427228,82.4158682 C89.0427228,82.4158682 72.2276788,71.323298 50.720662,89.1167703 C50.720662,89.1167703 32.7339096,104.436063 43.3563717,142.40956 C43.3563717,142.40956 53.4906219,181.877873 78.081082,216.964828 C78.081082,216.964828 82.9940349,224.980137 91.2165503,222.304931 C91.2165503,222.304931 97.1881521,222.103904 96.7873045,209.877335 C96.7873045,209.877335 96.3453443,202.145525 105.523727,201.965116 C105.523727,201.965116 115.724785,200.552772 115.652838,209.274254 C115.652838,209.274254 113.597209,219.975079 118.787672,222.753376 C118.787672,222.753376 128.16134,230.804768 138.716994,216.423601 C138.716994,216.423601 167.146341,171.76982 169.705599,128.409829 C169.705599,128.409829 174.114923,87.6889627 148.804992,82.6272044 C139.591943,78.7258215 129.102596,79.2864557 120.355089,84.1477937 L120.355089,84.1477937 Z" id="Shape" fill="#F6F9F5"></path>
                        <path d="M150.953583,193.774819 C134.630135,225.031651 124.934059,220.850342 124.934059,220.850342 C114.830542,220.402344 118.657398,209.099421 118.657398,209.099421 C118.260271,196.143541 104.763127,199.037501 104.763127,199.037501 C91.797204,198.440172 93.205198,210.881112 93.205198,210.881112 C90.1364931,219.820463 84.1950678,214.295161 84.1950678,214.295161 C74.2926923,204.258989 63.4877565,181.761279 63.4877565,181.761279 C33.8786222,114.432929 55.194517,87.4861409 58.3663717,84 C55.6794638,85.5218408 53.1336427,87.2795788 50.759078,89.2523837 C50.759078,89.2523837 32.7078726,104.556388 43.3683988,142.491987 C43.3683988,142.491987 53.5389636,181.92091 78.2175401,216.972847 C78.2175401,216.972847 83.1480979,224.980157 91.4000774,222.307621 C91.4000774,222.307621 97.3930776,222.106794 96.9907936,209.892428 C96.9907936,209.892428 96.5472497,202.168334 105.758522,201.988105 C105.758522,201.988105 115.996134,200.577171 115.923929,209.289948 C115.923929,209.289948 113.860934,219.980094 119.069996,222.755618 C119.069996,222.755618 128.477253,230.798975 139.070732,216.43216 C143.44722,209.331678 147.429646,201.996464 151,194.459689 L150.953583,193.774819 Z" id="Shape" fill="#9EDCEC" opacity="0.4" style="mix-blend-mode: multiply;"></path>
                        <path d="M84,84.7889357 C84,84.7889357 93.2583732,90.5744642 104.777512,90.6796556 C104.777512,90.6796556 117.793575,91.1635362 129,84 C129,84 119.25974,93.8459176 104.393028,92.9412713 C104.393028,92.9728287 96.949419,93.6776113 84,84.7889357 Z" id="Shape" fill="#9EDCEC" opacity="0.4" style="mix-blend-mode: multiply;"></path>
                        <path d="M78.1924538,114.889325 C74.8644718,117.675146 73.3157573,125.38414 73,128.501976 C74.192861,124.2999 77.756408,119.16403 82.7333448,118.930581 C87.2892719,119.034336 90.872867,124.943181 91.9805236,129 C92.3564252,121.555582 87.2742359,108.015559 78.1924538,114.889325 Z" id="Shape" fill="#494949"></path>
                        <path d="M132.19371,111.89277 C128.864923,114.67791 127.315834,122.385022 127,125.502098 C128.188136,121.301048 131.757559,116.166431 136.730686,115.933039 C141.287715,116.036769 144.872177,121.938985 145.980102,126 C146.361108,118.557399 141.252623,105.010308 132.19371,111.89277 Z" id="Shape" fill="#494949"></path>
                        <path d="M99,139.951203 C99,139.951203 112.906855,144.748572 122,139 C121.97381,139.015509 108.145525,181.10105 99,139.951203 Z" id="Shape" fill="#494949"></path>
                        <ellipse id="Oval" fill="#D1EBEE" transform="translate(70.500000, 142.000000) rotate(-83.970000) translate(-70.500000, -142.000000) " cx="70.5" cy="142" rx="4.5" ry="9"></ellipse>
                        <ellipse id="Oval" fill="#D1EBEE" transform="translate(145.500000, 139.000000) rotate(-84.232111) translate(-145.500000, -139.000000) " cx="145.5" cy="139" rx="4.5" ry="9"></ellipse>
                        <path d="M172,58.8074341 L172.073354,54.5052828 C172.073354,54.5052828 180.419991,49.9818486 183.726161,68.0035399 L185.560011,75.0588622 C185.560011,75.0588622 193.456045,75.3161679 192.979244,110.567049 L186.131124,176.262341 C186.131124,176.262341 187.131882,180.425547 182.950704,181.82529 C182.950704,181.82529 180.173731,183.883735 181.441708,173.869398 L189.489689,104.160137 C189.489689,104.160137 191.533122,77.2871296 184.522576,80.3490674 C184.522576,80.3490674 185.350428,83.2463296 179.026265,84.9291089 L172,58.8074341 Z" id="Shape" fill="#413D3D"></path>
                        <ellipse id="Oval" fill="#C9EDFC" transform="translate(174.500000, 70.500000) rotate(-7.560000) translate(-174.500000, -70.500000) " cx="174.5" cy="70.5" rx="6.5" ry="16.5"></ellipse>
                        <path d="M20.7119522,97.8651381 C20.7119522,97.8651381 26.2087158,166.424944 26.2087158,176.219202 C26.2087158,176.219202 26.6676199,183.215834 31.2516182,181.814454 C31.2516182,181.814454 34,183.215834 34,175.284949 L24.8420893,96.4637584 C24.8420893,96.4637584 25.3009934,89.9342531 21.9424204,89 C21.9323346,89.0051333 18.5737616,89.0051333 20.7119522,97.8651381 Z" id="Shape" fill="#413D3D"></path>
                        <path d="M20.9220999,89 C20.9220999,89 18.61558,82.8050314 17,80.9025157 C17,80.9025157 17.6909399,75.6614256 29,74 C29,74 20.6934801,75.6666667 18.3818798,80.6666667 C18.3818798,80.6666667 21.765453,85.9077568 21.938188,88.5283019 L20.9220999,89 Z" id="Shape" fill="#413D3D"></path>
                        <ellipse id="Oval" fill="#F6F9F5" cx="26" cy="143.5" rx="7" ry="10.5"></ellipse>
                        <path d="M43.6376688,155.285414 C39.4584043,153.574335 32.3444359,147.505434 30.8335498,142.661686 C30.7618468,142.429062 30.6952653,142.211946 30.6286839,142 L29,142 L29,146.46638 C31.6171619,153.016038 36.5646735,160.14984 44.6107818,163.447931 L44.5544437,163.380728 C46.9411314,164.357749 51.4225731,164.44046 53.2356363,161.674819 C56.6722618,155.719645 47.6376755,156.577769 43.6376688,155.285414 Z" id="Shape" fill="#F6F9F5"></path>
                        <path d="M23.6832702,134 C20.9328641,135.52 19,139.1376 19,143.348 C19,147.872533 21.2360585,151.702933 24.3167298,153 C27.0671359,151.48 29,147.8624 29,143.652 C29,139.127467 26.7639415,135.297067 23.6832702,134 Z" id="Shape" fill="#F6F9F5"></path>
                        <path d="M191.31673,129 C194.067136,130.520405 196,134.13897 196,138.345425 C196,142.871166 193.763942,146.702587 190.68327,148 C187.932864,146.479595 186,142.86103 186,138.649507 C186,134.128834 188.230644,130.297413 191.31673,129 Z" id="Shape" fill="#F6F9F5"></path>
                    </g>
                </g>
            </g>
        </g>
    </g>
</svg>