<?xml version="1.0" encoding="UTF-8"?>
<svg width="210px" height="160px" viewBox="0 0 210 160" version="1.1" xmlns="http://www.w3.org/2000/svg" xmlns:xlink="http://www.w3.org/1999/xlink">
    <!-- Generator: Sketch 45.2 (43514) - http://www.bohemiancoding.com/sketch -->
    <title>tutorial_graphic</title>
    <desc>Created with Sketch.</desc>
    <defs>
        <linearGradient x1="50%" y1="0%" x2="50%" y2="100%" id="linearGradient-1">
            <stop stop-color="#FC8B60" offset="49%"></stop>
            <stop stop-color="#FA855A" offset="63%"></stop>
            <stop stop-color="#F67448" offset="83%"></stop>
            <stop stop-color="#F16034" offset="100%"></stop>
        </linearGradient>
        <linearGradient x1="284%" y1="16891%" x2="284%" y2="17666%" id="linearGradient-2">
            <stop stop-color="#FC8B60" offset="49%"></stop>
            <stop stop-color="#FA855A" offset="63%"></stop>
            <stop stop-color="#F67448" offset="83%"></stop>
            <stop stop-color="#F16034" offset="100%"></stop>
        </linearGradient>
        <linearGradient x1="50%" y1="0%" x2="50%" y2="100%" id="linearGradient-3">
            <stop stop-color="#FCBF60" offset="40%"></stop>
            <stop stop-color="#EAA327" offset="100%"></stop>
        </linearGradient>
        <linearGradient x1="12997%" y1="5349%" x2="12997%" y2="6154%" id="linearGradient-4">
            <stop stop-color="#FCBF60" offset="40%"></stop>
            <stop stop-color="#EAA327" offset="100%"></stop>
        </linearGradient>
        <linearGradient x1="12609%" y1="441%" x2="12609%" y2="1231%" id="linearGradient-5">
            <stop stop-color="#FCBF60" offset="40%"></stop>
            <stop stop-color="#EAA327" offset="100%"></stop>
        </linearGradient>
        <linearGradient x1="11462%" y1="18371%" x2="11462%" y2="19584%" id="linearGradient-6">
            <stop stop-color="#FCBF60" offset="40%"></stop>
            <stop stop-color="#EAA327" offset="100%"></stop>
        </linearGradient>
        <linearGradient x1="50.0891266%" y1="0%" x2="50.0891266%" y2="100%" id="linearGradient-7">
            <stop stop-color="#9DBF9F" offset="57%"></stop>
            <stop stop-color="#72A376" offset="89%"></stop>
        </linearGradient>
        <linearGradient x1="8614%" y1="11043%" x2="8614%" y2="12084%" id="linearGradient-8">
            <stop stop-color="#FCBF60" offset="40%"></stop>
            <stop stop-color="#EAA327" offset="100%"></stop>
        </linearGradient>
        <linearGradient x1="5123%" y1="10242%" x2="5123%" y2="11043%" id="linearGradient-9">
            <stop stop-color="#FCBF60" offset="40%"></stop>
            <stop stop-color="#EAA327" offset="100%"></stop>
        </linearGradient>
        <linearGradient x1="3398%" y1="11701%" x2="3398%" y2="12397%" id="linearGradient-10">
            <stop stop-color="#FCBF60" offset="40%"></stop>
            <stop stop-color="#EAA327" offset="100%"></stop>
        </linearGradient>
    </defs>
    <g id="Tour" stroke="none" stroke-width="1" fill="none" fill-rule="evenodd">
        <g id="tour_1" transform="translate(-615.000000, -236.000000)" fill-rule="nonzero">
            <g id="Group-11" transform="translate(440.000000, 196.000000)">
                <g id="tutorial_graphic" transform="translate(175.000000, 40.000000)">
                    <path d="M182.969725,98.313253 C184.566808,101.794914 185.118985,105.665723 184.559174,109.455422 C183.066055,119.026506 174.772018,123.440964 174.107339,123.778313 C169.579817,126.091566 162.894495,127.257831 157.731193,124.453012 C153.93578,122.380723 153.93578,119.759036 148.194495,116.501205 C145.930219,115.045484 143.36985,114.113607 140.7,113.773494 C137.110047,113.479542 133.521359,114.355251 130.469725,116.26988 L129.56422,108.771084 C132.964679,107.171084 137.790826,105.638554 142.279817,107.40241 C144.620642,108.366265 145.015596,109.416867 149.774312,113.310843 C155.438532,117.966265 158.280275,120.289157 161.333945,120.587952 C167.393119,121.175904 172.228899,115.691566 172.893578,114.901205 C177.276819,109.826296 178.499787,102.743842 176.072477,96.4915663 C174.954631,93.7395292 173.158425,91.3155798 170.851376,89.4457831 L182.969725,98.313253 Z" id="_Path_2371" fill="#F19F84"></path>
                    <path d="M104.373853,60.0385542 C96.1376147,60.2409639 91.9761468,52.1253012 92.4770642,47.7975904 C93.2958716,40.7325301 98.362844,37.8024096 104.58578,40.1445783 C107.013303,41.060241 109.2,44.7614458 110.172936,49.9759036 C110.677174,52.7797383 110.826055,55.6360019 110.616055,58.4771084 C110.023548,66.5549529 107.038746,74.2729097 102.042661,80.6457831 L93.9412844,74.4 C93.9412844,74.4 100.376147,69.4939759 103.169725,63.7975904 C103.739516,62.6049745 104.144602,61.3403803 104.373853,60.0385542 L104.373853,60.0385542 Z M104.518349,52.5783133 C104.330382,50.3986834 103.735708,48.2736281 102.765138,46.313253 C101.561009,44.3855422 95.4440367,42.5445783 95.8389908,48.4144578 C96.0412844,51.3060241 98.4688073,52.3951807 100.857798,52.7036145 C102.073206,52.8589066 103.305561,52.8198651 104.508716,52.5879518 L104.518349,52.5783133 Z" id="_Compound_Path_" fill="#C2E4E1"></path>
                    <polygon id="_Path_2374" fill="#F19F84" points="203.497706 127.219277 201.224312 136.693976 194.317431 139.171084 196.542661 127.816867"></polygon>
                    <polygon id="_Path_2375" fill="#333333" points="198.286239 73.3590361 197.766055 80.6746988 188.277523 74.0626506 190.541284 67.4506024"></polygon>
                    <polygon id="_Path_2376" fill="#F19F84" points="188.277523 110.024096 191.947706 113.754217 186.466514 117.493976"></polygon>
                    <polygon id="_Path_2377" fill="url(#linearGradient-1)" points="97.3706422 138.987952 101.031193 142.718072 95.559633 146.457831"></polygon>
                    <polygon id="_Path_2378" fill="#333333" points="72.3055046 85.5228916 75.9756881 89.253012 70.4944954 92.9927711"></polygon>
                    <polygon id="_Path_2379" fill="url(#linearGradient-2)" points="38.4165138 120.395181 42.0866972 124.125301 36.6055046 127.86506"></polygon>
                    <polygon id="_Path_2380" fill="url(#linearGradient-3)" points="159.628899 62.0240964 164.233486 72.6361446 158.848624 77.0795181 155.351835 67.9903614"></polygon>
                    <polygon id="_Path_2381" fill="url(#linearGradient-4)" points="134.785321 12.1012048 135.536697 18.9445783 130.055505 19.860241 129.015138 13.5180723"></polygon>
                    <polygon id="_Path_2382" fill="url(#linearGradient-5)" points="128.793578 39.1759036 126.693578 45.7301205 121.308716 44.3325301 122.94633 38.1253012"></polygon>
                    <polygon id="_Path_2383" fill="#84BFBB" points="157.577064 96.2891566 154.359633 102.496386 147.587615 95.4891566 149.186697 88.3277108"></polygon>
                    <polygon id="_Path_2384" fill="url(#linearGradient-6)" points="151.768349 134.660241 149.234862 145.946988 142.270183 146.351807 144.80367 136.954217"></polygon>
                    <polygon id="_Path_2385" fill="#84BFBB" points="132.280734 68.346988 130.83578 74.7662651 126.876606 74.9975904 128.311927 69.6481928"></polygon>
                    <polygon id="_Path_2386" fill="url(#linearGradient-7)" points="91.9376147 153.224096 90.4926606 159.643373 86.5334862 159.874699 87.9784404 154.525301"></polygon>
                    <polygon id="_Path_2387" fill="#333333" points="129.583486 101.224096 124.352752 110.024096 121.308716 104.13494"></polygon>
                    <polygon id="_Path_2388" fill="#333333" points="129.101835 128.751807 129.583486 134.660241 122.657339 135.720482 122.657339 129.860241"></polygon>
                    <polygon id="_Path_2389" fill="url(#linearGradient-8)" points="126.53945 65.3301205 118.958257 74.0626506 112.629358 71.113253 119.314679 64.0289157"></polygon>
                    <polygon id="_Path_2390" fill="#333333" points="105.780275 18.1204819 103.680275 24.6746988 98.2954128 23.2674699 99.9426606 17.060241"></polygon>
                    <polygon id="_Path_2391" fill="#F19F84" points="89.0284404 74.9975904 90.4541284 80.6361446 82.6610092 80.6361446 85.4738532 77.0795181"></polygon>
                    <polygon id="_Path_2392" fill="url(#linearGradient-9)" points="89.240367 60.0385542 84.3082569 64.0289157 82.6610092 56.3084337"></polygon>
                    <polygon id="_Path_2393" fill="#84BFBB" points="27.7142202 44.4433735 25.6142202 50.9975904 20.2293578 49.5903614 21.8669725 43.373494"></polygon>
                    <polygon id="_Path_2394" fill="#84BFBB" points="71.5926606 29.9566265 76.3513761 35.2385542 70.7642202 35.2385542"></polygon>
                    <polygon id="_Path_2395" fill="#F19F84" points="40.1215596 72.1927711 44.8802752 77.4746988 39.2931193 77.4746988"></polygon>
                    <polygon id="_Path_2396" fill="url(#linearGradient-10)" points="73.2302752 72.8096386 73.2302752 77.0795181 65.446789 77.0795181 69.3481651 70.3807229"></polygon>
                    <path d="M107.889908,95.4216867 C116.405505,103.93253 120.692202,113.445783 117.522936,116.626506 L116.838991,117.137349 C115.495198,117.767555 113.968253,117.887451 112.542661,117.474699 L112.542661,117.474699 C111.579358,113.06988 107.803211,106.872289 102.110092,101.204819 C96.4169725,95.5373494 90.2614679,91.6915663 85.8495413,90.7662651 L85.8495413,90.7662651 C85.4370259,89.3398548 85.5568535,87.8120337 86.1866972,86.4674699 L86.6972477,85.7831325 C89.8472477,82.5831325 99.3550459,86.8819277 107.889908,95.4216867 Z" id="_Compound_Path_2" fill="#BDCDD5"></path>
                    <path d="M116.77156,117.156627 L112.610092,120.289157 L109.325229,122.756627 L105.73211,125.46506 C104.874236,125.38312 104.02187,125.251169 103.179358,125.06988 C102.06062,124.823714 100.959914,124.501685 99.8848624,124.106024 C97.7344233,123.318024 95.6767355,122.296671 93.7486239,121.060241 C92.6085111,120.333396 91.5087239,119.545084 90.4541284,118.698795 C89.3683006,117.822779 88.3296851,116.889741 87.3426606,115.903614 C86.2686435,114.826374 85.2586546,113.687071 84.3178899,112.491566 C83.0832825,110.92362 81.9843584,109.253329 81.0330275,107.498795 C79.3014614,104.42089 78.2102973,101.02421 77.8252294,97.513253 L81.0330275,93.253012 L84.3178899,88.8674699 L86.1288991,86.4674699 C85.4990553,87.8120337 85.3792278,89.3398548 85.7917431,90.7662651 C86.7550459,95.1710843 90.5311927,101.368675 96.233945,107.036145 C101.936697,112.703614 108.082569,116.559036 112.494495,117.484337 C113.912979,117.895255 115.432145,117.778855 116.77156,117.156627 Z" id="_Path_2397" fill="#A4E0FF"></path>
                    <path d="M112.475229,117.493976 L112.475229,117.493976 C108.072936,116.53012 101.878899,112.751807 96.2146789,107.045783 C90.5504587,101.339759 86.6972477,95.1903614 85.733945,90.7855422 L85.733945,90.7855422 C90.1362385,91.7493976 96.3302752,95.5180723 101.994495,101.224096 C107.658716,106.93012 111.550459,113.089157 112.475229,117.493976 Z" id="_Path_2398" fill="#055D73"></path>
                    <path d="M105.722477,125.46506 L103.169725,127.392771 L103.169725,125.079518 C104.012429,125.257569 104.864793,125.386302 105.722477,125.46506 Z" id="_Path_2399" fill="#18ADD2"></path>
                    <path d="M103.179358,125.06988 L103.179358,127.383133 L99.8848624,129.860241 L99.8848624,124.13494 C100.960624,124.5208 102.061319,124.833165 103.179358,125.06988 Z" id="_Path_2400" fill="#FFFFFF"></path>
                    <path d="M99.8848624,124.13494 L99.8848624,129.860241 L93.7486239,134.477108 L93.7486239,121.089157 C95.6767355,122.325586 97.7344233,123.34694 99.8848624,124.13494 L99.8848624,124.13494 Z" id="_Path_2401" fill="#18ADD2"></path>
                    <path d="M93.7486239,121.089157 L93.7486239,134.477108 L90.4541284,136.954217 L90.4541284,118.727711 C91.5087239,119.574 92.6085111,120.362311 93.7486239,121.089157 L93.7486239,121.089157 Z" id="_Path_2402" fill="#FFFFFF"></path>
                    <path d="M90.4541284,118.727711 L90.4541284,136.954217 L84.3082569,141.571084 L84.3082569,112.520482 C85.2490216,113.715986 86.2590104,114.855289 87.3330275,115.93253 C88.3231735,116.918919 89.3650096,117.851962 90.4541284,118.727711 L90.4541284,118.727711 Z" id="_Path_2403" fill="#18ADD2"></path>
                    <path d="M84.3082569,112.520482 L84.3082569,141.571084 L81.0233945,144.038554 L81.0233945,107.527711 C81.9747254,109.282245 83.0736495,110.952536 84.3082569,112.520482 L84.3082569,112.520482 Z" id="_Path_2404" fill="#FFFFFF"></path>
                    <path d="M81.0233945,107.527711 L81.0233945,144.048193 L74.8775229,148.66506 L74.8775229,101.436145 L77.7674312,97.5228916 C78.1648403,101.043948 79.2725319,104.447627 81.0233945,107.527711 Z" id="_Path_2405" fill="#18ADD2"></path>
                    <path d="M74.8775229,101.455422 L74.8775229,148.684337 L71.9009174,150.93012 C71.8045872,151.007229 71.6986239,151.074699 71.5926606,151.142169 L71.5926606,105.840964 L74.8775229,101.455422 Z" id="_Path_2406" fill="#FFFFFF"></path>
                    <path d="M71.5926606,105.831325 L71.5926606,151.13253 C69.7945378,152.357206 67.5817286,152.811821 65.446789,152.395181 L65.446789,114.004819 L71.5926606,105.831325 Z" id="_Path_2407" fill="#18ADD2"></path>
                    <path d="M65.446789,114.004819 L65.446789,152.385542 C64.2573875,152.156008 63.1347628,151.661901 62.1619266,150.939759 L62.1619266,118.380723 L65.446789,114.004819 Z" id="_Path_2408" fill="#FFFFFF"></path>
                    <path d="M62.1619266,118.380723 L62.1619266,150.939759 C61.8226182,150.702851 61.5006945,150.441943 61.1986239,150.159036 L57.1431193,146.110843 L55.9678899,144.93494 L55.9678899,126.563855 L62.1619266,118.380723 Z" id="_Path_2409" fill="#18ADD2"></path>
                    <path d="M56.016055,126.563855 L56.016055,144.925301 L53.1261468,142.033735 C52.9816514,141.889157 52.837156,141.725301 52.7022936,141.571084 L52.7022936,130.939759 L56.016055,126.563855 Z" id="_Path_2410" fill="#FFFFFF"></path>
                    <path d="M52.7215596,130.939759 L52.7215596,141.590361 C50.2328571,138.68609 50.0966483,134.441154 52.3940367,131.383133 L52.7215596,130.939759 Z" id="_Path_2411" fill="#18ADD2"></path>
                    <g id="Group-14" transform="translate(151.768349, 0.414458)" fill="#C2E4E1">
                        <path d="M31.0742823,30.8808048 C31.0742823,30.8808048 55.7059595,12.8326084 57.6949674,16.566718 C59.7270808,20.450192 31.0742823,30.8808048 31.0742823,30.8808048 Z" id="_Path_2424"></path>
                        <path d="M31.0742823,29.6455726 C31.0742823,29.6455726 39.1182388,7.33902257 42.8906205,9.39855884 C46.7577858,11.5069862 31.0742823,29.6455726 31.0742823,29.6455726 Z" id="_Path_2425"></path>
                        <path d="M29.637944,30.2631887 C29.637944,30.2631887 26.6720132,-0.154065773 30.7116109,0.000587747742 C34.8698459,0.192358113 29.637944,30.2631887 29.637944,30.2631887 Z" id="_Path_2426"></path>
                        <path d="M29.2098254,30.8808048 C29.2098254,30.8808048 14.8096186,11.8264329 18.6853854,9.99310658 C22.6682872,8.10478045 29.2098254,30.8808048 29.2098254,30.8808048 Z" id="_Path_2427"></path>
                        <path d="M27.3453685,31.4984209 C27.3453685,31.4984209 0.185938384,17.4292004 2.64316121,13.972192 C5.10038403,10.5151835 27.3453685,31.4984209 27.3453685,31.4984209 Z" id="_Path_2428"></path>
                        <path d="M26.7238828,31.7016413 C26.7238828,31.7016413 2.89753266,34.6352337 3.10882528,30.610345 C3.3201179,26.4974484 26.7238828,31.7016413 26.7238828,31.7016413 Z" id="_Path_2429"></path>
                        <path d="M27.9668541,32.7336531 C27.9668541,32.7336531 1.86487798,48.9255434 0.0805020598,45.1260904 C-1.74143967,41.2290592 27.9668541,32.7336531 27.9668541,32.7336531 Z" id="_Path_2430"></path>
                        <path d="M28.5883397,33.3512692 C28.5883397,33.3512692 17.5063206,54.8709061 14.1032303,52.2810428 C10.7001401,49.6911796 28.5883397,33.3512692 28.5883397,33.3512692 Z" id="_Path_2431"></path>
                        <path d="M29.7838876,33.3512692 C29.7838876,33.3512692 36.4778744,63.3084561 32.0411622,63.6121181 C27.5006672,63.9219773 29.7838876,33.3512692 29.7838876,33.3512692 Z" id="_Path_2432"></path>
                        <path d="M30.4527967,34.5865013 C30.4527967,34.5865013 47.6696853,50.9863225 44.3129718,53.5241685 C40.9562584,56.0620144 30.4527967,34.5865013 30.4527967,34.5865013 Z" id="_Path_2433"></path>
                        <path d="M30.4527967,33.3512692 C30.4527967,33.3512692 59.5714671,42.6391233 57.7128286,46.3736651 C55.7984309,50.1991455 30.4527967,33.3512692 30.4527967,33.3512692 Z" id="_Path_2434"></path>
                        <path d="M30.4527967,32.0927082 C30.4527967,32.0927082 53.9191507,27.1954232 54.0683013,31.256731 C54.2423103,35.4188304 30.4527967,32.0927082 30.4527967,32.0927082 Z" id="_Path_2435"></path>
                    </g>
                    <path d="M36.9157858,89.2946884 C30.2497308,83.7621583 29.1226665,74.836857 30.4712904,66.8464956 C28.3407602,68.6002024 25.9692372,70.0382153 23.4295473,71.1163751 L23.2946849,71.1742064 C16.667162,73.7477004 11.3111987,71.8681823 8.21899682,65.8537245 C4.20202435,58.0561342 8.35385921,48.1380619 13.9988133,40.4272185 C13.1511069,40.5717968 12.3130335,40.6778209 11.4942262,40.7356522 C6.25385921,41.1597486 2.44881334,40.070592 1.03275829,37.7477004 C0.348813338,36.6199896 -0.0750398734,34.6633631 1.76486838,31.723604 L3.37358398,32.6874595 C2.31395095,34.383845 2.07312526,35.7332426 2.66073994,36.7067366 C3.6240427,38.3356522 6.97633627,39.1356522 11.3304647,38.7886643 C12.8372317,38.6618654 14.3317287,38.4169366 15.8001895,38.0561342 C17.5877013,35.8729224 19.553158,33.8418599 21.6763363,31.983845 C26.2231253,28.0513149 27.3983546,28.8995076 27.8414739,29.2175799 C28.939639,30.0079414 28.2845932,31.636857 28.0630335,32.1669775 C26.6084464,35.7525197 21.9556941,38.383845 16.9176207,39.7332426 C15.7278223,41.2180939 14.6184324,42.7656959 13.5942262,44.3693872 C10.6368867,49.0055317 6.22496013,57.8633631 9.86624453,64.9187848 C12.5249601,70.0946884 16.8020243,71.5790257 22.5625748,69.3428811 L22.6878042,69.2946884 C25.8061407,68.0027957 28.6675267,66.1615783 31.1359693,63.8585438 C31.531262,62.2747774 32.0234745,60.7168197 32.6098225,59.1934836 C33.4093638,57.1211944 35.4997308,52.3019173 37.676795,52.4464956 C38.4373621,52.5077331 39.0577923,53.0807664 39.1795473,53.8344474 C39.9116574,56.3790257 37.0217491,60.8995076 32.8891803,64.8223992 C32.7607399,65.3814354 32.6419326,65.9533229 32.5327583,66.5380619 C31.5694555,71.9260137 30.9336757,81.8537245 38.1777124,87.8681823 L36.9157858,89.2946884 Z M37.3492721,54.4898691 C36.5786299,55.1645679 35.1914739,57.4778209 34.0066115,60.8320378 C36.2222078,58.2007125 37.5226665,55.723604 37.3492721,54.4898691 Z M26.463951,31.0007125 C25.2116574,31.4826402 22.3988133,33.6416763 19.2969785,37.0151703 C22.6011069,35.7332426 25.3561528,33.844086 26.3001895,31.5019173 C26.3705958,31.3318761 26.4316954,31.1581249 26.483217,30.9814354 L26.463951,31.0007125 Z" id="_Compound_Path_4" fill="#F19F84"></path>
                </g>
            </g>
        </g>
    </g>
</svg>