<?xml version="1.0" encoding="UTF-8"?>
<svg width="140px" height="140px" viewBox="0 0 140 140" version="1.1" xmlns="http://www.w3.org/2000/svg" xmlns:xlink="http://www.w3.org/1999/xlink">
    <!-- Generator: Sketch 44.1 (41455) - http://www.bohemiancoding.com/sketch -->
    <title>doctors</title>
    <desc>Created with Sketch.</desc>
    <defs></defs>
    <g id="PDP" stroke="none" stroke-width="1" fill="none" fill-rule="evenodd">
        <g id="doctors">
            <g>
                <rect id="Rectangle-16" x="0" y="0" width="140" height="140"></rect>
                <g id="Page-1" transform="translate(10.000000, 10.000000)">
                    <polygon id="Stroke-1" points="0 0 120.000002 0 120.000002 120.000002 0 120.000002"></polygon>
                    <path d="M80.625,75 L39.375,75 C27.9843752,75 18.75,84.2343735 18.75,95.625 L18.75,118.125 L82.5,118.125 C93.8906263,118.125 91.2899994,118.125 101.25,118.125 L101.25,95.625 C101.25,84.2343735 92.0156263,75 80.625,75 Z" id="Fill-2" fill="#C2CDDC"></path>
                    <path d="M76.875,48.75 L76.875,30 C76.875,20.6793737 69.3206261,13.125 60,13.125 C50.6793737,13.125 43.125,20.6793737 43.125,30 L43.125,48.75 C43.125,54.5999979 46.1043763,59.7506259 50.625,62.778747 L50.625,75 L45,75 L60,90 L75,75 L69.375,75 L69.375,62.778747 C73.8956235,59.7506259 76.875,54.6000015 76.875,48.75 Z" id="Fill-3" fill="#E6ECF3"></path>
                    <path d="M43.125,30 C43.125,29.38125 43.1643748,28.7718754 43.2281256,28.1700002 L43.125,28.125 L43.125,30 Z M60,13.125 C51.2981271,13.125 44.1412496,19.7118757 43.2281256,28.1700002 L60,35.625 L60,30 L76.875,39.375 L76.875,30 C76.875,20.6793754 69.3206261,13.125 60,13.125 Z" id="Fill-4" fill="#C2CDDC"></path>
                    <polygon id="Path" fill="#FFFFFF" points="37.5 110.625 52.5 110.625 52.5 97.5 37.5 97.5"></polygon>
                    <path d="M60,1.875 C46.0668754,1.875 43.125,11.25 43.125,11.25 L43.125,28.125 L76.875,28.125 L76.875,11.25 C76.875,11.25 74.2537521,1.875 60,1.875 Z" id="Fill-6" fill="#FFFFFF"></path>
                    <path d="M63.75,14.75 L61.25,14.75 L61.25,12.25 C61.25,11.55875 60.6912517,11 60,11 C59.3087481,11 58.75,11.55875 58.75,12.25 L58.75,14.75 L56.25,14.75 C55.5587506,14.75 55,15.30875 55,16 C55,16.6912494 55.5587506,17.25 56.25,17.25 L58.75,17.25 L58.75,19.75 C58.75,20.4412505 59.3087506,21 60,21 C60.6912517,21 61.25,20.4412505 61.25,19.75 L61.25,17.25 L63.75,17.25 C64.4412517,17.25 65,16.6912506 65,16 C65,15.3087494 64.4412517,14.75 63.75,14.75 Z" id="Fill-7" fill="#C2CDDC"></path>
                </g>
            </g>
        </g>
    </g>
</svg>