<?xml version="1.0" encoding="UTF-8"?>
<svg width="140px" height="140px" viewBox="0 0 140 140" version="1.1" xmlns="http://www.w3.org/2000/svg" xmlns:xlink="http://www.w3.org/1999/xlink">
    <!-- Generator: Sketch 44.1 (41455) - http://www.bohemiancoding.com/sketch -->
    <title>patients</title>
    <desc>Created with Sketch.</desc>
    <defs></defs>
    <g id="PDP" stroke="none" stroke-width="1" fill="none" fill-rule="evenodd">
        <g id="patients">
            <g>
                <rect id="Rectangle-16" x="0" y="0" width="140" height="140"></rect>
                <g id="Page-1" transform="translate(10.000000, 10.000000)">
                    <polygon id="Stroke-1" points="0 0 120.000002 0 120.000002 120.000002 0 120.000002"></polygon>
                    <path d="M33.75,69.375 L15,69.375 C7.75124966,69.375 1.875,75.2512478 1.875,82.5 L1.875,91.875 C21.4068746,91.875 9.62624966,91.875 16.875,91.875 L30.5062507,91.875 C30.4800009,91.875 31.3312517,91.875 33.75,91.875 L46.875,91.875 L46.875,82.5 C46.875,75.2512478 40.9987485,69.375 33.75,69.375 Z M105,69.375 L86.25,69.375 C79.0012478,69.375 73.125,75.2512478 73.125,82.5 L73.125,91.875 C92.6568746,91.875 80.8762478,91.875 88.125,91.875 L101.756251,91.875 C101.730001,91.875 102.581248,91.875 105,91.875 L118.125,91.875 L118.125,82.5 C118.125,75.2512478 112.248752,69.375 105,69.375 Z" id="Fill-2" fill="#FFFFFF"></path>
                    <path d="M24.375,28.125 C18.1631255,28.125 13.125,33.1631254 13.125,39.375 L13.125,50.625 C13.125,54.7856246 15.3900003,58.4118746 18.75,60.3562474 L18.75,69.375 L15,69.375 L15,71.25 C15,76.4287519 19.1962498,80.625 24.375,80.625 C29.55375,80.625 33.75,76.4287519 33.75,71.25 L33.75,69.375 L30,69.375 L30,60.3562474 C33.3599996,58.4099972 35.625,54.7856211 35.625,50.6249963 L35.625,39.3749963 C35.625,33.1631254 30.5868744,28.125 24.375,28.125 Z M106.875,50.625 L106.875,39.375 C106.875,33.1631254 101.836874,28.125 95.625,28.125 C89.4131254,28.125 84.375,33.1631254 84.375,39.375 L84.375,50.625 C84.375,54.7856246 86.6400002,58.4118746 90,60.3562474 L90,69.375 L86.25,69.375 L86.25,71.25 C86.25,76.4287519 90.4462479,80.625 95.625,80.625 C100.803752,80.625 105,76.4287519 105,71.25 L105,69.375 L101.25,69.375 L101.25,60.3562474 C104.61,58.4118746 106.875,54.7856246 106.875,50.625 Z" id="Fill-3" fill="#E6ECF3"></path>
                    <path d="M24.375,28.125 C18.7762498,28.125 14.1431254,32.2218739 13.2806253,37.5787496 L24.375,43.125 L24.375,39.375 L35.625,46.875 L35.625,39.375 C35.625,33.1631254 30.5868744,28.125 24.375,28.125 Z M13.125,39.375 C13.125,38.7618756 13.186875,38.16375 13.2806253,37.5787496 L13.125,37.5 L13.125,39.375 Z M95.625,28.125 C90.0262498,28.125 85.3931235,32.2218739 84.5324993,37.5787496 L95.625,43.125 L95.625,39.375 L106.875,46.875 L106.875,39.375 C106.875,33.1631254 101.836874,28.125 95.625,28.125 Z M84.375,39.375 C84.375,38.7618756 84.4368767,38.16375 84.5324993,37.5787496 L84.375,37.5 L84.375,39.375 Z" id="Fill-4" fill="#C2CDDC"></path>
                    <path d="M73.125,75 L46.875,75 C35.4843735,75 26.25,84.2343735 26.25,95.625 L26.25,106.875 L75,106.875 C86.3906263,106.875 83.7899994,106.875 93.75,106.875 L93.75,95.625 C93.75,84.2343735 84.5156263,75 73.125,75 Z" id="Fill-6" fill="#C2CDDC"></path>
                    <path d="M76.875,48.75 L76.875,30 C76.875,20.6793737 69.3206261,13.125 60,13.125 C50.6793737,13.125 43.125,20.6793737 43.125,30 L43.125,48.75 C43.125,54.5999979 46.1043763,59.7525 50.625,62.778747 L50.625,75 L46.875,75 L46.875,76.875 C46.875,84.1237521 52.7512513,90 60,90 C67.2487449,90 73.125,84.1237521 73.125,76.875 L73.125,75 L69.375,75 L69.375,62.778747 C73.8956235,59.7525 76.875,54.6000015 76.875,48.75 Z" id="Fill-7" fill="#E6ECF3"></path>
                    <path d="M43.125,30 C43.125,29.38125 43.1643748,28.7718754 43.2281256,28.1700002 L43.125,28.125 L43.125,30 Z M60,13.125 C51.2981271,13.125 44.1412496,19.7118757 43.2281256,28.1700002 L60,35.625 L60,30 L76.875,39.375 L76.875,30 C76.875,20.6793754 69.3206261,13.125 60,13.125 Z" id="Fill-8" fill="#C2CDDC"></path>
                </g>
            </g>
        </g>
    </g>
</svg>